<?xml version="1.0" encoding="utf-8"?>
<!-- Generator: Adobe Illustrator 23.1.0, SVG Export Plug-In . SVG Version: 6.00 Build 0)  -->
<svg version="1.1" id="Слой_1" xmlns="http://www.w3.org/2000/svg" xmlns:xlink="http://www.w3.org/1999/xlink" x="0px" y="0px"
	 viewBox="0 0 65 81.3" style="enable-background:new 0 0 65 81.3;" xml:space="preserve">
<g>
	<g>
		<g>
			<g>
				<g>
					<path d="M3.1,35.6c0-0.3,0.2-0.4,0.5-0.4h0c9.7,0,19.3,0,29,0C60.8,35,62.2,34.7,62,35.6C55,71.6,0,61.6,3.1,35.6z M4,36.1
						C1.9,60.4,53.5,69.9,60.9,36c-9.5,0-18.9,0-28.4,0C23.1,36.1,13.6,36.1,4,36.1z"/>
				</g>
				<g>
					<path d="M4.1,41.1c-0.3,0-0.5-0.2-0.5-0.5c0-0.3,0.2-0.5,0.5-0.5C63.8,39.2,61,38.9,61,39.7c0,0.3-0.2,0.5-0.5,0.5L4.1,41.1
						C4.1,41.1,4.1,41.1,4.1,41.1z"/>
				</g>
				<g>
					<path d="M38.8,64.5c-17.4,0-17.5-0.2-18.5-1.1c-1.9-1.8-0.3-4.9,1.6-6.6c0.5-0.4,1.2,0.3,0.7,0.7c-0.8,0.7-1.4,1.6-1.9,2.6
						c-0.4,0.8-0.4,2,0.3,2.6c1,0.9,2.5,0.6,17.2,0.8c1.5,0,3.9,0.1,5.1-1.5c1-1.3,0.7-3.7-1.4-4.2c-0.3-0.1-0.4-0.3-0.4-0.6
						c0.1-0.3,0.3-0.4,0.6-0.4c2.8,0.7,3.5,3.9,2,5.8C42.7,64.3,40.4,64.5,38.8,64.5z"/>
				</g>
				<g>
					<path d="M8.7,35.9C8.7,35.9,8.7,35.9,8.7,35.9c-0.3,0-0.5-0.3-0.5-0.6c0.8-6.3,5.4-10.6,11.8-11c5.7-0.4,12.3,2.7,14.5,10.3
						c0.1,0.2,0.1,0.3,0.1,0.5c0.1,0.6-0.8,0.8-1,0.2c-1.9-7.4-8.2-10.3-13.5-10c-4.5,0.3-10,3.1-10.9,10.1
						C9.2,35.7,9,35.9,8.7,35.9z"/>
				</g>
				<g>
					<path d="M56.1,34.9c-0.8-3-2.8-5.7-5.3-7.1c-2.8-1.6-6.5-1.8-9.2-0.3c-2.9,1.5-4.7,4.7-4.5,7.8c0,0.3-0.2,0.5-0.5,0.5
						c-0.3,0-0.5-0.2-0.5-0.5c-0.3-3.5,1.8-7.1,5-8.8c3.1-1.6,7.1-1.5,10.2,0.3c4.6,2.6,6.5,8.5,5.6,8.9
						C56.4,36.1,56,35.3,56.1,34.9z"/>
				</g>
				<g>
					<path d="M29.4,27.9c-0.1,0-0.1,0-0.2,0c-0.3-0.1-0.4-0.4-0.3-0.6c1-2.9,3.2-5.3,6-6.6c2.8-1.3,6-1.5,8.9-0.4
						c2.9,1.1,5.3,3.2,6.6,6c0.1,0.3,0,0.5-0.2,0.7c-0.3,0.1-0.5,0-0.7-0.2c-1.2-2.6-3.3-4.6-6-5.5c-2.7-1-5.6-0.9-8.2,0.4
						c-2.5,1.2-4.6,3.4-5.5,6.1C29.8,27.8,29.6,27.9,29.4,27.9z"/>
				</g>
				<g>
					<path d="M17.3,25.8c-0.3-0.1-0.4-0.3-0.4-0.6c0.9-3.9,3.8-6.9,7.7-7.9c3.9-1,8,0.2,10.7,3.3c0.2,0.2,0.2,0.5,0,0.7
						c-0.2,0.2-0.5,0.2-0.7,0c-2.5-2.8-6.1-3.9-9.7-3c-3.6,0.9-6.2,3.6-7,7.2C17.8,25.7,17.5,25.9,17.3,25.8z"/>
				</g>
			</g>
			<g>
				<path d="M42.3,20.4c-0.1,0-0.1,0-0.2,0c-0.3-0.1-0.4-0.4-0.3-0.7c2.9-6.7,6.5-13.1,10.9-19c0.2-0.2,0.5-0.3,0.7-0.1
					c0.2,0.2,0.3,0.5,0.1,0.7c-4.3,5.8-7.9,12.1-10.8,18.8C42.6,20.3,42.5,20.4,42.3,20.4z"/>
			</g>
			<g>
				<path d="M39.6,20.4c0,0-0.1,0-0.2,0c-0.3-0.1-0.4-0.4-0.3-0.6c2-6.3,4.3-12.5,6.8-18.6c0.1-0.3,0.4-0.4,0.7-0.3
					C46.9,1,47,1.3,46.9,1.5c-2.5,6-4.8,12.3-6.8,18.5C40,20.2,39.8,20.4,39.6,20.4z"/>
			</g>
		</g>
		<g>
			<path d="M16,30.5c-0.1,0-0.2,0-0.3-0.1l-0.3-0.2c-0.2-0.1-0.3-0.5-0.2-0.7c0.1-0.2,0.5-0.3,0.7-0.2l0.3,0.2
				c0.2,0.1,0.3,0.5,0.2,0.7C16.4,30.4,16.2,30.5,16,30.5z"/>
		</g>
		<g>
			<path d="M20,28.6c-0.1,0-0.1,0-0.2,0l-0.4-0.1c-0.3-0.1-0.4-0.4-0.3-0.6c0.1-0.3,0.4-0.4,0.6-0.3l0.4,0.1
				c0.3,0.1,0.4,0.4,0.3,0.7C20.4,28.5,20.2,28.6,20,28.6z"/>
		</g>
		<g>
			<path d="M24.4,29.4C24.3,29.4,24.3,29.4,24.4,29.4l-0.5-0.1c-0.3-0.1-0.4-0.3-0.4-0.6c0.1-0.3,0.3-0.4,0.6-0.4l0.4,0.1
				c0.3,0.1,0.4,0.3,0.4,0.6C24.8,29.2,24.6,29.4,24.4,29.4z"/>
		</g>
		<g>
			<path d="M22.6,22.4h-0.2c-0.3,0-0.5-0.2-0.5-0.5s0.2-0.5,0.5-0.5h0.2c0.3,0,0.5,0.2,0.5,0.5C23.1,22.2,22.9,22.4,22.6,22.4z"/>
		</g>
		<g>
			<path d="M25.3,20.5c-0.1,0-0.2,0-0.2-0.1l-0.1-0.1c-0.2-0.1-0.3-0.4-0.2-0.7c0.1-0.2,0.4-0.3,0.7-0.2l0.1,0.1
				c0.2,0.1,0.3,0.4,0.2,0.7C25.6,20.4,25.4,20.5,25.3,20.5z"/>
		</g>
		<g>
			<path d="M34.5,25.9c-0.3,0-0.5-0.2-0.5-0.5s0.2-0.5,0.5-0.5S35,25,35,25.3v0.1C35,25.7,34.8,25.9,34.5,25.9z"/>
		</g>
		<g>
			<path d="M38.7,23.3c-0.1,0-0.1,0-0.2,0l-0.2-0.1C38,23,37.9,22.7,38,22.5c0.1-0.3,0.4-0.4,0.7-0.3l0.1,0.1
				c0.3,0.1,0.4,0.4,0.3,0.7C39,23.2,38.8,23.3,38.7,23.3z"/>
		</g>
		<g>
			<path d="M40.9,31.8c-0.4-0.1-0.9-0.2-0.8-0.7c0.1-0.5,0.5-0.4,1-0.3c0.3,0.1,0.4,0.3,0.4,0.6C41.4,31.7,41.2,31.9,40.9,31.8z"/>
		</g>
		<g>
			<path d="M43.8,29.3h-0.2c-0.3,0-0.5-0.2-0.5-0.5s0.2-0.5,0.5-0.5h0.2c0.3,0,0.5,0.2,0.5,0.5C44.3,29.1,44.1,29.3,43.8,29.3z"/>
		</g>
		<g>
			<path d="M48.1,29.4c-0.1,0-0.1,0-0.2,0l-0.1-0.1c-0.2-0.1-0.3-0.4-0.2-0.7c0.1-0.2,0.4-0.3,0.7-0.2c0,0,0.1,0,0.1,0
				c0.2,0.1,0.4,0.4,0.3,0.7C48.4,29.3,48.3,29.4,48.1,29.4z"/>
		</g>
		<g>
			<path d="M22.3,60l-1.1-1.1c-0.2-0.2,0.1-0.6,0.4-0.4l1.1,1.1c0.1,0.1,0.1,0.3,0,0.4C22.6,60.1,22.4,60.1,22.3,60z"/>
		</g>
		<g>
			<path d="M24.5,60.5l-2.6-2.6c-0.2-0.2,0.1-0.6,0.4-0.4l2.6,2.6c0.1,0.1,0.1,0.3,0,0.4C24.7,60.6,24.6,60.6,24.5,60.5z"/>
		</g>
		<g>
			<path d="M27.6,60.9L24.7,58c-0.2-0.2,0.1-0.6,0.4-0.4l2.9,2.9c0.1,0.1,0.1,0.3,0,0.4C27.9,61,27.7,61,27.6,60.9z"/>
		</g>
		<g>
			<path d="M30.6,61.3l-2.9-2.9c-0.2-0.2,0.1-0.6,0.4-0.4l2.9,2.9c0.1,0.1,0.1,0.3,0,0.4C30.9,61.4,30.7,61.4,30.6,61.3z"/>
		</g>
		<g>
			<path d="M33.7,61l-2.2-2.2c-0.2-0.2,0.1-0.6,0.4-0.4l2.2,2.2c0.1,0.1,0.1,0.3,0,0.4C33.9,61.1,33.8,61.1,33.7,61z"/>
		</g>
		<g>
			<path d="M36.8,61.4l-2.5-2.5c-0.2-0.2,0.1-0.6,0.4-0.4l2.5,2.5c0.1,0.1,0.1,0.3,0,0.4C37.1,61.5,36.9,61.5,36.8,61.4z"/>
		</g>
		<g>
			<path d="M40.4,61.4l-2.9-2.9c-0.2-0.2,0.1-0.6,0.4-0.4l2.9,2.9c0.1,0.1,0.1,0.3,0,0.4C40.7,61.5,40.5,61.5,40.4,61.4z"/>
		</g>
		<g>
			<path d="M42.7,60.7l-2.5-2.5c-0.2-0.2,0.1-0.6,0.4-0.4l2.5,2.5c0.1,0.1,0.1,0.3,0,0.4C42.9,60.7,42.8,60.7,42.7,60.7z"/>
		</g>
		<g>
			<path d="M42.2,61.5c-0.2-0.2,0.1-0.6,0.4-0.4l0.9,0.9c0.1,0.1,0.1,0.3,0,0.4C43.2,62.7,42.5,61.7,42.2,61.5z"/>
		</g>
		<g>
			<path d="M41.8,63.2l-1.1-1.1c-0.2-0.2,0.1-0.6,0.4-0.4l1.1,1.1c0.1,0.1,0.1,0.3,0,0.4C42,63.3,41.9,63.3,41.8,63.2z"/>
		</g>
		<g>
			<path d="M39.6,63.2l-1.1-1.1c-0.2-0.2,0.1-0.6,0.4-0.4l1.1,1.1c0.1,0.1,0.1,0.3,0,0.4C39.8,63.3,39.7,63.3,39.6,63.2z"/>
		</g>
		<g>
			<path d="M37.7,63.8l-0.9-0.9c-0.2-0.2,0.1-0.6,0.4-0.4l0.9,0.9c0.1,0.1,0.1,0.3,0,0.4C37.9,63.9,37.8,63.9,37.7,63.8z"/>
		</g>
		<g>
			<path d="M37.1,63.3l2-2c0.2-0.2,0.6,0.1,0.4,0.4l-2,2C37.2,63.8,36.9,63.5,37.1,63.3z"/>
		</g>
		<g>
			<path d="M39,63.2l2.3-2.3c0.2-0.2,0.6,0.1,0.4,0.4l-2.3,2.3C39.1,63.8,38.7,63.5,39,63.2z"/>
		</g>
		<g>
			<path d="M41.3,63.3l2.3-2.3c0.1-0.1,0.3-0.1,0.4,0s0.1,0.3,0,0.4l-2.3,2.3C41.4,63.8,41.1,63.5,41.3,63.3z"/>
		</g>
		<g>
			<path d="M41.1,59.5l1.2-1.2c0.2-0.2,0.6,0.1,0.4,0.4l-1.2,1.2C41.2,60.1,40.9,59.8,41.1,59.5z"/>
		</g>
		<g>
			<path d="M38.8,60.3l1.6-1.6c0.2-0.2,0.6,0.1,0.4,0.4l-1.6,1.6C38.9,60.9,38.6,60.5,38.8,60.3z"/>
		</g>
		<g>
			<path d="M35.5,60.7l2.2-2.2c0.2-0.2,0.6,0.1,0.4,0.4l-2.2,2.2C35.6,61.3,35.2,60.9,35.5,60.7z"/>
		</g>
		<g>
			<path d="M32.3,60.3l1.4-1.4c0.2-0.2,0.6,0.1,0.4,0.4l-1.4,1.4C32.4,60.9,32,60.6,32.3,60.3z"/>
		</g>
		<g>
			<path d="M29.6,60.7l1.8-1.8c0.2-0.2,0.6,0.1,0.4,0.4L30,61C29.8,61.3,29.4,60.9,29.6,60.7z"/>
		</g>
		<g>
			<path d="M26.6,60.3l1.8-1.8c0.2-0.2,0.6,0.1,0.4,0.4L27,60.7C26.7,60.9,26.4,60.6,26.6,60.3z"/>
		</g>
		<g>
			<path d="M23.5,60.4c-0.1-0.1-0.1-0.3,0-0.4l2.2-2.2c0.2-0.2,0.6,0.1,0.4,0.4l-2.2,2.2C23.8,60.5,23.6,60.5,23.5,60.4z"/>
		</g>
		<g>
			<path d="M21.5,59.9l1.5-1.5c0.2-0.2,0.6,0.1,0.4,0.4l-1.5,1.5C21.7,60.5,21.3,60.1,21.5,59.9z"/>
		</g>
		<g>
			<path d="M21.1,60.5l-0.7-0.7c-0.2-0.2,0.1-0.6,0.4-0.4l0.7,0.7c0.1,0.1,0.1,0.3,0,0.4C21.3,60.6,21.2,60.6,21.1,60.5z"/>
		</g>
		<g>
			<path d="M49.3,52.8l-4.7-4.7c-0.1-0.1-0.1-0.3,0-0.4s0.3-0.1,0.4,0l4.7,4.7c0.1,0.1,0.1,0.3,0,0.4C49.6,52.9,49.4,52.9,49.3,52.8
				z"/>
		</g>
		<g>
			<path d="M52.1,51.6c-0.2,0-4.8-4.7-4.9-4.8c-0.1-0.1-0.1-0.3,0-0.4s0.3-0.1,0.4,0l4.7,4.7c0.1,0.1,0.1,0.3,0,0.4
				C52.2,51.6,52.2,51.6,52.1,51.6z"/>
		</g>
		<g>
			<path d="M54.4,49.1l-3.7-3.7c-0.1-0.1-0.1-0.3,0-0.4c0.1-0.1,0.3-0.1,0.4,0l3.7,3.7c0.1,0.1,0.1,0.3,0,0.4
				C54.6,49.2,54.5,49.2,54.4,49.1z"/>
		</g>
		<g>
			<path d="M57.1,46.5l-3.3-3.3c-0.2-0.2,0.1-0.6,0.4-0.4l3.3,3.3c0.1,0.1,0.1,0.3,0,0.4C57.4,46.6,57.2,46.6,57.1,46.5z"/>
		</g>
		<g>
			<path d="M58.7,43.7c-0.1,0-0.1,0-0.2-0.1l-1.7-1.7c-0.2-0.2,0.1-0.6,0.4-0.4l1.7,1.7c0.1,0.1,0.1,0.3,0,0.4
				C58.8,43.7,58.8,43.7,58.7,43.7z"/>
		</g>
		<g>
			<path d="M59.6,40.5l-1.9-1.9c-0.2-0.2,0.1-0.6,0.4-0.4l1.9,1.9c0.1,0.1,0.1,0.3,0,0.4C59.9,40.6,59.7,40.6,59.6,40.5z"/>
		</g>
		<g>
			<path d="M60.7,39l-1.5-1.5c-0.2-0.2,0.1-0.6,0.4-0.4l1.5,1.5c0.1,0.1,0.1,0.3,0,0.4C61,39.1,60.8,39.1,60.7,39z"/>
		</g>
		<g>
			<path d="M46.8,54.7l-5.1-5.1c-0.1-0.1-0.1-0.3,0-0.4s0.3-0.1,0.4,0l5.1,5.1c0.1,0.1,0.1,0.3,0,0.4C47.1,54.8,46.9,54.8,46.8,54.7
				z"/>
		</g>
		<g>
			<path d="M43.5,55.6c-0.1,0-0.1,0-0.2-0.1l-4.4-4.4c-0.1-0.1-0.1-0.3,0-0.4s0.3-0.1,0.4,0l4.4,4.4c0.1,0.1,0.1,0.3,0,0.4
				C43.7,55.6,43.6,55.6,43.5,55.6z"/>
		</g>
		<g>
			<path d="M40.5,56.4l-4.1-4.1c-0.1-0.1-0.1-0.3,0-0.4s0.3-0.1,0.4,0l4.1,4.1c0.1,0.1,0.1,0.3,0,0.4C40.7,56.5,40.6,56.5,40.5,56.4
				z"/>
		</g>
		<g>
			<path d="M37.4,57.2l-3.7-3.7c-0.1-0.1-0.1-0.3,0-0.4s0.3-0.1,0.4,0l3.7,3.7c0.1,0.1,0.1,0.3,0,0.4S37.5,57.3,37.4,57.2z"/>
		</g>
		<g>
			<path d="M34.9,57.6L31.2,54c-0.2-0.2,0.1-0.6,0.4-0.4l3.6,3.6c0.1,0.1,0.1,0.3,0,0.4C35.1,57.7,35,57.7,34.9,57.6z"/>
		</g>
		<g>
			<path d="M30.1,57.3c-0.2,0-2.3-2.2-2.4-2.3c-0.2-0.2,0.1-0.6,0.4-0.4l2.2,2.2C30.4,57,30.3,57.3,30.1,57.3z"/>
		</g>
		<g>
			<path d="M27,58.2l-2.8-2.8c-0.2-0.2,0.1-0.6,0.4-0.4l2.8,2.8C27.6,58.1,27.2,58.5,27,58.2z"/>
		</g>
		<g>
			<path d="M23.5,57.4l-1.4-1.4c-0.2-0.2,0.1-0.6,0.4-0.4l1.4,1.4c0.1,0.1,0.1,0.3,0,0.4C23.8,57.5,23.6,57.5,23.5,57.4z"/>
		</g>
		<g>
			<path d="M22.7,56.7l1.6-1.6c0.2-0.2,0.6,0.1,0.4,0.4l-1.6,1.6C22.8,57.3,22.5,56.9,22.7,56.7z"/>
		</g>
		<g>
			<path d="M25.1,57.1l2.8-2.8c0.2-0.2,0.6,0.1,0.4,0.4l-2.8,2.8C25.2,57.7,24.9,57.4,25.1,57.1z"/>
		</g>
		<g>
			<path d="M27.2,57.8l4.7-4.7c0.1-0.1,0.3-0.1,0.4,0s0.1,0.3,0,0.4l-4.7,4.7C27.3,58.3,27,58,27.2,57.8z"/>
		</g>
		<g>
			<path d="M31,57.6l5.5-5.5c0.2-0.2,0.6,0.1,0.4,0.4L31.4,58C31.1,58.2,30.8,57.8,31,57.6z"/>
		</g>
		<g>
			<path d="M35,57.8l5.3-5.3c0.1-0.1,0.3-0.1,0.4,0s0.1,0.3,0,0.4l-5.3,5.3C35.1,58.3,34.8,58,35,57.8z"/>
		</g>
		<g>
			<path d="M31.4,55.6l1.5-1.5c0.2-0.2,0.6,0.1,0.4,0.4L31.8,56C31.5,56.2,31.2,55.9,31.4,55.6z"/>
		</g>
		<g>
			<path d="M35.3,56c-0.1-0.1-0.1-0.3,0-0.4l3.6-3.6c0.1-0.1,0.3-0.1,0.4,0c0.1,0.1,0.1,0.3,0,0.4L35.7,56
				C35.6,56.1,35.4,56.1,35.3,56z"/>
		</g>
		<g>
			<path d="M38.4,57.5l8.3-8.3c0.2-0.2,0.6,0.1,0.4,0.4l-8.3,8.3C38.5,58.1,38.1,57.7,38.4,57.5z"/>
		</g>
		<g>
			<path d="M44.4,55.4c-0.1-0.1-0.1-0.3,0-0.4l5.6-5.6c0.2-0.2,0.6,0.1,0.4,0.4l-5.6,5.6C44.7,55.5,44.5,55.5,44.4,55.4z"/>
		</g>
		<g>
			<path d="M41.9,51.9c-0.1,0-0.1,0-0.2-0.1c-0.1-0.1-0.1-0.3,0-0.4l2.7-2.7c0.1-0.1,0.3-0.1,0.4,0s0.1,0.3,0,0.4L42,51.8
				C42,51.8,41.9,51.9,41.9,51.9z"/>
		</g>
		<g>
			<path d="M48,48.8l4.6-4.6c0.1-0.1,0.3-0.1,0.4,0s0.1,0.3,0,0.4l-4.6,4.6C48.1,49.4,47.8,49.1,48,48.8z"/>
		</g>
		<g>
			<path d="M52.1,48.6l3.5-3.5c0.1-0.1,0.3-0.1,0.4,0s0.1,0.3,0,0.4L52.4,49C52.2,49.2,51.9,48.9,52.1,48.6z"/>
		</g>
		<g>
			<path d="M54.1,44.6l2.9-2.9c0.2-0.2,0.6,0.1,0.4,0.4l-2.9,2.9C54.2,45.1,53.8,44.8,54.1,44.6z"/>
		</g>
		<g>
			<path d="M56.9,43.7c-0.1-0.1-0.1-0.3,0-0.4l2-2c0.2-0.2,0.6,0.1,0.4,0.4l-2,2C57.2,43.8,57,43.8,56.9,43.7z"/>
		</g>
		<g>
			<path d="M15.1,48.1l-3.6-3.6c-0.2-0.2,0.1-0.6,0.4-0.4l3.6,3.6c0.1,0.1,0.1,0.3,0,0.4C15.4,48.2,15.2,48.2,15.1,48.1z"/>
		</g>
		<g>
			<path d="M18,47.7l-3.6-3.6c-0.2-0.2,0.1-0.6,0.4-0.4l3.6,3.6c0.1,0.1,0.1,0.3,0,0.4C18.3,47.8,18.1,47.8,18,47.7z"/>
		</g>
		<g>
			<path d="M13,46.9l4.9-4.9c0.1-0.1,0.3-0.1,0.4,0s0.1,0.3,0,0.4l-4.9,4.9C13.2,47.5,12.8,47.2,13,46.9z"/>
		</g>
		<g>
			<path d="M16.6,46.5l2.2-2.2c0.2-0.2,0.6,0.1,0.4,0.4L17,46.9C16.8,47.1,16.4,46.7,16.6,46.5z"/>
		</g>
		<g>
			<path d="M19.3,46l-1.7-1.7c-0.1-0.1-0.1-0.3,0-0.4s0.3-0.1,0.4,0l1.7,1.7c0.1,0.1,0.1,0.3,0,0.4C19.5,46.1,19.4,46.1,19.3,46z"/>
		</g>
	</g>
	<g>
		<path d="M32.4,35.2c-0.1,0-0.1,0-0.2-0.1l-1.9-1.9c-0.1-0.1-0.1-0.3,0-0.4s0.3-0.1,0.4,0l1.9,1.9c0.1,0.1,0.1,0.3,0,0.4
			C32.5,35.1,32.4,35.2,32.4,35.2z"/>
	</g>
	<g>
		<path d="M33,34.4c-0.1,0-0.1,0-0.2-0.1l-1.4-1.4c-0.1-0.1-0.1-0.3,0-0.4s0.3-0.1,0.4,0l1.4,1.4c0.1,0.1,0.1,0.3,0,0.4
			C33.2,34.4,33.1,34.4,33,34.4z"/>
	</g>
	<g>
		<path d="M30.1,35.1l-1.3-1.3c-0.1-0.1-0.1-0.3,0-0.4s0.3-0.1,0.4,0l1.3,1.3c0.1,0.1,0.1,0.3,0,0.4C30.4,35.2,30.2,35.2,30.1,35.1z
			"/>
	</g>
	<g>
		<path d="M28.1,35.3l-1.4-1.4c-0.1-0.1-0.1-0.3,0-0.4s0.3-0.1,0.4,0l1.4,1.4c0.1,0.1,0.1,0.3,0,0.4C28.3,35.4,28.2,35.4,28.1,35.3z
			"/>
	</g>
	<g>
		<path d="M26.3,35.4l-1.1-1.1c-0.2-0.2,0.1-0.6,0.4-0.4l1.1,1.1c0.1,0.1,0.1,0.3,0,0.4C26.6,35.5,26.4,35.5,26.3,35.4z"/>
	</g>
	<g>
		<path d="M23.9,35.5L23,34.6c-0.1-0.1-0.1-0.3,0-0.4c0.1-0.1,0.3-0.1,0.4,0l0.9,0.9c0.1,0.1,0.1,0.3,0,0.4
			C24.1,35.6,24,35.6,23.9,35.5z"/>
	</g>
	<g>
		<path d="M22.4,36l-1.1-1.1c-0.2-0.2,0.1-0.6,0.4-0.4l1.1,1.1c0.1,0.1,0.1,0.3,0,0.4C22.6,36.1,22.5,36.1,22.4,36z"/>
	</g>
	<g>
		<path d="M21.6,35.1l1.2-1.2c0.2-0.2,0.6,0.1,0.4,0.4l-1.2,1.2C21.7,35.7,21.3,35.4,21.6,35.1z"/>
	</g>
	<g>
		<path d="M23.3,35.1l1.6-1.6c0.2-0.2,0.6,0.1,0.4,0.4l-1.6,1.6C23.4,35.7,23.1,35.3,23.3,35.1z"/>
	</g>
	<g>
		<path d="M25.6,35l1.8-1.8c0.2-0.2,0.6,0.1,0.4,0.4L26,35.4C25.8,35.6,25.4,35.3,25.6,35z"/>
	</g>
	<g>
		<path d="M27.6,35.1l2.1-2.1c0.1-0.1,0.3-0.1,0.4,0s0.1,0.3,0,0.4L28,35.4C27.7,35.7,27.4,35.3,27.6,35.1z"/>
	</g>
	<g>
		<path d="M30.2,35.3c-0.2,0-0.3-0.3-0.2-0.4l1.9-1.9c0.1-0.1,0.3-0.1,0.4,0c0.1,0.1,0.1,0.3,0,0.4l-1.9,1.9
			C30.3,35.3,30.2,35.3,30.2,35.3z"/>
	</g>
	<g>
		<path d="M32.3,34.7c-0.1,0-0.1,0-0.2-0.1c-0.1-0.1-0.1-0.3,0-0.4l1.3-1.3c0.2-0.2,0.6,0.1,0.4,0.4l-1.3,1.3
			C32.4,34.6,32.4,34.7,32.3,34.7z"/>
	</g>
	<g>
		<path d="M34,35c-0.1-0.1-0.1-0.3,0-0.4l1.5-1.5c0.2-0.2,0.6,0.1,0.4,0.4L34.3,35C34.2,35.1,34.1,35.1,34,35z"/>
	</g>
	<g>
		<path d="M35.1,35.2c-0.1-0.1-0.1-0.3,0-0.4l1.1-1.1c0.2-0.2,0.6,0.1,0.4,0.4l-1.1,1.1C35.3,35.3,35.2,35.3,35.1,35.2z"/>
	</g>
	<g>
		<path d="M35.3,34.4l-0.9-0.9c-0.1-0.1-0.1-0.3,0-0.4s0.3-0.1,0.4,0l0.9,0.9c0.1,0.1,0.1,0.3,0,0.4C35.6,34.5,35.4,34.5,35.3,34.4z
			"/>
	</g>
	<g>
		<path d="M42.1,35.4c-0.1-0.1-0.1-0.3,0-0.4l1.8-1.8c0.1-0.1,0.3-0.1,0.4,0c0.1,0.1,0.1,0.3,0,0.4l-1.8,1.8
			C42.4,35.5,42.2,35.5,42.1,35.4z"/>
	</g>
	<g>
		<path d="M43.9,35.3c-0.1-0.1-0.1-0.3,0-0.4l2-2c0.2-0.2,0.6,0.1,0.4,0.4l-2,2C44.1,35.4,44,35.4,43.9,35.3z"/>
	</g>
	<g>
		<path d="M46.4,35.3c-0.1-0.1-0.1-0.3,0-0.4l1.8-1.8c0.2-0.2,0.6,0.1,0.4,0.4l-1.8,1.8C46.7,35.4,46.5,35.4,46.4,35.3z"/>
	</g>
	<g>
		<path d="M47.6,35l2.6-2.6c0.2-0.2,0.6,0.1,0.4,0.4L48,35.3C47.8,35.6,47.4,35.2,47.6,35z"/>
	</g>
	<g>
		<path d="M50.1,35.1l1.9-1.9c0.2-0.2,0.6,0.1,0.4,0.4l-1.9,1.9C50.3,35.7,49.9,35.3,50.1,35.1z"/>
	</g>
	<g>
		<path d="M51.8,35.2c-0.1-0.1-0.1-0.3,0-0.4l2.5-2.5c0.2-0.2,0.6,0.1,0.4,0.4l-2.5,2.5C52,35.3,51.9,35.3,51.8,35.2z"/>
	</g>
	<g>
		<path d="M53.9,35.1c-0.1-0.1-0.1-0.3,0-0.4l1.3-1.3c0.2-0.2,0.6,0.1,0.4,0.4l-1.3,1.3C54.1,35.2,54,35.2,53.9,35.1z"/>
	</g>
	<g>
		<path d="M54.7,34.4l-1.5-1.5c-0.2-0.2,0.1-0.6,0.4-0.4l1.5,1.5c0.1,0.1,0.1,0.3,0,0.4C54.9,34.5,54.8,34.5,54.7,34.4z"/>
	</g>
	<g>
		<path d="M52.9,34.9l-1.5-1.5c-0.1-0.1-0.1-0.3,0-0.4c0.1-0.1,0.3-0.1,0.4,0l1.5,1.5c0.1,0.1,0.1,0.3,0,0.4
			C53.2,35,53,35,52.9,34.9z"/>
	</g>
	<g>
		<path d="M51.5,35.3l-1.4-1.4c-0.2-0.2,0.1-0.6,0.4-0.4l1.4,1.4c0.1,0.1,0.1,0.3,0,0.4C51.8,35.4,51.6,35.4,51.5,35.3z"/>
	</g>
	<g>
		<path d="M49.1,34.9l-1.6-1.6c-0.2-0.2,0.1-0.6,0.4-0.4l1.6,1.6c0.1,0.1,0.1,0.3,0,0.4S49.2,35,49.1,34.9z"/>
	</g>
	<g>
		<path d="M47.2,35.4L45.8,34c-0.1-0.1-0.1-0.3,0-0.4c0.1-0.1,0.3-0.1,0.4,0l1.4,1.4c0.1,0.1,0.1,0.3,0,0.4
			C47.4,35.5,47.3,35.5,47.2,35.4z"/>
	</g>
	<g>
		<path d="M44.9,34.9l-1.4-1.4c-0.1-0.1-0.1-0.3,0-0.4s0.3-0.1,0.4,0l1.4,1.4c0.1,0.1,0.1,0.3,0,0.4C45.2,35,45,35,44.9,34.9z"/>
	</g>
	<g>
		<path d="M43,35L42,34.1c-0.1-0.1-0.1-0.3,0-0.4c0.1-0.1,0.3-0.1,0.4,0l0.9,0.9c0.1,0.1,0.1,0.3,0,0.4C43.2,35.1,43.1,35.1,43,35z"
			/>
	</g>
	<g>
		<path d="M41.3,35.3l-0.7-0.7c-0.2-0.2,0.1-0.6,0.4-0.4l0.7,0.7c0.1,0.1,0.1,0.3,0,0.4C41.5,35.4,41.4,35.4,41.3,35.3z"/>
	</g>
</g>
</svg>
