<?xml version="1.0" encoding="utf-8"?>
<!-- Generator: Adobe Illustrator 23.1.0, SVG Export Plug-In . SVG Version: 6.00 Build 0)  -->
<svg version="1.1" id="Слой_1" xmlns="http://www.w3.org/2000/svg" xmlns:xlink="http://www.w3.org/1999/xlink" x="0px" y="0px"
	 viewBox="0 0 65 81.3" style="enable-background:new 0 0 65 81.3;" xml:space="preserve">
<g>
	<g>
		<g>
			<g>
				<path d="M18,44.4c-0.1,0-0.2,0-0.3-0.1c-4.9-3.9-12.5-5.7-15.5-11.9C0,28,0.6,17.7,2.6,14c1.3-2.4,3.6-4.3,7-5.8
					C18.9,4,28.6,6.1,34,9.1c3,1.7,4.9,3.8,5.2,5.7c0,0.3-0.2,0.5-0.4,0.6c-0.3,0-0.5-0.2-0.6-0.4c-0.2-1.6-2-3.5-4.7-5
					C28.3,7,19,5.1,10,9.1c-3.2,1.4-5.4,3.2-6.5,5.4C1.6,17.9,1.1,27.9,3,32c1.1,2.4,3.3,4.4,6.8,6.5c0.8,0.5,1.7,1,2.6,1.4
					c2,1.1,4.1,2.2,5.9,3.6c0.2,0.2,0.3,0.5,0.1,0.7C18.2,44.3,18.1,44.4,18,44.4z"/>
			</g>
			<g>
				<path d="M29.8,48.5c-0.3-0.2-0.7-0.4-1.1-0.6c-1.1-0.5-2.4-1.2-3.1-2c-0.2-0.2-0.2-0.5,0-0.6c1.5-1.8,11-8.3,11.1-8.4
					c3-2.1,4.9-2.8,7-2.8c1.8,0,3.7,0.6,6,1.5l11.6,4.6c0.7,0.3,2.8,1.1,2.8,2.9c0,0.9-0.6,1.6-1.1,2.2c-2.7,3-10.8,10.9-15,11.2
					C44.5,56.8,33,50.3,29.8,48.5z M26.7,45.6c0.6,0.5,1.6,1,2.4,1.4c0.4,0.2,0.8,0.4,1.2,0.6c4.2,2.4,8.5,4.6,12.8,6.7
					c3.9,1.9,5.6,2,9.5-0.9c2.2-1.6,10.4-8.5,10.5-10.2c0-0.7-0.7-1.4-2.1-1.9l-11.6-4.6c-2.2-0.9-4-1.5-5.6-1.5
					c-1.8,0-3.6,0.7-6.4,2.7C35.9,38.7,28.7,43.7,26.7,45.6z"/>
			</g>
			<g>
				<path d="M38.4,57c-4.9-2-9.4-4.9-13.2-7.6C25,49.3,25,49.1,25,48.9l0.5-3.6c0-0.3,0.3-0.5,0.6-0.4c0.3,0,0.5,0.3,0.4,0.6
					L26,48.8c3.7,2.6,8,5.4,12.7,7.3c7.8,3.1,13.1,2.7,18.1-1.4c3-2.5,7.7-8.5,6.3-11.7c-0.1-0.3,0-0.5,0.2-0.7
					c0.2-0.1,0.5,0,0.7,0.2c1.8,3.9-3.4,10.3-6.5,12.9C51.4,60.4,45.5,59.8,38.4,57z"/>
			</g>
			<g>
				<path d="M23,48.1c-0.1,0-0.2,0-0.3-0.1c-0.2-0.2-0.5-0.3-0.8-0.5c-0.9-0.5-1.8-1.1-2.4-1.9c-0.1-0.1-0.1-0.2-0.1-0.4
					c0.2-1.5,0.4-3,0.6-4.4c0.2-1.4,0.4-2.9,0.6-4.3c0.5-3.5,1.1-7.1,2.6-10.5c3.1-6.9,10.2-11.6,17.7-11.9c5-0.2,6.3,2.7,6.4,5.1
					c0.1,1.4-0.2,2.7-0.5,4l-2.4,11.1c-0.1,0.3-0.3,0.4-0.6,0.4c-0.3-0.1-0.4-0.3-0.4-0.6l2.4-11.1c0.3-1.2,0.5-2.5,0.5-3.8
					c-0.2-3-1.9-4.3-5.4-4.2c-7.1,0.2-13.9,4.8-16.8,11.3c-1.4,3.2-2,6.8-2.5,10.2c-0.2,1.5-0.4,2.9-0.6,4.3
					c-0.2,1.4-0.4,2.8-0.6,4.2c0.4,0.5,1.2,1,2,1.4c0.3,0.2,0.5,0.3,0.7,0.4c0.7-0.1,1.5-0.3,2.1-0.7c0.2-0.1,0.5-0.1,0.7,0.2
					c0.1,0.2,0.1,0.5-0.2,0.7C25,47.8,24,48.1,23,48.1C23.1,48.1,23,48.1,23,48.1z"/>
			</g>
			<g>
				<path d="M23.1,47.9C23.1,47.9,23.1,47.9,23.1,47.9c-0.3,0-0.5-0.2-0.5-0.5c0.1-3.5,0.4-8.1,1.5-12.6c1.2-4.6,3.2-8.3,5.8-11.3
					c3.1-3.4,7.2-5.5,11.2-5.8c3.9-0.3,5.2,1.5,5,5.2L46,27.5c0,0.3-0.2,0.5-0.5,0.5c-0.3,0-0.5-0.2-0.5-0.5l0.2-4.6
					c0.2-3.2-0.7-4.5-3.9-4.2c-3.8,0.3-7.7,2.4-10.6,5.5c-2.6,2.8-4.5,6.5-5.6,10.9c-1.1,4.4-1.4,8.9-1.5,12.3
					C23.6,47.7,23.4,47.9,23.1,47.9z"/>
			</g>
			<g>
				<path d="M18,44.4c-0.1,0-0.1,0-0.2,0c-0.2-0.1-0.3-0.2-0.3-0.4C17,38.1,17,33,17.6,27.5c0.6-5.9,1.9-11.9,10.3-14.7
					c2.8-1,5.9-1.3,8.8-1.7c0.3,0,0.5,0.2,0.6,0.4c0,0.3-0.2,0.5-0.4,0.6c-2.9,0.3-5.8,0.7-8.6,1.6c-7.8,2.7-9,8.1-9.6,13.9
					C18,32.8,18,37.6,18.4,43c0.2-0.1,0.4-0.2,0.6-0.3c0.4-0.2,0.8-0.4,1.1-0.6c0.2-0.2,0.5-0.1,0.7,0.1c0.2,0.2,0.1,0.5-0.1,0.7
					c-0.4,0.3-0.9,0.5-1.3,0.7c-0.4,0.2-0.8,0.4-1.1,0.6C18.2,44.4,18.1,44.4,18,44.4z"/>
			</g>
		</g>
		<g>
			<path d="M38.1,25.8C38,25.8,38,25.8,38.1,25.8c-0.2,0-0.3-0.1-0.4-0.2c-0.2-0.1-0.3-0.2-0.3-0.5c0-0.1,0-0.3,0.1-0.4
				c0-0.2,0.1-0.5,0.4-0.5c0,0,0.1,0,0.1,0c0.2-0.1,0.5-0.1,0.7-0.1c0.2,0,0.3,0.2,0.3,0.3c0.1,0.2,0,0.3-0.1,0.5l-0.4,0.6
				C38.4,25.7,38.2,25.8,38.1,25.8z"/>
		</g>
		<g>
			<path d="M32.7,28.5c-0.1,0-0.2,0-0.3-0.1c-0.4-0.2-0.5-0.6-0.4-1c0.1-0.3,0.3-0.5,0.5-0.5c0.1,0,0.1-0.1,0.2-0.1
				c0.2,0,0.5,0.1,0.6,0.2c0,0.1,0.1,0.1,0.1,0.2c0.1,0.2,0.1,0.5,0,0.8C33.3,28.4,33,28.5,32.7,28.5z"/>
		</g>
		<g>
			<path d="M37.8,29.6c-0.2,0-0.5-0.2-0.5-0.4c0-0.1,0-0.1,0-0.2c0,0,0,0,0,0c-0.1-0.3,0.1-0.5,0.3-0.6l0.3-0.1c0.1,0,0.3,0,0.4,0
				c0.1,0.1,0.2,0.2,0.2,0.3c0,0.2,0,0.5-0.2,0.6S38.1,29.6,37.8,29.6C37.9,29.6,37.9,29.6,37.8,29.6z"/>
		</g>
		<g>
			<path d="M33.1,32.9c-0.2,0-0.3-0.1-0.4-0.2c-0.2-0.2-0.1-0.5,0.1-0.7l0.5-0.4c0.2-0.2,0.5-0.1,0.7,0.1c0.2,0.2,0.1,0.5-0.1,0.7
				l-0.5,0.4C33.3,32.9,33.2,32.9,33.1,32.9z"/>
		</g>
		<g>
			<path d="M24.7,18.4h-0.2c-0.3,0-0.5-0.2-0.5-0.5s0.2-0.5,0.5-0.5h0.2c0.3,0,0.5,0.2,0.5,0.5S24.9,18.4,24.7,18.4z"/>
		</g>
		<g>
			<path d="M21.4,24.6c-0.3,0-0.5-0.2-0.5-0.5V24c0-0.3,0.2-0.5,0.5-0.5s0.5,0.2,0.5,0.5v0.1C21.9,24.4,21.7,24.6,21.4,24.6z"/>
		</g>
		<g>
			<path d="M50.8,42.6C50.8,42.6,50.8,42.6,50.8,42.6c-0.4,0-0.7-0.2-0.8-0.6c-0.1-0.3,0-0.7,0.2-0.9c0.2-0.1,0.4-0.2,0.6,0
				c0.2-0.1,0.4-0.1,0.6,0.1c0.2,0.2,0.3,0.6,0.2,1C51.4,42.4,51.1,42.6,50.8,42.6z"/>
		</g>
		<g>
			<path d="M38.2,43.3c-0.2,0-0.3-0.1-0.5-0.2c-0.2,0-0.4-0.2-0.5-0.4c-0.1-0.3,0-0.6,0.2-0.8c0.2-0.2,0.5-0.3,0.8-0.2
				c0.3,0.1,0.5,0.4,0.5,0.7c0,0.3-0.1,0.6-0.3,0.8C38.4,43.3,38.3,43.3,38.2,43.3C38.2,43.3,38.2,43.3,38.2,43.3z"/>
		</g>
		<g>
			<path d="M42.8,40c-0.2,0-0.3-0.1-0.4-0.2c-0.1-0.1-0.1-0.2-0.1-0.3c-0.1-0.1-0.1-0.3,0-0.4c0.1-0.3,0.4-0.4,0.7-0.4
				c0.3,0,0.5,0.2,0.6,0.5c0,0.2,0,0.4-0.2,0.5l-0.3,0.2C43,40,42.9,40,42.8,40z"/>
		</g>
		<g>
			<path d="M44.4,49.4c-0.1,0-0.2,0-0.3-0.1c-0.3-0.1-0.4-0.4-0.3-0.6c0.1-0.3,0.4-0.4,0.6-0.3c-0.2-0.2-0.3-0.5-0.1-0.7
				c0.1-0.2,0.5-0.3,0.7-0.2c0.4,0.3,0.6,0.9,0.4,1.3C45.1,49.2,44.8,49.4,44.4,49.4z"/>
		</g>
		<g>
			<path d="M51.1,46.4c-0.4,0-0.7-0.3-0.7-0.6c0-0.3,0.2-0.5,0.5-0.5c0.1,0,0.2,0,0.2,0c0.1,0,0.1-0.1,0.2,0c0.3,0,0.5,0.2,0.5,0.5
				C51.7,46.2,51.4,46.4,51.1,46.4C51.1,46.4,51.1,46.4,51.1,46.4z"/>
		</g>
		<g>
			<path d="M35.2,46.4c-0.1,0-0.3,0-0.4-0.1c0,0-0.1-0.1-0.1-0.1c-0.2-0.2-0.2-0.5,0-0.7c0.2-0.2,0.5-0.2,0.7,0l0.1,0.1
				c0.2,0.2,0.2,0.5,0,0.7C35.5,46.3,35.4,46.4,35.2,46.4z"/>
		</g>
	</g>
	<g>
		<path d="M2.8,33.1c-0.1-0.1-0.1-0.3,0-0.4l2.6-2.6c0.1-0.1,0.3-0.1,0.4,0c0.1,0.1,0.1,0.3,0,0.4l-2.6,2.6
			C3.1,33.2,2.9,33.2,2.8,33.1z"/>
	</g>
	<g>
		<path d="M3.9,34.1l2.8-2.8c0.1-0.1,0.3-0.1,0.4,0c0.1,0.1,0.1,0.3,0,0.4l-2.8,2.8C4,34.7,3.6,34.4,3.9,34.1z"/>
	</g>
	<g>
		<path d="M4.6,35.7c-0.1-0.1-0.1-0.3,0-0.4L7,32.9c0.1-0.1,0.3-0.1,0.4,0c0.1,0.1,0.1,0.3,0,0.4l-2.5,2.5
			C4.8,35.8,4.7,35.8,4.6,35.7z"/>
	</g>
	<g>
		<path d="M5.6,36.7c-0.1-0.1-0.1-0.3,0-0.4l2.4-2.4c0.1-0.1,0.3-0.1,0.4,0c0.1,0.1,0.1,0.3,0,0.4L6,36.7
			C5.9,36.8,5.7,36.8,5.6,36.7z"/>
	</g>
	<g>
		<path d="M7.1,37.6c-0.1,0-0.1,0-0.2-0.1c-0.1-0.1-0.1-0.3,0-0.4l2-2c0.1-0.1,0.3-0.1,0.4,0c0.1,0.1,0.1,0.3,0,0.4l-2,2
			C7.2,37.5,7.2,37.6,7.1,37.6z"/>
	</g>
	<g>
		<path d="M8.3,38.2c-0.1-0.1-0.1-0.3,0-0.4l2.2-2.2c0.1-0.1,0.3-0.1,0.4,0c0.1,0.1,0.1,0.3,0,0.4l-2.2,2.2
			C8.6,38.3,8.4,38.3,8.3,38.2z"/>
	</g>
	<g>
		<path d="M10.4,39.1c-0.1-0.1-0.1-0.3,0-0.4l1.4-1.4c0.1-0.1,0.3-0.1,0.4,0c0.1,0.1,0.1,0.3,0,0.4l-1.4,1.4
			C10.7,39.2,10.5,39.2,10.4,39.1z"/>
	</g>
	<g>
		<path d="M11.7,40.3c-0.1-0.1-0.1-0.3,0-0.4l2-2c0.1-0.1,0.3-0.1,0.4,0c0.1,0.1,0.1,0.3,0,0.4l-2,2C11.9,40.4,11.8,40.4,11.7,40.3z
			"/>
	</g>
	<g>
		<path d="M13.2,41.4c-0.1,0-0.1,0-0.2-0.1c-0.1-0.1-0.1-0.3,0-0.4l2.3-2.3c0.1-0.1,0.3-0.1,0.4,0c0.1,0.1,0.1,0.3,0,0.4l-2.3,2.3
			C13.4,41.4,13.3,41.4,13.2,41.4z"/>
	</g>
	<g>
		<path d="M14.9,42c-0.1-0.1-0.1-0.3,0-0.4l1.3-1.3c0.1-0.1,0.3-0.1,0.4,0c0.1,0.1,0.1,0.3,0,0.4L15.3,42C15.2,42.1,15,42.1,14.9,42
			z"/>
	</g>
	<g>
		<path d="M2.1,31.6c-0.1-0.1-0.1-0.3,0-0.4l2.5-2.5c0.1-0.1,0.3-0.1,0.4,0c0.1,0.1,0.1,0.3,0,0.4l-2.5,2.5
			C2.4,31.7,2.2,31.7,2.1,31.6z"/>
	</g>
	<g>
		<path d="M1.4,29c-0.1-0.1-0.1-0.3,0-0.4l2.3-2.3c0.1-0.1,0.3-0.1,0.4,0c0.1,0.1,0.1,0.3,0,0.4L1.7,29C1.6,29.1,1.5,29.1,1.4,29z"
			/>
	</g>
	<g>
		<path d="M1.4,26.6c-0.1-0.1-0.1-0.3,0-0.4l1.6-1.6c0.1-0.1,0.3-0.1,0.4,0s0.1,0.3,0,0.4l-1.6,1.6C1.7,26.7,1.5,26.7,1.4,26.6z"/>
	</g>
	<g>
		<path d="M1.5,24.1c-0.1,0-0.1,0-0.2-0.1c-0.1-0.1-0.1-0.3,0-0.4L3.1,22c0.1-0.1,0.3-0.1,0.4,0s0.1,0.3,0,0.4l-1.7,1.7
			C1.7,24.1,1.6,24.1,1.5,24.1z"/>
	</g>
	<g>
		<path d="M1.5,21.9c-0.1-0.1-0.1-0.3,0-0.4l1.1-1.1c0.1-0.1,0.3-0.1,0.4,0c0.1,0.1,0.1,0.3,0,0.4l-1.1,1.1C1.7,22,1.6,22,1.5,21.9z
			"/>
	</g>
	<g>
		<path d="M1.7,19.3c-0.1-0.1-0.1-0.3,0-0.4L2.6,18c0.1-0.1,0.3-0.1,0.4,0c0.1,0.1,0.1,0.3,0,0.4l-0.9,0.9C2,19.4,1.8,19.4,1.7,19.3
			z"/>
	</g>
	<g>
		<path d="M3.1,18l-1-1c-0.1-0.1-0.1-0.3,0-0.4c0.1-0.1,0.3-0.1,0.4,0l1,1c0.1,0.1,0.1,0.3,0,0.4C3.4,18.1,3.2,18.1,3.1,18z"/>
	</g>
	<g>
		<path d="M3.5,20.8l-1.9-1.9c-0.1-0.1-0.1-0.3,0-0.4s0.3-0.1,0.4,0l1.9,1.9c0.1,0.1,0.1,0.3,0,0.4C3.8,20.9,3.6,20.9,3.5,20.8z"/>
	</g>
	<g>
		<path d="M2.7,23l-1.4-1.4c-0.1-0.1-0.1-0.3,0-0.4s0.3-0.1,0.4,0l1.4,1.4c0.1,0.1,0.1,0.3,0,0.4C3,23.1,2.8,23.1,2.7,23z"/>
	</g>
	<g>
		<path d="M3.4,26.7l-2.7-2.6c-0.1-0.1-0.1-0.3,0-0.4s0.3-0.1,0.4,0l2.7,2.6c0.1,0.1,0.1,0.3,0,0.4C3.6,26.8,3.5,26.8,3.4,26.7z"/>
	</g>
	<g>
		<path d="M4.7,30.4c-0.1,0-0.1,0-0.2-0.1l-3.2-3.2c-0.1-0.1-0.1-0.3,0-0.4c0.1-0.1,0.3-0.1,0.4,0l3.2,3.2C5,30,5,30.2,4.9,30.3
			C4.8,30.3,4.8,30.4,4.7,30.4z"/>
	</g>
	<g>
		<path d="M5.6,32.5c-0.1,0-0.1,0-0.2-0.1l-2.7-2.7c-0.1-0.1-0.1-0.3,0-0.4s0.3-0.1,0.4,0l2.7,2.7c0.1,0.1,0.1,0.3,0,0.4
			C5.7,32.5,5.6,32.5,5.6,32.5z"/>
	</g>
	<g>
		<path d="M2.2,28.9l1.6-1.6c0.1-0.1,0.3-0.1,0.4,0c0.1,0.1,0.1,0.3,0,0.4l-1.6,1.6C2.3,29.5,1.9,29.1,2.2,28.9z"/>
	</g>
	<g>
		<path d="M5.7,35.2l-3-3c-0.2-0.2,0.1-0.6,0.4-0.4l3,3c0.1,0.1,0.1,0.3,0,0.4C6,35.3,5.8,35.3,5.7,35.2z"/>
	</g>
	<g>
		<path d="M8,35.4l-2.3-2.3c-0.1-0.1-0.1-0.3,0-0.4s0.3-0.1,0.4,0l2.3,2.3C8.6,35.3,8.2,35.7,8,35.4z"/>
	</g>
	<g>
		<path d="M9.1,38.4l-1.9-1.9c-0.1-0.1-0.1-0.3,0-0.4s0.3-0.1,0.4,0L9.4,38c0.1,0.1,0.1,0.3,0,0.4C9.3,38.5,9.2,38.5,9.1,38.4z"/>
	</g>
	<g>
		<path d="M11.6,38.4c-0.1,0-0.1,0-0.2-0.1l-1.8-1.8c-0.1-0.1-0.1-0.3,0-0.4s0.3-0.1,0.4,0l1.8,1.8c0.1,0.1,0.1,0.3,0,0.4
			C11.7,38.4,11.6,38.4,11.6,38.4z"/>
	</g>
	<g>
		<path d="M13.6,40.6c-0.1,0-0.1,0-0.2-0.1l-1.3-1.3c-0.1-0.1-0.1-0.3,0-0.4s0.3-0.1,0.4,0l1.3,1.3c0.1,0.1,0.1,0.3,0,0.4
			C13.7,40.6,13.6,40.6,13.6,40.6z"/>
	</g>
	<g>
		<path d="M15.3,40.7l-1.8-1.8c-0.1-0.1-0.1-0.3,0-0.4s0.3-0.1,0.4,0l1.8,1.8c0.1,0.1,0.1,0.3,0,0.4C15.6,40.8,15.4,40.8,15.3,40.7z
			"/>
	</g>
	<g>
		<path d="M16.8,41.7l-1.1-1.1c-0.1-0.1-0.1-0.3,0-0.4c0.1-0.1,0.3-0.1,0.4,0l1.1,1.1c0.1,0.1,0.1,0.3,0,0.4
			C17,41.8,16.9,41.8,16.8,41.7z"/>
	</g>
	<g>
		<path d="M9.1,15.6c-0.1-0.1-0.1-0.3,0-0.4l3.4-3.4c0.1-0.1,0.3-0.1,0.4,0c0.1,0.1,0.1,0.3,0,0.4l-3.4,3.4
			C9.4,15.7,9.2,15.7,9.1,15.6z"/>
	</g>
	<g>
		<path d="M10.8,17c-0.1-0.1-0.1-0.3,0-0.4l3.8-3.8c0.1-0.1,0.3-0.1,0.4,0c0.1,0.1,0.1,0.3,0,0.4L11.2,17
			C11.1,17.1,10.9,17.1,10.8,17z"/>
	</g>
	<g>
		<path d="M14.1,18.8c-0.1-0.1-0.1-0.3,0-0.4l4.8-4.8c0.1-0.1,0.3-0.1,0.4,0s0.1,0.3,0,0.4l-4.8,4.8C14.4,18.8,14.2,18.8,14.1,18.8z
			"/>
	</g>
	<g>
		<path d="M16.2,18.8l3.3-3.3c0.1-0.1,0.3-0.1,0.4,0s0.1,0.3,0,0.4l-3.3,3.3C16.4,19.4,16,19,16.2,18.8z"/>
	</g>
	<g>
		<path d="M17.7,17.1l-2.3-2.3c-0.1-0.1-0.1-0.3,0-0.4c0.1-0.1,0.3-0.1,0.4,0l2.3,2.3c0.1,0.1,0.1,0.3,0,0.4
			C17.9,17.2,17.8,17.2,17.7,17.1z"/>
	</g>
	<g>
		<path d="M15,17.8l-2.9-2.9c-0.1-0.1-0.1-0.3,0-0.4c0.1-0.1,0.3-0.1,0.4,0l2.9,2.9c0.1,0.1,0.1,0.3,0,0.4
			C15.3,17.9,15.1,17.9,15,17.8z"/>
	</g>
	<g>
		<path d="M11.5,16.6c-0.1,0-0.1,0-0.2-0.1L9,14.3c-0.1-0.1-0.1-0.3,0-0.4c0.1-0.1,0.3-0.1,0.4,0l2.3,2.3c0.1,0.1,0.1,0.3,0,0.4
			C11.7,16.6,11.6,16.6,11.5,16.6z"/>
	</g>
	<g>
		<path d="M13.9,15.1l-2.4-2.4c-0.1-0.1-0.1-0.3,0-0.4c0.1-0.1,0.3-0.1,0.4,0l2.4,2.4c0.1,0.1,0.1,0.3,0,0.4
			C14.2,15.1,14,15.1,13.9,15.1z"/>
	</g>
	<g>
		<path d="M18.7,15.5l-1.8-1.8c-0.1-0.1-0.1-0.3,0-0.4c0.1-0.1,0.3-0.1,0.4,0l1.8,1.8c0.1,0.1,0.1,0.3,0,0.4
			C18.9,15.6,18.8,15.6,18.7,15.5z"/>
	</g>
	<g>
		<path d="M19.6,18.1l-1.2-1.2c-0.1-0.1-0.1-0.3,0-0.4c0.1-0.1,0.3-0.1,0.4,0l1.2,1.2c0.1,0.1,0.1,0.3,0,0.4
			C19.8,18.2,19.7,18.2,19.6,18.1z"/>
	</g>
	<g>
		<path d="M18.3,20.1l-1.7-1.7c-0.1-0.1-0.1-0.3,0-0.4s0.3-0.1,0.4,0l1.7,1.7c0.1,0.1,0.1,0.3,0,0.4C18.6,20.2,18.4,20.2,18.3,20.1z
			"/>
	</g>
	<g>
		<path d="M21,16.8L19.2,15c-0.1-0.1-0.1-0.3,0-0.4c0.1-0.1,0.3-0.1,0.4,0l1.8,1.8c0.1,0.1,0.1,0.3,0,0.4
			C21.3,16.9,21.1,16.9,21,16.8z"/>
	</g>
	<g>
		<path d="M19.2,18.4c-0.1-0.1-0.1-0.3,0-0.4l2.1-2.1c0.1-0.1,0.3-0.1,0.4,0s0.1,0.3,0,0.4l-2.1,2.1C19.4,18.5,19.3,18.5,19.2,18.4z
			"/>
	</g>
	<g>
		<path d="M18.2,20.5c-0.1-0.1-0.1-0.3,0-0.4l0.8-0.8c0.1-0.1,0.3-0.1,0.4,0c0.1,0.1,0.1,0.3,0,0.4l-0.8,0.8
			C18.4,20.6,18.3,20.6,18.2,20.5z"/>
	</g>
	<g>
		<path d="M14.3,18.7l-1.9-1.9c-0.1-0.1-0.1-0.3,0-0.4s0.3-0.1,0.4,0l1.9,1.9c0.1,0.1,0.1,0.3,0,0.4C14.6,18.8,14.4,18.8,14.3,18.7z
			"/>
	</g>
	<g>
		<path d="M15.3,16.8L14.5,16c-0.2-0.2,0.1-0.6,0.4-0.4l0.8,0.8c0.1,0.1,0.1,0.3,0,0.4C15.5,16.9,15.4,16.9,15.3,16.8z"/>
	</g>
	<g>
		<path d="M10.6,13.8c-0.1,0-0.1,0-0.2-0.1l-1.1-1.1c-0.1-0.1-0.1-0.3,0-0.4c0.1-0.1,0.3-0.1,0.4,0l1.1,1.1c0.1,0.1,0.1,0.3,0,0.4
			C10.8,13.7,10.7,13.8,10.6,13.8z"/>
	</g>
	<g>
		<path d="M8.2,14.9c-0.1-0.1-0.1-0.3,0-0.4l1.4-1.4c0.1-0.1,0.3-0.1,0.4,0s0.1,0.3,0,0.4l-1.4,1.4C8.4,15,8.3,15,8.2,14.9z"/>
	</g>
	<g>
		<path d="M8,12.5c-0.1-0.1-0.1-0.3,0-0.4l0.8-0.8c0.1-0.1,0.3-0.1,0.4,0c0.1,0.1,0.1,0.3,0,0.4l-0.8,0.8C8.2,12.6,8.1,12.6,8,12.5z
			"/>
	</g>
	<g>
		<path d="M33.2,12.4c-0.1-0.1-0.1-0.3,0-0.4l1.5-1.5c0.1-0.1,0.3-0.1,0.4,0s0.1,0.3,0,0.4l-1.5,1.5C33.5,12.5,33.3,12.5,33.2,12.4z
			"/>
	</g>
	<g>
		<path d="M31.2,11l1.4-1.4c0.1-0.1,0.3-0.1,0.4,0c0.1,0.1,0.1,0.3,0,0.4l-1.4,1.4C31.3,11.6,30.9,11.3,31.2,11z"/>
	</g>
	<g>
		<path d="M29.9,10.7c-0.1-0.1-0.1-0.3,0-0.4L31.2,9c0.1-0.1,0.3-0.1,0.4,0s0.1,0.3,0,0.4l-1.3,1.3C30.2,10.8,30,10.8,29.9,10.7z"/>
	</g>
	<g>
		<path d="M27.8,10.3c-0.1,0-0.1,0-0.2-0.1c-0.1-0.1-0.1-0.3,0-0.4l1.7-1.7c0.1-0.1,0.3-0.1,0.4,0s0.1,0.3,0,0.4
			C29.6,8.6,28,10.3,27.8,10.3z"/>
	</g>
	<g>
		<path d="M26.1,9.7c-0.1-0.1-0.1-0.3,0-0.4l1.7-1.7c0.1-0.1,0.3-0.1,0.4,0s0.1,0.3,0,0.4l-1.7,1.7C26.4,9.8,26.2,9.8,26.1,9.7z"/>
	</g>
	<g>
		<path d="M22.8,9.7c-0.1-0.1-0.1-0.3,0-0.4L25.2,7c0.1-0.1,0.3-0.1,0.4,0c0.1,0.1,0.1,0.3,0,0.4l-2.4,2.4
			C23.1,9.8,22.9,9.8,22.8,9.7z"/>
	</g>
	<g>
		<path d="M21.4,9.4c-0.1-0.1-0.1-0.3,0-0.4l2.2-2.2c0.1-0.1,0.3-0.1,0.4,0c0.1,0.1,0.1,0.3,0,0.4l-2.2,2.2
			C21.7,9.5,21.5,9.5,21.4,9.4z"/>
	</g>
	<g>
		<path d="M19,8.9c-0.1-0.1-0.1-0.3,0-0.4l2.1-2.1c0.1-0.1,0.3-0.1,0.4,0s0.1,0.3,0,0.4l-2.1,2.1C19.2,9,19.1,9,19,8.9z"/>
	</g>
	<g>
		<path d="M15.7,9c-0.1-0.1-0.1-0.3,0-0.4l2.2-2.2c0.1-0.1,0.3-0.1,0.4,0s0.1,0.3,0,0.4L16,9C15.9,9.1,15.8,9.1,15.7,9z"/>
	</g>
	<g>
		<path d="M17.9,8.9l-2-2c-0.1-0.1-0.1-0.3,0-0.4c0.1-0.1,0.3-0.1,0.4,0l2,2c0.1,0.1,0.1,0.3,0,0.4C18.1,9,18,9,17.9,8.9z"/>
	</g>
	<g>
		<path d="M20.8,8.4l-1.5-1.5c-0.1-0.1-0.1-0.3,0-0.4s0.3-0.1,0.4,0L21.1,8c0.1,0.1,0.1,0.3,0,0.4C21.1,8.5,20.9,8.5,20.8,8.4z"/>
	</g>
	<g>
		<path d="M25.1,9.1l-1.8-1.8c-0.1-0.1-0.1-0.3,0-0.4s0.3-0.1,0.4,0l1.8,1.8c0.1,0.1,0.1,0.3,0,0.4C25.3,9.2,25.2,9.2,25.1,9.1z"/>
	</g>
	<g>
		<path d="M28.8,10.2L26,7.4c-0.1-0.1-0.1-0.3,0-0.4s0.3-0.1,0.4,0l2.7,2.7c0.1,0.1,0.1,0.3,0,0.4C29,10.3,28.9,10.3,28.8,10.2z"/>
	</g>
	<g>
		<path d="M32.3,10.6c-0.1,0-0.1,0-0.2-0.1l-2.3-2.3c-0.1-0.1-0.1-0.3,0-0.4c0.1-0.1,0.3-0.1,0.4,0l2.3,2.3c0.1,0.1,0.1,0.3,0,0.4
			C32.4,10.6,32.4,10.6,32.3,10.6z"/>
	</g>
	<g>
		<path d="M34.2,11.1c-0.1,0-0.1,0-0.2-0.1L32.9,10c-0.1-0.1-0.1-0.3,0-0.4c0.1-0.1,0.3-0.1,0.4,0l1.1,1.1c0.1,0.1,0.1,0.3,0,0.4
			C34.3,11.1,34.2,11.1,34.2,11.1z"/>
	</g>
	<g>
		<path d="M47.3,56.1v-4.8c0-0.1,0.1-0.3,0.3-0.3s0.3,0.1,0.3,0.3v4.8C47.8,56.5,47.3,56.5,47.3,56.1z"/>
	</g>
	<g>
		<path d="M48.5,55.3v-3.8c0-0.1,0.1-0.3,0.3-0.3s0.3,0.1,0.3,0.3v3.8C49,55.6,48.5,55.6,48.5,55.3z"/>
	</g>
	<g>
		<path d="M50,54.2v-3c0-0.1,0.1-0.3,0.3-0.3s0.3,0.1,0.3,0.3v3C50.5,54.5,50,54.5,50,54.2z"/>
	</g>
	<g>
		<path d="M51.5,53.5v-2.9c0-0.1,0.1-0.3,0.3-0.3s0.3,0.1,0.3,0.3v2.9C52,53.9,51.5,53.9,51.5,53.5z"/>
	</g>
	<g>
		<path d="M52.8,52.3V50c0-0.1,0.1-0.3,0.3-0.3s0.3,0.1,0.3,0.3v2.3C53.3,52.6,52.8,52.6,52.8,52.3z"/>
	</g>
	<g>
		<path d="M54.3,51.9v-2.3c0-0.1,0.1-0.3,0.3-0.3s0.3,0.1,0.3,0.3v2.3C54.8,52.2,54.3,52.2,54.3,51.9z"/>
	</g>
	<g>
		<path d="M55.5,50.5v-1.9c0-0.1,0.1-0.3,0.3-0.3s0.3,0.1,0.3,0.3v1.9C56,50.8,55.5,50.8,55.5,50.5z"/>
	</g>
	<g>
		<path d="M56.7,49.5v-1.7c0-0.3,0.5-0.3,0.5,0v1.7C57.2,49.9,56.7,49.9,56.7,49.5z"/>
	</g>
	<g>
		<path d="M45.1,55.5v-4.2c0-0.1,0.1-0.3,0.3-0.3s0.3,0.1,0.3,0.3v4.2C45.6,55.8,45.1,55.8,45.1,55.5z"/>
	</g>
	<g>
		<path d="M43.4,54.6v-3.1c0-0.1,0.1-0.3,0.3-0.3s0.3,0.1,0.3,0.3v3.1C43.9,54.9,43.4,54.9,43.4,54.6z"/>
	</g>
	<g>
		<path d="M42.2,53.7v-2.3c0-0.1,0.1-0.3,0.3-0.3s0.3,0.1,0.3,0.3v2.3C42.7,54,42.2,54,42.2,53.7z"/>
	</g>
	<g>
		<path d="M40.6,53.3v-2c0-0.1,0.1-0.3,0.3-0.3s0.3,0.1,0.3,0.3v2C41.1,53.6,40.6,53.6,40.6,53.3z"/>
	</g>
	<g>
		<path d="M39.2,52.6v-1.4c0-0.3,0.5-0.3,0.5,0v1.4C39.7,53,39.2,53,39.2,52.6z"/>
	</g>
	<g>
		<path d="M40.4,51.8h-1.7c-0.3,0-0.3-0.5,0-0.5h1.7c0.1,0,0.3,0.1,0.3,0.3S40.5,51.8,40.4,51.8z"/>
	</g>
	<g>
		<path d="M44.2,52.5h-3.8c-0.3,0-0.3-0.5,0-0.5h3.8c0.1,0,0.3,0.1,0.3,0.3S44.3,52.5,44.2,52.5z"/>
	</g>
	<g>
		<path d="M48.3,53.8h-4.9c-0.1,0-0.3-0.1-0.3-0.3s0.1-0.3,0.3-0.3h4.9c0.1,0,0.3,0.1,0.3,0.3S48.4,53.8,48.3,53.8z"/>
	</g>
	<g>
		<path d="M49.3,52.2H46c-0.1,0-0.3-0.1-0.3-0.3s0.1-0.3,0.3-0.3h3.3c0.1,0,0.3,0.1,0.3,0.3S49.4,52.2,49.3,52.2z"/>
	</g>
	<g>
		<path d="M48.8,54.9h-2.2c-0.1,0-0.3-0.1-0.3-0.3s0.1-0.3,0.3-0.3h2.2C49.2,54.4,49.2,54.9,48.8,54.9z"/>
	</g>
	<g>
		<path d="M52.9,52.8h-2.4c-0.1,0-0.3-0.1-0.3-0.3s0.1-0.3,0.3-0.3h2.4c0.1,0,0.3,0.1,0.3,0.3S53,52.8,52.9,52.8z"/>
	</g>
	<g>
		<path d="M55.9,51.2h-2.5c-0.1,0-0.3-0.1-0.3-0.3s0.1-0.3,0.3-0.3h2.5C56.2,50.7,56.2,51.2,55.9,51.2z"/>
	</g>
	<g>
		<path d="M57,49.5h-1.3c-0.3,0-0.3-0.5,0-0.5H57c0.1,0,0.3,0.1,0.3,0.3S57.2,49.5,57,49.5z"/>
	</g>
	<g>
		<path d="M58,48.5v-1.6c0-0.1,0.1-0.3,0.3-0.3s0.3,0.1,0.3,0.3v1.6C58.5,48.8,58,48.8,58,48.5z"/>
	</g>
	<g>
		<path d="M59,47.7v-1.6c0-0.3,0.5-0.3,0.5,0v1.6C59.5,48.1,59,48.1,59,47.7z"/>
	</g>
	<g>
		<path d="M60.1,47.3v-1.8c0-0.1,0.1-0.3,0.3-0.3s0.3,0.1,0.3,0.3v1.8C60.6,47.6,60.1,47.6,60.1,47.3z"/>
	</g>
	<g>
		<path d="M60.8,46v-1.4c0-0.1,0.1-0.3,0.3-0.3s0.3,0.1,0.3,0.3V46C61.3,46.3,60.8,46.3,60.8,46z"/>
	</g>
	<g>
		<path d="M59.6,47.7h-1.9c-0.1,0-0.3-0.1-0.3-0.3s0.1-0.3,0.3-0.3h1.9c0.1,0,0.3,0.1,0.3,0.3C59.9,47.6,59.8,47.7,59.6,47.7z"/>
	</g>
	<g>
		<path d="M60.7,46.3h-1.5c-0.1,0-0.3-0.1-0.3-0.3s0.1-0.3,0.3-0.3h1.5c0.1,0,0.3,0.1,0.3,0.3S60.8,46.3,60.7,46.3z"/>
	</g>
	<g>
		<path d="M61.9,44.9h-1.1c-0.1,0-0.3-0.1-0.3-0.3s0.1-0.3,0.3-0.3h1.1c0.1,0,0.3,0.1,0.3,0.3C62.2,44.7,62.1,44.9,61.9,44.9z"/>
	</g>
</g>
</svg>
