<?xml version="1.0" encoding="utf-8"?>
<!-- Generator: Adobe Illustrator 23.1.0, SVG Export Plug-In . SVG Version: 6.00 Build 0)  -->
<svg version="1.1" id="Слой_1" xmlns="http://www.w3.org/2000/svg" xmlns:xlink="http://www.w3.org/1999/xlink" x="0px" y="0px"
	 viewBox="0 0 65 81.3" style="enable-background:new 0 0 65 81.3;" xml:space="preserve">
<g>
	<g>
		<g>
			<g>
				<g>
					<g>
						<path d="M36,49.7c-4.5,0-8.8-1.2-12.5-3.3c-11.6-6.8-15.1-18.8-9.7-32.9c1-2.7,8.6-12.4,21.1-12.9c7.9-0.3,16,3.4,20.8,9.4
							c4.9,6.1,6.5,14.6,4.3,22.1c-2.2,7.5-8.3,13.7-15.8,16.3C41.6,49.2,38.8,49.7,36,49.7z M35.8,1.5c-0.3,0-0.6,0-0.9,0
							C22,2,15.2,12.3,14.6,13.8C9.4,27.4,12.8,39,23.9,45.5c3.6,2.1,7.7,3.2,12,3.2c2.7,0,5.4-0.4,7.8-1.3
							c7.2-2.5,13-8.5,15.2-15.6c2.1-7.2,0.6-15.3-4.1-21.2C50.4,5,43.1,1.5,35.8,1.5z"/>
					</g>
					<g>
						<path d="M36,46.7c-3.9,0-7.7-1-11-2.9c-5.7-3.4-9.8-9.2-10.5-15c-0.5-4.8,0-8.8,2-13.9c0.7-1.9,4-5.3,5.5-6.5
							c1.8-1.4,3.7-2.5,5.8-3.3c2.4-0.9,4.8-1.5,7.3-1.6c7.4-0.3,14.3,3,18.7,8.9c4.1,5.5,5.3,12.3,3.4,18.8
							c-2,6.6-7.3,12-13.8,14.3C40.9,46.3,38.5,46.7,36,46.7z M35.9,4.5c-0.3,0-0.6,0-0.9,0c-2.4,0.1-4.7,0.6-6.9,1.5
							c-2,0.8-3.9,1.9-5.5,3.2c-1.4,1.1-4.5,4.4-5.2,6c-1.9,4.9-2.4,8.8-1.9,13.4c0.6,5.5,4.5,11.1,10,14.3
							c3.1,1.8,6.7,2.8,10.5,2.8c2.4,0,4.7-0.4,6.8-1.1c6.3-2.2,11.3-7.4,13.2-13.6c1.8-6.2,0.7-12.7-3.2-17.9
							C48.8,7.6,42.6,4.5,35.9,4.5z"/>
					</g>
					<g>
						<path d="M12.6,50.7c-0.1,0-0.2,0-0.3-0.1c-0.2-0.2-0.3-0.5-0.1-0.7l6.1-8.1c0.2-0.2,0.5-0.3,0.7-0.1c0.2,0.2,0.3,0.5,0.1,0.7
							L13,50.5C12.9,50.6,12.7,50.7,12.6,50.7z"/>
					</g>
					<g>
						<path d="M15.6,53.4c-0.1,0-0.2,0-0.3-0.1c-0.2-0.2-0.2-0.5,0-0.7l7.2-7.5c0.2-0.2,0.5-0.2,0.7,0c0.2,0.2,0.2,0.5,0,0.7
							L16,53.2C15.9,53.3,15.8,53.4,15.6,53.4z"/>
					</g>
					<g>
						<path d="M6.7,64.5c-0.9,0-1.6-0.3-2.1-0.9c-0.6-0.8-0.7-1.9-0.3-3.4c1.1-4,3.4-7.7,6.5-10.4c0.4-0.4,0.7-0.6,1.1-0.6
							c0.4,0,0.7,0.3,1,0.6c0.4,0.4,0.9,0.7,1.4,1c1,0.7,2.1,1.4,2.4,2.7c0.3,1.3-0.4,2.4-1,3.4c-1.6,2.3-3.5,4.4-5.7,6.1
							c-0.7,0.5-1.5,1.1-2.4,1.4C7.3,64.5,7,64.5,6.7,64.5z M11.9,50.2c-0.1,0.1-0.2,0.2-0.3,0.3c-3.1,2.6-5.3,6.1-6.3,9.9
							C5,61.6,5,62.4,5.4,63c0.4,0.5,1,0.5,1.3,0.5c0.2,0,0.4,0,0.6-0.1c0.8-0.2,1.5-0.7,2-1.2c2.1-1.7,3.9-3.7,5.5-5.9
							c0.6-0.8,1.1-1.7,0.9-2.6c-0.2-0.9-1.1-1.5-2-2c-0.5-0.4-1.1-0.7-1.6-1.2C12.1,50.5,12,50.3,11.9,50.2z"/>
					</g>
				</g>
				<g>
					<path d="M34.3,24.8c-0.8,0-1.7-0.2-2.7-0.5c-1.3-0.5-2.2-0.7-3-0.7c-0.7,0-1.1,0.2-1.7,0.3c-0.6,0.2-1.3,0.4-2.4,0.5l-0.1,0
						c-2.1,0-4.2-1.5-5.1-3.5c-0.8-1.9-0.7-4.3,0.4-6.3c0.9-1.8,2.4-3,3.9-4.2l0.3-0.2c0.5-0.4,0.9-0.8,1.4-1.2
						c1-0.9,1.9-1.8,3.4-2.4c1-0.4,2-0.6,2.9-0.6c3.7,0,6.7,2.6,6.8,6c0,1.3-0.4,2.6-0.8,3.8c-0.5,1.4-0.9,2.7-0.6,4
						c0.1,0.3,0.1,0.5,0.2,0.8c0.2,0.7,0.4,1.4,0.3,2.1C37.1,23.8,36.2,24.8,34.3,24.8z M28.5,22.6c0.9,0,2,0.2,3.4,0.7
						c0.9,0.3,1.7,0.5,2.4,0.5c1.7,0,2-1,2.1-1.3c0.1-0.5-0.1-1-0.2-1.6c-0.1-0.3-0.2-0.6-0.2-0.9c-0.3-1.6,0.2-3.1,0.7-4.6
						c0.4-1.2,0.8-2.3,0.7-3.4c-0.1-2.8-2.6-5-5.8-5c-0.9,0-1.7,0.2-2.6,0.5c-1.3,0.5-2.1,1.3-3.1,2.2c-0.5,0.4-0.9,0.9-1.5,1.3
						l-0.3,0.2c-1.5,1.2-2.8,2.2-3.6,3.8c-0.9,1.8-1.1,3.8-0.4,5.5c0.7,1.7,2.4,2.9,4.2,2.9l0.1,0c0.9,0,1.5-0.2,2.1-0.4
						C27.1,22.8,27.7,22.6,28.5,22.6z"/>
				</g>
				<g>
					<path d="M29.7,19.5c-0.5,0-1-0.1-1.4-0.2c-1.5-0.5-2.6-1.8-2.9-3.3c-0.3-1.2,0.1-2.5,0.9-3.6c1-1.2,2.5-2,3.9-2.1l0.2,0
						c1.2,0,2.3,0.4,3,1.2c0.8,0.8,1.2,1.8,1.1,3c0,1.5-0.7,3-1.9,3.9C31.8,19.2,30.8,19.5,29.7,19.5z M30.4,11.4l-0.1,0
						c-1.2,0-2.4,0.7-3.2,1.7c-0.7,0.9-0.9,1.9-0.7,2.8c0.2,1.1,1.1,2.1,2.3,2.5c1.1,0.4,2.4,0.1,3.4-0.6c0.9-0.7,1.5-1.9,1.5-3.1
						c0-0.9-0.3-1.7-0.9-2.3C32.1,11.7,31.3,11.4,30.4,11.4z"/>
				</g>
				<g>
					<path d="M49,25.6c-0.4,0-0.9-0.1-1.3-0.2c-1.4-0.5-2.4-1.6-2.7-3c-0.2-1.2,0.1-2.4,0.9-3.4c0.9-1.1,2.4-1.9,3.8-1.9
						c1.3,0,2.4,0.6,3.1,1.7c0.4,0.6,0.6,1.4,0.6,2.2c0,1.4-0.7,2.8-1.8,3.6C50.9,25.3,50,25.6,49,25.6z M49.7,18.2
						c-1.1,0-2.3,0.6-3.1,1.5c-0.4,0.5-0.9,1.4-0.7,2.5c0.2,1,1,1.9,2,2.3c1,0.3,2.2,0.1,3-0.5c0.8-0.6,1.4-1.7,1.4-2.8
						c0-0.6-0.1-1.2-0.4-1.7C51.4,18.4,50.4,18.2,49.7,18.2z"/>
				</g>
				<g>
					<path d="M41,40.8c-0.4,0-0.9-0.1-1.3-0.2c-1.4-0.5-2.4-1.6-2.7-3c-0.2-1.1,0.1-2.3,0.9-3.3c0.9-1.1,2.3-1.8,3.6-1.9l0.1,0
						c1.3,0,2.6,0.7,3.3,1.7c0.4,0.6,0.6,1.4,0.6,2.2c0,1.4-0.7,2.8-1.8,3.6C42.9,40.5,42,40.8,41,40.8z M41.6,33.4l-0.1,0
						c-1,0-2.1,0.6-2.8,1.5c-0.6,0.8-0.8,1.7-0.7,2.5c0.2,1,1,1.9,2,2.3c1,0.3,2.2,0.1,3-0.5c0.8-0.6,1.4-1.7,1.4-2.8
						c0-0.6-0.1-1.2-0.4-1.7C43.5,33.9,42.6,33.4,41.6,33.4z"/>
				</g>
				<g>
					<path d="M22.3,34.8c-0.4,0-0.8-0.1-1.2-0.2C20,34.3,19,33.2,18.8,32c-0.2-1,0.1-2.1,0.8-3c0.8-1,2-1.6,3.2-1.7l0.1,0
						c0.9,0,1.8,0.4,2.5,1c0.6,0.6,1,1.5,0.9,2.5c0,1.3-0.6,2.4-1.6,3.2C24,34.6,23.2,34.8,22.3,34.8z M22.9,28.4
						c-1,0-1.9,0.5-2.5,1.3c-0.5,0.7-0.7,1.4-0.6,2.1c0.2,0.9,0.9,1.6,1.7,1.9c0.8,0.3,1.9,0.1,2.6-0.5c0.7-0.6,1.2-1.5,1.2-2.4
						c0-0.7-0.2-1.3-0.7-1.8C24.2,28.6,23.5,28.4,22.9,28.4z"/>
				</g>
				<g>
					<path d="M49.2,28c-0.7,0-1.3-0.1-1.9-0.4c-0.4-0.2-0.7-0.5-1.1-0.7c-0.5-0.3-0.9-0.6-1.4-0.8c-0.4-0.1-1.1,0-1.8,0.1
						c-0.5,0.1-1,0.1-1.5,0.1c-0.9,0-1.6-0.3-2.1-0.8c-0.7-0.7-0.9-2-0.8-3.8l0.5-5.6c0.2-2.2,1.3-4.5,3.5-4.5
						c0.7,0,1.4,0.2,2.1,0.7c1.6,1.1,1.8,0.8,2.6,0.7c0.3-0.1,0.6-0.1,1-0.2c2-0.3,4.2,0.8,5.4,2.6c2.1,3.1,1.6,8.5-0.9,11
						C51.8,27.4,50.5,28,49.2,28z M44.3,25c0.3,0,0.6,0,0.8,0.1c0.7,0.2,1.2,0.6,1.7,0.9c0.3,0.2,0.6,0.5,0.9,0.6
						c1.3,0.7,3.2,0.2,4.4-0.9c2.2-2.2,2.6-7,0.8-9.7c-1-1.5-2.8-2.4-4.4-2.2c-0.4,0.1-0.7,0.1-0.9,0.2c-1,0.2-1.7,0.3-3.3-0.8
						c-0.6-0.4-1.1-0.6-1.6-0.6c-1.5,0-2.4,1.8-2.5,3.6l-0.5,5.6c-0.1,1.5,0,2.6,0.5,3.1c0.3,0.3,0.7,0.5,1.4,0.5
						c0.4,0,0.9-0.1,1.4-0.1C43.4,25.1,43.9,25,44.3,25z"/>
				</g>
				<g>
					<path d="M26.7,40.6c-0.5,0-1-0.1-1.4-0.3c-1-0.5-1.8-1.3-2.5-2c-0.5-0.6-1-1.1-1.6-1.5c-0.4-0.2-0.7-0.4-1.1-0.6
						c-0.4-0.2-0.8-0.4-1.2-0.6c-0.1,0-0.1-0.1-0.2-0.1c-0.2,0-0.4-0.1-0.5-0.3c-0.1-0.1-0.1-0.3-0.2-0.4c-0.5-0.5-0.7-1.2-0.7-1.8
						c0,0,0-0.1,0-0.1c-0.3-1.1-0.3-2.1-0.2-3.1c0.3-2.1,1.7-3.8,3.5-4.3c1.5-0.4,2.9,0,4.3,0.4c0.9,0.3,1.8,0.5,2.7,0.6
						c0.6,0,1.2-0.1,1.8-0.1c1.2-0.2,2.5-0.3,3.6,0.2c1.3,0.6,2.2,2.1,2.3,3.8c0.1,1.5-0.4,3-0.9,4.2c-0.4,1-0.9,2-1.8,2.5
						c-0.4,0.3-0.9,0.4-1.3,0.5c-0.5,0.1-0.9,0.2-1.2,0.5c-0.3,0.2-0.5,0.6-0.8,0.9c-0.3,0.4-0.6,0.9-1,1.2
						C27.8,40.4,27.3,40.6,26.7,40.6z M18.8,34.1c0.2,0.2,0.4,0.3,0.6,0.5c0.3,0.2,0.7,0.4,1.1,0.6c0.4,0.2,0.9,0.4,1.3,0.7
						c0.7,0.5,1.2,1,1.7,1.6c0.7,0.7,1.3,1.4,2.2,1.8c0.7,0.3,1.5,0.3,2-0.1c0.3-0.2,0.5-0.6,0.8-0.9c0.3-0.4,0.6-0.8,1-1.2
						c0.5-0.4,1-0.5,1.6-0.7c0.4-0.1,0.8-0.2,1.1-0.4c0.7-0.4,1.1-1.2,1.4-2c0.5-1.1,0.9-2.4,0.8-3.7c-0.1-1.3-0.8-2.5-1.7-2.9
						c-0.9-0.4-2-0.3-3.1-0.2c-0.6,0.1-1.3,0.2-2,0.1c-1,0-2-0.3-3-0.6c-1.3-0.4-2.6-0.8-3.8-0.4c-1.4,0.4-2.5,1.8-2.8,3.5
						C17.9,31.1,18.1,32.6,18.8,34.1z"/>
				</g>
				<g>
					<path d="M38.6,44.9c-0.9,0-1.7-0.2-2.4-0.6c-1-0.6-1.7-1.7-1.8-2.7c0-0.3,0-0.5,0.1-0.7c0-0.2,0.1-0.3,0-0.5
						c0-0.1,0-0.3-0.1-0.6c-0.2-1.4-0.6-4.4,1.4-7.9c0.5-0.9,1-1.5,1.6-1.9c0.8-0.6,1.7-0.9,2.5-0.8c0.5,0.1,0.9,0.3,1.4,0.4
						c0.3,0.1,0.6,0.2,0.8,0.3c1,0.3,2.3-0.1,3.4-0.5l0.3-0.1c0.6-0.2,1.6-0.5,2.5-0.5c0.7,0,1.4,0.2,1.9,0.5c1.2,0.7,1.9,2.2,2,4.4
						c0.1,2-0.3,3.5-1.3,4.4c-0.6,0.5-1.3,0.8-1.9,1.1c-0.2,0.1-0.4,0.2-0.6,0.3c-1.2,0.6-2.4,1.5-3.5,2.3c-1.5,1.2-3.1,2.4-5,2.9
						C39.6,44.8,39.1,44.9,38.6,44.9z M39.7,30.1c-0.5,0-1.1,0.2-1.5,0.6c-0.5,0.4-0.9,0.9-1.3,1.6c-1.9,3.2-1.5,6-1.3,7.3
						c0,0.3,0.1,0.5,0.1,0.6c0,0.3,0,0.5-0.1,0.7c0,0.2-0.1,0.3,0,0.5c0,0.7,0.6,1.5,1.3,1.9c0.8,0.5,2,0.6,3.2,0.3
						c1.7-0.4,3.1-1.5,4.6-2.7c1.1-0.9,2.3-1.8,3.7-2.4c0.2-0.1,0.4-0.2,0.6-0.3c0.6-0.3,1.2-0.5,1.6-0.9c0.8-0.7,1.1-1.9,1-3.6
						c-0.1-1.8-0.6-3-1.5-3.6c-0.4-0.2-0.9-0.4-1.4-0.4c-0.8,0-1.6,0.2-2.2,0.4L46,30.4C45,30.7,44.1,31,43,31c-0.4,0-0.7,0-1.1-0.1
						c-0.3-0.1-0.7-0.2-1-0.4c-0.4-0.2-0.7-0.3-1.1-0.4C39.8,30.1,39.8,30.1,39.7,30.1z"/>
				</g>
			</g>
			<g>
				<path d="M31.7,18.7c-0.1,0-0.1,0-0.2-0.1l-1.2-1.2c-0.1-0.1-0.1-0.3,0-0.4c0.1-0.1,0.3-0.1,0.4,0l1.2,1.2c0.1,0.1,0.1,0.3,0,0.4
					C31.8,18.6,31.8,18.7,31.7,18.7z"/>
			</g>
			<g>
				<path d="M32.5,18.1c-0.1,0-0.1,0-0.2-0.1l-1.2-1.2c-0.1-0.1-0.1-0.3,0-0.4c0.1-0.1,0.3-0.1,0.4,0l1.2,1.2c0.1,0.1,0.1,0.3,0,0.4
					C32.7,18,32.6,18.1,32.5,18.1z"/>
			</g>
			<g>
				<path d="M33,17.3c-0.1,0-0.1,0-0.2-0.1l-1-1c-0.1-0.1-0.1-0.3,0-0.4c0.1-0.1,0.3-0.1,0.4,0l1,1c0.1,0.1,0.1,0.3,0,0.4
					C33.2,17.3,33.1,17.3,33,17.3z"/>
			</g>
			<g>
				<path d="M33.6,16.4c-0.1,0-0.1,0-0.2-0.1l-0.8-0.8c-0.1-0.1-0.1-0.3,0-0.4c0.1-0.1,0.3-0.1,0.4,0l0.8,0.8c0.1,0.1,0.1,0.3,0,0.4
					C33.7,16.3,33.6,16.4,33.6,16.4z"/>
			</g>
			<g>
				<path d="M33.8,15.6c-0.1,0-0.1,0-0.2-0.1L33,14.9c-0.1-0.1-0.1-0.3,0-0.4c0.1-0.1,0.3-0.1,0.4,0l0.6,0.6c0.1,0.1,0.1,0.3,0,0.4
					C34,15.6,33.9,15.6,33.8,15.6z"/>
			</g>
			<g>
				<path d="M30.6,18.8c-0.1,0-0.1,0-0.2-0.1l-0.9-0.9c-0.1-0.1-0.1-0.3,0-0.4c0.1-0.1,0.3-0.1,0.4,0l0.9,0.9c0.1,0.1,0.1,0.3,0,0.4
					C30.8,18.8,30.7,18.8,30.6,18.8z"/>
			</g>
			<g>
				<path d="M29.4,18.9c-0.1,0-0.1,0-0.2-0.1l-0.6-0.6c-0.1-0.1-0.1-0.3,0-0.4c0.1-0.1,0.3-0.1,0.4,0l0.6,0.6c0.1,0.1,0.1,0.3,0,0.4
					C29.5,18.9,29.4,18.9,29.4,18.9z"/>
			</g>
			<g>
				<path d="M28.9,19c-0.1,0-0.1,0-0.2-0.1c-0.1-0.1-0.1-0.3,0-0.4l0.7-0.7c0.1-0.1,0.3-0.1,0.4,0c0.1,0.1,0.1,0.3,0,0.4l-0.7,0.7
					C29,18.9,29,19,28.9,19z"/>
			</g>
			<g>
				<path d="M30.2,19c-0.1,0-0.1,0-0.2-0.1c-0.1-0.1-0.1-0.3,0-0.4l1.6-1.6c0.1-0.1,0.3-0.1,0.4,0s0.1,0.3,0,0.4l-1.6,1.6
					C30.3,19,30.2,19,30.2,19z"/>
			</g>
			<g>
				<path d="M32.1,17.8c-0.1,0-0.1,0-0.2-0.1c-0.1-0.1-0.1-0.3,0-0.4l0.7-0.7c0.1-0.1,0.3-0.1,0.4,0c0.1,0.1,0.1,0.3,0,0.4l-0.7,0.7
					C32.2,17.8,32.1,17.8,32.1,17.8z"/>
			</g>
			<g>
				<path d="M32.7,16.1c-0.1,0-0.1,0-0.2-0.1c-0.1-0.1-0.1-0.3,0-0.4l0.9-0.9c0.1-0.1,0.3-0.1,0.4,0s0.1,0.3,0,0.4l-0.9,0.9
					C32.8,16.1,32.8,16.1,32.7,16.1z"/>
			</g>
			<g>
				<path d="M51.2,24.2c-0.1,0-0.1,0-0.2-0.1l-1.6-1.6c-0.1-0.1-0.1-0.3,0-0.4c0.1-0.1,0.3-0.1,0.4,0l1.6,1.6c0.1,0.1,0.1,0.3,0,0.4
					C51.3,24.2,51.3,24.2,51.2,24.2z"/>
			</g>
			<g>
				<path d="M52,23.3c-0.1,0-0.1,0-0.2-0.1l-1.4-1.4c-0.1-0.1-0.1-0.3,0-0.4s0.3-0.1,0.4,0l1.4,1.4c0.1,0.1,0.1,0.3,0,0.4
					C52.1,23.3,52,23.3,52,23.3z"/>
			</g>
			<g>
				<path d="M52.5,21.8c-0.1,0-0.1,0-0.2-0.1l-0.8-0.8c-0.1-0.1-0.1-0.3,0-0.4c0.1-0.1,0.3-0.1,0.4,0l0.8,0.8c0.1,0.1,0.1,0.3,0,0.4
					C52.6,21.8,52.5,21.8,52.5,21.8z"/>
			</g>
			<g>
				<path d="M49.8,24.6c-0.1,0-0.1,0-0.2-0.1l-1.2-1.2c-0.1-0.1-0.1-0.3,0-0.4s0.3-0.1,0.4,0l1.2,1.2c0.1,0.1,0.1,0.3,0,0.4
					C49.9,24.6,49.8,24.6,49.8,24.6z"/>
			</g>
			<g>
				<path d="M48.8,25c-0.1,0-0.1,0-0.2-0.1L47.6,24c-0.1-0.1-0.1-0.3,0-0.4s0.3-0.1,0.4,0l0.9,0.9c0.1,0.1,0.1,0.3,0,0.4
					C48.9,25,48.8,25,48.8,25z"/>
			</g>
			<g>
				<path d="M48.1,25c-0.1,0-0.1,0-0.2-0.1c-0.1-0.1-0.1-0.3,0-0.4l2.1-2.1c0.1-0.1,0.3-0.1,0.4,0s0.1,0.3,0,0.4l-2.1,2.1
					C48.3,24.9,48.2,25,48.1,25z"/>
			</g>
			<g>
				<path d="M50.3,24.6c-0.1,0-0.1,0-0.2-0.1c-0.1-0.1-0.1-0.3,0-0.4l1.6-1.6c0.1-0.1,0.3-0.1,0.4,0s0.1,0.3,0,0.4l-1.6,1.6
					C50.4,24.5,50.4,24.6,50.3,24.6z"/>
			</g>
			<g>
				<path d="M51.2,22.2c-0.1,0-0.1,0-0.2-0.1c-0.1-0.1-0.1-0.3,0-0.4l1.2-1.2c0.1-0.1,0.3-0.1,0.4,0s0.1,0.3,0,0.4l-1.2,1.2
					C51.4,22.1,51.3,22.2,51.2,22.2z"/>
			</g>
			<g>
				<path d="M43.1,39.5c-0.1,0-0.1,0-0.2-0.1L41.4,38c-0.1-0.1-0.1-0.3,0-0.4s0.3-0.1,0.4,0l1.5,1.5c0.1,0.1,0.1,0.3,0,0.4
					C43.2,39.5,43.2,39.5,43.1,39.5z"/>
			</g>
			<g>
				<path d="M43.8,38.7c-0.1,0-0.1,0-0.2-0.1l-1.3-1.3c-0.1-0.1-0.1-0.3,0-0.4c0.1-0.1,0.3-0.1,0.4,0l1.3,1.3c0.1,0.1,0.1,0.3,0,0.4
					C43.9,38.7,43.8,38.7,43.8,38.7z"/>
			</g>
			<g>
				<path d="M44.6,37.4c-0.1,0-0.1,0-0.2-0.1l-0.9-0.9c-0.1-0.1-0.1-0.3,0-0.4s0.3-0.1,0.4,0l0.9,0.9c0.1,0.1,0.1,0.3,0,0.4
					C44.7,37.4,44.7,37.4,44.6,37.4z"/>
			</g>
			<g>
				<path d="M42,40c-0.1,0-0.1,0-0.2-0.1l-1.3-1.3c-0.1-0.1-0.1-0.3,0-0.4s0.3-0.1,0.4,0l1.3,1.3c0.1,0.1,0.1,0.3,0,0.4
					C42.1,40,42,40,42,40z"/>
			</g>
			<g>
				<path d="M40.9,40.1c-0.1,0-0.1,0-0.2-0.1l-0.9-0.9c-0.1-0.1-0.1-0.3,0-0.4s0.3-0.1,0.4,0l0.9,0.9c0.1,0.1,0.1,0.3,0,0.4
					C41,40.1,41,40.1,40.9,40.1z"/>
			</g>
			<g>
				<path d="M39.8,40c-0.1,0-0.1,0-0.2-0.1c-0.1-0.1-0.1-0.3,0-0.4l1.5-1.5c0.1-0.1,0.3-0.1,0.4,0s0.1,0.3,0,0.4L40,40
					C40,40,39.9,40,39.8,40z"/>
			</g>
			<g>
				<path d="M41.9,40c-0.1,0-0.1,0-0.2-0.1c-0.1-0.1-0.1-0.3,0-0.4l1.4-1.4c0.1-0.1,0.3-0.1,0.4,0s0.1,0.3,0,0.4L42.1,40
					C42,40,42,40,41.9,40z"/>
			</g>
			<g>
				<path d="M43.3,37.8c-0.1,0-0.1,0-0.2-0.1c-0.1-0.1-0.1-0.3,0-0.4l1.1-1.1c0.1-0.1,0.3-0.1,0.4,0c0.1,0.1,0.1,0.3,0,0.4l-1.1,1.1
					C43.4,37.7,43.3,37.8,43.3,37.8z"/>
			</g>
			<g>
				<path d="M24.1,33.4c-0.1,0-0.1,0-0.2-0.1l-1.8-1.8c-0.1-0.1-0.1-0.3,0-0.4s0.3-0.1,0.4,0l1.8,1.8c0.1,0.1,0.1,0.3,0,0.4
					C24.3,33.4,24.2,33.4,24.1,33.4z"/>
			</g>
			<g>
				<path d="M24.5,32.8c-0.1,0-0.1,0-0.2-0.1l-1.4-1.4c-0.1-0.1-0.1-0.3,0-0.4c0.1-0.1,0.3-0.1,0.4,0l1.4,1.4c0.1,0.1,0.1,0.3,0,0.4
					C24.7,32.8,24.6,32.8,24.5,32.8z"/>
			</g>
			<g>
				<path d="M25.3,31.9c-0.1,0-0.1,0-0.2-0.1l-1-1c-0.1-0.1-0.1-0.3,0-0.4c0.1-0.1,0.3-0.1,0.4,0l1,1c0.1,0.1,0.1,0.3,0,0.4
					C25.4,31.9,25.3,31.9,25.3,31.9z"/>
			</g>
			<g>
				<path d="M22.5,33.6c-0.1,0-0.1,0-0.2-0.1l-1-1c-0.1-0.1-0.1-0.3,0-0.4c0.1-0.1,0.3-0.1,0.4,0l1,1c0.1,0.1,0.1,0.3,0,0.4
					C22.7,33.6,22.6,33.6,22.5,33.6z"/>
			</g>
			<g>
				<path d="M21.5,34.1c-0.1,0-0.1,0-0.2-0.1l-0.9-0.9c-0.1-0.1-0.1-0.3,0-0.4s0.3-0.1,0.4,0l0.9,0.9c0.1,0.1,0.1,0.3,0,0.4
					C21.6,34.1,21.6,34.1,21.5,34.1z"/>
			</g>
			<g>
				<path d="M21.2,34.1c-0.1,0-0.1,0-0.2-0.1c-0.1-0.1-0.1-0.3,0-0.4l2-2c0.1-0.1,0.3-0.1,0.4,0s0.1,0.3,0,0.4l-2,2
					C21.4,34.1,21.3,34.1,21.2,34.1z"/>
			</g>
			<g>
				<path d="M22.9,34.1c-0.1,0-0.1,0-0.2-0.1c-0.1-0.1-0.1-0.3,0-0.4l1.2-1.2c0.1-0.1,0.3-0.1,0.4,0c0.1,0.1,0.1,0.3,0,0.4L23,34
					C23,34,22.9,34.1,22.9,34.1z"/>
			</g>
			<g>
				<path d="M24,31.6c-0.1,0-0.1,0-0.2-0.1c-0.1-0.1-0.1-0.3,0-0.4l0.9-0.9c0.1-0.1,0.3-0.1,0.4,0s0.1,0.3,0,0.4l-0.9,0.9
					C24.1,31.5,24.1,31.6,24,31.6z"/>
			</g>
			<g>
				<path d="M39.2,7.9c-0.1,0-0.2,0-0.2-0.1c-0.1-0.1,0-0.3,0.1-0.3l0.7-0.4c0.1-0.1,0.3,0,0.3,0.1c0.1,0.1,0,0.3-0.1,0.3l-0.7,0.4
					C39.3,7.9,39.3,7.9,39.2,7.9z"/>
			</g>
			<g>
				<path d="M17,23.4c-0.1,0-0.2-0.1-0.2-0.2l-0.1-0.9c0-0.1,0.1-0.3,0.2-0.3c0.1,0,0.3,0.1,0.3,0.2l0.1,0.9
					C17.3,23.2,17.2,23.3,17,23.4C17,23.4,17,23.4,17,23.4z"/>
			</g>
			<g>
				<path d="M45.1,10C45.1,10,45,10,45.1,10l-1-0.4c-0.1-0.1-0.2-0.2-0.1-0.3c0.1-0.1,0.2-0.2,0.3-0.1l0.9,0.4
					c0.1,0.1,0.2,0.2,0.1,0.3C45.3,10,45.2,10,45.1,10z"/>
			</g>
			<g>
				<path d="M36.6,26.8h-0.5c-0.1,0-0.3-0.1-0.3-0.3s0.1-0.3,0.3-0.3h0.5c0.1,0,0.3,0.1,0.3,0.3S36.8,26.8,36.6,26.8z"/>
			</g>
			<g>
				<path d="M30.3,41.7c-0.1,0-0.2-0.1-0.2-0.2l-0.1-1.2c0-0.1,0.1-0.3,0.2-0.3c0.2,0,0.3,0.1,0.3,0.2l0.1,1.2
					C30.5,41.5,30.4,41.6,30.3,41.7C30.3,41.7,30.3,41.7,30.3,41.7z"/>
			</g>
			<g>
				<path d="M26.2,42.1c-0.1,0-0.3-0.1-0.3-0.3v-0.5c0-0.1,0.1-0.3,0.3-0.3s0.3,0.1,0.3,0.3v0.5C26.4,42,26.3,42.1,26.2,42.1z"/>
			</g>
			<g>
				<path d="M54.1,29.6C54.1,29.6,54.1,29.6,54.1,29.6c-0.6-0.1-1-0.6-1-1.1c0-0.1,0.1-0.3,0.2-0.3c0.1,0,0.3,0.1,0.3,0.2
					c0,0.3,0.3,0.6,0.5,0.6c0.1,0,0.2,0.2,0.2,0.3C54.3,29.5,54.2,29.6,54.1,29.6z"/>
			</g>
			<g>
				<path d="M55.6,26.7c0,0-0.1,0-0.1,0L55,26.4c-0.1-0.1-0.2-0.2-0.1-0.3c0.1-0.1,0.2-0.1,0.3-0.1l0.4,0.3c0.1,0.1,0.2,0.2,0.1,0.3
					C55.8,26.7,55.7,26.7,55.6,26.7z"/>
			</g>
			<g>
				<path d="M41.4,28.2C41.4,28.2,41.3,28.2,41.4,28.2L40.7,28c-0.1,0-0.2-0.2-0.2-0.3c0-0.1,0.2-0.2,0.3-0.2l0.7,0.2
					c0.1,0,0.2,0.2,0.2,0.3C41.6,28.1,41.5,28.2,41.4,28.2z"/>
			</g>
			<g>
				<path d="M32.5,42C32.4,42,32.4,42,32.5,42c-0.2,0-0.3-0.2-0.2-0.3l0-0.2c0-0.1,0.2-0.2,0.3-0.2c0.1,0,0.2,0.2,0.2,0.3l0,0.2
					C32.7,42,32.6,42,32.5,42z"/>
			</g>
			<g>
				<path d="M19.1,23.8C19.1,23.8,19.1,23.8,19.1,23.8l-0.3-0.1c-0.1,0-0.2-0.2-0.2-0.3c0-0.1,0.1-0.2,0.3-0.2l0.3,0
					c0.1,0,0.2,0.2,0.2,0.3C19.3,23.7,19.2,23.8,19.1,23.8z"/>
			</g>
			<g>
				<path d="M16.8,27c-0.1,0-0.2,0-0.2-0.1l-0.3-0.4c-0.1-0.1-0.1-0.3,0.1-0.3c0.1-0.1,0.3-0.1,0.3,0.1l0.3,0.4
					c0.1,0.1,0.1,0.3-0.1,0.3C16.9,27,16.9,27,16.8,27z"/>
			</g>
			<g>
				<path d="M29.6,31.8c-0.1,0-0.2,0-0.2-0.1c-0.1-0.1,0-0.3,0.1-0.3l0.3-0.2c0.1-0.1,0.3,0,0.3,0.1c0.1,0.1,0,0.3-0.1,0.3l-0.3,0.2
					C29.6,31.7,29.6,31.8,29.6,31.8z"/>
			</g>
			<g>
				<path d="M33.1,21.3H33c-0.1,0-0.3-0.1-0.3-0.3s0.1-0.3,0.3-0.3h0.1c0.1,0,0.3,0.1,0.3,0.3S33.3,21.3,33.1,21.3z"/>
			</g>
			<g>
				<path d="M22.4,18.3c-0.1,0-0.1,0-0.2-0.1l-0.8-0.8c-0.1-0.1-0.1-0.3,0-0.4c0.1-0.1,0.3-0.1,0.4,0l0.8,0.8c0.1,0.1,0.1,0.3,0,0.4
					C22.5,18.3,22.4,18.3,22.4,18.3z"/>
			</g>
			<g>
				<path d="M43.8,16.3c0,0-0.1,0-0.1,0c-0.1-0.1-0.2-0.2-0.1-0.3l0.3-0.7c0.1-0.1,0.2-0.2,0.3-0.1c0.1,0.1,0.2,0.2,0.1,0.3L44,16.1
					C44,16.2,43.9,16.3,43.8,16.3z"/>
			</g>
			<g>
				<path d="M47.9,33h-0.6c-0.1,0-0.3-0.1-0.3-0.3s0.1-0.3,0.3-0.3h0.6c0.1,0,0.3,0.1,0.3,0.3S48,33,47.9,33z"/>
			</g>
		</g>
		<g>
			<path d="M21.8,11.5c-0.1,0-0.1,0-0.2-0.1l-1.1-1.1c-0.1-0.1-0.1-0.3,0-0.4c0.1-0.1,0.3-0.1,0.4,0L22,11c0.1,0.1,0.1,0.3,0,0.4
				C21.9,11.4,21.9,11.5,21.8,11.5z"/>
		</g>
		<g>
			<path d="M22.6,10.6c-0.1,0-0.1,0-0.2-0.1l-0.8-0.8c-0.1-0.1-0.1-0.3,0-0.4c0.1-0.1,0.3-0.1,0.4,0l0.8,0.8c0.1,0.1,0.1,0.3,0,0.4
				C22.7,10.5,22.6,10.6,22.6,10.6z"/>
		</g>
		<g>
			<path d="M23.7,9.7c-0.1,0-0.1,0-0.2-0.1l-0.9-0.9c-0.1-0.1-0.1-0.3,0-0.4c0.1-0.1,0.3-0.1,0.4,0l0.9,0.9c0.1,0.1,0.1,0.3,0,0.4
				C23.8,9.7,23.7,9.7,23.7,9.7z"/>
		</g>
		<g>
			<path d="M25.1,8.5c-0.1,0-0.1,0-0.2-0.1l-0.8-0.8c-0.1-0.1-0.1-0.3,0-0.4c0.1-0.1,0.3-0.1,0.4,0l0.8,0.8c0.1,0.1,0.1,0.3,0,0.4
				C25.3,8.5,25.2,8.5,25.1,8.5z"/>
		</g>
		<g>
			<path d="M26.5,7.9c-0.1,0-0.1,0-0.2-0.1l-0.9-0.9c-0.1-0.1-0.1-0.3,0-0.4c0.1-0.1,0.3-0.1,0.4,0l0.9,0.9c0.1,0.1,0.1,0.3,0,0.4
				C26.6,7.8,26.5,7.9,26.5,7.9z"/>
		</g>
		<g>
			<path d="M28.1,7c-0.1,0-0.1,0-0.2-0.1l-0.8-0.8C27,6,27,5.9,27.1,5.8c0.1-0.1,0.3-0.1,0.4,0l0.8,0.8c0.1,0.1,0.1,0.3,0,0.4
				C28.2,7,28.1,7,28.1,7z"/>
		</g>
		<g>
			<path d="M30.5,7c-0.1,0-0.1,0-0.2-0.1l-1.4-1.4c-0.1-0.1-0.1-0.3,0-0.4c0.1-0.1,0.3-0.1,0.4,0l1.4,1.4c0.1,0.1,0.1,0.3,0,0.4
				C30.6,7,30.5,7,30.5,7z"/>
		</g>
		<g>
			<path d="M32.7,6.3c-0.1,0-0.1,0-0.2-0.1l-1.4-1.4c-0.1-0.1-0.1-0.3,0-0.4c0.1-0.1,0.3-0.1,0.4,0l1.4,1.4c0.1,0.1,0.1,0.3,0,0.4
				C32.8,6.3,32.7,6.3,32.7,6.3z"/>
		</g>
		<g>
			<path d="M35.3,6.5c-0.1,0-0.1,0-0.2-0.1l-2-2C33,4.3,33,4.1,33.1,4c0.1-0.1,0.3-0.1,0.4,0l2,2c0.1,0.1,0.1,0.3,0,0.4
				C35.4,6.5,35.4,6.5,35.3,6.5z"/>
		</g>
		<g>
			<path d="M37.8,6.3c-0.1,0-0.1,0-0.2-0.1l-1.7-1.7c-0.1-0.1-0.1-0.3,0-0.4c0.1-0.1,0.3-0.1,0.4,0l1.7,1.7c0.1,0.1,0.1,0.3,0,0.4
				C37.9,6.2,37.8,6.3,37.8,6.3z"/>
		</g>
		<g>
			<path d="M40,6.1c-0.1,0-0.1,0-0.2-0.1l-1.3-1.3c-0.1-0.1-0.1-0.3,0-0.4c0.1-0.1,0.3-0.1,0.4,0l1.3,1.3c0.1,0.1,0.1,0.3,0,0.4
				C40.1,6.1,40,6.1,40,6.1z"/>
		</g>
		<g>
			<path d="M43.3,7.6c-0.1,0-0.1,0-0.2-0.1l-2.3-2.3c-0.1-0.1-0.1-0.3,0-0.4c0.1-0.1,0.3-0.1,0.4,0l2.3,2.3c0.1,0.1,0.1,0.3,0,0.4
				C43.4,7.6,43.4,7.6,43.3,7.6z"/>
		</g>
		<g>
			<path d="M45.7,7.8c-0.1,0-0.1,0-0.2-0.1L43.8,6c-0.1-0.1-0.1-0.3,0-0.4c0.1-0.1,0.3-0.1,0.4,0l1.8,1.8c0.1,0.1,0.1,0.3,0,0.4
				C45.8,7.8,45.8,7.8,45.7,7.8z"/>
		</g>
		<g>
			<path d="M48.3,8.6c-0.1,0-0.1,0-0.2-0.1l-1.4-1.4c-0.1-0.1-0.1-0.3,0-0.4c0.1-0.1,0.3-0.1,0.4,0l1.4,1.4c0.1,0.1,0.1,0.3,0,0.4
				C48.4,8.6,48.3,8.6,48.3,8.6z"/>
		</g>
		<g>
			<path d="M20.6,12.6c-0.1,0-0.1,0-0.2-0.1l-0.9-0.9c-0.1-0.1-0.1-0.3,0-0.4c0.1-0.1,0.3-0.1,0.4,0l0.9,0.9c0.1,0.1,0.1,0.3,0,0.4
				C20.7,12.6,20.7,12.6,20.6,12.6z"/>
		</g>
		<g>
			<path d="M19.4,14.6c-0.1,0-0.1,0-0.2-0.1l-1.1-1.1c-0.1-0.1-0.1-0.3,0-0.4c0.1-0.1,0.3-0.1,0.4,0l1.1,1.1c0.1,0.1,0.1,0.3,0,0.4
				C19.5,14.5,19.5,14.6,19.4,14.6z"/>
		</g>
		<g>
			<path d="M18.3,16.4c-0.1,0-0.1,0-0.2-0.1L17,15.3c-0.1-0.1-0.1-0.3,0-0.4c0.1-0.1,0.3-0.1,0.4,0l1.1,1.1c0.1,0.1,0.1,0.3,0,0.4
				C18.4,16.4,18.4,16.4,18.3,16.4z"/>
		</g>
		<g>
			<path d="M17.9,19.4c-0.1,0-0.1,0-0.2-0.1l-1.4-1.4c-0.1-0.1-0.1-0.3,0-0.4c0.1-0.1,0.3-0.1,0.4,0l1.4,1.4c0.1,0.1,0.1,0.3,0,0.4
				C18,19.3,17.9,19.4,17.9,19.4z"/>
		</g>
		<g>
			<path d="M17.1,21.4c-0.1,0-0.1,0-0.2-0.1l-1.4-1.4c-0.1-0.1-0.1-0.3,0-0.4s0.3-0.1,0.4,0l1.4,1.4c0.1,0.1,0.1,0.3,0,0.4
				C17.2,21.4,17.2,21.4,17.1,21.4z"/>
		</g>
		<g>
			<path d="M16.9,23.1c-0.1,0-0.1,0-0.2-0.1l-1.6-1.6c-0.1-0.1-0.1-0.3,0-0.4s0.3-0.1,0.4,0l1.6,1.6c0.1,0.1,0.1,0.3,0,0.4
				C17,23,16.9,23.1,16.9,23.1z"/>
		</g>
		<g>
			<path d="M17,26c-0.1,0-0.1,0-0.2-0.1L15,24.1c-0.1-0.1-0.1-0.3,0-0.4s0.3-0.1,0.4,0l1.8,1.8c0.1,0.1,0.1,0.3,0,0.4
				C17.1,26,17.1,26,17,26z"/>
		</g>
		<g>
			<path d="M16.6,28.7c-0.1,0-0.1,0-0.2-0.1L14.8,27c-0.1-0.1-0.1-0.3,0-0.4s0.3-0.1,0.4,0l1.7,1.7c0.1,0.1,0.1,0.3,0,0.4
				C16.8,28.7,16.7,28.7,16.6,28.7z"/>
		</g>
		<g>
			<path d="M16.7,30.8c-0.1,0-0.1,0-0.2-0.1l-1.4-1.4c-0.1-0.1-0.1-0.3,0-0.4c0.1-0.1,0.3-0.1,0.4,0l1.4,1.4c0.1,0.1,0.1,0.3,0,0.4
				C16.8,30.8,16.7,30.8,16.7,30.8z"/>
		</g>
		<g>
			<path d="M17.1,33.1c-0.1,0-0.1,0-0.2-0.1l-1.1-1.1c-0.1-0.1-0.1-0.3,0-0.4c0.1-0.1,0.3-0.1,0.4,0l1.1,1.1c0.1,0.1,0.1,0.3,0,0.4
				C17.2,33.1,17.2,33.1,17.1,33.1z"/>
		</g>
		<g>
			<path d="M16.8,34.2c-0.1,0-0.3-0.1-0.3-0.3v-1.2c0-0.1,0.1-0.3,0.3-0.3s0.3,0.1,0.3,0.3V34C17,34.1,16.9,34.2,16.8,34.2z"/>
		</g>
		<g>
			<path d="M15.7,32.3c-0.1,0-0.1,0-0.2-0.1c-0.1-0.1-0.1-0.3,0-0.4l1.1-1.1c0.1-0.1,0.3-0.1,0.4,0c0.1,0.1,0.1,0.3,0,0.4l-1.1,1.1
				C15.9,32.3,15.8,32.3,15.7,32.3z"/>
		</g>
		<g>
			<path d="M15.3,29.9c-0.1,0-0.1,0-0.2-0.1c-0.1-0.1-0.1-0.3,0-0.4l1.1-1.1c0.1-0.1,0.3-0.1,0.4,0c0.1,0.1,0.1,0.3,0,0.4l-1.1,1.1
				C15.5,29.9,15.4,29.9,15.3,29.9z"/>
		</g>
		<g>
			<path d="M15.3,27.7c-0.1,0-0.1,0-0.2-0.1c-0.1-0.1-0.1-0.3,0-0.4l1.6-1.6c0.1-0.1,0.3-0.1,0.4,0s0.1,0.3,0,0.4l-1.6,1.6
				C15.4,27.7,15.4,27.7,15.3,27.7z"/>
		</g>
		<g>
			<path d="M15.2,25.1c-0.1,0-0.1,0-0.2-0.1c-0.1-0.1-0.1-0.3,0-0.4l1.3-1.3c0.1-0.1,0.3-0.1,0.4,0s0.1,0.3,0,0.4L15.4,25
				C15.3,25.1,15.3,25.1,15.2,25.1z"/>
		</g>
		<g>
			<path d="M15.6,21.8c-0.1,0-0.1,0-0.2-0.1c-0.1-0.1-0.1-0.3,0-0.4l2.2-2.2c0.1-0.1,0.3-0.1,0.4,0s0.1,0.3,0,0.4l-2.2,2.2
				C15.7,21.8,15.7,21.8,15.6,21.8z"/>
		</g>
		<g>
			<path d="M16.6,18.5c-0.1,0-0.1,0-0.2-0.1c-0.1-0.1-0.1-0.3,0-0.4l1.5-1.5c0.1-0.1,0.3-0.1,0.4,0s0.1,0.3,0,0.4l-1.5,1.5
				C16.7,18.5,16.6,18.5,16.6,18.5z"/>
		</g>
		<g>
			<path d="M18.1,14.9c-0.1,0-0.1,0-0.2-0.1c-0.1-0.1-0.1-0.3,0-0.4l2.5-2.5c0.1-0.1,0.3-0.1,0.4,0s0.1,0.3,0,0.4l-2.5,2.5
				C18.2,14.8,18.2,14.9,18.1,14.9z"/>
		</g>
		<g>
			<path d="M21.7,11c-0.1,0-0.1,0-0.2-0.1c-0.1-0.1-0.1-0.3,0-0.4l1.8-1.8c0.1-0.1,0.3-0.1,0.4,0s0.1,0.3,0,0.4l-1.8,1.8
				C21.8,11,21.7,11,21.7,11z"/>
		</g>
		<g>
			<path d="M24.8,8.4c-0.1,0-0.1,0-0.2-0.1c-0.1-0.1-0.1-0.3,0-0.4l0.8-0.8c0.1-0.1,0.3-0.1,0.4,0s0.1,0.3,0,0.4L25,8.4
				C24.9,8.4,24.8,8.4,24.8,8.4z"/>
		</g>
		<g>
			<path d="M28.1,6.8c-0.1,0-0.1,0-0.2-0.1c-0.1-0.1-0.1-0.3,0-0.4L29.4,5c0.1-0.1,0.3-0.1,0.4,0s0.1,0.3,0,0.4l-1.4,1.4
				C28.2,6.8,28.2,6.8,28.1,6.8z"/>
		</g>
		<g>
			<path d="M31.3,6.5c-0.1,0-0.1,0-0.2-0.1C31,6.3,31,6.1,31.1,6l1.8-1.8c0.1-0.1,0.3-0.1,0.4,0c0.1,0.1,0.1,0.3,0,0.4l-1.8,1.8
				C31.4,6.4,31.4,6.5,31.3,6.5z"/>
		</g>
		<g>
			<path d="M34.4,6.2c-0.1,0-0.1,0-0.2-0.1c-0.1-0.1-0.1-0.3,0-0.4l1.5-1.5c0.1-0.1,0.3-0.1,0.4,0s0.1,0.3,0,0.4l-1.5,1.5
				C34.5,6.2,34.5,6.2,34.4,6.2z"/>
		</g>
		<g>
			<path d="M38.4,6.3c-0.1,0-0.1,0-0.2-0.1c-0.1-0.1-0.1-0.3,0-0.4l1.6-1.6c0.1-0.1,0.3-0.1,0.4,0s0.1,0.3,0,0.4l-1.6,1.6
				C38.5,6.2,38.5,6.3,38.4,6.3z"/>
		</g>
		<g>
			<path d="M41,6.6c-0.1,0-0.1,0-0.2-0.1c-0.1-0.1-0.1-0.3,0-0.4l1-1c0.1-0.1,0.3-0.1,0.4,0c0.1,0.1,0.1,0.3,0,0.4l-1,1
				C41.1,6.5,41.1,6.6,41,6.6z"/>
		</g>
		<g>
			<path d="M42.8,7.2c-0.1,0-0.1,0-0.2-0.1c-0.1-0.1-0.1-0.3,0-0.4l0.9-0.9c0.1-0.1,0.3-0.1,0.4,0s0.1,0.3,0,0.4L43,7.1
				C42.9,7.2,42.9,7.2,42.8,7.2z"/>
		</g>
		<g>
			<path d="M45,7.6c-0.1,0-0.1,0-0.2-0.1c-0.1-0.1-0.1-0.3,0-0.4l0.5-0.5c0.1-0.1,0.3-0.1,0.4,0c0.1,0.1,0.1,0.3,0,0.4l-0.5,0.5
				C45.1,7.5,45,7.6,45,7.6z"/>
		</g>
		<g>
			<path d="M51.8,43.4c-0.1,0-0.1,0-0.2-0.1L50.3,42c-0.1-0.1-0.1-0.3,0-0.4s0.3-0.1,0.4,0L52,43c0.1,0.1,0.1,0.3,0,0.4
				C51.9,43.4,51.9,43.4,51.8,43.4z"/>
		</g>
		<g>
			<path d="M52.7,42.8c-0.1,0-0.1,0-0.2-0.1l-1.3-1.3c-0.1-0.1-0.1-0.3,0-0.4s0.3-0.1,0.4,0l1.3,1.3c0.1,0.1,0.1,0.3,0,0.4
				C52.8,42.8,52.7,42.8,52.7,42.8z"/>
		</g>
		<g>
			<path d="M53.7,41.4c-0.1,0-0.1,0-0.2-0.1l-1-1c-0.1-0.1-0.1-0.3,0-0.4c0.1-0.1,0.3-0.1,0.4,0l1,1c0.1,0.1,0.1,0.3,0,0.4
				C53.8,41.4,53.8,41.4,53.7,41.4z"/>
		</g>
		<g>
			<path d="M54.8,40.2c-0.1,0-0.1,0-0.2-0.1l-1.2-1.2c-0.1-0.1-0.1-0.3,0-0.4s0.3-0.1,0.4,0l1.2,1.2c0.1,0.1,0.1,0.3,0,0.4
				C54.9,40.2,54.9,40.2,54.8,40.2z"/>
		</g>
		<g>
			<path d="M55.7,39.1c-0.1,0-0.1,0-0.2-0.1l-1.2-1.2c-0.1-0.1-0.1-0.3,0-0.4c0.1-0.1,0.3-0.1,0.4,0l1.2,1.2c0.1,0.1,0.1,0.3,0,0.4
				C55.8,39,55.8,39.1,55.7,39.1z"/>
		</g>
		<g>
			<path d="M56.6,37.7c-0.1,0-0.1,0-0.2-0.1l-1.1-1.1c-0.1-0.1-0.1-0.3,0-0.4s0.3-0.1,0.4,0l1.1,1.1c0.1,0.1,0.1,0.3,0,0.4
				C56.8,37.6,56.7,37.7,56.6,37.7z"/>
		</g>
		<g>
			<path d="M57.3,35.9c-0.1,0-0.1,0-0.2-0.1L56.3,35c-0.1-0.1-0.1-0.3,0-0.4s0.3-0.1,0.4,0l0.8,0.8c0.1,0.1,0.1,0.3,0,0.4
				C57.4,35.9,57.4,35.9,57.3,35.9z"/>
		</g>
		<g>
			<path d="M58.1,34.8c-0.1,0-0.1,0-0.2-0.1l-1.2-1.2c-0.1-0.1-0.1-0.3,0-0.4c0.1-0.1,0.3-0.1,0.4,0l1.2,1.2c0.1,0.1,0.1,0.3,0,0.4
				C58.3,34.8,58.2,34.8,58.1,34.8z"/>
		</g>
		<g>
			<path d="M59,33c-0.1,0-0.1,0-0.2-0.1l-1.2-1.2c-0.1-0.1-0.1-0.3,0-0.4s0.3-0.1,0.4,0l1.2,1.2c0.1,0.1,0.1,0.3,0,0.4
				C59.2,33,59.1,33,59,33z"/>
		</g>
		<g>
			<path d="M59.5,31.1c-0.1,0-0.1,0-0.2-0.1L58.3,30c-0.1-0.1-0.1-0.3,0-0.4s0.3-0.1,0.4,0l1.1,1.1c0.1,0.1,0.1,0.3,0,0.4
				C59.7,31.1,59.6,31.1,59.5,31.1z"/>
		</g>
		<g>
			<path d="M59.7,29.4c-0.1,0-0.1,0-0.2-0.1l-0.8-0.8c-0.1-0.1-0.1-0.3,0-0.4c0.1-0.1,0.3-0.1,0.4,0l0.8,0.8c0.1,0.1,0.1,0.3,0,0.4
				C59.9,29.3,59.8,29.4,59.7,29.4z"/>
		</g>
		<g>
			<path d="M60,27.6c-0.1,0-0.1,0-0.2-0.1l-1.1-1.1c-0.1-0.1-0.1-0.3,0-0.4s0.3-0.1,0.4,0l1.1,1.1c0.1,0.1,0.1,0.3,0,0.4
				C60.2,27.5,60.1,27.6,60,27.6z"/>
		</g>
		<g>
			<path d="M60.3,25.6c-0.1,0-0.1,0-0.2-0.1l-0.9-0.9c-0.1-0.1-0.1-0.3,0-0.4c0.1-0.1,0.3-0.1,0.4,0l0.9,0.9c0.1,0.1,0.1,0.3,0,0.4
				C60.4,25.5,60.3,25.6,60.3,25.6z"/>
		</g>
		<g>
			<path d="M60.1,23.9c-0.1,0-0.1,0-0.2-0.1L59,23c-0.1-0.1-0.1-0.3,0-0.4s0.3-0.1,0.4,0l0.9,0.9c0.1,0.1,0.1,0.3,0,0.4
				C60.2,23.9,60.1,23.9,60.1,23.9z"/>
		</g>
		<g>
			<path d="M60.3,22.5c-0.1,0-0.1,0-0.2-0.1l-1-1c-0.1-0.1-0.1-0.3,0-0.4s0.3-0.1,0.4,0l1,1c0.1,0.1,0.1,0.3,0,0.4
				C60.4,22.5,60.3,22.5,60.3,22.5z"/>
		</g>
		<g>
			<path d="M50.4,44.5c-0.1,0-0.1,0-0.2-0.1L49,43.1c-0.1-0.1-0.1-0.3,0-0.4c0.1-0.1,0.3-0.1,0.4,0l1.3,1.3c0.1,0.1,0.1,0.3,0,0.4
				C50.5,44.4,50.5,44.5,50.4,44.5z"/>
		</g>
		<g>
			<path d="M49.1,45.4c-0.1,0-0.1,0-0.2-0.1l-1.1-1.1c-0.1-0.1-0.1-0.3,0-0.4s0.3-0.1,0.4,0l1.1,1.1c0.1,0.1,0.1,0.3,0,0.4
				C49.2,45.4,49.2,45.4,49.1,45.4z"/>
		</g>
		<g>
			<path d="M47.4,46.4c-0.1,0-0.1,0-0.2-0.1l-1.1-1.1c-0.1-0.1-0.1-0.3,0-0.4c0.1-0.1,0.3-0.1,0.4,0l1.1,1.1c0.1,0.1,0.1,0.3,0,0.4
				C47.5,46.4,47.4,46.4,47.4,46.4z"/>
		</g>
		<g>
			<path d="M45.7,47.1c-0.1,0-0.1,0-0.2-0.1l-0.9-0.9c-0.1-0.1-0.1-0.3,0-0.4s0.3-0.1,0.4,0l0.9,0.9c0.1,0.1,0.1,0.3,0,0.4
				C45.8,47.1,45.8,47.1,45.7,47.1z"/>
		</g>
		<g>
			<path d="M43.8,47.8c-0.1,0-0.1,0-0.2-0.1l-1-1c-0.1-0.1-0.1-0.3,0-0.4s0.3-0.1,0.4,0l1,1c0.1,0.1,0.1,0.3,0,0.4
				C43.9,47.7,43.9,47.8,43.8,47.8z"/>
		</g>
		<g>
			<path d="M42,48.4c-0.1,0-0.1,0-0.2-0.1l-0.9-0.9c-0.1-0.1-0.1-0.3,0-0.4c0.1-0.1,0.3-0.1,0.4,0l0.9,0.9c0.1,0.1,0.1,0.3,0,0.4
				C42.1,48.3,42.1,48.4,42,48.4z"/>
		</g>
		<g>
			<path d="M40.2,48.8c-0.1,0-0.1,0-0.2-0.1L39,47.7c-0.1-0.1-0.1-0.3,0-0.4c0.1-0.1,0.3-0.1,0.4,0l1.1,1.1c0.1,0.1,0.1,0.3,0,0.4
				C40.4,48.8,40.3,48.8,40.2,48.8z"/>
		</g>
		<g>
			<path d="M38.3,49.3c-0.1,0-0.1,0-0.2-0.1l-1.2-1.2c-0.1-0.1-0.1-0.3,0-0.4c0.1-0.1,0.3-0.1,0.4,0l1.2,1.2c0.1,0.1,0.1,0.3,0,0.4
				C38.4,49.3,38.4,49.3,38.3,49.3z"/>
		</g>
		<g>
			<path d="M36,49.4c-0.1,0-0.1,0-0.2-0.1l-1-1c-0.1-0.1-0.1-0.3,0-0.4s0.3-0.1,0.4,0l1,1c0.1,0.1,0.1,0.3,0,0.4
				C36.2,49.4,36.1,49.4,36,49.4z"/>
		</g>
		<g>
			<path d="M33.2,49.3c-0.1,0-0.1,0-0.2-0.1l-0.8-0.8c-0.1-0.1-0.1-0.3,0-0.4c0.1-0.1,0.3-0.1,0.4,0l0.8,0.8c0.1,0.1,0.1,0.3,0,0.4
				C33.3,49.3,33.2,49.3,33.2,49.3z"/>
		</g>
		<g>
			<path d="M32.2,49.2c-0.1,0-0.1,0-0.2-0.1c-0.1-0.1-0.1-0.3,0-0.4l1.3-1.3c0.1-0.1,0.3-0.1,0.4,0s0.1,0.3,0,0.4l-1.3,1.3
				C32.3,49.1,32.3,49.2,32.2,49.2z"/>
		</g>
		<g>
			<path d="M34.3,49.2c-0.1,0-0.1,0-0.2-0.1c-0.1-0.1-0.1-0.3,0-0.4l1-1c0.1-0.1,0.3-0.1,0.4,0s0.1,0.3,0,0.4l-1,1
				C34.5,49.2,34.4,49.2,34.3,49.2z"/>
		</g>
		<g>
			<path d="M36.6,49c-0.1,0-0.1,0-0.2-0.1c-0.1-0.1-0.1-0.3,0-0.4l1.1-1.1c0.1-0.1,0.3-0.1,0.4,0s0.1,0.3,0,0.4L36.8,49
				C36.8,49,36.7,49,36.6,49z"/>
		</g>
		<g>
			<path d="M39,49.1c-0.1,0-0.1,0-0.2-0.1c-0.1-0.1-0.1-0.3,0-0.4l1.8-1.8c0.1-0.1,0.3-0.1,0.4,0s0.1,0.3,0,0.4L39.2,49
				C39.1,49.1,39.1,49.1,39,49.1z"/>
		</g>
		<g>
			<path d="M41.8,48.5c-0.1,0-0.1,0-0.2-0.1c-0.1-0.1-0.1-0.3,0-0.4l2.3-2.3c0.1-0.1,0.3-0.1,0.4,0s0.1,0.3,0,0.4L42,48.5
				C41.9,48.5,41.9,48.5,41.8,48.5z"/>
		</g>
		<g>
			<path d="M44.7,47.6c-0.1,0-0.1,0-0.2-0.1c-0.1-0.1-0.1-0.3,0-0.4l2.8-2.8c0.1-0.1,0.3-0.1,0.4,0s0.1,0.3,0,0.4l-2.8,2.8
				C44.8,47.5,44.7,47.6,44.7,47.6z"/>
		</g>
		<g>
			<path d="M48.1,46c-0.1,0-0.1,0-0.2-0.1c-0.1-0.1-0.1-0.3,0-0.4l3.7-3.7c0.1-0.1,0.3-0.1,0.4,0s0.1,0.3,0,0.4L48.3,46
				C48.2,46,48.2,46,48.1,46z"/>
		</g>
		<g>
			<path d="M52.4,41.2c-0.1,0-0.1,0-0.2-0.1c-0.1-0.1-0.1-0.3,0-0.4l2.4-2.4c0.1-0.1,0.3-0.1,0.4,0s0.1,0.3,0,0.4l-2.4,2.4
				C52.6,41.2,52.5,41.2,52.4,41.2z"/>
		</g>
		<g>
			<path d="M55.3,37.8c-0.1,0-0.1,0-0.2-0.1c-0.1-0.1-0.1-0.3,0-0.4l2.3-2.3c0.1-0.1,0.3-0.1,0.4,0s0.1,0.3,0,0.4l-2.3,2.3
				C55.5,37.8,55.4,37.8,55.3,37.8z"/>
		</g>
		<g>
			<path d="M57,34.2c-0.1,0-0.1,0-0.2-0.1c-0.1-0.1-0.1-0.3,0-0.4l1.7-1.7c0.1-0.1,0.3-0.1,0.4,0c0.1,0.1,0.1,0.3,0,0.4l-1.7,1.7
				C57.2,34.1,57.1,34.2,57,34.2z"/>
		</g>
		<g>
			<path d="M57.9,31.5c-0.1,0-0.1,0-0.2-0.1c-0.1-0.1-0.1-0.3,0-0.4l1.6-1.6c0.1-0.1,0.3-0.1,0.4,0s0.1,0.3,0,0.4l-1.6,1.6
				C58.1,31.5,58,31.5,57.9,31.5z"/>
		</g>
		<g>
			<path d="M58.6,28.7c-0.1,0-0.1,0-0.2-0.1c-0.1-0.1-0.1-0.3,0-0.4l1.2-1.2c0.1-0.1,0.3-0.1,0.4,0c0.1,0.1,0.1,0.3,0,0.4l-1.2,1.2
				C58.7,28.7,58.6,28.7,58.6,28.7z"/>
		</g>
		<g>
			<path d="M58.9,26c-0.1,0-0.1,0-0.2-0.1c-0.1-0.1-0.1-0.3,0-0.4l1.1-1.1c0.1-0.1,0.3-0.1,0.4,0s0.1,0.3,0,0.4L59,26
				C59,26,58.9,26,58.9,26z"/>
		</g>
		<g>
			<path d="M58.7,23.9c-0.1,0-0.1,0-0.2-0.1c-0.1-0.1-0.1-0.3,0-0.4l0.7-0.7c0.1-0.1,0.3-0.1,0.4,0c0.1,0.1,0.1,0.3,0,0.4l-0.7,0.7
				C58.9,23.9,58.8,23.9,58.7,23.9z"/>
		</g>
		<g>
			<path d="M59.5,22.3H59c-0.1,0-0.3-0.1-0.3-0.3s0.1-0.3,0.3-0.3h0.5c0.1,0,0.3,0.1,0.3,0.3S59.7,22.3,59.5,22.3z"/>
		</g>
	</g>
	<g>
		<path d="M12.9,59.7c-0.1,0-0.1,0-0.2-0.1l-2.3-2.3c-0.1-0.1-0.1-0.3,0-0.4s0.3-0.1,0.4,0l2.3,2.3c0.1,0.1,0.1,0.3,0,0.4
			C13.1,59.7,13,59.7,12.9,59.7z"/>
	</g>
	<g>
		<path d="M13.7,58.5c-0.1,0-0.1,0-0.2-0.1l-2.1-2.1c-0.1-0.1-0.1-0.3,0-0.4s0.3-0.1,0.4,0l2.1,2.1c0.1,0.1,0.1,0.3,0,0.4
			C13.8,58.5,13.8,58.5,13.7,58.5z"/>
	</g>
	<g>
		<path d="M14.6,56.9c-0.1,0-0.1,0-0.2-0.1l-1.8-1.8c-0.1-0.1-0.1-0.3,0-0.4c0.1-0.1,0.3-0.1,0.4,0l1.8,1.8c0.1,0.1,0.1,0.3,0,0.4
			C14.7,56.9,14.7,56.9,14.6,56.9z"/>
	</g>
	<g>
		<path d="M15.5,55.8c-0.1,0-0.1,0-0.2-0.1l-1.6-1.6c-0.1-0.1-0.1-0.3,0-0.4s0.3-0.1,0.4,0l1.6,1.6c0.1,0.1,0.1,0.3,0,0.4
			C15.7,55.8,15.6,55.8,15.5,55.8z"/>
	</g>
	<g>
		<path d="M11.3,60.8c-0.1,0-0.1,0-0.2-0.1l-1.9-1.9c-0.1-0.1-0.1-0.3,0-0.4s0.3-0.1,0.4,0l1.9,1.9c0.1,0.1,0.1,0.3,0,0.4
			C11.4,60.8,11.3,60.8,11.3,60.8z"/>
	</g>
	<g>
		<path d="M9.9,61.9c-0.1,0-0.1,0-0.2-0.1l-1.7-1.7C8,60,8,59.9,8.1,59.8c0.1-0.1,0.3-0.1,0.4,0l1.7,1.7c0.1,0.1,0.1,0.3,0,0.4
			C10.1,61.9,10,61.9,9.9,61.9z"/>
	</g>
	<g>
		<path d="M8.3,62.9c-0.1,0-0.1,0-0.2-0.1l-1-1c-0.1-0.1-0.1-0.3,0-0.4s0.3-0.1,0.4,0l1,1c0.1,0.1,0.1,0.3,0,0.4
			C8.5,62.9,8.4,62.9,8.3,62.9z"/>
	</g>
	<g>
		<path d="M6.6,63.6c-0.1,0-0.1,0-0.2-0.1l-1-1c-0.1-0.1-0.1-0.3,0-0.4c0.1-0.1,0.3-0.1,0.4,0l1,1c0.1,0.1,0.1,0.3,0,0.4
			C6.8,63.5,6.7,63.6,6.6,63.6z"/>
	</g>
	<g>
		<path d="M5.6,63.7c-0.1,0-0.1,0-0.2-0.1c-0.1-0.1-0.1-0.3,0-0.4l1.4-1.4c0.1-0.1,0.3-0.1,0.4,0s0.1,0.3,0,0.4l-1.4,1.4
			C5.8,63.6,5.7,63.7,5.6,63.7z"/>
	</g>
	<g>
		<path d="M7.5,63.6c-0.1,0-0.1,0-0.2-0.1c-0.1-0.1-0.1-0.3,0-0.4l2.7-2.7c0.1-0.1,0.3-0.1,0.4,0c0.1,0.1,0.1,0.3,0,0.4l-2.7,2.7
			C7.6,63.6,7.6,63.6,7.5,63.6z"/>
	</g>
	<g>
		<path d="M8.9,60.4c-0.1,0-0.1,0-0.2-0.1c-0.1-0.1-0.1-0.3,0-0.4l2.8-2.8c0.1-0.1,0.3-0.1,0.4,0c0.1,0.1,0.1,0.3,0,0.4l-2.8,2.8
			C9,60.4,9,60.4,8.9,60.4z"/>
	</g>
	<g>
		<path d="M11,60.8c-0.1,0-0.1,0-0.2-0.1c-0.1-0.1-0.1-0.3,0-0.4l2.7-2.7c0.1-0.1,0.3-0.1,0.4,0c0.1,0.1,0.1,0.3,0,0.4l-2.7,2.7
			C11.2,60.8,11.1,60.8,11,60.8z"/>
	</g>
	<g>
		<path d="M12.7,57c-0.1,0-0.1,0-0.2-0.1c-0.1-0.1-0.1-0.3,0-0.4l1.8-1.8c0.1-0.1,0.3-0.1,0.4,0c0.1,0.1,0.1,0.3,0,0.4l-1.8,1.8
			C12.8,57,12.8,57,12.7,57z"/>
	</g>
	<g>
		<path d="M16.3,51.6c-0.1,0-0.1,0-0.2-0.1l-1-1c-0.1-0.1-0.1-0.3,0-0.4c0.1-0.1,0.3-0.1,0.4,0l1,1c0.1,0.1,0.1,0.3,0,0.4
			C16.4,51.6,16.4,51.6,16.3,51.6z"/>
	</g>
	<g>
		<path d="M17.5,50.3c-0.1,0-0.1,0-0.2-0.1L16.1,49c-0.1-0.1-0.1-0.3,0-0.4s0.3-0.1,0.4,0l1.2,1.2c0.1,0.1,0.1,0.3,0,0.4
			C17.6,50.3,17.5,50.3,17.5,50.3z"/>
	</g>
	<g>
		<path d="M18.4,49.3c-0.1,0-0.1,0-0.2-0.1l-1.1-1.1c-0.1-0.1-0.1-0.3,0-0.4c0.1-0.1,0.3-0.1,0.4,0l1.1,1.1c0.1,0.1,0.1,0.3,0,0.4
			C18.5,49.2,18.5,49.3,18.4,49.3z"/>
	</g>
	<g>
		<path d="M19.6,48.1c-0.1,0-0.1,0-0.2-0.1l-1.3-1.3c-0.1-0.1-0.1-0.3,0-0.4c0.1-0.1,0.3-0.1,0.4,0l1.3,1.3c0.1,0.1,0.1,0.3,0,0.4
			C19.7,48.1,19.6,48.1,19.6,48.1z"/>
	</g>
	<g>
		<path d="M20.5,46.6c-0.1,0-0.1,0-0.2-0.1l-0.8-0.8c-0.1-0.1-0.1-0.3,0-0.4c0.1-0.1,0.3-0.1,0.4,0l0.8,0.8c0.1,0.1,0.1,0.3,0,0.4
			C20.6,46.6,20.5,46.6,20.5,46.6z"/>
	</g>
	<g>
		<path d="M15,51.7c-0.1,0-0.1,0-0.2-0.1c-0.1-0.1-0.1-0.3,0-0.4l1.5-1.5c0.1-0.1,0.3-0.1,0.4,0s0.1,0.3,0,0.4l-1.5,1.5
			C15.1,51.7,15,51.7,15,51.7z"/>
	</g>
	<g>
		<path d="M17.8,48.7c-0.1,0-0.1,0-0.2-0.1c-0.1-0.1-0.1-0.3,0-0.4l1.4-1.4c0.1-0.1,0.3-0.1,0.4,0s0.1,0.3,0,0.4l-1.4,1.4
			C17.9,48.7,17.8,48.7,17.8,48.7z"/>
	</g>
	<g>
		<path d="M20,46.3c-0.1,0-0.1,0-0.2-0.1c-0.1-0.1-0.1-0.3,0-0.4l0.5-0.5c0.1-0.1,0.3-0.1,0.4,0c0.1,0.1,0.1,0.3,0,0.4l-0.5,0.5
			C20.2,46.3,20.1,46.3,20,46.3z"/>
	</g>
</g>
</svg>
