<?xml version="1.0" encoding="utf-8"?>
<!-- Generator: Adobe Illustrator 23.1.0, SVG Export Plug-In . SVG Version: 6.00 Build 0)  -->
<svg version="1.1" id="Слой_1" xmlns="http://www.w3.org/2000/svg" xmlns:xlink="http://www.w3.org/1999/xlink" x="0px" y="0px"
	 viewBox="0 0 65 81.3" style="enable-background:new 0 0 65 81.3;" xml:space="preserve">
<g>
	<g>
		<g>
			<path d="M46.8,59.7C33.4,51.4,20.3,42.2,7.9,32.5c-1.4-1.1-4.6-2-4.3-4.6c0.1-1.3,1.3-2.4,2.2-3.1c5.7-4.3,12.1-7.5,19-9.6
				c1.7-0.5,4-1.1,6.3-1.1c1.1,0,2.1,0.1,3,0.4c3.1,0.9,5.6,3.2,7.7,5.3L61,38.1c2,1.9,3.9,4,3.9,6.6c0,2-1.1,3.9-2.1,5.3
				C56.3,60.2,55.1,64.9,46.8,59.7z M31.1,15.2c-2.2,0-4.3,0.6-6,1.1C17.6,18.5,4.9,24.9,4.6,28c-0.2,1.7,2.5,2.5,4,3.7
				C20.9,41.4,34,50.6,47.3,58.9c7.4,4.6,8.1,0.9,14.7-9.3c4.6-7.1,2.5-6.6-20.8-29c-2.1-2-4.4-4.2-7.3-5
				C33,15.3,32.1,15.2,31.1,15.2z"/>
		</g>
		<g>
			<path d="M14.8,19.3c-0.3-6.2,2.7-13,5.1-13.5c1.1-0.2,2,0.3,2.8,0.9c2.9,2.1,5.3,4.7,7.2,7.7L29.1,15c-1.8-2.9-4.2-5.4-7-7.5
				c-0.6-0.5-1.4-0.9-2-0.8c-1.6,0.3-4.6,6.3-4.3,12.5L14.8,19.3z"/>
		</g>
		<g>
			<path d="M16.4,11.6c-0.8,0-1.5-0.4-1.8-1.1c-0.4-0.9-0.2-1.9,0.4-2.6c0.4-0.3,1.4-1.1,3.3-0.1l-0.4,0.9c-0.9-0.5-1.7-0.5-2.1,0
				c-0.4,0.4-0.5,1-0.2,1.4c0.1,0.3,0.4,0.6,1.1,0.5l0.1,1C16.5,11.6,16.4,11.6,16.4,11.6z"/>
		</g>
		<g>
			<path d="M15.2,13.9c-0.5,0-0.9-0.2-1.2-0.7c-0.6-0.8-0.5-2.2,0.9-3.2l0.6,0.8c-0.9,0.7-0.9,1.5-0.7,1.8c0.1,0.2,0.3,0.4,0.7,0.1
				l0.6,0.8C15.8,13.9,15.5,13.9,15.2,13.9z"/>
		</g>
		<g>
			<path d="M13.2,15.8c-0.3-0.3-1-1.5,0.7-3.2l0.7,0.7c-0.7,0.8-1,1.5-0.7,1.9c0.2,0.3,0.7,0.4,1,0.2l0.5,0.8
				C14.8,16.6,13.7,16.4,13.2,15.8z"/>
		</g>
		<g>
			<path d="M15,19.6c-3.2-0.2-3.6-3.6-1.5-4.4l0.4,0.9c-1.2,0.5-0.9,2.4,1.2,2.5L15,19.6z"/>
		</g>
		<g>
			<path d="M11.7,21.6c-2.5-1.4-0.8-3.9,0.9-4.6l0.4,0.9c-1.2,0.5-1.7,1.8-1.6,2.2c0.1,0.2,0.4,0.4,0.7,0.6L11.7,21.6z"/>
		</g>
		<g>
			<path d="M13.8,12.5c-0.8,0-1.6-0.6-1.8-1.4c-0.2-0.8,0.1-1.8,0.8-2.3c0.6-0.5,1.4-0.7,2.3-0.6l-0.1,1c-0.6-0.1-1.2,0.1-1.5,0.4
				c-0.4,0.3-0.6,0.9-0.5,1.3c0.1,0.4,0.6,0.7,1,0.7l0.2,1C14,12.5,13.9,12.5,13.8,12.5z"/>
		</g>
		<g>
			<path d="M12.8,14.9c-0.4,0-0.8-0.2-1.1-0.5c-0.5-0.5-0.6-1.3-0.3-2c0.2-0.5,0.7-0.9,1.2-1.2l0.4,0.9c-0.3,0.2-0.6,0.4-0.7,0.7
				c-0.2,0.4,0,0.7,0.1,0.9c0.1,0.1,0.3,0.2,0.6,0.1l0.4,0.9C13.1,14.8,12.9,14.9,12.8,14.9z"/>
		</g>
		<g>
			<path d="M11.6,18.4c-1-0.4-1.7-1.3-1.6-2.4c0.1-1.1,0.8-2,1.8-2.3l0.3,1c-0.8,0.2-1.1,0.8-1.1,1.4c0,0.5,0.2,1.2,1,1.5L11.6,18.4
				z"/>
		</g>
		<g>
			<path d="M9.2,20.9c-0.6-0.3-1-0.9-1-1.5c0-0.6,0.3-1.7,2.1-2.7l0.5,0.9c-1,0.6-1.6,1.2-1.6,1.8c0,0.6,0.7,1,1.2,0.6l0.6,0.8
				C10.5,21.1,9.9,21.2,9.2,20.9z"/>
		</g>
		<g>
			<path d="M9.7,23.1C9,23,8.4,22.5,8.3,21.7c-0.1-0.8,0.3-1.5,1-1.8l0.4,0.9c-0.3,0.2-0.4,0.5-0.4,0.7c0,0.2,0.2,0.5,0.6,0.6
				L9.7,23.1z"/>
		</g>
		<g>
			<path d="M17.2,7.7l-1-0.2c0.1-0.6,0.2-1.4,1.3-1.8c0.7-0.3,1.6,0,2.1,0.6L18.8,7c-0.2-0.3-0.7-0.4-1-0.3
				C17.4,6.9,17.3,7.1,17.2,7.7z"/>
		</g>
		<g>
			<path d="M15.2,8.4c-0.6-0.3-0.9-0.8-0.8-1.4c0-0.7,0.5-1.3,1.1-1.6c0.7-0.3,1.4-0.2,2.1,0.4l-0.6,0.8c-0.3-0.3-0.7-0.4-1-0.2
				c-0.3,0.1-0.5,0.4-0.5,0.7c0,0.2,0.1,0.3,0.3,0.4L15.2,8.4z"/>
		</g>
		<g>
			<path d="M18.7,6.1l-1-0.2C18.4,2.8,21.7,2.8,21,6l-1-0.2C20.5,3.7,19,4.6,18.7,6.1z"/>
		</g>
		<g>
			<path d="M16.8,5.8l-1-0.1c0.1-0.9,0.6-1.8,1.3-2.3c0.8-0.5,2-0.5,2.7,0.2l-0.7,0.8C18.3,3.7,16.9,4.4,16.8,5.8z"/>
		</g>
		<g>
			<path d="M13.1,9.2c-0.7-0.5-1.2-1-1.4-1.6c-0.7-1.7,0.6-4.3,4.2-2.3l-0.5,0.9c-2.6-1.4-3.3,0-2.8,1.1c0.2,0.4,0.5,0.8,1.1,1.2
				L13.1,9.2z"/>
		</g>
		<g>
			<path d="M12.1,10.5c-0.6,0-1.2-0.4-1.4-1c-0.3-0.8,0-1.9,1.2-2.6l0.5,0.9c-0.8,0.4-0.9,1-0.8,1.4c0.1,0.2,0.3,0.4,0.6,0.4l0.2,1
				C12.3,10.5,12.2,10.5,12.1,10.5z"/>
		</g>
		<g>
			<path d="M11.3,13.2c-0.7,0-1.2-0.3-1.6-0.8C9.2,11.7,9,10.8,9.3,10c0.3-0.7,0.9-1.2,1.7-1.3l0.2,1c-0.6,0.1-0.8,0.4-0.9,0.7
				c-0.2,0.4-0.1,1,0.2,1.3c0.2,0.2,0.5,0.5,1.1,0.4l0.2,1C11.6,13.1,11.5,13.2,11.3,13.2z"/>
		</g>
		<g>
			<path d="M9.8,16.1c-0.7,0-1.4-0.3-1.8-0.7c-0.7-0.7-0.9-1.7-0.6-2.7c0.3-1,1.2-1.6,2.2-1.7l0.1,1C9,12,8.5,12.4,8.3,13
				c-0.2,0.6-0.1,1.2,0.4,1.6c0.4,0.4,1.1,0.6,1.7,0.4l0.3,0.9C10.4,16,10.1,16.1,9.8,16.1z"/>
		</g>
		<g>
			<path d="M8.8,19c-2-0.3-2.9-1.8-2.9-3c0-1.2,0.8-2.1,1.9-2.3l0.2,1c-0.8,0.1-1,0.8-1,1.4c0,0.8,0.5,1.8,2,2.1L8.8,19z"/>
		</g>
		<g>
			<path d="M7.8,20.8c-1.8,0-2.7-0.9-2.8-1.8c-0.2-1.2,0.6-2.3,1.7-2.6l0.2,1c-0.7,0.1-1,0.9-0.9,1.4c0.2,0.8,1.3,1.2,2.9,0.9l0.2,1
				C8.5,20.7,8.1,20.8,7.8,20.8z"/>
		</g>
		<g>
			<path d="M9,23.4c-1-0.1-3.2-0.2-3.7-2.1c-0.1-0.7,0.1-1.4,0.5-1.8l0.7,0.7c-0.2,0.2-0.3,0.6-0.3,0.9c0.2,0.8,1,1.2,2.7,1.3
				L9,23.4z"/>
		</g>
		<g>
			<path d="M5.5,25.8c-0.7-0.6-1-1.4-0.7-2.3C5,22.7,5.7,22,6.6,21.9l0.2,1c-0.5,0.1-0.9,0.4-1,0.9c-0.1,0.5,0,1,0.4,1.3L5.5,25.8z"
				/>
		</g>
		<g>
			<path d="M3.6,28.1c-1.7-1.3-1.7-3.1-1-4.2c0.7-1.1,1.9-1.6,3.1-1.1l-0.4,0.9c-0.8-0.4-1.5,0.1-1.8,0.7c-0.5,0.8-0.4,2,0.8,2.9
				L3.6,28.1z"/>
		</g>
		<g>
			<path d="M2.9,23.8c-0.8-0.5-1.1-1.4-0.7-2.4c0.4-1.2,1.9-2.4,3.8-2.1l-0.1,1c-1.4-0.2-2.5,0.6-2.8,1.5C3.1,22.1,3,22.6,3.5,23
				L2.9,23.8z"/>
		</g>
		<g>
			<path d="M2.5,24.5C-3.7,16.8,2.8,5.7,12.7,4.8l0.1,1C8.6,6.2,4.6,8.7,2.5,12.4c-2.1,3.7-1.8,8.2,0.8,11.5L2.5,24.5z"/>
		</g>
		<g>
			<path d="M49.2,47.2L49.2,47.2c-0.1,0-0.3,0-0.4,0c-0.9-0.1-2.5-0.9-3.3-1.7c-0.6-0.6-0.9-1.5-0.8-2.2c0.2-1.3,1.1-2,2.5-2
				c1,0,2.2,0.4,2.9,0.9c1,0.7,1.4,2.2,1,3.5C50.9,46.7,50.2,47.2,49.2,47.2z M47.3,42.4c-0.9,0-1.4,0.4-1.6,1.1
				c-0.1,0.4,0.1,1,0.5,1.4c0.6,0.6,2,1.3,2.7,1.4c0.7,0.1,1.1-0.2,1.3-0.8c0.3-0.8,0-1.9-0.7-2.4C49,42.7,48.1,42.4,47.3,42.4z"/>
		</g>
		<g>
			<path d="M33.8,39.9c-0.7,0-1.5-0.3-1.9-0.8c-0.7-0.8-0.9-2-0.4-3.2c0.4-1,1.2-1.6,2.2-1.6c1.2,0,2.2,0.8,2.6,2
				c0.4,1.2,0,2.4-0.9,3C34.9,39.7,34.3,39.9,33.8,39.9z M33.6,35.3c-0.8,0-1.2,0.7-1.3,1c-0.3,0.7-0.2,1.6,0.2,2.1
				c0.5,0.5,1.6,0.6,2.2,0.2c0.7-0.5,0.7-1.3,0.5-1.9C35.1,36,34.5,35.3,33.6,35.3z"/>
		</g>
		<g>
			<path d="M31.7,26.7c-0.7,0-1.4-0.3-2-0.8c-0.8-0.6-1-1.6-0.7-2.6c0.3-1,1.2-1.6,2.2-1.6c0,0,0.1,0,0.1,0c1.3,0.1,2.4,1.2,2.6,2.3
				c0.2,1-0.2,1.9-1.1,2.4C32.5,26.6,32.1,26.7,31.7,26.7z M31.2,22.7c-0.7,0-1.1,0.5-1.3,1c-0.2,0.5-0.1,1.1,0.4,1.5
				c0.7,0.5,1.5,0.7,2,0.4c0.7-0.4,0.7-0.9,0.6-1.3C32.8,23.5,32.1,22.7,31.2,22.7C31.2,22.7,31.2,22.7,31.2,22.7z"/>
		</g>
		<g>
			<path d="M41.2,52.5c-0.6,0-1.2-0.2-1.9-0.6c-0.9-0.6-1.5-1.2-1.8-1.9c-0.4-0.9-0.4-2,0.1-2.8c0.5-0.9,1.2-1.1,1.6-1.1
				c1.7,0,3.2,2.6,3.6,3.4c0.3,0.8,0.4,1.4,0.2,1.9C42.7,52.1,42,52.5,41.2,52.5z M39.2,47.1c-0.1,0-0.4,0-0.8,0.6
				c-0.3,0.5-0.3,1.2,0,1.8c0.3,0.5,0.8,1.1,1.4,1.5c1,0.6,1.9,0.6,2.2,0c0.1-0.3,0.1-0.6-0.2-1.1C41.4,48.8,40.1,47.1,39.2,47.1z"
				/>
		</g>
		<g>
			<path d="M20.6,9.7c-0.1,0-0.1,0-0.2-0.1l-0.3-0.3C20,9.3,20,9.1,20.1,9c0.1-0.1,0.3-0.1,0.4,0l0.3,0.3c0.1,0.1,0.1,0.3,0,0.4
				C20.7,9.7,20.6,9.7,20.6,9.7z"/>
		</g>
		<g>
			<path d="M23.9,13.8c-0.1,0-0.2-0.1-0.2-0.2l0-0.4c0-0.1,0.1-0.3,0.2-0.3c0.1,0,0.3,0.1,0.3,0.2l0,0.4
				C24.2,13.7,24.1,13.8,23.9,13.8C23.9,13.8,23.9,13.8,23.9,13.8z"/>
		</g>
		<g>
			<path d="M19.7,15.3c-0.1,0-0.1,0-0.2-0.1l-0.9-0.9c-0.1-0.1-0.1-0.3,0-0.4c0.1-0.1,0.3-0.1,0.4,0l0.9,0.9c0.1,0.1,0.1,0.3,0,0.4
				C19.8,15.3,19.8,15.3,19.7,15.3z"/>
		</g>
		<g>
			<path d="M50.2,38.7c-0.1,0-0.1,0-0.2-0.1l-0.6-0.6c-0.1-0.1-0.1-0.3,0-0.4c0.1-0.1,0.3-0.1,0.4,0l0.6,0.6c0.1,0.1,0.1,0.3,0,0.4
				C50.3,38.7,50.2,38.7,50.2,38.7z"/>
		</g>
		<g>
			<path d="M54.7,42.9c0,0-0.1,0-0.1,0l-0.4-0.3c-0.1-0.1-0.1-0.2-0.1-0.3c0.1-0.1,0.2-0.1,0.3-0.1l0.4,0.3c0.1,0.1,0.1,0.2,0.1,0.3
				C54.9,42.9,54.8,42.9,54.7,42.9z"/>
		</g>
		<g>
			<path d="M44.3,29.2C44.3,29.2,44.3,29.2,44.3,29.2c-0.2,0-0.3-0.1-0.2-0.3l0-0.2c0-0.1,0.1-0.2,0.3-0.2c0.1,0,0.2,0.1,0.2,0.3
				l0,0.2C44.5,29.1,44.4,29.2,44.3,29.2z"/>
		</g>
		<g>
			<path d="M38.5,31.8c-0.1,0-0.1,0-0.2-0.1L38,31.5c-0.1-0.1-0.1-0.3,0-0.4c0.1-0.1,0.3-0.1,0.4,0l0.3,0.3c0.1,0.1,0.1,0.3,0,0.4
				C38.6,31.8,38.6,31.8,38.5,31.8z"/>
		</g>
		<g>
			<path d="M43.9,34.6C43.9,34.6,43.9,34.6,43.9,34.6c-0.2,0-0.3-0.1-0.3-0.3l0-0.2c0-0.1,0.1-0.2,0.3-0.2c0.1,0,0.2,0.1,0.2,0.3
				l0,0.2C44.2,34.5,44,34.6,43.9,34.6z"/>
		</g>
		<g>
			<path d="M23.6,24.1c-0.1,0-0.2,0-0.2-0.1c-0.1-0.1-0.1-0.2,0-0.3c-0.1-0.1-0.1-0.2-0.1-0.3c0-0.1,0.2-0.2,0.3-0.2
				c0.2,0,0.3,0.2,0.3,0.3s0,0.3-0.2,0.4C23.7,24.1,23.6,24.1,23.6,24.1z"/>
		</g>
		<g>
			<path d="M18.2,29.7c-0.1,0-0.1,0-0.2-0.1L17.4,29c-0.1-0.1-0.1-0.3,0-0.4c0.1-0.1,0.3-0.1,0.4,0l0.5,0.6c0.1,0.1,0.1,0.3,0,0.4
				C18.3,29.7,18.2,29.7,18.2,29.7z"/>
		</g>
		<g>
			<path d="M21.6,34.5c-0.1,0-0.1,0-0.2-0.1l-0.4-0.5c-0.1-0.1-0.1-0.3,0-0.3c0.1-0.1,0.3-0.1,0.4,0l0.4,0.5c0.1,0.1,0.1,0.3,0,0.3
				C21.7,34.5,21.7,34.5,21.6,34.5z"/>
		</g>
		<g>
			<path d="M25.4,40.5c-0.1,0-0.2,0-0.2-0.1L25,40c-0.1-0.1,0-0.3,0.1-0.3c0.1-0.1,0.3,0,0.3,0.1l0.2,0.4c0.1,0.1,0,0.3-0.1,0.3
				C25.5,40.5,25.5,40.5,25.4,40.5z"/>
		</g>
	</g>
	<g>
		<path d="M55.7,50.7c-0.1,0-0.2-0.1-0.2-0.2c0-0.1,0.1-0.3,0.2-0.3l7.1-1.3c0.1,0,0.3,0.1,0.3,0.2s-0.1,0.3-0.2,0.3L55.7,50.7
			C55.7,50.7,55.7,50.7,55.7,50.7z"/>
	</g>
	<g>
		<path d="M56.8,48.4c-0.1,0-0.2-0.1-0.2-0.2c0-0.1,0.1-0.3,0.2-0.3l7.6-1.4c0.1,0,0.3,0.1,0.3,0.2S64.5,47,64.4,47L56.8,48.4
			C56.8,48.4,56.8,48.4,56.8,48.4z"/>
	</g>
	<g>
		<path d="M57.6,45.3c-0.1,0-0.2-0.1-0.2-0.2c0-0.1,0.1-0.3,0.2-0.3l6.5-1.2c0.1,0,0.3,0.1,0.3,0.2s-0.1,0.3-0.2,0.3L57.6,45.3
			C57.6,45.3,57.6,45.3,57.6,45.3z"/>
	</g>
	<g>
		<path d="M57.4,42.3c-0.1,0-0.2-0.1-0.2-0.2c0-0.1,0.1-0.3,0.2-0.3l5.1-1c0.1,0,0.3,0.1,0.3,0.2c0,0.1-0.1,0.3-0.2,0.3L57.4,42.3
			C57.4,42.3,57.4,42.3,57.4,42.3z"/>
	</g>
	<g>
		<path d="M55.8,40.1c-0.1,0-0.2-0.1-0.2-0.2c0-0.1,0.1-0.3,0.2-0.3l3.9-0.7c0.3-0.1,0.4,0.4,0.1,0.5L55.8,40.1
			C55.9,40.1,55.8,40.1,55.8,40.1z"/>
	</g>
	<g>
		<path d="M54.6,37.8c0-0.1,0.1-0.3,0.2-0.3l3.8-0.7c0.3-0.1,0.4,0.4,0.1,0.5L54.9,38C54.7,38.1,54.6,38,54.6,37.8z"/>
	</g>
	<g>
		<path d="M52.9,35.8c0-0.1,0.1-0.3,0.2-0.3l2.8-0.5c0.1,0,0.3,0.1,0.3,0.2s-0.1,0.3-0.2,0.3L53.2,36C53,36,52.9,36,52.9,35.8z"/>
	</g>
	<g>
		<path d="M50.9,33.3c-0.1,0-0.2-0.1-0.2-0.2c0-0.1,0.1-0.3,0.2-0.3l2.7-0.5c0.1,0,0.3,0.1,0.3,0.2s-0.1,0.3-0.2,0.3L50.9,33.3
			C50.9,33.3,50.9,33.3,50.9,33.3z"/>
	</g>
	<g>
		<path d="M48.7,31.2c0-0.1,0.1-0.3,0.2-0.3l2.4-0.5c0.1,0,0.3,0.1,0.3,0.2c0,0.1-0.1,0.3-0.2,0.3L49,31.4
			C48.9,31.4,48.8,31.3,48.7,31.2z"/>
	</g>
	<g>
		<path d="M47.5,28.7l2.1-0.4c0.1,0,0.3,0.1,0.3,0.2c0,0.1-0.1,0.3-0.2,0.3l-2.1,0.4C47.2,29.3,47.2,28.8,47.5,28.7z"/>
	</g>
	<g>
		<path d="M46.2,26.9l1.8-0.3c0.1,0,0.3,0.1,0.3,0.2c0,0.1-0.1,0.3-0.2,0.3l-1.8,0.3C46,27.5,45.9,27,46.2,26.9z"/>
	</g>
	<g>
		<path d="M44.7,25.8c0-0.1,0.1-0.3,0.2-0.3l1.5-0.3c0.1,0,0.3,0.1,0.3,0.2c0,0.1-0.1,0.3-0.2,0.3L45,26
			C44.9,26.1,44.7,26,44.7,25.8z"/>
	</g>
	<g>
		<path d="M43.3,24.5c0-0.1,0.1-0.3,0.2-0.3l1.6-0.3c0.1,0,0.3,0.1,0.3,0.2c0,0.1-0.1,0.3-0.2,0.3l-1.6,0.3
			C43.4,24.7,43.3,24.6,43.3,24.5z"/>
	</g>
	<g>
		<path d="M42.1,22.9l1.5-0.3c0.1,0,0.3,0.1,0.3,0.2c0,0.1-0.1,0.3-0.2,0.3l-1.5,0.3C41.9,23.5,41.8,23,42.1,22.9z"/>
	</g>
	<g>
		<path d="M40.4,21l1.3-0.2c0.1,0,0.3,0.1,0.3,0.2c0,0.1-0.1,0.3-0.2,0.3l-1.3,0.2C40.1,21.6,40.1,21.1,40.4,21z"/>
	</g>
	<g>
		<path d="M39,19.9c0-0.1,0.1-0.3,0.2-0.3l1-0.2c0.3-0.1,0.4,0.4,0.1,0.5l-1,0.2C39.1,20.2,39,20.1,39,19.9z"/>
	</g>
	<g>
		<path d="M37.9,18.7c0-0.1,0.1-0.3,0.2-0.3l1-0.2c0.3-0.1,0.4,0.4,0.1,0.5l-1,0.2C38.1,18.9,37.9,18.8,37.9,18.7z"/>
	</g>
	<g>
		<path d="M55,53.7c-0.1,0-0.2-0.1-0.2-0.2c0-0.1,0.1-0.3,0.2-0.3l4.3-0.8c0.3-0.1,0.4,0.4,0.1,0.5L55,53.7
			C55.1,53.7,55.1,53.7,55,53.7z"/>
	</g>
	<g>
		<path d="M54.7,56.2c-0.1,0-0.2-0.1-0.2-0.2c0-0.1,0.1-0.3,0.2-0.3l3.3-0.6c0.1,0,0.3,0.1,0.3,0.2c0,0.1-0.1,0.3-0.2,0.3L54.7,56.2
			C54.8,56.2,54.7,56.2,54.7,56.2z"/>
	</g>
	<g>
		<path d="M53.5,58.7c-0.1,0-0.2-0.1-0.2-0.2c0-0.1,0.1-0.3,0.2-0.3l2.7-0.5c0.3-0.1,0.4,0.4,0.1,0.5L53.5,58.7
			C53.5,58.7,53.5,58.7,53.5,58.7z"/>
	</g>
	<g>
		<path d="M52.8,59.9l1.6-0.3c0.1,0,0.3,0.1,0.3,0.2c0,0.1-0.1,0.3-0.2,0.3l-1.6,0.3C52.6,60.5,52.5,60,52.8,59.9z"/>
	</g>
	<g>
		<path d="M49.2,60.2l1.8-0.3c0.3-0.1,0.4,0.4,0.1,0.5l-1.8,0.3C49,60.7,48.9,60.2,49.2,60.2z"/>
	</g>
	<g>
		<path d="M47.3,59.1l1.7-0.3c0.1,0,0.3,0.1,0.3,0.2s-0.1,0.3-0.2,0.3l-1.7,0.3C47,59.6,46.9,59.1,47.3,59.1z"/>
	</g>
	<g>
		<path d="M45.1,58c0-0.1,0.1-0.3,0.2-0.3l1.8-0.3c0.1,0,0.3,0.1,0.3,0.2c0,0.1-0.1,0.3-0.2,0.3l-1.8,0.3
			C45.3,58.3,45.2,58.2,45.1,58z"/>
	</g>
	<g>
		<path d="M44,56.8l2.1-0.4c0.1,0,0.3,0.1,0.3,0.2c0,0.1-0.1,0.3-0.2,0.3l-2.1,0.4C43.8,57.4,43.7,56.9,44,56.8z"/>
	</g>
	<g>
		<path d="M42.6,56.4c0-0.1,0.1-0.3,0.2-0.3l1.7-0.3c0.1,0,0.3,0.1,0.3,0.2s-0.1,0.3-0.2,0.3l-1.7,0.3
			C42.7,56.6,42.6,56.5,42.6,56.4z"/>
	</g>
	<g>
		<path d="M43.9,57.1l-0.3-1.6c0-0.1,0.1-0.3,0.2-0.3c0.1,0,0.3,0.1,0.3,0.2l0.3,1.6c0,0.1-0.1,0.3-0.2,0.3
			C44.1,57.4,43.9,57.3,43.9,57.1z"/>
	</g>
	<g>
		<path d="M45.6,58.2l-0.4-1.9c0-0.1,0.1-0.3,0.2-0.3c0.1,0,0.3,0.1,0.3,0.2l0.4,1.9c0,0.1-0.1,0.3-0.2,0.3
			C45.8,58.5,45.6,58.4,45.6,58.2z"/>
	</g>
	<g>
		<path d="M47.8,59.9l-0.4-2.1c0-0.1,0.1-0.3,0.2-0.3c0.1,0,0.3,0.1,0.3,0.2l0.4,2.1c0,0.1-0.1,0.3-0.2,0.3
			C47.9,60.1,47.8,60,47.8,59.9z"/>
	</g>
	<g>
		<path d="M49.9,61.2l-0.5-2.6c0-0.1,0.1-0.3,0.2-0.3c0.1,0,0.3,0.1,0.3,0.2l0.5,2.6c0,0.1-0.1,0.3-0.2,0.3
			C50.1,61.4,50,61.4,49.9,61.2z"/>
	</g>
	<g>
		<path d="M51.8,61.2l-0.6-3.1c0-0.1,0.1-0.3,0.2-0.3c0.1,0,0.3,0.1,0.3,0.2l0.6,3.1c0,0.1-0.1,0.3-0.2,0.3
			C51.9,61.5,51.8,61.4,51.8,61.2z"/>
	</g>
	<g>
		<path d="M53.9,60.4l-0.9-5c0-0.1,0.1-0.3,0.2-0.3c0.1,0,0.3,0.1,0.3,0.2l0.9,5c0,0.1-0.1,0.3-0.2,0.3C54,60.6,53.9,60.5,53.9,60.4
			z"/>
	</g>
	<g>
		<path d="M56.1,58.4l-1.4-7.6c0-0.1,0.1-0.3,0.2-0.3c0.1,0,0.3,0.1,0.3,0.2l1.4,7.6c0,0.1-0.1,0.3-0.2,0.3S56.2,58.6,56.1,58.4z"/>
	</g>
	<g>
		<path d="M58.9,53.7l-1.4-7.3c0-0.1,0.1-0.3,0.2-0.3c0.1,0,0.3,0.1,0.3,0.2l1.4,7.3c0,0.1-0.1,0.3-0.2,0.3
			C59.1,54,58.9,53.9,58.9,53.7z"/>
	</g>
	<g>
		<path d="M61.2,49.3l-1.3-7.1c0-0.1,0.1-0.3,0.2-0.3c0.1,0,0.3,0.1,0.3,0.2l1.3,7.1c0,0.1-0.1,0.3-0.2,0.3
			C61.3,49.5,61.2,49.4,61.2,49.3z"/>
	</g>
	<g>
		<path d="M63,45.3l-0.6-3c-0.1-0.3,0.4-0.4,0.5-0.1l0.6,3c0,0.1-0.1,0.3-0.2,0.3C63.2,45.5,63,45.4,63,45.3z"/>
	</g>
	<g>
		<path d="M57.5,40.6l-0.8-4.2c0-0.1,0.1-0.3,0.2-0.3c0.1,0,0.3,0.1,0.3,0.2l0.8,4.2c0,0.1-0.1,0.3-0.2,0.3
			C57.6,40.8,57.5,40.7,57.5,40.6z"/>
	</g>
	<g>
		<path d="M54.6,37.1l-0.7-3.8c0-0.1,0.1-0.3,0.2-0.3c0.1,0,0.3,0.1,0.3,0.2l0.7,3.8c0,0.1-0.1,0.3-0.2,0.3
			C54.8,37.4,54.6,37.3,54.6,37.1z"/>
	</g>
	<g>
		<path d="M51.8,33.7l-0.5-2.5c0-0.1,0.1-0.3,0.2-0.3c0.1,0,0.3,0.1,0.3,0.2l0.5,2.5c0,0.1-0.1,0.3-0.2,0.3
			C51.9,33.9,51.8,33.9,51.8,33.7z"/>
	</g>
	<g>
		<path d="M48.7,30.2L48,26.8c0-0.1,0.1-0.3,0.2-0.3c0.1,0,0.3,0.1,0.3,0.2l0.6,3.4c0,0.1-0.1,0.3-0.2,0.3
			C48.8,30.5,48.7,30.4,48.7,30.2z"/>
	</g>
	<g>
		<path d="M45.8,27.1l-0.4-1.9c0-0.1,0.1-0.3,0.2-0.3c0.1,0,0.3,0.1,0.3,0.2l0.4,1.9c0,0.1-0.1,0.3-0.2,0.3
			C45.9,27.3,45.8,27.2,45.8,27.1z"/>
	</g>
	<g>
		<path d="M44,24.9c-0.1,0-0.2-0.1-0.2-0.2l-0.3-1.4c0-0.1,0.1-0.3,0.2-0.3c0.1,0,0.3,0.1,0.3,0.2l0.3,1.4
			C44.3,24.7,44.2,24.8,44,24.9C44,24.9,44,24.9,44,24.9z"/>
	</g>
	<g>
		<path d="M41.8,23l-0.3-1.4c0-0.1,0.1-0.3,0.2-0.3c0.1,0,0.3,0.1,0.3,0.2l0.3,1.4c0,0.1-0.1,0.3-0.2,0.3
			C41.9,23.3,41.8,23.2,41.8,23z"/>
	</g>
	<g>
		<path d="M40.1,21.2l-0.2-1.3c0-0.1,0.1-0.3,0.2-0.3c0.1,0,0.3,0.1,0.3,0.2l0.2,1.3c0,0.1-0.1,0.3-0.2,0.3
			C40.2,21.4,40.1,21.3,40.1,21.2z"/>
	</g>
	<g>
		<path d="M38.8,19.6l-0.2-1.3c0-0.1,0.1-0.3,0.2-0.3c0.1,0,0.3,0.1,0.3,0.2l0.2,1.3c0,0.1-0.1,0.3-0.2,0.3
			C39,19.8,38.8,19.7,38.8,19.6z"/>
	</g>
</g>
</svg>
