<?xml version="1.0" encoding="utf-8"?>
<!-- Generator: Adobe Illustrator 23.1.0, SVG Export Plug-In . SVG Version: 6.00 Build 0)  -->
<svg version="1.1" id="Слой_1" xmlns="http://www.w3.org/2000/svg" xmlns:xlink="http://www.w3.org/1999/xlink" x="0px" y="0px"
	 viewBox="0 0 65 81.3" style="enable-background:new 0 0 65 81.3;" xml:space="preserve">
<g>
	<g>
		<g>
			<g>
				<path d="M27.8,56.2c-2.2,0-4.4-0.5-6.2-1.5c-1.7-1-3.2-2.5-4.2-4.2c-0.3-0.5-0.4-1.3-0.6-2.1c-0.2-0.9-0.4-2.1-0.8-2.3
					c-1-0.6-2.2,0.3-4.9-2c-1.6-1.3-2.7-3-3.1-4.9c-0.4-2.1-0.2-4.4,0.9-7c1.8-4.4,5.4-8.4,10.2-11.2c6.6-3.9,17.2-6,22.3-5.2
					c2.9,0.5,5.5,1.9,6.9,3.9c3.8,5.2,2.8,20.3-7.1,30.3c-2.8,2.8-5.8,4.7-9,5.7C30.8,56,29.3,56.2,27.8,56.2z M33.7,17
					c-5.7,1-10.3,2.5-14.1,4.8c-4.6,2.7-8.1,6.5-9.8,10.7C8.9,34.8,8.6,37,9,38.9c0.4,1.7,1.3,3.2,2.8,4.4c2.5,2,3.6,1.2,4.8,1.9
					c1.2,0.8,1.2,3.7,1.8,4.9c2.6,4.8,8.5,6.2,13.6,4.6c3-0.9,5.8-2.7,8.5-5.4c5.7-5.8,9-14,8.9-22.1c-0.1-3-0.7-5.2-1.8-6.9
					c-1.3-1.8-3.6-3.1-6.3-3.5C38.7,16.2,36.2,16.5,33.7,17z"/>
			</g>
			<g>
				<path d="M19,21.6C19,21.6,19,21.6,19,21.6c-0.3,0-0.5-0.2-0.5-0.5c0.1-5,3.4-9.9,8-11.8c4.9-2.1,10.5-1,15.5-2.1
					C49,5.8,48.7,2,51.4,0.9c2.5-1.2,5.7,1.1,5,4.5c-0.6,3.1-3.3,3.8-5.3,4.2c-3,0.6-7.4,1.5-10.8,6.4c-0.2,0.2-0.5,0.3-0.7,0.1
					c-0.2-0.2-0.3-0.5-0.1-0.7c3.6-5.3,8.3-6.2,11.5-6.8c1.1-0.2,4-0.5,4.6-3.4c0.5-2.5-1.9-4.2-3.6-3.4c-2.1,1-2.3,4.9-9.5,6.4
					c-5.1,1.1-10.6,0-15.4,2c-4.3,1.8-7.3,6.3-7.4,10.9C19.5,21.4,19.3,21.6,19,21.6z"/>
			</g>
			<g>
				<path d="M45.1,47.1c-0.6,0-1.1-0.1-1.7-0.3c-0.3-0.1-0.4-0.4-0.3-0.7c0.1-0.3,0.4-0.4,0.7-0.3c1.2,0.5,2.5,0.2,4-0.3
					c2.1-0.6,4.5-1.3,6.2-2.8c4.9-4.2,3.5-12.1,3.9-17.5c0.4-6.1,2.5-8.2,4.1-9.8c0.6-0.6,1-1.1,1.3-1.6c1-2.2-1.1-4.7-3.5-3.8
					c-1.2,0.4-1.9,1.6-2.2,3.3c-0.3,1.7,0.6,10-7.3,13.5c-0.3,0.1-0.5,0-0.7-0.3s0-0.5,0.3-0.7c7.3-3.2,6.4-10.8,6.7-12.7
					c0.4-2.8,2-3.8,2.9-4.1c3.3-1.2,6.1,2.2,4.8,5.1c-1.1,2.4-4.8,3-5.3,11c-0.4,5.2,1,13.7-4.3,18.2C52.2,45.6,46.9,47.1,45.1,47.1
					z"/>
			</g>
			<g>
				<path d="M30.6,64.4c-1.6,0-3.2-0.4-4.3-1.7c-0.7-0.9-1.1-2.2-1.1-3.6c0-1.2,0.3-2.4,0.7-3.5c0.1-0.3,0.3-0.4,0.6-0.3
					c0.3,0.1,0.4,0.3,0.4,0.6c-0.3,1.1-0.6,2.2-0.6,3.3c0,1.2,0.3,2.2,0.9,2.9c1.4,1.7,3.9,1.5,5.7,1.2c7.1-1.2,13.4-4.6,19.2-8.2
					c2.4-1.5,6.1-3.8,7.2-7.4c0.2-0.7,0.3-1.7-0.3-2.1c-0.9-0.6-2.8,0.5-6.3,1.8c-5.5,2.1-6.1,2.4-7.4,2.5c-1.5,0.2-2.8-0.2-3.7-1
					c-0.2-0.2-0.2-0.5-0.1-0.7c0.2-0.2,0.5-0.2,0.7-0.1c0.7,0.6,1.8,0.9,3,0.7c1.2-0.1,1.7-0.3,7.1-2.4c4.7-1.8,5.9-2.6,7.2-1.7
					c1,0.7,1.1,2.1,0.7,3.2c-1.2,4-5.1,6.4-7.6,8C46.8,59.4,37.6,64.4,30.6,64.4z"/>
			</g>
			<g>
				<path d="M5.4,39.7c-0.7,0-1.5-0.2-2.2-0.6c-1.4-0.8-2.4-2.5-2.7-4.4c-0.2-1.7,0.1-3.5,0.5-5.1c1.3-5.3,3.3-9.9,6.1-13.7
					c3.2-4.3,7.3-7.4,11.9-9.1c1-0.4,1.9-0.2,2.4,0.3c0.4,0.4,0.8,1.3-0.1,3.2c-1.2,2.5-2.4,4.7-3.9,6.8c-0.6,0.9-1.2,1.8-1.5,2.7
					c-0.3,0.9-0.3,2.1,0.5,2.9c0.2,0.2,0.2,0.5,0,0.7c-0.2,0.2-0.5,0.2-0.7,0c-1-1.1-1-2.7-0.7-3.9c0.4-1.2,1.1-2.2,1.8-3.3
					c1.4-2,2.6-4.2,3.6-6.4C21,8.8,21,8.1,20.7,7.9c-0.2-0.3-0.7-0.3-1.3-0.1C15.1,9.3,11,12.4,8,16.5c-2.7,3.7-4.7,8.1-6,13.3
					c-2.1,9,3.9,10.1,5.6,7.9c0.2-0.2,0.5-0.2,0.7-0.1c0.2,0.2,0.2,0.5,0.1,0.7C7.7,39.2,6.6,39.7,5.4,39.7z"/>
			</g>
		</g>
		<g>
			<path d="M35,22c-0.1,0-0.3-0.1-0.3-0.3v-0.1c0-0.1,0.1-0.3,0.3-0.3s0.3,0.1,0.3,0.3v0.1C35.2,21.8,35.1,22,35,22z"/>
		</g>
		<g>
			<path d="M32,24.4c-0.1,0-0.3-0.1-0.3-0.3V24c0-0.1,0.1-0.3,0.3-0.3s0.3,0.1,0.3,0.3v0.2C32.3,24.3,32.2,24.4,32,24.4z"/>
		</g>
		<g>
			<path d="M37.4,24.5c-0.1,0-0.2,0-0.2-0.1c-0.1-0.1-0.1-0.3,0-0.4c0.1-0.1,0.2-0.1,0.3-0.1c0.1,0.1,0.1,0.1,0.1,0.2
				c0,0.1,0,0.2-0.1,0.3C37.5,24.5,37.5,24.5,37.4,24.5z"/>
		</g>
		<g>
			<path d="M41.4,25c-0.1,0-0.3-0.1-0.3-0.3v-0.2c0-0.1,0.1-0.3,0.3-0.3s0.3,0.1,0.3,0.3v0.2C41.7,24.9,41.6,25,41.4,25z"/>
		</g>
		<g>
			<path d="M41,30.2c0,0-0.1,0-0.1,0c-0.1-0.1-0.2-0.2-0.1-0.3l0.1-0.2c0.1-0.1,0.2-0.2,0.3-0.1c0.1,0.1,0.2,0.2,0.1,0.3l-0.1,0.2
				C41.2,30.2,41.1,30.2,41,30.2z"/>
		</g>
		<g>
			<path d="M35.1,32.9L35.1,32.9c-0.2,0-0.3-0.1-0.3-0.3s0.1-0.3,0.3-0.3h0.1c0.1,0,0.3,0.1,0.3,0.3S35.3,32.9,35.1,32.9z"/>
		</g>
		<g>
			<path d="M33.1,29L33.1,29c-0.2,0-0.3-0.1-0.3-0.3s0.1-0.3,0.3-0.3h0.1c0.1,0,0.3,0.1,0.3,0.3S33.3,29,33.1,29z"/>
		</g>
		<g>
			<path d="M27.2,28.6c-0.1,0-0.3-0.1-0.3-0.3v-0.2c0-0.1,0.1-0.3,0.3-0.3s0.3,0.1,0.3,0.3v0.2C27.5,28.5,27.4,28.6,27.2,28.6z"/>
		</g>
		<g>
			<path d="M28.4,33c-0.1,0-0.1,0-0.2-0.1l-0.1-0.1c-0.1-0.1-0.1-0.3,0-0.4s0.3-0.1,0.4,0l0.1,0.1c0.1,0.1,0.1,0.3,0,0.4
				C28.5,32.9,28.5,33,28.4,33z"/>
		</g>
		<g>
			<path d="M32.1,36L32.1,36c-0.2,0-0.3-0.1-0.3-0.3s0.1-0.3,0.3-0.3h0.1c0.1,0,0.3,0.1,0.3,0.3S32.3,36,32.1,36z"/>
		</g>
		<g>
			<path d="M36.9,52.2c-0.1,0-0.1,0-0.2-0.1l-5.3-5.3c-0.1-0.1-0.1-0.3,0-0.4s0.3-0.1,0.4,0l5.3,5.3c0.1,0.1,0.1,0.3,0,0.4
				C37,52.2,37,52.2,36.9,52.2z"/>
		</g>
		<g>
			<path d="M38.2,50.5l-4.8-4.8c-0.1-0.1-0.1-0.3,0-0.4s0.3-0.1,0.4,0l4.8,4.8c0.1,0.1,0.1,0.3,0,0.4C38.4,50.6,38.3,50.6,38.2,50.5
				z"/>
		</g>
		<g>
			<path d="M40.4,47.9L36.6,44c-0.1-0.1-0.1-0.3,0-0.4s0.3-0.1,0.4,0l3.8,3.8c0.1,0.1,0.1,0.3,0,0.4C40.7,48,40.5,48,40.4,47.9z"/>
		</g>
		<g>
			<path d="M42.5,45.5l-2.9-2.9c-0.1-0.1-0.1-0.3,0-0.4s0.3-0.1,0.4,0l2.9,2.9c0.1,0.1,0.1,0.3,0,0.4C42.7,45.6,42.6,45.6,42.5,45.5
				z"/>
		</g>
		<g>
			<path d="M44.4,42.6l-2.5-2.5c-0.1-0.1-0.1-0.3,0-0.4s0.3-0.1,0.4,0l2.5,2.5c0.1,0.1,0.1,0.3,0,0.4C44.7,42.7,44.5,42.7,44.4,42.6
				z"/>
		</g>
		<g>
			<path d="M45.9,40.3l-1.6-1.6c-0.1-0.1-0.1-0.3,0-0.4s0.3-0.1,0.4,0l1.6,1.6c0.1,0.1,0.1,0.3,0,0.4C46.2,40.4,46,40.4,45.9,40.3z"
				/>
		</g>
		<g>
			<path d="M47.9,38.2l-2.3-2.3c-0.1-0.1-0.1-0.3,0-0.4s0.3-0.1,0.4,0l2.3,2.3c0.1,0.1,0.1,0.3,0,0.4C48.2,38.3,48,38.3,47.9,38.2z"
				/>
		</g>
		<g>
			<path d="M48.7,34.3c-0.1,0-0.1,0-0.2-0.1l-0.9-0.9c-0.1-0.1-0.1-0.3,0-0.4s0.3-0.1,0.4,0l0.9,0.9c0.1,0.1,0.1,0.3,0,0.4
				C48.8,34.2,48.7,34.3,48.7,34.3z"/>
		</g>
		<g>
			<path d="M33.5,52.6L29,48.2c-0.1-0.1-0.1-0.3,0-0.4s0.3-0.1,0.4,0l4.5,4.5c0.1,0.1,0.1,0.3,0,0.4C33.8,52.7,33.6,52.7,33.5,52.6z
				"/>
		</g>
		<g>
			<path d="M31,53.3l-4-4c-0.1-0.1-0.1-0.3,0-0.4s0.3-0.1,0.4,0l4,4c0.1,0.1,0.1,0.3,0,0.4C31.3,53.4,31.1,53.4,31,53.3z"/>
		</g>
		<g>
			<path d="M28.4,53.5L24.9,50c-0.1-0.1-0.1-0.3,0-0.4s0.3-0.1,0.4,0l3.5,3.5c0.1,0.1,0.1,0.3,0,0.4C28.6,53.6,28.5,53.6,28.4,53.5z
				"/>
		</g>
		<g>
			<path d="M25,53.9l-2.6-2.6c-0.1-0.1-0.1-0.3,0-0.4s0.3-0.1,0.4,0l2.6,2.6c0.1,0.1,0.1,0.3,0,0.4C25.3,54,25.1,54,25,53.9z"/>
		</g>
		<g>
			<path d="M22.6,53.9l-2.1-2.1c-0.1-0.1-0.1-0.3,0-0.4s0.3-0.1,0.4,0l2.1,2.1c0.1,0.1,0.1,0.3,0,0.4C22.9,54,22.7,54,22.6,53.9z"/>
		</g>
		<g>
			<path d="M21,53.8c-0.1-0.1-0.1-0.3,0-0.4l2.8-2.8c0.1-0.1,0.3-0.1,0.4,0s0.1,0.3,0,0.4l-2.8,2.8C21.3,53.9,21.1,53.9,21,53.8z"/>
		</g>
		<g>
			<path d="M23.4,54.6c-0.1-0.1-0.1-0.3,0-0.4l7-7c0.1-0.1,0.3-0.1,0.4,0c0.1,0.1,0.1,0.3,0,0.4l-7,7C23.7,54.7,23.5,54.7,23.4,54.6
				z"/>
		</g>
		<g>
			<path d="M27.4,55c-0.1,0-0.1,0-0.2-0.1c-0.1-0.1-0.1-0.3,0-0.4l7.9-7.9c0.1-0.1,0.3-0.1,0.4,0s0.1,0.3,0,0.4l-7.9,7.9
				C27.6,55,27.5,55,27.4,55z"/>
		</g>
		<g>
			<path d="M32.6,54.1c-0.1-0.1-0.1-0.3,0-0.4l4.9-4.9c0.1-0.1,0.3-0.1,0.4,0s0.1,0.3,0,0.4L33,54.1C32.9,54.2,32.7,54.2,32.6,54.1z
				"/>
		</g>
		<g>
			<path d="M36.2,45.9c-0.1,0-0.1,0-0.2-0.1c-0.1-0.1-0.1-0.3,0-0.4l2.5-2.5c0.1-0.1,0.3-0.1,0.4,0s0.1,0.3,0,0.4l-2.5,2.5
				C36.3,45.9,36.3,45.9,36.2,45.9z"/>
		</g>
		<g>
			<path d="M38,47.5c-0.1-0.1-0.1-0.3,0-0.4l3-3c0.1-0.1,0.3-0.1,0.4,0s0.1,0.3,0,0.4l-3,3C38.3,47.6,38.1,47.6,38,47.5z"/>
		</g>
		<g>
			<path d="M41.1,42.9c-0.1-0.1-0.1-0.3,0-0.4l3-3c0.1-0.1,0.3-0.1,0.4,0s0.1,0.3,0,0.4l-3,3C41.4,43,41.2,43,41.1,42.9z"/>
		</g>
		<g>
			<path d="M43.8,42.3c-0.1-0.1-0.1-0.3,0-0.4l2.2-2.2c0.1-0.1,0.3-0.1,0.4,0c0.1,0.1,0.1,0.3,0,0.4l-2.2,2.2
				C44,42.4,43.9,42.4,43.8,42.3z"/>
		</g>
		<g>
			<path d="M45.7,37.3c-0.1-0.1-0.1-0.3,0-0.4l2.2-2.2c0.1-0.1,0.3-0.1,0.4,0c0.1,0.1,0.1,0.3,0,0.4L46,37.3
				C45.9,37.4,45.8,37.4,45.7,37.3z"/>
		</g>
		<g>
			<path d="M49.5,34.3h-1.5c-0.1,0-0.3-0.1-0.3-0.3s0.1-0.3,0.3-0.3h1.5c0.1,0,0.3,0.1,0.3,0.3S49.6,34.3,49.5,34.3z"/>
		</g>
	</g>
	<g>
		<path d="M22,19.5l-1.1-1.1c-0.1-0.1-0.1-0.3,0-0.4c0.1-0.1,0.3-0.1,0.4,0l1.1,1.1c0.1,0.1,0.1,0.3,0,0.4
			C22.2,19.6,22.1,19.6,22,19.5z"/>
	</g>
	<g>
		<path d="M23.4,19.1l-1.2-1.2c-0.1-0.1-0.1-0.3,0-0.4c0.1-0.1,0.3-0.1,0.4,0l1.2,1.2c0.1,0.1,0.1,0.3,0,0.4
			C23.7,19.2,23.5,19.2,23.4,19.1z"/>
	</g>
	<g>
		<path d="M25.3,18.3l-1.1-1.1c-0.1-0.1-0.1-0.3,0-0.4c0.1-0.1,0.3-0.1,0.4,0l1.1,1.1c0.1,0.1,0.1,0.3,0,0.4
			C25.6,18.4,25.4,18.4,25.3,18.3z"/>
	</g>
	<g>
		<path d="M27.1,17.8l-1.2-1.2c-0.1-0.1-0.1-0.3,0-0.4c0.1-0.1,0.3-0.1,0.4,0l1.2,1.2c0.1,0.1,0.1,0.3,0,0.4
			C27.4,17.9,27.2,17.9,27.1,17.8z"/>
	</g>
	<g>
		<path d="M29.2,17.3L27.9,16c-0.1-0.1-0.1-0.3,0-0.4c0.1-0.1,0.3-0.1,0.4,0l1.3,1.3c0.1,0.1,0.1,0.3,0,0.4
			C29.5,17.4,29.3,17.4,29.2,17.3z"/>
	</g>
	<g>
		<path d="M31.4,16.8l-1.7-1.7c-0.1-0.1-0.1-0.3,0-0.4c0.1-0.1,0.3-0.1,0.4,0l1.7,1.7c0.1,0.1,0.1,0.3,0,0.4
			C31.6,16.9,31.5,16.9,31.4,16.8z"/>
	</g>
	<g>
		<path d="M33.4,16.4c-0.2,0-1.5-1.4-1.6-1.5c-0.1-0.1-0.1-0.3,0-0.4c0.1-0.1,0.3-0.1,0.4,0l1.4,1.4c0.1,0.1,0.1,0.3,0,0.4
			C33.5,16.3,33.5,16.4,33.4,16.4z"/>
	</g>
	<g>
		<path d="M36.1,16.5c-0.2,0-2-1.9-2.1-2c-0.1-0.1-0.1-0.3,0-0.4c0.1-0.1,0.3-0.1,0.4,0l2,2c0.1,0.1,0.1,0.3,0,0.4
			C36.2,16.5,36.2,16.5,36.1,16.5z"/>
	</g>
	<g>
		<path d="M38.4,15.9L37,14.6c-0.1-0.1-0.1-0.3,0-0.4c0.1-0.1,0.3-0.1,0.4,0l1.4,1.4c0.1,0.1,0.1,0.3,0,0.4
			C38.6,16,38.5,16,38.4,15.9z"/>
	</g>
	<g>
		<path d="M20.9,20.2l-0.7-0.7c-0.1-0.1-0.1-0.3,0-0.4c0.1-0.1,0.3-0.1,0.4,0l0.7,0.7c0.1,0.1,0.1,0.3,0,0.4
			C21.1,20.3,21,20.3,20.9,20.2z"/>
	</g>
	<g>
		<path d="M19.9,20.2c-0.1-0.1-0.1-0.3,0-0.4l2.1-2.1c0.1-0.1,0.3-0.1,0.4,0s0.1,0.3,0,0.4l-2.1,2.1C20.1,20.3,20,20.3,19.9,20.2z"
			/>
	</g>
	<g>
		<path d="M22.9,18.8c-0.1-0.1-0.1-0.3,0-0.4l2.8-2.8c0.1-0.1,0.3-0.1,0.4,0s0.1,0.3,0,0.4l-2.8,2.8C23.2,18.9,23,18.9,22.9,18.8z"
			/>
	</g>
	<g>
		<path d="M25.7,18.1l2.2-2.2c0.1-0.1,0.3-0.1,0.4,0c0.1,0.1,0.1,0.3,0,0.4l-2.2,2.2C25.9,18.7,25.5,18.3,25.7,18.1z"/>
	</g>
	<g>
		<path d="M29.5,16.8l2.8-2.8c0.1-0.1,0.3-0.1,0.4,0s0.1,0.3,0,0.4l-2.8,2.8C29.6,17.4,29.3,17,29.5,16.8z"/>
	</g>
	<g>
		<path d="M32.6,16.4c-0.1-0.1-0.1-0.3,0-0.4l2-2c0.1-0.1,0.3-0.1,0.4,0s0.1,0.3,0,0.4l-2,2C32.9,16.5,32.7,16.5,32.6,16.4z"/>
	</g>
	<g>
		<path d="M34.9,16.1c-0.1-0.1-0.1-0.3,0-0.4l2.2-2.2c0.1-0.1,0.3-0.1,0.4,0s0.1,0.3,0,0.4l-2.2,2.2C35.2,16.2,35,16.2,34.9,16.1z"
			/>
	</g>
	<g>
		<path d="M37.5,15.9c-0.1-0.1-0.1-0.3,0-0.4l1.9-1.9c0.1-0.1,0.3-0.1,0.4,0c0.1,0.1,0.1,0.3,0,0.4l-1.9,1.9
			C37.8,16,37.6,16,37.5,15.9z"/>
	</g>
	<g>
		<path d="M17.9,36.2l-3.7-3.7c-0.1-0.1-0.1-0.3,0-0.4s0.3-0.1,0.4,0l3.7,3.7c0.1,0.1,0.1,0.3,0,0.4C18.2,36.3,18,36.3,17.9,36.2z"
			/>
	</g>
	<g>
		<path d="M21,34.4l-3.6-3.6c-0.1-0.1-0.1-0.3,0-0.4s0.3-0.1,0.4,0l3.6,3.6c0.1,0.1,0.1,0.3,0,0.4C21.2,34.5,21.1,34.5,21,34.4z"/>
	</g>
	<g>
		<path d="M15.3,34.9c-0.1-0.1-0.1-0.3,0-0.4l5.2-5.2c0.1-0.1,0.3-0.1,0.4,0s0.1,0.3,0,0.4l-5.2,5.2C15.6,35,15.4,35,15.3,34.9z"/>
	</g>
	<g>
		<path d="M18.2,34.6c-0.1-0.1-0.1-0.3,0-0.4l3-3c0.1-0.1,0.3-0.1,0.4,0c0.1,0.1,0.1,0.3,0,0.4l-3,3C18.4,34.7,18.3,34.7,18.2,34.6z
			"/>
	</g>
	<g>
		<path d="M14.8,30.9c-0.1-0.1-0.1-0.3,0-0.4l2.2-2.2c0.1-0.1,0.3-0.1,0.4,0c0.1,0.1,0.1,0.3,0,0.4l-2.2,2.2
			C15.1,31,14.9,31,14.8,30.9z"/>
	</g>
	<g>
		<path d="M2.2,36.8c-0.1-0.1-0.1-0.3,0-0.4l1.9-1.9c0.1-0.1,0.3-0.1,0.4,0c0.1,0.1,0.1,0.3,0,0.4l-1.9,1.9
			C2.5,36.9,2.3,36.9,2.2,36.8z"/>
	</g>
	<g>
		<path d="M3.3,38.4c-0.1-0.1-0.1-0.3,0-0.4l2.4-2.4c0.1-0.1,0.3-0.1,0.4,0c0.1,0.1,0.1,0.3,0,0.4l-2.4,2.4
			C3.5,38.5,3.4,38.5,3.3,38.4z"/>
	</g>
	<g>
		<path d="M5.3,38.6l1.9-1.9c0.1-0.1,0.3-0.1,0.4,0c0.1,0.1,0.1,0.3,0,0.4l-1.9,1.9C5.5,39.2,5.1,38.8,5.3,38.6z"/>
	</g>
	<g>
		<path d="M7.1,33.5c-0.1-0.1-0.1-0.3,0-0.4l1.6-1.6c0.1-0.1,0.3-0.1,0.4,0c0.1,0.1,0.1,0.3,0,0.4l-1.6,1.6
			C7.3,33.6,7.2,33.6,7.1,33.5z"/>
	</g>
	<g>
		<path d="M8.8,29.5c-0.1-0.1-0.1-0.3,0-0.4L11,27c0.1-0.1,0.3-0.1,0.4,0c0.1,0.1,0.1,0.3,0,0.4l-2.2,2.2
			C9.1,29.6,8.9,29.6,8.8,29.5z"/>
	</g>
	<g>
		<path d="M12.6,25.5c-0.1-0.1-0.1-0.3,0-0.4l1.5-1.5c0.1-0.1,0.3-0.1,0.4,0c0.1,0.1,0.1,0.3,0,0.4L13,25.5
			C12.9,25.6,12.7,25.6,12.6,25.5z"/>
	</g>
	<g>
		<path d="M1.3,34.7c-0.1-0.1-0.1-0.3,0-0.4l1.5-1.5c0.2-0.2,0.6,0.1,0.4,0.4l-1.5,1.5C1.6,34.8,1.4,34.8,1.3,34.7z"/>
	</g>
	<g>
		<path d="M1.8,31.7c-0.1,0-0.1,0-0.2-0.1c-0.1-0.1-0.1-0.3,0-0.4l0.9-0.9c0.1-0.1,0.3-0.1,0.4,0c0.1,0.1,0.1,0.3,0,0.4L2,31.7
			C1.9,31.7,1.9,31.7,1.8,31.7z"/>
	</g>
	<g>
		<path d="M4.3,37l-2.2-2.2c-0.1-0.1-0.1-0.3,0-0.4s0.3-0.1,0.4,0l2.2,2.2c0.1,0.1,0.1,0.3,0,0.4C4.6,37.1,4.4,37.1,4.3,37z"/>
	</g>
	<g>
		<path d="M6.8,37c-0.1,0-0.1,0-0.2-0.1l-1.8-1.8c-0.1-0.1-0.1-0.3,0-0.4s0.3-0.1,0.4,0L7,36.6c0.1,0.1,0.1,0.3,0,0.4
			C6.9,37,6.9,37,6.8,37z"/>
	</g>
	<g>
		<path d="M3.3,33.1l-1.4-1.4c-0.1-0.1-0.1-0.3,0-0.4s0.3-0.1,0.4,0l1.4,1.4c0.1,0.1,0.1,0.3,0,0.4C3.5,33.2,3.4,33.2,3.3,33.1z"/>
	</g>
	<g>
		<path d="M8.4,32.5l-1.6-1.6c-0.1-0.1-0.1-0.3,0-0.4c0.1-0.1,0.3-0.1,0.4,0l1.6,1.6c0.1,0.1,0.1,0.3,0,0.4
			C8.6,32.6,8.5,32.6,8.4,32.5z"/>
	</g>
	<g>
		<path d="M10.5,29.4l-1.1-1.1c-0.1-0.1-0.1-0.3,0-0.4s0.3-0.1,0.4,0l1.1,1.1c0.1,0.1,0.1,0.3,0,0.4C10.7,29.5,10.5,29.5,10.5,29.4z
			"/>
	</g>
	<g>
		<path d="M12.2,26.9L11.4,26c-0.1-0.1-0.1-0.3,0-0.4c0.1-0.1,0.3-0.1,0.4,0l0.9,0.9c0.1,0.1,0.1,0.3,0,0.4
			C12.5,27,12.3,27,12.2,26.9z"/>
	</g>
	<g>
		<path d="M14.5,24.8l-1-1c-0.1-0.1-0.1-0.3,0-0.4c0.1-0.1,0.3-0.1,0.4,0l1,1c0.1,0.1,0.1,0.3,0,0.4C14.7,24.9,14.6,24.9,14.5,24.8z
			"/>
	</g>
	<g>
		<path d="M7.7,35.6l-1.9-1.9c-0.1-0.1-0.1-0.3,0-0.4s0.3-0.1,0.4,0L8,35.3C8.3,35.5,7.9,35.9,7.7,35.6z"/>
	</g>
	<g>
		<path d="M5.2,34c-0.1-0.1-0.1-0.3,0-0.4L6.8,32c0.1-0.1,0.3-0.1,0.4,0c0.1,0.1,0.1,0.3,0,0.4L5.6,34C5.5,34.1,5.3,34.1,5.2,34z"/>
	</g>
	<g>
		<path d="M10.1,34.5c-0.1,0-0.1,0-0.2-0.1l0,0c-0.1-0.1-0.1-0.3,0-0.4s0.3-0.1,0.4,0c0,0,0,0,0,0c0.1,0.1,0.1,0.3,0,0.4
			C10.2,34.4,10.1,34.5,10.1,34.5z"/>
	</g>
	<g>
		<path d="M43.9,59.9l-2.3-2.3c-0.1-0.1-0.1-0.3,0-0.4s0.3-0.1,0.4,0l2.3,2.3c0.1,0.1,0.1,0.3,0,0.4C44.1,60,44,60,43.9,59.9z"/>
	</g>
	<g>
		<path d="M45.1,59.2l-2.3-2.3c-0.1-0.1-0.1-0.3,0-0.4s0.3-0.1,0.4,0l2.3,2.3c0.1,0.1,0.1,0.3,0,0.4C45.4,59.3,45.2,59.3,45.1,59.2z
			"/>
	</g>
	<g>
		<path d="M46.6,57.9L44.8,56c-0.1-0.1-0.1-0.3,0-0.4s0.3-0.1,0.4,0l1.8,1.8c0.1,0.1,0.1,0.3,0,0.4C46.8,58,46.7,58,46.6,57.9z"/>
	</g>
	<g>
		<path d="M48,57l-1.6-1.6c-0.1-0.1-0.1-0.3,0-0.4s0.3-0.1,0.4,0l1.6,1.6c0.1,0.1,0.1,0.3,0,0.4C48.2,57.1,48.1,57.1,48,57z"/>
	</g>
	<g>
		<path d="M50.6,56l-1.5-1.5c-0.1-0.1-0.1-0.3,0-0.4c0.1-0.1,0.3-0.1,0.4,0l1.5,1.5C51.2,55.9,50.8,56.2,50.6,56z"/>
	</g>
	<g>
		<path d="M51.7,54.8l-1.5-1.5c-0.1-0.1-0.1-0.3,0-0.4s0.3-0.1,0.4,0l1.5,1.5C52.3,54.7,51.9,55.1,51.7,54.8z"/>
	</g>
	<g>
		<path d="M53.7,53.9l-1.6-1.6c-0.1-0.1-0.1-0.3,0-0.4s0.3-0.1,0.4,0l1.6,1.6c0.1,0.1,0.1,0.3,0,0.4C53.9,54,53.8,54,53.7,53.9z"/>
	</g>
	<g>
		<path d="M55.1,52.5l-1.2-1.2c-0.1-0.1-0.1-0.3,0-0.4s0.3-0.1,0.4,0l1.2,1.2c0.1,0.1,0.1,0.3,0,0.4C55.3,52.6,55.2,52.6,55.1,52.5z
			"/>
	</g>
	<g>
		<path d="M56.7,51.2l-1.3-1.3c-0.1-0.1-0.1-0.3,0-0.4s0.3-0.1,0.4,0l1.3,1.3c0.1,0.1,0.1,0.3,0,0.4C56.9,51.3,56.8,51.3,56.7,51.2z
			"/>
	</g>
	<g>
		<path d="M57.8,50.2l-1.4-1.4c-0.1-0.1-0.1-0.3,0-0.4c0.1-0.1,0.3-0.1,0.4,0l1.4,1.4c0.1,0.1,0.1,0.3,0,0.4
			C58.1,50.3,57.9,50.3,57.8,50.2z"/>
	</g>
	<g>
		<path d="M40.5,60.7l-1.8-1.8c-0.1-0.1-0.1-0.3,0-0.4c0.1-0.1,0.3-0.1,0.4,0l1.8,1.8c0.1,0.1,0.1,0.3,0,0.4
			C40.7,60.8,40.6,60.8,40.5,60.7z"/>
	</g>
	<g>
		<path d="M38.3,61.7c-0.1,0-0.1,0-0.2-0.1l-1.5-1.5c-0.1-0.1-0.1-0.3,0-0.4s0.3-0.1,0.4,0l1.5,1.5c0.1,0.1,0.1,0.3,0,0.4
			C38.4,61.6,38.3,61.7,38.3,61.7z"/>
	</g>
	<g>
		<path d="M35.5,62.5l-1.4-1.4c-0.1-0.1-0.1-0.3,0-0.4c0.1-0.1,0.3-0.1,0.4,0l1.4,1.4c0.1,0.1,0.1,0.3,0,0.4
			C35.8,62.6,35.6,62.6,35.5,62.5z"/>
	</g>
	<g>
		<path d="M32.9,63.2l-1.3-1.3c-0.1-0.1-0.1-0.3,0-0.4s0.3-0.1,0.4,0l1.3,1.3C33.5,63,33.1,63.4,32.9,63.2z"/>
	</g>
	<g>
		<path d="M30.6,63.5l-1.1-1.1c-0.1-0.1-0.1-0.3,0-0.4s0.3-0.1,0.4,0l1.1,1.1c0.1,0.1,0.1,0.3,0,0.4C30.9,63.6,30.7,63.6,30.6,63.5z
			"/>
	</g>
	<g>
		<path d="M28.7,63.2c-0.1,0-0.1,0-0.2-0.1l-1.2-1.2c-0.1-0.1-0.1-0.3,0-0.4c0.1-0.1,0.3-0.1,0.4,0l1.2,1.2c0.1,0.1,0.1,0.3,0,0.4
			C28.8,63.1,28.7,63.2,28.7,63.2z"/>
	</g>
	<g>
		<path d="M27.3,60.3c-0.1,0-0.1,0-0.2-0.1L26,59.1c-0.1-0.1-0.1-0.3,0-0.4s0.3-0.1,0.4,0l1.1,1.1c0.1,0.1,0.1,0.3,0,0.4
			C27.4,60.3,27.3,60.3,27.3,60.3z"/>
	</g>
	<g>
		<path d="M27.8,58.3l-1.4-1.4c-0.1-0.1-0.1-0.3,0-0.4s0.3-0.1,0.4,0l1.4,1.4c0.1,0.1,0.1,0.3,0,0.4C28,58.4,27.9,58.4,27.8,58.3z"
			/>
	</g>
	<g>
		<path d="M30.1,57.8l-1.3-1.3c-0.1-0.1-0.1-0.3,0-0.4s0.3-0.1,0.4,0l1.3,1.3c0.1,0.1,0.1,0.3,0,0.4C30.3,57.9,30.2,57.9,30.1,57.8z
			"/>
	</g>
	<g>
		<path d="M33.2,56.6l-1.3-1.3c-0.1-0.1-0.1-0.3,0-0.4s0.3-0.1,0.4,0l1.3,1.3C33.8,56.4,33.4,56.8,33.2,56.6z"/>
	</g>
	<g>
		<path d="M35.2,55.9l-1.3-1.3c-0.1-0.1-0.1-0.3,0-0.4s0.3-0.1,0.4,0l1.3,1.3c0.1,0.1,0.1,0.3,0,0.4C35.4,56,35.3,56,35.2,55.9z"/>
	</g>
	<g>
		<path d="M37.8,54l-1-1c-0.1-0.1-0.1-0.3,0-0.4s0.3-0.1,0.4,0l1,1c0.1,0.1,0.1,0.3,0,0.4C38,54.1,37.9,54.1,37.8,54z"/>
	</g>
	<g>
		<path d="M39.3,53.1L38.2,52c-0.1-0.1-0.1-0.3,0-0.4c0.1-0.1,0.3-0.1,0.4,0l1.1,1.1c0.1,0.1,0.1,0.3,0,0.4
			C39.6,53.2,39.4,53.2,39.3,53.1z"/>
	</g>
	<g>
		<path d="M40.9,51.9l-1-1c-0.1-0.1-0.1-0.3,0-0.4s0.3-0.1,0.4,0l1,1c0.1,0.1,0.1,0.3,0,0.4C41.2,52,41,52,40.9,51.9z"/>
	</g>
	<g>
		<path d="M42.2,51.1l-1.3-1.3c-0.1-0.1-0.1-0.3,0-0.4c0.1-0.1,0.3-0.1,0.4,0l1.3,1.3c0.1,0.1,0.1,0.3,0,0.4
			C42.4,51.2,42.3,51.2,42.2,51.1z"/>
	</g>
	<g>
		<path d="M26.7,58.2c-0.1-0.1-0.1-0.3,0-0.4l1.6-1.6c0.1-0.1,0.3-0.1,0.4,0s0.1,0.3,0,0.4l-1.6,1.6C27,58.2,26.8,58.3,26.7,58.2z"
			/>
	</g>
	<g>
		<path d="M30.2,57.2l2.1-2.1c0.1-0.1,0.3-0.1,0.4,0s0.1,0.3,0,0.4l-2.1,2.1C30.3,57.8,29.9,57.5,30.2,57.2z"/>
	</g>
	<g>
		<path d="M34.3,56.3c-0.1,0-0.1,0-0.2-0.1c-0.1-0.1-0.1-0.3,0-0.4l2.5-2.5c0.1-0.1,0.3-0.1,0.4,0c0.1,0.1,0.1,0.3,0,0.4
			C36.8,53.9,34.4,56.3,34.3,56.3z"/>
	</g>
	<g>
		<path d="M38.5,53.3c-0.1-0.1-0.1-0.3,0-0.4l2.2-2.2c0.1-0.1,0.3-0.1,0.4,0s0.1,0.3,0,0.4l-2.2,2.2C38.8,53.4,38.6,53.4,38.5,53.3z
			"/>
	</g>
	<g>
		<path d="M41.4,50.9c-0.1-0.1-0.1-0.3,0-0.4l0.9-1c0.1-0.1,0.3-0.1,0.4,0s0.1,0.3,0,0.4l-0.9,1C41.7,51,41.5,51,41.4,50.9z"/>
	</g>
	<g>
		<path d="M26.3,60.5c-0.1-0.1-0.1-0.3,0-0.4l1-1c0.2-0.2,0.6,0.1,0.4,0.4l-1,1C26.5,60.6,26.4,60.6,26.3,60.5z"/>
	</g>
	<g>
		<path d="M27.8,63.1c-0.1,0-0.1,0-0.2-0.1c-0.1-0.1-0.1-0.3,0-0.4l2.3-2.3c0.1-0.1,0.3-0.1,0.4,0s0.1,0.3,0,0.4L28,63.1
			C27.9,63.1,27.9,63.1,27.8,63.1z"/>
	</g>
	<g>
		<path d="M30.2,63.6c-0.1-0.1-0.1-0.3,0-0.4l3.4-3.4c0.1-0.1,0.3-0.1,0.4,0s0.1,0.3,0,0.4l-3.4,3.4C30.4,63.7,30.3,63.7,30.2,63.6z
			"/>
	</g>
	<g>
		<path d="M34.4,63l3.7-3.7c0.1-0.1,0.3-0.1,0.4,0s0.1,0.3,0,0.4l-3.7,3.7C34.5,63.5,34.1,63.2,34.4,63z"/>
	</g>
	<g>
		<path d="M39.4,61c-0.1-0.1-0.1-0.3,0-0.4l3-3c0.1-0.1,0.3-0.1,0.4,0s0.1,0.3,0,0.4l-3,3C39.7,61.1,39.5,61.1,39.4,61z"/>
	</g>
	<g>
		<path d="M42.2,60.1c-0.1-0.1-0.1-0.3,0-0.4l3.5-3.5c0.1-0.1,0.3-0.1,0.4,0s0.1,0.3,0,0.4l-3.5,3.5C42.5,60.2,42.3,60.2,42.2,60.1z
			"/>
	</g>
	<g>
		<path d="M46.9,56.8c-0.1-0.1-0.1-0.3,0-0.4l2.6-2.6c0.1-0.1,0.3-0.1,0.4,0s0.1,0.3,0,0.4l-2.6,2.6C47.2,56.9,47,56.9,46.9,56.8z"
			/>
	</g>
	<g>
		<path d="M50.2,55.6c-0.1-0.1-0.1-0.3,0-0.4l2.3-2.3c0.1-0.1,0.3-0.1,0.4,0s0.1,0.3,0,0.4l-2.3,2.3C50.4,55.7,50.3,55.7,50.2,55.6z
			"/>
	</g>
	<g>
		<path d="M53.3,53.9c-0.1-0.1-0.1-0.3,0-0.4l3.8-3.8c0.1-0.1,0.3-0.1,0.4,0s0.1,0.3,0,0.4l-3.8,3.8C53.6,54,53.4,54,53.3,53.9z"/>
	</g>
	<g>
		<path d="M56,49.7c-0.1-0.1-0.1-0.3,0-0.4l1.5-1.5c0.1-0.1,0.3-0.1,0.4,0c0.1,0.1,0.1,0.3,0,0.4l-1.5,1.5
			C56.2,49.8,56.1,49.8,56,49.7z"/>
	</g>
	<g>
		<path d="M39.1,59.5c-0.1-0.1-0.1-0.3,0-0.4l1.9-1.9c0.1-0.1,0.3-0.1,0.4,0s0.1,0.3,0,0.4l-1.9,1.9C39.3,59.6,39.2,59.6,39.1,59.5z
			"/>
	</g>
	<g>
		<path d="M15.9,31.5l2.4-2.4c0.1-0.1,0.3-0.1,0.4,0s0.1,0.3,0,0.4l-2.4,2.4C16,32.1,15.7,31.8,15.9,31.5z"/>
	</g>
	<g>
		<path d="M13.8,34c-0.1-0.1-0.1-0.3,0-0.4l1.2-1.2c0.1-0.1,0.3-0.1,0.4,0c0.1,0.1,0.1,0.3,0,0.4L14.2,34
			C14.1,34.1,13.9,34.1,13.8,34z"/>
	</g>
	<g>
		<path d="M16.1,37.3c-0.1-0.1-0.1-0.3,0-0.4L18,35c0.1-0.1,0.3-0.1,0.4,0c0.1,0.1,0.1,0.3,0,0.4l-1.9,1.9
			C16.4,37.4,16.2,37.4,16.1,37.3z"/>
	</g>
	<g>
		<path d="M22.3,33.6l-2.1-2.1c-0.1-0.1-0.1-0.3,0-0.4s0.3-0.1,0.4,0l2.1,2.1c0.1,0.1,0.1,0.3,0,0.4C22.6,33.7,22.4,33.7,22.3,33.6z
			"/>
	</g>
	<g>
		<path d="M20.7,29.2c-0.1,0-0.1,0-0.2-0.1l-1.2-1.2c-0.1-0.1-0.1-0.3,0-0.4s0.3-0.1,0.4,0l1.2,1.2c0.1,0.1,0.1,0.3,0,0.4
			C20.8,29.2,20.8,29.2,20.7,29.2z"/>
	</g>
	<g>
		<path d="M22.2,30.6c-0.1-0.1-0.1-0.3,0-0.4l1.6-1.6c0.1-0.1,0.3-0.1,0.4,0s0.1,0.3,0,0.4l-1.6,1.6C22.4,30.7,22.3,30.7,22.2,30.6z
			"/>
	</g>
	<g>
		<path d="M23.5,31.8c-0.1-0.1-0.1-0.3,0-0.4l1.3-1.3c0.1-0.1,0.3-0.1,0.4,0c0.1,0.1,0.1,0.3,0,0.4l-1.3,1.3
			C23.8,31.9,23.6,31.9,23.5,31.8z"/>
	</g>
	<g>
		<path d="M24,30.4l-1.6-1.6c-0.1-0.1-0.1-0.3,0-0.4s0.3-0.1,0.4,0l1.6,1.6c0.1,0.1,0.1,0.3,0,0.4C24.2,30.5,24.1,30.5,24,30.4z"/>
	</g>
	<g>
		<path d="M49.9,29c-0.1-0.1-0.1-0.3,0-0.4l1.2-1.2c0.2-0.2,0.6,0.1,0.4,0.4L50.2,29C50.1,29.1,50,29.1,49.9,29z"/>
	</g>
	<g>
		<path d="M49.6,31.9c-0.1-0.1-0.1-0.3,0-0.4l1.9-1.9c0.1-0.1,0.3-0.1,0.4,0c0.1,0.1,0.1,0.3,0,0.4l-1.9,1.9
			C49.9,32,49.7,32,49.6,31.9z"/>
	</g>
	<g>
		<path d="M48.9,35.4c-0.1,0-0.1,0-0.2-0.1c-0.1-0.1-0.1-0.3,0-0.4l2.1-2.1c0.1-0.1,0.3-0.1,0.4,0s0.1,0.3,0,0.4l-2.1,2.2
			C49.1,35.4,49,35.4,48.9,35.4z"/>
	</g>
	<g>
		<path d="M47.9,37.8l2.5-2.5c0.1-0.1,0.3-0.1,0.4,0s0.1,0.3,0,0.4l-2.5,2.5C48.1,38.4,47.7,38.1,47.9,37.8z"/>
	</g>
	<g>
		<path d="M46.3,42c-0.1-0.1-0.1-0.3,0-0.4L49,39c0.1-0.1,0.3-0.1,0.4,0s0.1,0.3,0,0.4L46.7,42C46.6,42.1,46.4,42.1,46.3,42z"/>
	</g>
	<g>
		<path d="M45,45.2c-0.1,0-0.1,0-0.2-0.1c-0.1-0.1-0.1-0.3,0-0.4l2.7-2.7c0.1-0.1,0.3-0.1,0.4,0s0.1,0.3,0,0.4l-2.7,2.7
			C45.1,45.2,45,45.2,45,45.2z"/>
	</g>
	<g>
		<path d="M45.4,46.1c-0.1-0.1-0.1-0.3,0-0.4l3.6-3.6c0.1-0.1,0.3-0.1,0.4,0s0.1,0.3,0,0.4l-3.6,3.6C45.7,46.2,45.5,46.2,45.4,46.1z
			"/>
	</g>
	<g>
		<path d="M49.1,45.3c-0.1-0.1-0.1-0.3,0-0.4l2.8-2.8c0.1-0.1,0.3-0.1,0.4,0s0.1,0.3,0,0.4l-2.8,2.8C49.4,45.4,49.2,45.4,49.1,45.3z
			"/>
	</g>
	<g>
		<path d="M52.7,43.6c-0.1-0.1-0.1-0.3,0-0.4l2.7-2.7c0.1-0.1,0.3-0.1,0.4,0s0.1,0.3,0,0.4l-2.7,2.7C53,43.7,52.8,43.7,52.7,43.6z"
			/>
	</g>
	<g>
		<path d="M54.8,42.6c-0.1,0-0.1,0-0.2-0.1l-1.4-1.4c-0.1-0.1-0.1-0.3,0-0.4s0.3-0.1,0.4,0l1.4,1.4c0.1,0.1,0.1,0.3,0,0.4
			C54.9,42.6,54.9,42.6,54.8,42.6z"/>
	</g>
	<g>
		<path d="M52,44.2l-1.6-1.6c-0.1-0.1-0.1-0.3,0-0.4c0.1-0.1,0.3-0.1,0.4,0l1.6,1.6c0.1,0.1,0.1,0.3,0,0.4
			C52.3,44.3,52.1,44.3,52,44.2z"/>
	</g>
	<g>
		<path d="M50,44.9c-0.1,0-0.1,0-0.2-0.1l-1.3-1.3c-0.1-0.1-0.1-0.3,0-0.4s0.3-0.1,0.4,0l1.3,1.3c0.1,0.1,0.1,0.3,0,0.4
			C50.1,44.8,50.1,44.9,50,44.9z"/>
	</g>
	<g>
		<path d="M47.7,44.8l-1.6-1.6c-0.1-0.1-0.1-0.3,0-0.4s0.3-0.1,0.4,0l1.6,1.6c0.1,0.1,0.1,0.3,0,0.4C48,44.9,47.8,44.9,47.7,44.8z"
			/>
	</g>
	<g>
		<path d="M48.8,40.8l-0.9-0.9c-0.1-0.1-0.1-0.3,0-0.4c0.1-0.1,0.3-0.1,0.4,0l0.9,0.9c0.1,0.1,0.1,0.3,0,0.4
			C49.1,40.9,48.9,40.9,48.8,40.8z"/>
	</g>
	<g>
		<path d="M49.7,37.5l-0.9-0.9c-0.1-0.1-0.1-0.3,0-0.4s0.3-0.1,0.4,0l0.9,0.9c0.1,0.1,0.1,0.3,0,0.4C50,37.6,49.8,37.6,49.7,37.5z"
			/>
	</g>
	<g>
		<path d="M50.7,34.3l-0.8-0.8c-0.1-0.1-0.1-0.3,0-0.4c0.1-0.1,0.3-0.1,0.4,0l0.8,0.8c0.1,0.1,0.1,0.3,0,0.4
			C51,34.4,50.8,34.4,50.7,34.3z"/>
	</g>
	<g>
		<path d="M50.6,31.7l-0.8-0.8c-0.1-0.1-0.1-0.3,0-0.4s0.3-0.1,0.4,0l0.8,0.8c0.1,0.1,0.1,0.3,0,0.4C50.9,31.8,50.7,31.8,50.6,31.7z
			"/>
	</g>
	<g>
		<path d="M51,28.9l-0.7-0.7c-0.1-0.1-0.1-0.3,0-0.4s0.3-0.1,0.4,0l0.7,0.7c0.1,0.1,0.1,0.3,0,0.4C51.2,29,51.1,29,51,28.9z"/>
	</g>
	<g>
		<path d="M51.4,28.2L50,26.8c-0.1-0.1-0.1-0.3,0-0.4s0.3-0.1,0.4,0l1.4,1.4c0.1,0.1,0.1,0.3,0,0.4C51.6,28.3,51.5,28.3,51.4,28.2z"
			/>
	</g>
	<g>
		<path d="M47,46.3l-1.6-1.6c-0.1-0.1-0.1-0.3,0-0.4s0.3-0.1,0.4,0l1.6,1.6c0.1,0.1,0.1,0.3,0,0.4C47.3,46.4,47.1,46.4,47,46.3z"/>
	</g>
</g>
</svg>
