<?xml version="1.0" encoding="utf-8"?>
<!-- Generator: Adobe Illustrator 23.1.0, SVG Export Plug-In . SVG Version: 6.00 Build 0)  -->
<svg version="1.1" id="Слой_1" xmlns="http://www.w3.org/2000/svg" xmlns:xlink="http://www.w3.org/1999/xlink" x="0px" y="0px"
	 viewBox="0 0 65 81.3" style="enable-background:new 0 0 65 81.3;" xml:space="preserve">
<g>
	<g>
		<g>
			<g>
				<g>
					<path d="M38.8,20c-2.9,0-5.8-1.5-7.5-3.9c-2-2.8-2.3-6.5-0.8-9.6c1.3-2.8,4.1-4.9,7.1-5.4c2.8-0.5,6.2,1.8,7.9,4.2
						c1.8,2.4,2.5,5.5,1.8,8.2c-0.9,3.2-3.8,5.9-7.1,6.4C39.7,19.9,39.3,20,38.8,20z M38.4,2.1c-0.2,0-0.4,0-0.6,0
						c-2.7,0.5-5.2,2.3-6.4,4.8c-1.3,2.7-1,6.2,0.7,8.6c1.5,2.1,4.1,3.4,6.7,3.4c0.4,0,0.8,0,1.2-0.1c3-0.5,5.6-2.8,6.3-5.7
						c0.6-2.4,0-5.2-1.6-7.3C43.3,4.1,40.6,2.1,38.4,2.1z"/>
				</g>
				<g>
					<path d="M40.7,6.4c-0.2,0-0.4-0.1-0.6-0.2c-0.3-0.3-0.4-0.7-0.2-1c0.1-0.2,0.4-0.3,0.6-0.3c0.1,0,0.2,0,0.2,0.1
						c0,0,0.1,0,0.1,0c0.2,0,0.4,0.1,0.5,0.3c0.2,0.3,0.2,0.6,0,0.9c-0.1,0.2-0.3,0.3-0.5,0.3C40.9,6.4,40.8,6.4,40.7,6.4z"/>
				</g>
				<g>
					<path d="M36.5,5.7c-0.1,0-0.2,0-0.3,0c-0.4-0.1-0.6-0.4-0.6-0.8c0-0.4,0.3-0.7,0.7-0.8c0.1,0,0.1-0.1,0.2-0.1
						c0.3-0.1,0.7,0,0.9,0.3c0.2,0.3,0.2,0.6,0.1,0.9C37.2,5.6,36.8,5.7,36.5,5.7z"/>
				</g>
				<g>
					<path d="M37.8,8.5c-0.3,0-0.5-0.1-0.7-0.2c-0.2-0.2-0.3-0.5-0.3-0.8C37,7.2,37.2,7,37.4,6.9c0.1,0,0.2,0,0.3,0
						c0.2-0.1,0.5-0.2,0.7-0.1c0.4,0.1,0.6,0.5,0.5,0.9c0,0.3-0.3,0.6-0.7,0.8C38.1,8.5,38,8.5,37.8,8.5z"/>
				</g>
				<g>
					<path d="M40.7,8.3c-0.2,0-0.3-0.1-0.4-0.2l-0.2-0.3C40,7.5,40,7.2,40.3,7.1C40.5,6.9,40.8,7,41,7.2l0.2,0.3
						C41.3,7.7,41.2,8,41,8.2C40.9,8.2,40.8,8.3,40.7,8.3z"/>
				</g>
				<g>
					<path d="M35.3,7.3c-0.1,0-0.2,0-0.2-0.1c-0.2-0.1-0.3-0.4-0.2-0.7L35,6.4c0.1-0.2,0.5-0.3,0.7-0.2s0.3,0.4,0.2,0.7l-0.1,0.2
						C35.7,7.2,35.5,7.3,35.3,7.3z"/>
				</g>
				<g>
					<path d="M39,4c-0.1,0-0.2,0-0.3-0.1c-0.2-0.2-0.2-0.5,0-0.7L39,3.5l0.4,0.4c0,0,0,0,0,0C39.3,4,39.1,4,39,4z"/>
				</g>
				<g>
					<path d="M38.9,19.6c-0.1,0-0.3-0.1-0.3-0.3v-4.3c0-0.1,0.1-0.3,0.3-0.3s0.3,0.1,0.3,0.3v4.3C39.1,19.5,39,19.6,38.9,19.6z"/>
				</g>
				<g>
					<path d="M40.1,19.3c-0.1,0-0.3-0.1-0.3-0.3v-3.7c0-0.1,0.1-0.3,0.3-0.3s0.3,0.1,0.3,0.3v3.7C40.3,19.2,40.2,19.3,40.1,19.3z"/>
				</g>
				<g>
					<path d="M41.5,18.7c-0.1,0-0.3-0.1-0.3-0.3v-2.9c0-0.1,0.1-0.3,0.3-0.3s0.3,0.1,0.3,0.3v2.9C41.8,18.6,41.6,18.7,41.5,18.7z"/>
				</g>
				<g>
					<path d="M42.6,18.4c-0.1,0-0.3-0.1-0.3-0.3v-2.6c0-0.1,0.1-0.3,0.3-0.3s0.3,0.1,0.3,0.3v2.6C42.9,18.2,42.8,18.4,42.6,18.4z"/>
				</g>
				<g>
					<path d="M43.8,16.9c-0.1,0-0.3-0.1-0.3-0.3v-1.8c0-0.1,0.1-0.3,0.3-0.3s0.3,0.1,0.3,0.3v1.8C44,16.8,43.9,16.9,43.8,16.9z"/>
				</g>
				<g>
					<path d="M45.2,16c-0.1,0-0.3-0.1-0.3-0.2v-1.9c0-0.1,0.1-0.3,0.3-0.3s0.3,0.1,0.3,0.3v1.9C45.5,15.9,45.4,16,45.2,16z"/>
				</g>
				<g>
					<path d="M37.2,19.2c-0.1,0-0.3-0.1-0.3-0.3v-4c0-0.1,0.1-0.3,0.3-0.3s0.3,0.1,0.3,0.3v4C37.4,19.1,37.3,19.2,37.2,19.2z"/>
				</g>
				<g>
					<path d="M35.4,18.5c-0.1,0-0.3-0.1-0.3-0.3v-3.3c0-0.1,0.1-0.3,0.3-0.3s0.3,0.1,0.3,0.3v3.3C35.7,18.4,35.5,18.5,35.4,18.5z"/>
				</g>
				<g>
					<path d="M34,17.4c-0.1,0-0.3-0.1-0.3-0.3v-2.5c0-0.1,0.1-0.3,0.3-0.3s0.3,0.1,0.3,0.3v2.5C34.3,17.3,34.2,17.4,34,17.4z"/>
				</g>
				<g>
					<path d="M32.4,16c-0.1,0-0.3-0.1-0.3-0.2V14c0-0.1,0.1-0.3,0.3-0.3s0.3,0.1,0.3,0.3v1.8C32.7,15.9,32.6,16,32.4,16z"/>
				</g>
				<g>
					<path d="M31.3,14.6c-0.1,0-0.3-0.1-0.3-0.3v-1.1c0-0.1,0.1-0.3,0.3-0.3s0.3,0.1,0.3,0.3v1.1C31.5,14.5,31.4,14.6,31.3,14.6z"/>
				</g>
				<g>
					<path d="M32.9,14.2h-2.1c-0.1,0-0.3-0.1-0.3-0.3s0.1-0.3,0.3-0.3h2.1c0.1,0,0.3,0.1,0.3,0.3S33.1,14.2,32.9,14.2z"/>
				</g>
				<g>
					<path d="M35.7,15.8h-3.8c-0.1,0-0.3-0.1-0.3-0.3s0.1-0.3,0.3-0.3h3.8c0.1,0,0.3,0.1,0.3,0.3S35.8,15.8,35.7,15.8z"/>
				</g>
				<g>
					<path d="M38.2,17.4h-4.6c-0.1,0-0.3-0.1-0.3-0.3s0.1-0.3,0.3-0.3h4.6c0.1,0,0.3,0.1,0.3,0.3C38.5,17.3,38.4,17.4,38.2,17.4z"/>
				</g>
				<g>
					<path d="M39.2,16.3h-2.4c-0.1,0-0.3-0.1-0.3-0.3c0-0.1,0.1-0.2,0.3-0.2h2.4c0.1,0,0.3,0.1,0.3,0.2
						C39.5,16.2,39.3,16.3,39.2,16.3z"/>
				</g>
				<g>
					<path d="M39.7,18.7h-3.4c-0.1,0-0.3-0.1-0.3-0.3s0.1-0.3,0.3-0.3h3.4c0.1,0,0.3,0.1,0.3,0.3S39.9,18.7,39.7,18.7z"/>
				</g>
				<g>
					<path d="M41.8,17.1h-2.5c-0.1,0-0.3-0.1-0.3-0.3s0.1-0.3,0.3-0.3h2.5c0.1,0,0.3,0.1,0.3,0.3C42,17,41.9,17.1,41.8,17.1z"/>
				</g>
				<g>
					<path d="M43.6,16.1H42c-0.1,0-0.3-0.1-0.3-0.2s0.1-0.3,0.3-0.3h1.5c0.1,0,0.3,0.1,0.3,0.3S43.7,16.1,43.6,16.1z"/>
				</g>
				<g>
					<path d="M43,18.2h-2.1c-0.1,0-0.3-0.1-0.3-0.3s0.1-0.3,0.3-0.3H43c0.1,0,0.3,0.1,0.3,0.3S43.2,18.2,43,18.2z"/>
				</g>
				<g>
					<path d="M44.5,16.8h-1.4c-0.1,0-0.3-0.1-0.3-0.3s0.1-0.3,0.3-0.3h1.4c0.1,0,0.3,0.1,0.3,0.3S44.7,16.8,44.5,16.8z"/>
				</g>
				<g>
					<path d="M46.1,15h-1.5c-0.1,0-0.3-0.1-0.3-0.3s0.1-0.3,0.3-0.3h1.5c0.1,0,0.3,0.1,0.3,0.3S46.2,15,46.1,15z"/>
				</g>
			</g>
			<g>
				<g>
					<path d="M26.8,32c-2.9,0-5.8-1.5-7.5-3.9c-2-2.8-2.3-6.5-0.8-9.6c1.3-2.8,4.1-4.9,7.1-5.4c2.8-0.5,6.2,1.8,7.9,4.2
						c1.8,2.4,2.5,5.5,1.8,8.2c-0.9,3.2-3.8,5.9-7.1,6.4C27.7,31.9,27.3,32,26.8,32z M26.4,14.1c-0.2,0-0.4,0-0.6,0
						c-2.7,0.5-5.2,2.3-6.4,4.8c-1.3,2.7-1,6.2,0.7,8.6c1.5,2.1,4.1,3.4,6.7,3.4c0.4,0,0.8,0,1.2-0.1c3-0.5,5.6-2.8,6.3-5.7
						c0.6-2.4,0-5.2-1.6-7.3C31.3,16,28.6,14.1,26.4,14.1z"/>
				</g>
				<g>
					<path d="M28.8,18.3c-0.2,0-0.4-0.1-0.6-0.2c-0.3-0.3-0.4-0.7-0.2-1.1c0.1-0.2,0.4-0.3,0.6-0.3c0.1,0,0.2,0,0.2,0.1
						c0,0,0.1,0,0.1,0c0.2,0,0.4,0.1,0.5,0.3c0.2,0.3,0.2,0.6,0,0.9c-0.1,0.2-0.3,0.3-0.5,0.3C28.9,18.3,28.8,18.3,28.8,18.3z"/>
				</g>
				<g>
					<path d="M24.5,17.7c-0.1,0-0.2,0-0.3,0c-0.4-0.1-0.6-0.4-0.6-0.8c0-0.4,0.3-0.7,0.6-0.8c0.1,0,0.1-0.1,0.2-0.1
						c0.3-0.1,0.7,0,0.9,0.3c0.2,0.3,0.2,0.6,0.1,0.9C25.2,17.6,24.9,17.7,24.5,17.7z"/>
				</g>
				<g>
					<path d="M25.9,20.5c-0.3,0-0.5-0.1-0.7-0.2c-0.2-0.2-0.3-0.5-0.3-0.8c0.1-0.3,0.3-0.5,0.5-0.6c0.1,0,0.2,0,0.3,0
						c0.2-0.1,0.5-0.2,0.7-0.1c0.4,0.1,0.6,0.5,0.5,0.9c0,0.3-0.3,0.6-0.7,0.8C26.2,20.5,26,20.5,25.9,20.5z"/>
				</g>
				<g>
					<path d="M28.7,20.2c-0.2,0-0.3-0.1-0.4-0.2l-0.2-0.3c-0.1-0.2-0.1-0.5,0.2-0.7c0.2-0.1,0.5-0.1,0.7,0.2l0.2,0.3
						c0.1,0.2,0.1,0.5-0.2,0.7C28.9,20.2,28.8,20.2,28.7,20.2z"/>
				</g>
				<g>
					<path d="M23.3,19.3c-0.1,0-0.2,0-0.2-0.1c-0.2-0.1-0.3-0.4-0.2-0.7l0.1-0.2c0.1-0.2,0.4-0.3,0.7-0.2c0.2,0.1,0.3,0.4,0.2,0.7
						L23.8,19C23.7,19.2,23.5,19.3,23.3,19.3z"/>
				</g>
				<g>
					<path d="M27.4,15.9l-0.7-0.7c0.2-0.2,0.5-0.2,0.7,0C27.6,15.4,27.6,15.7,27.4,15.9L27,15.5L27.4,15.9z"/>
				</g>
				<g>
					<path d="M26.9,31.6c-0.1,0-0.3-0.1-0.3-0.3V27c0-0.1,0.1-0.3,0.3-0.3s0.3,0.1,0.3,0.3v4.3C27.1,31.4,27,31.6,26.9,31.6z"/>
				</g>
				<g>
					<path d="M28.1,31.3c-0.1,0-0.3-0.1-0.3-0.3v-3.7c0-0.1,0.1-0.3,0.3-0.3s0.3,0.1,0.3,0.3V31C28.4,31.2,28.3,31.3,28.1,31.3z"/>
				</g>
				<g>
					<path d="M29.5,30.7c-0.1,0-0.3-0.1-0.3-0.3v-2.9c0-0.1,0.1-0.3,0.3-0.3s0.3,0.1,0.3,0.3v2.9C29.8,30.6,29.7,30.7,29.5,30.7z"/>
				</g>
				<g>
					<path d="M30.7,30.3c-0.1,0-0.3-0.1-0.3-0.3v-2.6c0-0.1,0.1-0.3,0.3-0.3s0.3,0.1,0.3,0.3v2.6C30.9,30.2,30.8,30.3,30.7,30.3z"/>
				</g>
				<g>
					<path d="M31.8,28.9c-0.1,0-0.3-0.1-0.3-0.3v-1.8c0-0.1,0.1-0.3,0.3-0.3s0.2,0.1,0.2,0.3v1.8C32.1,28.8,32,28.9,31.8,28.9z"/>
				</g>
				<g>
					<path d="M33.3,28c-0.1,0-0.3-0.1-0.3-0.3v-1.9c0-0.1,0.1-0.3,0.3-0.3s0.3,0.1,0.3,0.3v1.9C33.5,27.9,33.4,28,33.3,28z"/>
				</g>
				<g>
					<path d="M25.2,31.2c-0.1,0-0.3-0.1-0.3-0.3v-4c0-0.1,0.1-0.3,0.3-0.3s0.3,0.1,0.3,0.3v4C25.5,31.1,25.3,31.2,25.2,31.2z"/>
				</g>
				<g>
					<path d="M23.4,30.4c-0.1,0-0.3-0.1-0.3-0.3v-3.3c0-0.1,0.1-0.3,0.3-0.3s0.3,0.1,0.3,0.3v3.3C23.7,30.3,23.6,30.4,23.4,30.4z"/>
				</g>
				<g>
					<path d="M22.1,29.4c-0.1,0-0.3-0.1-0.3-0.3v-2.5c0-0.1,0.1-0.3,0.3-0.3s0.3,0.1,0.3,0.3v2.5C22.3,29.3,22.2,29.4,22.1,29.4z"/>
				</g>
				<g>
					<path d="M20.5,28c-0.1,0-0.3-0.1-0.3-0.3V26c0-0.1,0.1-0.3,0.3-0.3s0.3,0.1,0.3,0.3v1.8C20.7,27.9,20.6,28,20.5,28z"/>
				</g>
				<g>
					<path d="M19.3,26.6c-0.1,0-0.3-0.1-0.3-0.3v-1.1c0-0.1,0.1-0.3,0.3-0.3s0.3,0.1,0.3,0.3v1.1C19.6,26.4,19.5,26.6,19.3,26.6z"/>
				</g>
				<g>
					<path d="M21,26.2h-2.1c-0.1,0-0.3-0.1-0.3-0.3s0.1-0.3,0.3-0.3H21c0.1,0,0.3,0.1,0.3,0.3S21.1,26.2,21,26.2z"/>
				</g>
				<g>
					<path d="M23.7,27.7h-3.8c-0.1,0-0.3-0.1-0.3-0.3s0.1-0.3,0.3-0.3h3.8c0.1,0,0.3,0.1,0.3,0.3S23.8,27.7,23.7,27.7z"/>
				</g>
				<g>
					<path d="M26.2,29.4h-4.6c-0.1,0-0.3-0.1-0.3-0.3s0.1-0.3,0.3-0.3h4.6c0.1,0,0.3,0.1,0.3,0.3C26.5,29.3,26.4,29.4,26.2,29.4z"/>
				</g>
				<g>
					<path d="M27.2,28.2h-2.4c-0.1,0-0.3-0.1-0.3-0.3s0.1-0.3,0.3-0.3h2.4c0.1,0,0.3,0.1,0.3,0.3S27.4,28.2,27.2,28.2z"/>
				</g>
				<g>
					<path d="M27.8,30.7h-3.4c-0.1,0-0.3-0.1-0.3-0.3s0.1-0.3,0.3-0.3h3.4c0.1,0,0.3,0.1,0.3,0.3S27.9,30.7,27.8,30.7z"/>
				</g>
				<g>
					<path d="M29.8,29h-2.5c-0.1,0-0.3-0.1-0.3-0.3s0.1-0.3,0.3-0.3h2.5c0.1,0,0.3,0.1,0.3,0.3C30,28.9,29.9,29,29.8,29z"/>
				</g>
				<g>
					<path d="M31.6,28h-1.5c-0.1,0-0.3-0.1-0.3-0.3s0.1-0.3,0.3-0.3h1.5c0.1,0,0.3,0.1,0.3,0.3S31.7,28,31.6,28z"/>
				</g>
				<g>
					<path d="M31.1,30.1H29c-0.1,0-0.3-0.1-0.3-0.3s0.1-0.3,0.3-0.3h2.1c0.1,0,0.3,0.1,0.3,0.3C31.3,30,31.2,30.1,31.1,30.1z"/>
				</g>
				<g>
					<path d="M32.6,28.8h-1.4c-0.1,0-0.3-0.1-0.3-0.3s0.1-0.3,0.3-0.3h1.4c0.1,0,0.3,0.1,0.3,0.3S32.7,28.8,32.6,28.8z"/>
				</g>
				<g>
					<path d="M34.1,27h-1.5c-0.1,0-0.3-0.1-0.3-0.3s0.1-0.3,0.3-0.3h1.5c0.1,0,0.3,0.1,0.3,0.3S34.3,27,34.1,27z"/>
				</g>
			</g>
			<g>
				<g>
					<path d="M14.9,43.9c-2.9,0-5.8-1.5-7.5-3.9c-2-2.8-2.3-6.5-0.8-9.6c1.3-2.8,4.1-4.9,7.1-5.4c2.8-0.5,6.2,1.8,7.9,4.2
						c1.8,2.4,2.5,5.5,1.8,8.2c-0.9,3.2-3.8,5.9-7.1,6.4C15.8,43.9,15.3,43.9,14.9,43.9z M14.4,26c-0.2,0-0.4,0-0.6,0
						c-2.7,0.5-5.2,2.3-6.4,4.8c-1.3,2.7-1,6.2,0.7,8.6c1.5,2.1,4.1,3.4,6.7,3.4c0.4,0,0.8,0,1.2-0.1c3-0.5,5.6-2.8,6.3-5.7
						c0.6-2.4,0-5.2-1.6-7.3C19.4,28,16.7,26,14.4,26z"/>
				</g>
				<g>
					<path d="M16.8,30.3c-0.2,0-0.4-0.1-0.6-0.2c-0.3-0.3-0.4-0.7-0.1-1.1c0.1-0.2,0.4-0.3,0.6-0.3c0.1,0,0.2,0,0.2,0.1
						c0,0,0.1,0,0.1,0c0.2,0,0.4,0.1,0.5,0.3c0.2,0.3,0.2,0.6,0,0.9c-0.1,0.2-0.3,0.3-0.5,0.3C16.9,30.3,16.9,30.3,16.8,30.3z"/>
				</g>
				<g>
					<path d="M12.6,29.7c-0.1,0-0.2,0-0.3,0c-0.4-0.1-0.6-0.4-0.6-0.8c0-0.4,0.3-0.7,0.6-0.8c0.1,0,0.1-0.1,0.2-0.1
						c0.3-0.1,0.7,0,0.9,0.3c0.2,0.3,0.2,0.6,0.1,0.9C13.3,29.5,12.9,29.7,12.6,29.7z"/>
				</g>
				<g>
					<path d="M13.9,32.5c-0.1,0-0.2,0-0.3-0.1c-0.4-0.1-0.7-0.6-0.6-1c0.1-0.3,0.3-0.5,0.5-0.6c0.1,0,0.2,0,0.3,0
						c0.2-0.1,0.5-0.2,0.7-0.1c0.4,0.1,0.6,0.5,0.5,0.9c0,0.3-0.2,0.5-0.5,0.7C14.3,32.4,14.1,32.5,13.9,32.5z"/>
				</g>
				<g>
					<path d="M16.7,32.2c-0.2,0-0.3-0.1-0.4-0.2l-0.1-0.3c-0.1-0.2-0.1-0.5,0.2-0.7c0.2-0.1,0.5-0.1,0.7,0.2l0.2,0.3
						c0.1,0.2,0.1,0.5-0.2,0.7C16.9,32.2,16.8,32.2,16.7,32.2z"/>
				</g>
				<g>
					<path d="M11.4,31.3c-0.1,0-0.2,0-0.2-0.1c-0.2-0.1-0.3-0.4-0.2-0.7l0.1-0.2c0.1-0.2,0.4-0.3,0.7-0.2c0.2,0.1,0.3,0.4,0.2,0.7
						L11.8,31C11.7,31.2,11.5,31.3,11.4,31.3z"/>
				</g>
				<g>
					<path d="M15,28c-0.1,0-0.3,0-0.4-0.1c-0.2-0.2-0.2-0.5,0-0.7l0.7,0.7l-0.3-0.4l0.3,0.4C15.3,27.9,15.2,28,15,28z"/>
				</g>
				<g>
					<path d="M14.9,43.5c-0.1,0-0.3-0.1-0.3-0.3V39c0-0.1,0.1-0.3,0.3-0.3s0.3,0.1,0.3,0.3v4.3C15.2,43.4,15,43.5,14.9,43.5z"/>
				</g>
				<g>
					<path d="M16.1,43.3c-0.1,0-0.3-0.1-0.3-0.3v-3.7c0-0.1,0.1-0.3,0.3-0.3s0.3,0.1,0.3,0.3V43C16.4,43.2,16.3,43.3,16.1,43.3z"/>
				</g>
				<g>
					<path d="M17.6,42.7c-0.1,0-0.3-0.1-0.3-0.3v-2.9c0-0.1,0.1-0.3,0.3-0.3s0.3,0.1,0.3,0.3v2.9C17.8,42.6,17.7,42.7,17.6,42.7z"/>
				</g>
				<g>
					<path d="M18.7,42.3c-0.1,0-0.3-0.1-0.3-0.3v-2.6c0-0.1,0.1-0.3,0.3-0.3s0.3,0.1,0.3,0.3v2.6C18.9,42.2,18.8,42.3,18.7,42.3z"/>
				</g>
				<g>
					<path d="M19.9,40.8c-0.1,0-0.3-0.1-0.3-0.3v-1.8c0-0.1,0.1-0.3,0.3-0.3s0.3,0.1,0.3,0.3v1.8C20.1,40.7,20,40.8,19.9,40.8z"/>
				</g>
				<g>
					<path d="M21.3,39.9c-0.1,0-0.3-0.1-0.3-0.3v-1.9c0-0.1,0.1-0.3,0.3-0.3s0.3,0.1,0.3,0.3v1.9C21.5,39.8,21.4,39.9,21.3,39.9z"/>
				</g>
				<g>
					<path d="M13.2,43.2c-0.1,0-0.3-0.1-0.3-0.3v-4c0-0.1,0.1-0.3,0.3-0.3s0.3,0.1,0.3,0.3v4C13.5,43.1,13.4,43.2,13.2,43.2z"/>
				</g>
				<g>
					<path d="M11.5,42.4c-0.1,0-0.3-0.1-0.3-0.3v-3.3c0-0.1,0.1-0.3,0.3-0.3s0.3,0.1,0.3,0.3v3.3C11.7,42.3,11.6,42.4,11.5,42.4z"/>
				</g>
				<g>
					<path d="M10.1,41.3c-0.1,0-0.3-0.1-0.3-0.3v-2.5c0-0.1,0.1-0.3,0.3-0.3s0.3,0.1,0.3,0.3v2.5C10.3,41.2,10.2,41.3,10.1,41.3z"/>
				</g>
				<g>
					<path d="M8.5,40c-0.1,0-0.3-0.1-0.3-0.3v-1.8c0-0.1,0.1-0.3,0.3-0.3s0.3,0.1,0.3,0.3v1.8C8.8,39.8,8.6,40,8.5,40z"/>
				</g>
				<g>
					<path d="M7.3,38.5c-0.1,0-0.3-0.1-0.3-0.3v-1.1c0-0.1,0.1-0.3,0.3-0.3s0.3,0.1,0.3,0.3v1.1C7.6,38.4,7.5,38.5,7.3,38.5z"/>
				</g>
				<g>
					<path d="M9,38.2H6.9c-0.1,0-0.3-0.1-0.3-0.3s0.1-0.3,0.3-0.3H9c0.1,0,0.3,0.1,0.3,0.3C9.3,38,9.1,38.2,9,38.2z"/>
				</g>
				<g>
					<path d="M11.7,39.7H7.9c-0.1,0-0.3-0.1-0.3-0.3s0.1-0.3,0.3-0.3h3.8c0.1,0,0.3,0.1,0.3,0.3S11.9,39.7,11.7,39.7z"/>
				</g>
				<g>
					<path d="M14.3,41.4H9.7c-0.1,0-0.3-0.1-0.3-0.3s0.1-0.3,0.3-0.3h4.6c0.1,0,0.3,0.1,0.3,0.3S14.4,41.4,14.3,41.4z"/>
				</g>
				<g>
					<path d="M15.3,40.2h-2.4c-0.1,0-0.3-0.1-0.3-0.3s0.1-0.3,0.3-0.3h2.4c0.1,0,0.3,0.1,0.3,0.3C15.5,40.1,15.4,40.2,15.3,40.2z"/>
				</g>
				<g>
					<path d="M15.8,42.6h-3.4c-0.1,0-0.3-0.1-0.3-0.3s0.1-0.3,0.3-0.3h3.4c0.1,0,0.3,0.1,0.3,0.3C16,42.5,15.9,42.6,15.8,42.6z"/>
				</g>
				<g>
					<path d="M17.8,41h-2.5c-0.1,0-0.3-0.1-0.3-0.3s0.1-0.3,0.3-0.3h2.5c0.1,0,0.3,0.1,0.3,0.3S18,41,17.8,41z"/>
				</g>
				<g>
					<path d="M19.6,40h-1.5c-0.1,0-0.3-0.1-0.3-0.3s0.1-0.3,0.3-0.3h1.5c0.1,0,0.3,0.1,0.3,0.3C19.9,39.9,19.8,40,19.6,40z"/>
				</g>
				<g>
					<path d="M19.1,42.1H17c-0.1,0-0.3-0.1-0.3-0.3s0.1-0.3,0.3-0.3h2.1c0.1,0,0.3,0.1,0.3,0.3C19.3,42,19.2,42.1,19.1,42.1z"/>
				</g>
				<g>
					<path d="M20.6,40.8h-1.4c-0.1,0-0.3-0.1-0.3-0.3s0.1-0.3,0.3-0.3h1.4c0.1,0,0.3,0.1,0.3,0.3C20.8,40.7,20.7,40.8,20.6,40.8z"/>
				</g>
				<g>
					<path d="M22.1,38.9h-1.5c-0.1,0-0.3-0.1-0.3-0.3s0.1-0.3,0.3-0.3h1.5c0.1,0,0.3,0.1,0.3,0.3S22.3,38.9,22.1,38.9z"/>
				</g>
			</g>
		</g>
		<g>
			<g>
				<path d="M44.9,5.8C44.9,5.8,44.9,5.8,44.9,5.8c-0.2,0-0.3-0.1-0.4-0.2c-0.2-0.3-0.5-0.6-0.8-0.8c-0.1-0.1-0.2-0.2-0.1-0.4
					s0.1-0.3,0.2-0.4c4-3.6,4.3-3.6,4.5-3.6c0.1,0,0.3,0.1,0.4,0.2c0.4,0.4,0.5,0.5-3.4,5C45.2,5.7,45,5.8,44.9,5.8z M44.8,4.5
					C44.8,4.5,44.9,4.5,44.8,4.5c0.3-0.2,0.5-0.4,0.7-0.6C45.3,4,45.1,4.2,44.8,4.5z"/>
			</g>
			<g>
				<path d="M3,48.9c-0.7,0-1.3-0.3-1.8-0.8c-1-1-1-2.6,0-3.6c0.2-0.2,2.6-2.6,5.8-5.6c0.1-0.1,0.3-0.2,0.4-0.1
					c0.2,0,0.3,0.1,0.4,0.2c0.1,0.2,0.2,0.4,0.4,0.5c0.6,0.8,1.3,1.5,2.2,2.1c0.1,0.1,0.2,0.2,0.2,0.4c0,0.1,0,0.3-0.1,0.4
					c-3.2,3.3-5.4,5.6-5.6,5.8C4.4,48.6,3.7,48.9,3,48.9z M7.3,40c-3.2,3.1-5.2,5-5.4,5.2c-0.6,0.6-0.6,1.6,0,2.2
					c0.6,0.6,1.6,0.6,2.2,0c0.2-0.2,2.2-2.2,5.2-5.3C8.6,41.5,7.9,40.8,7.3,40C7.3,40,7.3,40,7.3,40z"/>
			</g>
		</g>
	</g>
	<g>
		<g>
			<g>
				<g>
					<path d="M54.5,35.6c-2.9,0-5.8-1.5-7.5-3.9c-2-2.8-2.3-6.5-0.8-9.6c1.3-2.8,4.1-4.9,7.1-5.4c2.4-0.4,5.7,1.3,7.8,4.1
						c1.9,2.5,2.6,5.5,1.8,8.3c-0.9,3.2-3.8,5.9-7.1,6.4C55.4,35.6,54.9,35.6,54.5,35.6z M54,17.7c-0.2,0-0.4,0-0.6,0
						c-2.7,0.5-5.2,2.3-6.4,4.8c-1.3,2.7-1,6.2,0.7,8.6c1.5,2.1,4.1,3.4,6.7,3.4c0.4,0,0.8,0,1.2-0.1c3-0.5,5.6-2.8,6.3-5.7
						c0.7-2.5,0.1-5.1-1.7-7.4C58.6,19.3,56,17.7,54,17.7z"/>
				</g>
				<g>
					<path d="M56.4,22c-0.2,0-0.4-0.1-0.6-0.2c-0.3-0.3-0.4-0.7-0.2-1c0.1-0.2,0.4-0.3,0.6-0.3c0.1,0,0.2,0,0.2,0.1c0,0,0.1,0,0.1,0
						c0.2,0,0.4,0.1,0.5,0.3c0.2,0.3,0.2,0.6,0,0.9c-0.1,0.2-0.3,0.3-0.5,0.3C56.5,22,56.4,22,56.4,22z"/>
				</g>
				<g>
					<path d="M52.2,21.4c-0.1,0-0.2,0-0.3,0c-0.4-0.1-0.6-0.4-0.6-0.8c0-0.2,0.1-0.4,0.3-0.6c0.1-0.1,0.2-0.1,0.3-0.2
						c0.1-0.1,0.1-0.1,0.2-0.1c0.3-0.1,0.7,0,0.9,0.3c0.2,0.3,0.2,0.6,0.1,0.9C52.9,21.2,52.5,21.4,52.2,21.4z"/>
				</g>
				<g>
					<path d="M53.5,24.2c-0.1,0-0.2,0-0.3-0.1c-0.4-0.1-0.6-0.4-0.6-0.8c0-0.3,0.2-0.7,0.4-0.8c0.1-0.1,0.2-0.1,0.4-0.1
						c0.2-0.1,0.4-0.2,0.6-0.1c0.3,0.1,0.6,0.4,0.6,0.7c0.1,0.4-0.1,0.7-0.5,0.9C53.9,24.1,53.7,24.2,53.5,24.2z"/>
				</g>
				<g>
					<path d="M56.3,23.9c-0.2,0-0.3-0.1-0.4-0.2l-0.1-0.2c-0.1-0.2-0.1-0.6,0.2-0.7c0.2-0.1,0.5-0.1,0.7,0.1c0,0,0,0,0,0l0.1,0.2
						c0.1,0.2,0.1,0.5-0.2,0.7C56.5,23.9,56.4,23.9,56.3,23.9z"/>
				</g>
				<g>
					<path d="M50.9,23c-0.1,0-0.2,0-0.2-0.1c-0.2-0.1-0.3-0.4-0.2-0.7l0.1-0.2c0.1-0.2,0.4-0.3,0.7-0.2c0.2,0.1,0.3,0.4,0.2,0.7
						l-0.1,0.2C51.3,22.9,51.1,23,50.9,23z"/>
				</g>
				<g>
					<path d="M54.6,19.7c-0.1,0-0.2,0-0.3-0.1c-0.2-0.2-0.2-0.5,0-0.7l0.4,0.3l0.3,0.4C54.9,19.6,54.8,19.7,54.6,19.7z"/>
				</g>
				<g>
					<path d="M54.5,35.2c-0.1,0-0.3-0.1-0.3-0.3v-4.3c0-0.1,0.1-0.3,0.3-0.3s0.3,0.1,0.3,0.3V35C54.7,35.1,54.6,35.2,54.5,35.2z"/>
				</g>
				<g>
					<path d="M55.7,35c-0.1,0-0.3-0.1-0.3-0.3V31c0-0.1,0.1-0.3,0.3-0.3S56,30.8,56,31v3.7C56,34.9,55.9,35,55.7,35z"/>
				</g>
				<g>
					<path d="M57.2,34.4c-0.1,0-0.3-0.1-0.3-0.3v-2.9c0-0.1,0.1-0.3,0.3-0.3s0.3,0.1,0.3,0.3v2.9C57.4,34.3,57.3,34.4,57.2,34.4z"/>
				</g>
				<g>
					<path d="M58.3,34c-0.1,0-0.3-0.1-0.3-0.3v-2.6c0-0.1,0.1-0.3,0.3-0.3s0.3,0.1,0.3,0.3v2.6C58.5,33.9,58.4,34,58.3,34z"/>
				</g>
				<g>
					<path d="M59.4,32.5c-0.1,0-0.3-0.1-0.3-0.3v-1.8c0-0.1,0.1-0.3,0.3-0.3s0.3,0.1,0.3,0.3v1.8C59.7,32.4,59.6,32.5,59.4,32.5z"/>
				</g>
				<g>
					<path d="M60.9,31.6c-0.1,0-0.3-0.1-0.3-0.3v-1.9c0-0.1,0.1-0.3,0.3-0.3s0.3,0.1,0.3,0.3v1.9C61.1,31.5,61,31.6,60.9,31.6z"/>
				</g>
				<g>
					<path d="M52.8,34.9c-0.1,0-0.3-0.1-0.3-0.3v-4c0-0.1,0.1-0.3,0.3-0.3s0.3,0.1,0.3,0.3v4C53.1,34.8,53,34.9,52.8,34.9z"/>
				</g>
				<g>
					<path d="M51.1,34.1c-0.1,0-0.3-0.1-0.3-0.3v-3.3c0-0.1,0.1-0.3,0.3-0.3s0.3,0.1,0.3,0.3v3.3C51.3,34,51.2,34.1,51.1,34.1z"/>
				</g>
				<g>
					<path d="M49.7,33L49.7,33c-0.1,0-0.3-0.1-0.3-0.3l0-2.5c0-0.1,0.1-0.3,0.3-0.3l0,0c0.1,0,0.3,0.1,0.3,0.3l0,2.5
						C49.9,32.9,49.8,33,49.7,33z"/>
				</g>
				<g>
					<path d="M48.1,31.7c-0.1,0-0.3-0.1-0.3-0.3v-1.8c0-0.1,0.1-0.3,0.3-0.3s0.3,0.1,0.3,0.3v1.8C48.3,31.5,48.2,31.7,48.1,31.7z"/>
				</g>
				<g>
					<path d="M46.9,30.2c-0.1,0-0.3-0.1-0.3-0.3v-1.1c0-0.1,0.1-0.3,0.3-0.3s0.3,0.1,0.3,0.3V30C47.2,30.1,47.1,30.2,46.9,30.2z"/>
				</g>
				<g>
					<path d="M48.6,29.9h-2.1c-0.1,0-0.3-0.1-0.3-0.3s0.1-0.3,0.3-0.3h2.1c0.1,0,0.3,0.1,0.3,0.3S48.7,29.9,48.6,29.9z"/>
				</g>
				<g>
					<path d="M51.3,31.4h-3.8c-0.1,0-0.3-0.1-0.3-0.3s0.1-0.3,0.3-0.3h3.8c0.1,0,0.3,0.1,0.3,0.3S51.5,31.4,51.3,31.4z"/>
				</g>
				<g>
					<path d="M53.9,33.1h-4.6c-0.1,0-0.3-0.1-0.3-0.3s0.1-0.3,0.3-0.3h4.6c0.1,0,0.3,0.1,0.3,0.3C54.1,33,54,33.1,53.9,33.1z"/>
				</g>
				<g>
					<path d="M54.8,31.9h-2.4c-0.1,0-0.3-0.1-0.3-0.3s0.1-0.3,0.3-0.3h2.4c0.1,0,0.3,0.1,0.3,0.3C55.1,31.8,55,31.9,54.8,31.9z"/>
				</g>
				<g>
					<path d="M55.4,34.3H52c-0.1,0-0.3-0.1-0.3-0.3s0.1-0.3,0.3-0.3h3.4c0.1,0,0.3,0.1,0.3,0.3S55.5,34.3,55.4,34.3z"/>
				</g>
				<g>
					<path d="M57.4,32.7h-2.5c-0.1,0-0.3-0.1-0.3-0.3s0.1-0.3,0.3-0.3h2.5c0.1,0,0.3,0.1,0.3,0.3C57.7,32.6,57.5,32.7,57.4,32.7z"/>
				</g>
				<g>
					<path d="M59.2,31.7h-1.5c-0.1,0-0.3-0.1-0.3-0.3s0.1-0.3,0.3-0.3h1.5c0.1,0,0.3,0.1,0.3,0.3S59.3,31.7,59.2,31.7z"/>
				</g>
				<g>
					<path d="M58.7,33.8h-2.1c-0.1,0-0.3-0.1-0.3-0.3s0.1-0.3,0.3-0.3h2.1c0.1,0,0.3,0.1,0.3,0.3S58.8,33.8,58.7,33.8z"/>
				</g>
				<g>
					<path d="M60.2,32.5h-1.4c-0.1,0-0.3-0.1-0.3-0.3s0.1-0.3,0.3-0.3h1.4c0.1,0,0.3,0.1,0.3,0.3S60.3,32.5,60.2,32.5z"/>
				</g>
				<g>
					<path d="M61.7,30.6h-1.5c-0.1,0-0.3-0.1-0.3-0.3s0.1-0.3,0.3-0.3h1.5c0.1,0,0.3,0.1,0.3,0.3S61.9,30.6,61.7,30.6z"/>
				</g>
			</g>
			<g>
				<g>
					<path d="M42.4,47.6c-3.1,0-6-1.6-7.7-4.3c-1.7-2.8-1.9-6.2-0.5-9.1c1.3-2.8,4.1-4.9,7.1-5.4c2.8-0.5,6.2,1.8,7.9,4.2
						c1.8,2.3,2.5,5.5,1.8,8.2c-0.9,3.2-3.8,5.9-7.1,6.4C43.3,47.6,42.9,47.6,42.4,47.6z M42,29.7c-0.2,0-0.4,0-0.6,0
						c-2.7,0.5-5.2,2.3-6.4,4.8c-1.3,2.7-1.1,5.7,0.4,8.1c1.8,2.8,4.9,4.3,8.1,3.8c3-0.5,5.6-2.8,6.3-5.7c0.6-2.4,0-5.2-1.6-7.3
						C47,31.7,44.3,29.7,42,29.7z"/>
				</g>
				<g>
					<path d="M44.4,34c-0.2,0-0.4-0.1-0.6-0.2c-0.3-0.3-0.4-0.7-0.1-1c0.1-0.2,0.4-0.3,0.6-0.3c0.1,0,0.2,0,0.2,0.1c0,0,0.1,0,0.1,0
						c0.2,0,0.4,0.1,0.5,0.3c0.2,0.3,0.2,0.6,0,0.9c-0.1,0.2-0.3,0.3-0.5,0.3C44.5,34,44.5,34,44.4,34z"/>
				</g>
				<g>
					<path d="M40.2,33.4c-0.4,0-0.7-0.2-0.8-0.5c-0.1-0.3-0.1-0.6,0.1-0.8c0.1-0.1,0.3-0.3,0.6-0.3c0,0,0,0,0.1,0
						c0.2-0.1,0.5-0.1,0.8,0c0.3,0.2,0.5,0.6,0.4,0.9C41.1,33,40.7,33.3,40.2,33.4C40.2,33.4,40.2,33.4,40.2,33.4z"/>
				</g>
				<g>
					<path d="M41.5,36.2c-0.2,0-0.4-0.1-0.6-0.2c-0.3-0.2-0.4-0.5-0.3-0.9c0.1-0.3,0.3-0.5,0.5-0.6c0.1,0,0.2,0,0.2,0c0,0,0,0,0,0
						c0.2-0.1,0.4-0.2,0.6-0.1c0.3,0.1,0.6,0.4,0.6,0.7c0.1,0.4-0.1,0.7-0.5,0.9C41.9,36.1,41.7,36.2,41.5,36.2z"/>
				</g>
				<g>
					<path d="M44.4,35.9c-0.2,0-0.3-0.1-0.4-0.2l-0.2-0.3c-0.1-0.2-0.1-0.5,0.2-0.7c0.2-0.1,0.5-0.1,0.7,0.2l0.2,0.3
						c0.1,0.2,0.1,0.5-0.2,0.7C44.5,35.8,44.5,35.9,44.4,35.9z"/>
				</g>
				<g>
					<path d="M39,34.9c-0.1,0-0.2,0-0.2-0.1c-0.2-0.1-0.3-0.4-0.2-0.7l0.1-0.2c0.1-0.2,0.4-0.3,0.7-0.2c0.2,0.1,0.3,0.4,0.2,0.7
						l-0.1,0.2C39.3,34.8,39.1,34.9,39,34.9z"/>
				</g>
				<g>
					<path d="M42.7,31.7c-0.1,0-0.3,0-0.4-0.1c-0.2-0.2-0.2-0.5,0-0.7c0.2-0.2,0.5-0.2,0.7,0c0.2,0.2,0.2,0.5,0,0.7c0,0,0,0,0,0
						C42.9,31.6,42.8,31.7,42.7,31.7z"/>
				</g>
				<g>
					<path d="M42.5,47.2c-0.1,0-0.3-0.1-0.3-0.3v-4.3c0-0.1,0.1-0.3,0.3-0.3s0.3,0.1,0.3,0.3V47C42.8,47.1,42.7,47.2,42.5,47.2z"/>
				</g>
				<g>
					<path d="M43.8,46.9c-0.1,0-0.3-0.1-0.3-0.3V43c0-0.1,0.1-0.3,0.3-0.3S44,42.8,44,43v3.7C44,46.8,43.9,46.9,43.8,46.9z"/>
				</g>
				<g>
					<path d="M45.2,46.3c-0.1,0-0.3-0.1-0.3-0.3v-2.9c0-0.1,0.1-0.3,0.3-0.3s0.3,0.1,0.3,0.3v2.9C45.4,46.2,45.3,46.3,45.2,46.3z"/>
				</g>
				<g>
					<path d="M46.3,46c-0.1,0-0.3-0.1-0.3-0.3v-2.6c0-0.1,0.1-0.3,0.3-0.3s0.3,0.1,0.3,0.3v2.6C46.6,45.9,46.5,46,46.3,46z"/>
				</g>
				<g>
					<path d="M47.5,44.5c-0.1,0-0.3-0.1-0.3-0.3v-1.8c0-0.1,0.1-0.3,0.3-0.3s0.3,0.1,0.3,0.3v1.8C47.7,44.4,47.6,44.5,47.5,44.5z"/>
				</g>
				<g>
					<path d="M48.9,43.6c-0.1,0-0.3-0.1-0.3-0.3v-1.9c0-0.1,0.1-0.3,0.3-0.3s0.3,0.1,0.3,0.3v1.9C49.2,43.5,49,43.6,48.9,43.6z"/>
				</g>
				<g>
					<path d="M40.9,46.9c-0.1,0-0.3-0.1-0.3-0.3v-4c0-0.1,0.1-0.3,0.3-0.3s0.3,0.1,0.3,0.3v4C41.1,46.7,41,46.9,40.9,46.9z"/>
				</g>
				<g>
					<path d="M39.1,46.1L39.1,46.1c-0.1,0-0.3-0.1-0.3-0.3l0-3.3c0-0.1,0.1-0.3,0.3-0.3l0,0c0.1,0,0.3,0.1,0.3,0.3l0,3.3
						C39.3,46,39.2,46.1,39.1,46.1z"/>
				</g>
				<g>
					<path d="M37.7,45c-0.1,0-0.3-0.1-0.3-0.3v-2.5c0-0.1,0.1-0.3,0.3-0.3s0.3,0.1,0.3,0.3v2.5C38,44.9,37.8,45,37.7,45z"/>
				</g>
				<g>
					<path d="M36.1,43.6c-0.1,0-0.3-0.1-0.3-0.3v-1.8c0-0.1,0.1-0.3,0.3-0.3s0.3,0.1,0.3,0.3v1.8C36.4,43.5,36.3,43.6,36.1,43.6z"/>
				</g>
				<g>
					<path d="M35,42.2c-0.1,0-0.3-0.1-0.3-0.3v-1.1c0-0.1,0.1-0.3,0.3-0.3s0.3,0.1,0.3,0.3V42C35.2,42.1,35.1,42.2,35,42.2z"/>
				</g>
				<g>
					<path d="M36.6,41.8h-2.1c-0.1,0-0.3-0.1-0.3-0.3s0.1-0.3,0.3-0.3h2.1c0.1,0,0.3,0.1,0.3,0.3S36.8,41.8,36.6,41.8z"/>
				</g>
				<g>
					<path d="M39.3,43.4h-3.8c-0.1,0-0.3-0.1-0.3-0.3s0.1-0.3,0.3-0.3h3.8c0.1,0,0.3,0.1,0.3,0.3S39.5,43.4,39.3,43.4z"/>
				</g>
				<g>
					<path d="M41.9,45.1h-4.6c-0.1,0-0.3-0.1-0.3-0.3s0.1-0.3,0.3-0.3h4.6c0.1,0,0.3,0.1,0.3,0.3C42.1,44.9,42,45.1,41.9,45.1z"/>
				</g>
				<g>
					<path d="M42.9,43.9h-2.4c-0.1,0-0.3-0.1-0.3-0.3s0.1-0.3,0.3-0.3h2.4c0.1,0,0.3,0.1,0.3,0.3S43,43.9,42.9,43.9z"/>
				</g>
				<g>
					<path d="M43.4,46.3H40c-0.1,0-0.3-0.1-0.3-0.3s0.1-0.3,0.3-0.3h3.4c0.1,0,0.3,0.1,0.3,0.3S43.6,46.3,43.4,46.3z"/>
				</g>
				<g>
					<path d="M45.4,44.7h-2.5c-0.1,0-0.3-0.1-0.3-0.3s0.1-0.3,0.3-0.3h2.5c0.1,0,0.3,0.1,0.3,0.3S45.6,44.7,45.4,44.7z"/>
				</g>
				<g>
					<path d="M47.2,43.7h-1.5c-0.1,0-0.3-0.1-0.3-0.3s0.1-0.3,0.3-0.3h1.5c0.1,0,0.3,0.1,0.3,0.3S47.4,43.7,47.2,43.7z"/>
				</g>
				<g>
					<path d="M46.7,45.8h-2.1c-0.1,0-0.3-0.1-0.3-0.3s0.1-0.3,0.3-0.3h2.1c0.1,0,0.3,0.1,0.3,0.3S46.8,45.8,46.7,45.8z"/>
				</g>
				<g>
					<path d="M48.2,44.5h-1.4c-0.1,0-0.3-0.1-0.3-0.3s0.1-0.3,0.3-0.3h1.4c0.1,0,0.3,0.1,0.3,0.3S48.3,44.5,48.2,44.5z"/>
				</g>
				<g>
					<path d="M49.8,42.6h-1.5c-0.1,0-0.3-0.1-0.3-0.3s0.1-0.3,0.3-0.3h1.5c0.1,0,0.3,0.1,0.3,0.3S49.9,42.6,49.8,42.6z"/>
				</g>
			</g>
			<g>
				<g>
					<path d="M30.5,59.6c-2.9,0-5.8-1.5-7.5-3.9c-2-2.8-2.3-6.5-0.8-9.6c1.3-2.8,4.1-4.9,7.1-5.4c2.8-0.5,6.2,1.8,7.9,4.2
						c1.8,2.4,2.5,5.5,1.8,8.2c-0.9,3.2-3.8,5.9-7.1,6.4C31.4,59.5,31,59.6,30.5,59.6z M30.1,41.7c-0.2,0-0.4,0-0.6,0
						c-2.7,0.5-5.2,2.3-6.4,4.8c-1.3,2.7-1,6.2,0.7,8.6c1.5,2.1,4.1,3.4,6.7,3.4c0.4,0,0.8,0,1.2-0.1c3-0.5,5.6-2.8,6.3-5.7
						c0.6-2.4,0-5.2-1.6-7.3C35,43.6,32.3,41.7,30.1,41.7z"/>
				</g>
				<g>
					<path d="M32.4,46c-0.2,0-0.4-0.1-0.6-0.2c-0.3-0.3-0.4-0.7-0.2-1c0.1-0.2,0.4-0.3,0.6-0.3c0.1,0,0.2,0,0.2,0.1c0,0,0.1,0,0.1,0
						c0.2,0,0.4,0.1,0.5,0.3c0.2,0.3,0.2,0.6,0,0.9c-0.1,0.2-0.3,0.3-0.5,0.3C32.6,45.9,32.5,46,32.4,46z"/>
				</g>
				<g>
					<path d="M28.2,45.3c-0.1,0-0.2,0-0.3,0c-0.4-0.1-0.6-0.4-0.6-0.8c0-0.2,0.1-0.4,0.3-0.6c0.1-0.1,0.2-0.1,0.3-0.2
						c0.1-0.1,0.1-0.1,0.2-0.1c0.3-0.1,0.7,0,0.9,0.3c0.2,0.3,0.2,0.6,0.1,0.9C28.9,45.2,28.5,45.3,28.2,45.3z"/>
				</g>
				<g>
					<path d="M29.5,48.1c-0.2,0-0.4-0.1-0.6-0.2c-0.3-0.2-0.4-0.5-0.3-0.9c0.1-0.3,0.3-0.5,0.5-0.6c0.1,0,0.2-0.1,0.2,0
						c0.2-0.1,0.4-0.2,0.6-0.1c0.3,0.1,0.6,0.4,0.6,0.7c0.1,0.4-0.1,0.7-0.5,0.9C29.9,48.1,29.7,48.1,29.5,48.1z"/>
				</g>
				<g>
					<path d="M32.4,47.8c-0.2,0-0.3-0.1-0.4-0.2l-0.2-0.3c-0.1-0.2-0.1-0.5,0.2-0.7c0.2-0.1,0.5-0.1,0.7,0.2l0.2,0.3
						c0.1,0.2,0.1,0.5-0.2,0.7C32.6,47.8,32.5,47.8,32.4,47.8z"/>
				</g>
				<g>
					<path d="M27,46.9c-0.1,0-0.2,0-0.2-0.1c-0.2-0.1-0.3-0.4-0.2-0.7l0.1-0.2c0.1-0.2,0.4-0.3,0.7-0.2c0.2,0.1,0.3,0.4,0.2,0.7
						l-0.1,0.2C27.3,46.8,27.2,46.9,27,46.9z"/>
				</g>
				<g>
					<path d="M31,43.5l-0.7-0.7c0.2-0.2,0.5-0.2,0.7,0C31.2,43,31.3,43.3,31,43.5z"/>
				</g>
				<g>
					<path d="M30.6,59.2c-0.1,0-0.3-0.1-0.3-0.3v-4.3c0-0.1,0.1-0.3,0.3-0.3s0.3,0.1,0.3,0.3v4.3C30.8,59.1,30.7,59.2,30.6,59.2z"/>
				</g>
				<g>
					<path d="M31.8,58.9c-0.1,0-0.3-0.1-0.3-0.3v-3.7c0-0.1,0.1-0.3,0.3-0.3s0.3,0.1,0.3,0.3v3.7C32,58.8,31.9,58.9,31.8,58.9z"/>
				</g>
				<g>
					<path d="M33.2,58.3c-0.1,0-0.3-0.1-0.3-0.3v-2.9c0-0.1,0.1-0.3,0.3-0.3s0.3,0.1,0.3,0.3v2.9C33.5,58.2,33.3,58.3,33.2,58.3z"/>
				</g>
				<g>
					<path d="M34.3,57.9c-0.1,0-0.3-0.1-0.3-0.3V55c0-0.1,0.1-0.3,0.3-0.3s0.3,0.1,0.3,0.3v2.6C34.6,57.8,34.5,57.9,34.3,57.9z"/>
				</g>
				<g>
					<path d="M35.5,56.5c-0.1,0-0.3-0.1-0.3-0.3v-1.8c0-0.1,0.1-0.3,0.3-0.3s0.3,0.1,0.3,0.3v1.8C35.7,56.4,35.6,56.5,35.5,56.5z"/>
				</g>
				<g>
					<path d="M36.9,55.6c-0.1,0-0.3-0.1-0.3-0.3v-1.9c0-0.1,0.1-0.3,0.3-0.3s0.3,0.1,0.3,0.3v1.9C37.2,55.5,37.1,55.6,36.9,55.6z"/>
				</g>
				<g>
					<path d="M28.9,58.8c-0.1,0-0.3-0.1-0.3-0.3v-4c0-0.1,0.1-0.3,0.3-0.3s0.3,0.1,0.3,0.3v4C29.1,58.7,29,58.8,28.9,58.8z"/>
				</g>
				<g>
					<path d="M27.1,58.1c-0.1,0-0.3-0.1-0.3-0.3v-3.3c0-0.1,0.1-0.3,0.3-0.3s0.3,0.1,0.3,0.3v3.3C27.4,57.9,27.2,58.1,27.1,58.1z"/>
				</g>
				<g>
					<path d="M25.7,57c-0.1,0-0.3-0.1-0.3-0.3v-2.5c0-0.1,0.1-0.3,0.3-0.3s0.3,0.1,0.3,0.3v2.5C26,56.9,25.9,57,25.7,57z"/>
				</g>
				<g>
					<path d="M24.1,55.6c-0.1,0-0.3-0.1-0.3-0.3v-1.8c0-0.1,0.1-0.3,0.3-0.3s0.3,0.1,0.3,0.3v1.8C24.4,55.5,24.3,55.6,24.1,55.6z"/>
				</g>
				<g>
					<path d="M23,54.2c-0.1,0-0.3-0.1-0.3-0.3v-1.1c0-0.1,0.1-0.3,0.3-0.3s0.3,0.1,0.3,0.3v1.1C23.2,54.1,23.1,54.2,23,54.2z"/>
				</g>
				<g>
					<path d="M24.6,53.8h-2.1c-0.1,0-0.3-0.1-0.3-0.3s0.1-0.3,0.3-0.3h2.1c0.1,0,0.3,0.1,0.3,0.3C24.9,53.7,24.8,53.8,24.6,53.8z"/>
				</g>
				<g>
					<path d="M27.4,55.3h-3.8c-0.1,0-0.3-0.1-0.3-0.3s0.1-0.3,0.3-0.3h3.8c0.1,0,0.3,0.1,0.3,0.3S27.5,55.3,27.4,55.3z"/>
				</g>
				<g>
					<path d="M29.9,57h-4.6c-0.1,0-0.3-0.1-0.3-0.3s0.1-0.3,0.3-0.3h4.6c0.1,0,0.3,0.1,0.3,0.3S30,57,29.9,57z"/>
				</g>
				<g>
					<path d="M30.9,55.9h-2.4c-0.1,0-0.3-0.1-0.3-0.3s0.1-0.3,0.3-0.3h2.4c0.1,0,0.3,0.1,0.3,0.3S31,55.9,30.9,55.9z"/>
				</g>
				<g>
					<path d="M31.4,58.3h-3.4c-0.1,0-0.3-0.1-0.3-0.3s0.1-0.3,0.3-0.3h3.4c0.1,0,0.3,0.1,0.3,0.3S31.6,58.3,31.4,58.3z"/>
				</g>
				<g>
					<path d="M33.5,56.7H31c-0.1,0-0.3-0.1-0.3-0.3s0.1-0.3,0.3-0.3h2.5c0.1,0,0.3,0.1,0.3,0.3S33.6,56.7,33.5,56.7z"/>
				</g>
				<g>
					<path d="M35.3,55.6h-1.5c-0.1,0-0.3-0.1-0.3-0.3s0.1-0.3,0.3-0.3h1.5c0.1,0,0.3,0.1,0.3,0.3C35.5,55.5,35.4,55.6,35.3,55.6z"/>
				</g>
				<g>
					<path d="M34.7,57.8h-2.1c-0.1,0-0.3-0.1-0.3-0.3s0.1-0.3,0.3-0.3h2.1c0.1,0,0.3,0.1,0.3,0.3S34.9,57.8,34.7,57.8z"/>
				</g>
				<g>
					<path d="M36.2,56.4h-1.4c-0.1,0-0.3-0.1-0.3-0.3s0.1-0.3,0.3-0.3h1.4c0.1,0,0.3,0.1,0.3,0.3S36.4,56.4,36.2,56.4z"/>
				</g>
				<g>
					<path d="M37.8,54.6h-1.5c-0.1,0-0.3-0.1-0.3-0.3s0.1-0.3,0.3-0.3h1.5c0.1,0,0.3,0.1,0.3,0.3S37.9,54.6,37.8,54.6z"/>
				</g>
			</g>
		</g>
		<g>
			<g>
				<path d="M60.5,21.4C60.5,21.4,60.5,21.4,60.5,21.4c-0.2,0-0.3-0.1-0.4-0.2c-0.2-0.3-0.5-0.6-0.8-0.8c-0.1-0.1-0.2-0.2-0.1-0.4
					c0-0.1,0.1-0.3,0.2-0.4c4-3.6,4.3-3.6,4.5-3.6c0.1,0,0.3,0.1,0.4,0.2c0.4,0.4,0.5,0.5-3.4,5C60.8,21.4,60.7,21.4,60.5,21.4z
					 M60.4,20.1C60.5,20.1,60.5,20.2,60.4,20.1c0.3-0.2,0.5-0.4,0.7-0.6C61,19.6,60.7,19.9,60.4,20.1z"/>
			</g>
			<g>
				<path d="M18.7,64.5c-0.7,0-1.3-0.3-1.8-0.8c-0.5-0.5-0.8-1.1-0.8-1.8c0-0.7,0.3-1.3,0.8-1.8c0.2-0.2,2.3-2.3,5.8-5.6
					c0.1-0.1,0.3-0.2,0.4-0.1c0.2,0,0.3,0.1,0.4,0.2c0.1,0.2,0.2,0.4,0.4,0.5c0.6,0.8,1.3,1.5,2.2,2.1c0.1,0.1,0.2,0.2,0.2,0.4
					c0,0.1,0,0.3-0.1,0.4c-3.2,3.3-5.4,5.6-5.6,5.8C20,64.2,19.4,64.5,18.7,64.5z M22.9,55.6c-3.1,3-5.2,5-5.4,5.2
					c-0.3,0.3-0.5,0.7-0.5,1.1c0,0.4,0.2,0.8,0.5,1.1c0.6,0.6,1.6,0.6,2.2,0c0.1-0.2,2-2.1,5.2-5.3C24.2,57.1,23.5,56.5,22.9,55.6
					C23,55.7,23,55.7,22.9,55.6z"/>
			</g>
		</g>
	</g>
</g>
</svg>
