<?xml version="1.0" encoding="utf-8"?>
<!-- Generator: Adobe Illustrator 23.1.0, SVG Export Plug-In . SVG Version: 6.00 Build 0)  -->
<svg version="1.1" id="Слой_1" xmlns="http://www.w3.org/2000/svg" xmlns:xlink="http://www.w3.org/1999/xlink" x="0px" y="0px"
	 viewBox="0 0 65 81.3" style="enable-background:new 0 0 65 81.3;" xml:space="preserve">
<g>
	<g>
		<g>
			<path d="M57.4,38c-0.2,0-0.4-0.1-0.4-0.3c-3-5.4-9.7-6.2-16.3-7c-3.8-0.4-7.3-0.9-10.2-2.1c-5.4-2.3-9.2-7.4-9.7-13
				C20.2,9.9,23.4,4,28.5,1.6c5.2-2.5,11.7-0.4,15,4.2c0.1,0.2,0.1,0.4,0,0.6c-0.1,0.2-0.3,0.3-0.5,0.2c-0.3,0-0.6-0.1-0.9-0.1
				c-1.5,0-3.3,0.5-3.9,2c-0.7,1.8,0.7,3.8,2.4,4.7c0.8,0.4,2,0.7,3.5,1.1c4.2,1,10,2.4,13.5,9.5c2.1,4.3,2.2,9.5,0.4,13.9
				C57.8,37.9,57.7,38,57.4,38C57.5,38,57.4,38,57.4,38z M28.9,2.5c-4.7,2.2-7.7,7.7-7.1,13.1c0.5,5.1,4.2,10,9.1,12.2
				c2.8,1.2,6.3,1.6,10,2c6.4,0.8,13.1,1.5,16.5,6.6c1.4-3.9,1.1-8.4-0.7-12.2c-3.3-6.7-8.8-8-12.8-8.9c-1.5-0.3-2.7-0.6-3.7-1.1
				c-2.2-1.1-3.8-3.7-2.9-6C38,6.2,40.2,5.5,42,5.5C38.7,1.9,33.3,0.4,28.9,2.5z"/>
		</g>
		<g>
			<path d="M57.1,44.6c-4.9-5.2-12.8-4.5-19.8-4C35,40.8,32.7,41,30.7,41c-5.7-0.1-10.3-2-13-5.1c-2.1-2.5-3.2-5.8-2.9-9.4
				c0.4-4.2,2.5-8.2,6.1-11.2c0.2-0.2,0.5-0.2,0.7,0.1c0.2,0.2,0.1,0.5-0.1,0.7c-3.4,2.9-5.5,6.6-5.8,10.6c-0.3,3.3,0.7,6.3,2.6,8.6
				c3.4,4,9.1,4.7,12.2,4.8c2,0,4.2-0.1,6.5-0.3c6.9-0.6,14.8-1.2,20,3.7c0.8-2,0.7-4.1-0.2-6c-0.1-0.2,0-0.5,0.2-0.7
				c0.2-0.1,0.5,0,0.7,0.2c1.1,2.3,1.1,5-0.1,7.5C57.7,44.8,57.3,44.9,57.1,44.6z"/>
		</g>
		<g>
			<path d="M42.3,53c-0.9,0-1.8-0.1-2.7-0.4c-2-0.6-3.8-1.7-5.6-2.9c-2.3-1.5-4.4-2.9-7-3c-1.5,0-2.9,0.4-4.5,0.8
				c-1.1,0.3-2.3,0.7-3.5,0.8C13.8,49,8.3,45.2,6.5,39.7c-1.6-4.8-0.4-10.7,3-15.4c2.4-3.2,5.6-5.7,9.3-7.1c0.3-0.1,0.5,0,0.6,0.3
				c0.1,0.3,0,0.5-0.3,0.6c-3.5,1.4-6.6,3.8-8.8,6.8c-3.3,4.4-4.4,10-2.9,14.5c1.7,5,6.7,8.5,11.5,8c1.1-0.1,2.2-0.5,3.3-0.8
				c1.5-0.4,3.1-0.9,4.8-0.8c2.8,0.1,5.2,1.6,7.5,3.1c1.7,1.1,3.4,2.2,5.3,2.8c3,0.8,6.4,0.1,8.7-2c2.3-2,3.5-5.4,3.1-8.4
				c0-0.3,0.1-0.5,0.4-0.6c0.3,0,0.5,0.1,0.6,0.4c0.5,3.4-0.8,7-3.4,9.3C47.4,52.1,44.9,53,42.3,53z"/>
		</g>
		<g>
			<path d="M19.7,62.4c-2.3-1.2-4.1-3.7-5.1-6.8c-0.8-2.7-0.9-5.6-0.9-8.3c0-0.3,0.2-0.5,0.5-0.5c0,0,0,0,0,0c0.3,0,0.5,0.2,0.5,0.5
				c0.1,2.7,0.1,5.5,0.9,8.1c0.5,1.7,1.7,4.7,4.6,6.2c3.3,1.7,13.7,2.6,22.5,1.4c2.7-0.4,5.6-1,7.5-3.1c1.7-1.9,1.9-3.6,5.2-16.8
				c0.1-0.3,0.3-0.4,0.6-0.4c0.3,0.1,0.4,0.3,0.4,0.6c-3.3,13.2-3.5,15.1-5.4,17.2c-2,2.3-5.2,3-8.1,3.4
				C33.6,65.2,23.1,64.2,19.7,62.4z"/>
		</g>
	</g>
	<g>
		<path d="M16.7,50.5l-2.4-2.4c-0.1-0.1-0.1-0.3,0-0.4s0.3-0.1,0.4,0l2.4,2.4c0.1,0.1,0.1,0.3,0,0.4C16.9,50.6,16.8,50.6,16.7,50.5z
			"/>
	</g>
	<g>
		<path d="M19,50.6l-2.1-2.1c-0.1-0.1-0.1-0.3,0-0.4s0.3-0.1,0.4,0l2.1,2.1c0.1,0.1,0.1,0.3,0,0.4C19.3,50.7,19.1,50.7,19,50.6z"/>
	</g>
	<g>
		<path d="M21.6,50.2l-2-2c-0.1-0.1-0.1-0.3,0-0.4s0.3-0.1,0.4,0l2,2c0.1,0.1,0.1,0.3,0,0.4C21.9,50.3,21.7,50.3,21.6,50.2z"/>
	</g>
	<g>
		<path d="M24.2,50l-2.2-2.2c-0.1-0.1-0.1-0.3,0-0.4s0.3-0.1,0.4,0l2.2,2.2c0.1,0.1,0.1,0.3,0,0.4C24.5,50.1,24.3,50.1,24.2,50z"/>
	</g>
	<g>
		<path d="M26.2,49.4l-2.1-2.1c-0.1-0.1-0.1-0.3,0-0.4c0.1-0.1,0.3-0.1,0.4,0l2.1,2.1c0.1,0.1,0.1,0.3,0,0.4
			C26.5,49.5,26.3,49.5,26.2,49.4z"/>
	</g>
	<g>
		<path d="M29.1,49.2l-2.5-2.5c-0.1-0.1-0.1-0.3,0-0.4c0.1-0.1,0.3-0.1,0.4,0l2.5,2.5c0.1,0.1,0.1,0.3,0,0.4
			C29.3,49.3,29.2,49.3,29.1,49.2z"/>
	</g>
	<g>
		<path d="M32.7,50.3l-3-3c-0.1-0.1-0.1-0.3,0-0.4c0.1-0.1,0.3-0.1,0.4,0l3,3c0.1,0.1,0.1,0.3,0,0.4C32.9,50.4,32.8,50.4,32.7,50.3z
			"/>
	</g>
	<g>
		<path d="M38.4,53.9L35,50.4c-0.1-0.1-0.1-0.3,0-0.4s0.3-0.1,0.4,0l3.5,3.5c0.1,0.1,0.1,0.3,0,0.4C38.7,53.9,38.5,53.9,38.4,53.9z"
			/>
	</g>
	<g>
		<path d="M42.6,55.2l-2.5-2.5c-0.1-0.1-0.1-0.3,0-0.4s0.3-0.1,0.4,0l2.5,2.5c0.1,0.1,0.1,0.3,0,0.4C42.9,55.3,42.7,55.3,42.6,55.2z
			"/>
	</g>
	<g>
		<path d="M45.6,54.9l-1.7-1.7c-0.1-0.1-0.1-0.3,0-0.4s0.3-0.1,0.4,0l1.7,1.7c0.1,0.1,0.1,0.3,0,0.4C45.8,55,45.7,55,45.6,54.9z"/>
	</g>
	<g>
		<path d="M48.8,53.7l-2-2c-0.1-0.1-0.1-0.3,0-0.4s0.3-0.1,0.4,0l2,2c0.1,0.1,0.1,0.3,0,0.4C49.1,53.8,48.9,53.8,48.8,53.7z"/>
	</g>
	<g>
		<path d="M50.9,51.9l-1.3-1.3c-0.1-0.1-0.1-0.3,0-0.4s0.3-0.1,0.4,0l1.3,1.3c0.1,0.1,0.1,0.3,0,0.4C51.1,52,51,52,50.9,51.9z"/>
	</g>
	<g>
		<path d="M51.9,49.8l-1.4-1.4c-0.1-0.1-0.1-0.3,0-0.4s0.3-0.1,0.4,0l1.4,1.4c0.1,0.1,0.1,0.3,0,0.4C52.2,49.9,52,49.9,51.9,49.8z"
			/>
	</g>
	<g>
		<path d="M52.9,47.8l-1.2-1.2c-0.1-0.1-0.1-0.3,0-0.4s0.3-0.1,0.4,0l1.2,1.2c0.1,0.1,0.1,0.3,0,0.4C53.2,47.9,53,47.9,52.9,47.8z"
			/>
	</g>
	<g>
		<path d="M53.7,44.8l-1.4-1.4c-0.1-0.1-0.1-0.3,0-0.4s0.3-0.1,0.4,0l1.4,1.4C54.3,44.7,53.9,45,53.7,44.8z"/>
	</g>
	<g>
		<path d="M53.2,44.6c-0.1,0-0.3-0.1-0.3-0.3v-2.4c0-0.1,0.1-0.3,0.3-0.3s0.3,0.1,0.3,0.3v2.4C53.5,44.4,53.4,44.6,53.2,44.6z"/>
	</g>
	<g>
		<path d="M15.4,50.6c-0.1-0.1-0.1-0.3,0-0.4l2.7-2.7c0.1-0.1,0.3-0.1,0.4,0s0.1,0.3,0,0.4l-2.7,2.7C15.6,50.6,15.5,50.7,15.4,50.6z
			"/>
	</g>
	<g>
		<path d="M18.9,50.2c-0.1-0.1-0.1-0.3,0-0.4l2.5-2.5c0.1-0.1,0.3-0.1,0.4,0s0.1,0.3,0,0.4l-2.5,2.5C19.1,50.3,19,50.3,18.9,50.2z"
			/>
	</g>
	<g>
		<path d="M22.2,49.6c-0.1-0.1-0.1-0.3,0-0.4l2.5-2.5c0.1-0.1,0.3-0.1,0.4,0s0.1,0.3,0,0.4l-2.5,2.5C22.5,49.7,22.3,49.7,22.2,49.6z
			"/>
	</g>
	<g>
		<path d="M24.8,49.1c-0.1-0.1-0.1-0.3,0-0.4l2.6-2.6c0.1-0.1,0.3-0.1,0.4,0s0.1,0.3,0,0.4l-2.6,2.6C25.1,49.2,24.9,49.2,24.8,49.1z
			"/>
	</g>
	<g>
		<path d="M28.6,49.2c-0.1-0.1-0.1-0.3,0-0.4l1.8-1.8c0.1-0.1,0.3-0.1,0.4,0s0.1,0.3,0,0.4L29,49.2C28.9,49.3,28.7,49.3,28.6,49.2z"
			/>
	</g>
	<g>
		<path d="M31.5,50.1c-0.1-0.1-0.1-0.3,0-0.4l1.3-1.3c0.1-0.1,0.3-0.1,0.4,0c0.1,0.1,0.1,0.3,0,0.4l-1.3,1.3
			C31.8,50.2,31.6,50.2,31.5,50.1z"/>
	</g>
	<g>
		<path d="M34.5,51.8c-0.1-0.1-0.1-0.3,0-0.4l1.3-1.3c0.1-0.1,0.3-0.1,0.4,0s0.1,0.3,0,0.4l-1.3,1.3C34.7,51.9,34.6,51.9,34.5,51.8z
			"/>
	</g>
	<g>
		<path d="M37.6,53.6c-0.1-0.1-0.1-0.3,0-0.4l1.3-1.3c0.1-0.1,0.3-0.1,0.4,0s0.1,0.3,0,0.4L38,53.6C37.9,53.7,37.7,53.7,37.6,53.6z"
			/>
	</g>
	<g>
		<path d="M40.3,54.6c-0.1-0.1-0.1-0.3,0-0.4l2-2c0.1-0.1,0.3-0.1,0.4,0s0.1,0.3,0,0.4l-2,2C40.5,54.7,40.4,54.7,40.3,54.6z"/>
	</g>
	<g>
		<path d="M43.8,55c-0.1-0.1-0.1-0.3,0-0.4l3.2-3.2c0.1-0.1,0.3-0.1,0.4,0c0.1,0.1,0.1,0.3,0,0.4L44.2,55
			C44.1,55.1,43.9,55.1,43.8,55z"/>
	</g>
	<g>
		<path d="M47.9,53.3c-0.1-0.1-0.1-0.3,0-0.4l4.3-4.3c0.1-0.1,0.3-0.1,0.4,0s0.1,0.3,0,0.4l-4.3,4.3C48.2,53.4,48,53.4,47.9,53.3z"
			/>
	</g>
	<g>
		<path d="M51.8,48c-0.1-0.1-0.1-0.3,0-0.4l1.9-1.9c0.1-0.1,0.3-0.1,0.4,0c0.1,0.1,0.1,0.3,0,0.4L52.1,48C52,48.1,51.9,48.1,51.8,48
			z"/>
	</g>
	<g>
		<path d="M52.8,44.7c-0.1-0.1-0.1-0.3,0-0.4l1.8-1.8c0.1-0.1,0.3-0.1,0.4,0s0.1,0.3,0,0.4l-1.8,1.8C53.1,44.8,52.9,44.8,52.8,44.7z
			"/>
	</g>
	<g>
		<path d="M54.2,45.4c-0.1-0.1-0.1-0.3,0-0.4l1-1c0.1-0.1,0.3-0.1,0.4,0c0.1,0.1,0.1,0.3,0,0.4l-1,1C54.4,45.5,54.3,45.5,54.2,45.4z
			"/>
	</g>
	<g>
		<path d="M34.3,25.1C34.3,25.1,34.3,25.1,34.3,25.1c-4.7-0.3-8.9-3.8-10.1-8.4s0.9-9.6,4.9-12.1c0.1-0.1,0.3,0,0.3,0.1
			c0.1,0.1,0,0.3-0.1,0.3c-3.8,2.4-5.8,7.2-4.7,11.6c1.1,4.3,5.1,7.7,9.6,8c0.1,0,0.2,0.1,0.2,0.3C34.6,25,34.5,25.1,34.3,25.1z"/>
	</g>
	<g>
		<path d="M54.1,26.1c-0.1,0-0.2-0.1-0.3-0.2c-0.1-2.1-1.4-4.2-3.5-5.6c-2-1.3-4.3-1.9-6.6-2.4c-0.1,0-0.2-0.2-0.2-0.3
			c0-0.1,0.2-0.2,0.3-0.2c2.3,0.5,4.7,1.1,6.7,2.5c2.3,1.5,3.7,3.7,3.8,6C54.4,26,54.3,26.1,54.1,26.1
			C54.1,26.1,54.1,26.1,54.1,26.1z"/>
	</g>
	<g>
		<path d="M27.1,37.3C27.1,37.3,27.1,37.3,27.1,37.3c-3.5-0.3-6.5-2.3-8-5.5c-1.5-3.2-1.3-6.8,0.7-9.7c0.1-0.1,0.2-0.1,0.3-0.1
			c0.1,0.1,0.1,0.2,0.1,0.3c-1.9,2.7-2.1,6.2-0.7,9.2c1.4,3,4.3,4.9,7.6,5.2c0.1,0,0.2,0.1,0.2,0.3C27.4,37.2,27.3,37.3,27.1,37.3z"
			/>
	</g>
	<g>
		<path d="M15,42.4c-2.4,0-4.8-1.6-5.9-4c-2.6-5.6,1.7-11.5,3.9-14.7l0.2-0.3c0.1-0.1,0.2-0.1,0.3-0.1c0.1,0.1,0.1,0.2,0.1,0.3
			L13.5,24c-2.2,3.1-6.3,8.8-3.9,14.2c1.1,2.5,3.8,4.1,6.2,3.6c0.1,0,0.3,0.1,0.3,0.2c0,0.1-0.1,0.3-0.2,0.3
			C15.6,42.4,15.3,42.4,15,42.4z"/>
	</g>
	<g>
		<path d="M40.5,49.1c-2.4,0-4.7-1.2-6.1-3.1c-0.1-0.1-0.1-0.3,0.1-0.3c0.1-0.1,0.3-0.1,0.3,0.1c1.3,1.8,3.5,2.9,5.7,2.9
			c0.1,0,0.1,0,0.2,0c2.3-0.1,4.5-1.3,5.7-3.3c0.1-0.1,0.2-0.2,0.3-0.1c0.1,0.1,0.2,0.2,0.1,0.3c-1.3,2.1-3.6,3.4-6.1,3.5
			C40.6,49.1,40.6,49.1,40.5,49.1z"/>
	</g>
	<g>
		<path d="M52.8,36.8c-4.8-4.4-9.9-3.9-14.8-3.5c-3.4,0.3-6.6,0.5-9.7-0.7c-2.5-1-5.1-3.3-5.3-6.4c0-0.1,0.1-0.3,0.2-0.3
			c0,0,0,0,0,0c0.1,0,0.2,0.1,0.2,0.2c0.2,2.9,2.6,5.1,4.9,6c3,1.2,6.2,0.9,9.5,0.7c5-0.4,10.1-0.8,15.2,3.7c0.1,0.1,0.1,0.3,0,0.4
			C53.1,36.9,53,36.9,52.8,36.8z"/>
	</g>
	<g>
		<path d="M35,13.3C34,11.1,34,7.8,37.1,5c0.1-0.1,0.3-0.1,0.4,0c0.1,0.1,0.1,0.3,0,0.4c-2.9,2.6-3,5.7-2,7.7c1,2.2,3.2,3.4,5.6,3.1
			c0.1,0,0.3,0.1,0.3,0.2c0,0.1-0.1,0.3-0.2,0.3C38.5,17,36.1,15.6,35,13.3z"/>
	</g>
	<g>
		<path d="M54.7,31.2c-0.1,0-0.1,0-0.2-0.1c-3.5-3.6-8.7-5.5-13.7-5c-0.1,0-0.3-0.1-0.3-0.2c0-0.1,0.1-0.3,0.2-0.3
			c5.1-0.5,10.5,1.4,14.1,5.1c0.1,0.1,0.1,0.3,0,0.4C54.8,31.2,54.8,31.2,54.7,31.2z"/>
	</g>
</g>
</svg>
