<?xml version="1.0" encoding="utf-8"?>
<!-- Generator: Adobe Illustrator 23.1.0, SVG Export Plug-In . SVG Version: 6.00 Build 0)  -->
<svg version="1.1" id="Слой_1" xmlns="http://www.w3.org/2000/svg" xmlns:xlink="http://www.w3.org/1999/xlink" x="0px" y="0px"
	 viewBox="0 0 65 81.3" style="enable-background:new 0 0 65 81.3;" xml:space="preserve">
<g>
	<g>
		<g>
			<g>
				<path d="M23.3,49.6c-1.7,0-3.3-0.9-4.2-2.2c-1.2-2-0.8-4.2-0.5-6.4c0.3-1.9,0.6-3.7-0.1-5.2c-0.5-1.1-1.7-1.9-2.8-1.9
					c-0.5,0-0.9,0.1-1.2,0.4c-0.4,0.4-0.7,1-0.9,1.6c-0.1,0.3-0.3,0.7-0.5,1c-0.4,0.7-1.3,1.5-2.3,1.5c-0.3,0-0.7-0.1-0.9-0.3
					c-0.8-0.5-0.8-1.4-0.9-2.2c0-0.6-0.1-1.1-0.4-1.4c-0.2-0.3-0.6-0.3-0.8-0.3c-0.5,0-1,0.2-1.4,0.6C6.3,35,6,35.4,5.7,35.9
					c-0.8,1.2-1.7,2.6-2.8,2.6c-0.3,0-0.5-0.1-0.8-0.2c-1.4-0.8-1.4-3.8-1.5-5.8c-0.4-6.4,2-13.2,6.4-18.2c5.2-6,13.4-9.9,22.3-10.8
					C38.5,2.5,48.1,5,55.1,11c7.3,6.3,10.8,16.4,8.8,25c-0.2,0.8-0.5,1.8-1.3,2.3c-0.4,0.3-0.9,0.4-1.4,0.4c-1.4,0-2.8-1.1-3.3-2.6
					c-0.3-1.1-0.3-2.2-0.3-3.3c0-0.6,0-1.2,0-1.8c-0.1-1.3-0.9-2.7-2-3l-2.3,14.1c-1.1,6.5-5.9,4.6-6.8,1.3
					c-0.5-1.7-0.1-3.4-0.2-5.1c0-1.8-0.9-3.8-2.5-3.9l-0.1,0c-1.2,0-2.2,1.1-2.5,2.2c-0.3,0.9-0.4,1.9-0.4,3c0,0.4,0,0.8-0.1,1.3
					c-0.1,0.9-0.2,2-0.9,2.9c-1.3,1.8-4.8,2.1-5-2.6c-0.1-1.2-0.1-2.6-1-3.2c-0.9-0.7-2.6,0-3.5,1.2c-0.8,1.1-1.2,2.6-1.6,4
					c-0.6,2.2-1.2,4.4-3.2,5.6C25,49.4,24.1,49.6,23.3,49.6z M15.8,32.9c1.5,0,3.1,1.1,3.7,2.5c0.8,1.8,0.5,3.9,0.1,5.8
					c-0.3,2.1-0.7,4,0.3,5.7c0.6,1.1,1.9,1.7,3.3,1.7c0.7,0,1.3-0.2,1.9-0.5c1.6-1,2.2-3,2.8-5c0.4-1.5,0.9-3,1.7-4.3
					c0.8-1.2,2.2-1.9,3.4-1.9c0.6,0,1.1,0.2,1.5,0.5c1.2,0.9,1.3,2.6,1.4,3.9c0.2,3.8,2.4,3.2,3.2,2.1c0.5-0.7,0.7-1.6,0.7-2.4
					c0-0.4,0.1-0.8,0.1-1.2c0-1.1,0.1-2.2,0.5-3.3c0.5-1.5,1.9-3,3.7-2.9c2.2,0.1,3.4,2.6,3.4,4.9c0,1.7-0.3,3.3,0.1,4.8
					c0.4,1.5,1.9,2.6,3,2.2c1.8-0.6,1.7-2.5,4.2-18c0-0.2,0.2-0.4,0.5-0.4c2,0,3.2,2,3.4,4c0.1,0.7,0.1,1.3,0,2c0,1,0,2,0.3,2.9
					c0.4,1.3,2.1,2.4,3.1,1.7c0.5-0.4,0.7-1.1,0.9-1.8c1.9-8.3-1.5-18-8.5-24.1c-6.8-5.9-16.1-8.2-25.1-7.4
					C20.7,5.3,12.8,9.1,7.7,14.9c-8.3,9.6-6.3,21.8-5.1,22.5c0.1,0.1,0.2,0.1,0.3,0.1c0.6,0,1.5-1.3,2-2.1c0.4-0.6,0.7-1,1-1.3
					c1.1-1,2.9-1.1,3.7-0.1c0.5,0.6,0.5,1.3,0.6,2c0.1,0.7,0.1,1.2,0.5,1.5c0.5,0.3,1.4-0.2,1.8-0.9c0.2-0.3,0.3-0.6,0.4-0.9
					c0.3-0.7,0.6-1.4,1.2-1.9C14.4,33.2,15.1,32.9,15.8,32.9z"/>
			</g>
			<g>
				<path d="M5.2,51.5c-3.1-4.1-4.3-9.3-3.3-13.8c0.1-0.3,0.3-0.4,0.6-0.4c0.3,0.1,0.4,0.3,0.4,0.6C2,42.2,3.1,47,6,50.9
					c2.6,3.5,6.5,6.2,11.3,7.8c9.3,3.2,29.4,3.7,39.2-7.3c3.4-3.8,5-8.5,4.5-13c0-0.3,0.2-0.5,0.4-0.6c0.3,0,0.5,0.2,0.6,0.4
					c0.5,4.7-1.2,9.8-4.8,13.8C46,64.7,15.7,65.4,5.2,51.5z"/>
			</g>
			<g>
				<path d="M30.6,22.7c-4.8,0-9.4-1.7-11.1-4.1c-0.7-1-0.8-2-0.5-2.9c0.9-2.4,4.7-3.9,5.4-4.1c2-0.7,4.2-1,6.7-1.1
					c0.7,0,1.4-0.1,2.1-0.1c1.3,0,2.3,0.1,3.3,0.3c2,0.5,3.7,1.6,4.6,3c0.3,0.5,1.3,2.2,0.7,4.1c-0.4,1.4-1.6,2.5-3.4,3.3
					C36.1,22.1,33.4,22.7,30.6,22.7z M33.3,11.3c-0.7,0-1.4,0-2,0.1c-2.5,0.1-4.5,0.4-6.4,1.1c-1.9,0.7-4.3,2-4.8,3.5
					c-0.2,0.6-0.1,1.3,0.4,2c1.3,1.8,5.2,3.7,10.3,3.7c2.6,0,5.2-0.5,7.5-1.5c1.5-0.7,2.5-1.6,2.8-2.7c0.4-1.5-0.3-2.9-0.6-3.2
					c-0.8-1.2-2.2-2.2-4-2.6C35.4,11.4,34.5,11.3,33.3,11.3z"/>
			</g>
			<g>
				<path d="M22.5,20.8c-0.1,0-0.2,0-0.3-0.1c-0.2-0.2-0.2-0.5,0-0.7c2.2-2.4,5.4-3.9,8.6-4c3.2-0.1,6.5,1.2,8.8,3.5
					c0.2,0.2,0.2,0.5,0,0.7c-0.2,0.2-0.5,0.2-0.7,0c-2.1-2.1-5.1-3.3-8.1-3.2c-3,0.1-5.9,1.5-7.9,3.7C22.8,20.8,22.6,20.8,22.5,20.8
					z"/>
			</g>
		</g>
		<g>
			<path d="M11.4,24.7l-0.1,0c-1.7-0.1-2.2-1.2-2.2-2.2c0-1.5,1.4-3.3,2.9-3.3c0.4,0,0.9,0.1,1.2,0.4c0.9,0.6,1.2,2.4,0.5,3.7
				C13.2,24.2,12.3,24.7,11.4,24.7z M12,20.3c-0.9,0-1.9,1.3-1.9,2.3c0,0.7,0.4,1.1,1.3,1.1l0.1,0c0.6,0,1.1-0.3,1.4-0.8
				c0.5-0.8,0.2-2-0.2-2.4C12.4,20.3,12.2,20.3,12,20.3z"/>
		</g>
		<g>
			<path d="M48,27.3c-0.3,0-0.7-0.1-1.1-0.2c-1.2-0.5-2-1.8-1.9-3c0.1-0.8,0.7-1.6,1.4-1.8c0.9-0.7,2-0.9,2.9-0.5
				c0.9,0.4,1.4,1.3,1.4,2.5c-0.1,0.8-0.4,1.6-0.9,2.2C49.4,27,48.7,27.3,48,27.3z M46.2,23.8c-0.1,0.1-0.1,0.2-0.1,0.4
				c-0.1,0.7,0.5,1.6,1.3,2c0.4,0.2,1.1,0.3,1.8-0.4c0.4-0.4,0.6-0.9,0.6-1.5c0-0.7-0.2-1.3-0.8-1.5c-0.4-0.2-1-0.1-1.6,0.2
				c-0.1,0.2-0.2,0.3-0.4,0.3c0,0,0,0,0,0c-0.2,0.1-0.3,0.3-0.5,0.5C46.4,23.7,46.3,23.8,46.2,23.8z"/>
		</g>
		<g>
			<path d="M27.7,32.7c0,0-0.1,0-0.1,0c-0.6,0-1.1-0.4-1.3-0.9c-0.3-0.6-0.1-1.2,0.4-2l0.1-0.1c0.3-0.4,0.5-0.7,0.5-1
				c0-0.3,0.2-0.5,0.5-0.5c0.2,0,0.4,0.1,0.5,0.3c0.6-0.1,1.3,0.3,1.6,0.8c0.4,0.7,0.4,1.5,0,2.2C29.4,32.2,28.5,32.7,27.7,32.7z
				 M27.4,30.4c-0.2,0.3-0.4,0.7-0.2,0.9c0.1,0.1,0.2,0.3,0.5,0.3c0.5,0,1.1-0.3,1.4-0.8c0.2-0.4,0.2-0.7,0-1.1
				c-0.2-0.3-0.4-0.4-0.7-0.4c-0.2,0-0.4,0.3-0.4,0.5C27.9,30.2,27.6,30.4,27.4,30.4C27.4,30.4,27.4,30.4,27.4,30.4z"/>
		</g>
		<g>
			<path d="M46,13.5c-0.9,0-1.7-0.5-2.1-1.3c-0.3-0.7-0.2-1.4,0.3-2c0.4-0.5,1-0.8,1.6-0.8c0.9,0,1.8,0.6,2.1,1.4
				c0.3,0.7,0.1,1.5-0.4,2.1C47.1,13.2,46.6,13.5,46,13.5z M45.8,10.3c-0.2,0-0.6,0.1-0.9,0.4c-0.3,0.3-0.3,0.7-0.2,1
				c0.3,0.7,1.4,1,2,0.4c0.3-0.3,0.4-0.7,0.3-1C46.9,10.7,46.3,10.3,45.8,10.3z"/>
		</g>
		<g>
			<path d="M5.1,28.5c-0.1,0-0.2,0-0.3-0.1L4.2,28c-0.2-0.2-0.3-0.5-0.1-0.7c0.2-0.2,0.5-0.3,0.7-0.1l0.6,0.4
				c0.2,0.2,0.3,0.5,0.1,0.7C5.4,28.4,5.2,28.5,5.1,28.5z"/>
		</g>
		<g>
			<path d="M11.4,16.5c-0.2,0-0.4-0.1-0.5-0.3c-0.1-0.3,0-0.5,0.3-0.7l2-0.9c0.3-0.1,0.5,0,0.7,0.3c0.1,0.3,0,0.5-0.3,0.7l-2,0.9
				C11.5,16.5,11.5,16.5,11.4,16.5z"/>
		</g>
		<g>
			<path d="M18.6,26.4c-0.2,0-0.4-0.2-0.5-0.4l-0.4-2c-0.1-0.3,0.1-0.5,0.4-0.6c0.3-0.1,0.5,0.1,0.6,0.4l0.4,2
				c0.1,0.3-0.1,0.5-0.4,0.6C18.6,26.4,18.6,26.4,18.6,26.4z"/>
		</g>
		<g>
			<path d="M25,8.6c-0.2,0-0.4-0.2-0.5-0.4c-0.1-0.3,0.1-0.5,0.4-0.6l1.7-0.4c0.3-0.1,0.5,0.1,0.6,0.4c0.1,0.3-0.1,0.5-0.4,0.6
				l-1.7,0.4C25.1,8.6,25,8.6,25,8.6z"/>
		</g>
		<g>
			<path d="M35.3,7.6h-1c-0.3,0-0.5-0.2-0.5-0.5s0.2-0.5,0.5-0.5h1c0.3,0,0.5,0.2,0.5,0.5C35.8,7.4,35.5,7.6,35.3,7.6z"/>
		</g>
		<g>
			<path d="M54,15.9c-0.1,0-0.2,0-0.3-0.1l-1.4-1.1c-0.2-0.2-0.2-0.5-0.1-0.7c0.2-0.2,0.5-0.2,0.7-0.1l1.4,1.1
				c0.2,0.2,0.2,0.5,0.1,0.7C54.3,15.8,54.1,15.9,54,15.9z"/>
		</g>
		<g>
			<path d="M37.9,27.7c-0.3,0-0.5-0.2-0.5-0.5l-0.1-1.8c0-0.3,0.2-0.5,0.5-0.5c0.3,0,0.5,0.2,0.5,0.5l0.1,1.8
				C38.5,27.4,38.3,27.7,37.9,27.7C38,27.7,38,27.7,37.9,27.7z"/>
		</g>
		<g>
			<path d="M58.7,23.8c-0.1,0-0.3,0-0.4-0.1l-0.6-0.6c-0.2-0.2-0.2-0.5,0-0.7c0.2-0.2,0.5-0.2,0.7,0L59,23c0.2,0.2,0.2,0.5,0,0.7
				C58.9,23.8,58.8,23.8,58.7,23.8z"/>
		</g>
		<g>
			<path d="M23.9,41.2C23.8,41.2,23.8,41.2,23.9,41.2c-0.3,0-0.5-0.3-0.5-0.6l0.3-1.8c0-0.3,0.3-0.5,0.6-0.4c0.3,0,0.5,0.3,0.4,0.6
				l-0.3,1.8C24.3,41.1,24.1,41.2,23.9,41.2z"/>
		</g>
		<g>
			<path d="M22.2,31.7c-1,0-1.9-0.3-2.7-1c-0.2-0.2-0.2-0.5-0.1-0.7s0.5-0.2,0.7-0.1c0.6,0.5,1.5,0.8,2.3,0.7c0.3,0,0.5,0.2,0.5,0.4
				c0,0.3-0.2,0.5-0.4,0.5C22.4,31.7,22.3,31.7,22.2,31.7z"/>
		</g>
		<g>
			<path d="M37.7,34.3C37.7,34.3,37.7,34.3,37.7,34.3l-1.1-0.1c-0.3,0-0.5-0.3-0.4-0.6c0-0.3,0.3-0.5,0.6-0.4l1,0.1
				c0.3,0,0.5,0.3,0.4,0.6C38.2,34.1,38,34.3,37.7,34.3z"/>
		</g>
		<g>
			<path d="M47.9,31.2c-0.1,0-0.2,0-0.3-0.1l-0.8-0.6c-0.2-0.2-0.3-0.5-0.1-0.7c0.2-0.2,0.5-0.3,0.7-0.1l0.8,0.6
				c0.2,0.2,0.3,0.5,0.1,0.7C48.2,31.1,48.1,31.2,47.9,31.2z"/>
		</g>
		<g>
			<path d="M50.7,35.8C50.7,35.8,50.7,35.8,50.7,35.8c-0.3,0-0.5-0.3-0.5-0.6l0.1-1c0-0.3,0.3-0.5,0.6-0.4c0.3,0,0.5,0.3,0.4,0.6
				l-0.1,1C51.2,35.7,51,35.8,50.7,35.8z"/>
		</g>
		<g>
			<path d="M47.4,17.7C47.3,17.7,47.3,17.7,47.4,17.7l-0.9-0.2c-0.3,0-0.5-0.3-0.4-0.6c0-0.3,0.3-0.5,0.6-0.4l0.8,0.1
				c0.3,0,0.5,0.3,0.4,0.6C47.8,17.5,47.6,17.7,47.4,17.7z"/>
		</g>
		<g>
			<path d="M21.9,18.1c-0.1,0-0.1,0-0.2-0.1l-2.2-2.2c-0.1-0.1-0.1-0.3,0-0.4c0.1-0.1,0.3-0.1,0.4,0l2.2,2.2c0.1,0.1,0.1,0.3,0,0.4
				C22,18.1,21.9,18.1,21.9,18.1z"/>
		</g>
		<g>
			<path d="M23.3,16.9c-0.1,0-0.1,0-0.2-0.1l-2.6-2.6c-0.1-0.1-0.1-0.3,0-0.4c0.1-0.1,0.3-0.1,0.4,0l2.6,2.6c0.1,0.1,0.1,0.3,0,0.4
				C23.5,16.9,23.4,16.9,23.3,16.9z"/>
		</g>
		<g>
			<path d="M25.1,15.8c-0.1,0-0.1,0-0.2-0.1l-2.4-2.4c-0.1-0.1-0.1-0.3,0-0.4c0.1-0.1,0.3-0.1,0.4,0l2.4,2.4c0.1,0.1,0.1,0.3,0,0.4
				C25.2,15.8,25.1,15.8,25.1,15.8z"/>
		</g>
		<g>
			<path d="M27,15.1c-0.1,0-0.1,0-0.2-0.1l-2.6-2.6c-0.1-0.1-0.1-0.3,0-0.4c0.1-0.1,0.3-0.1,0.4,0l2.6,2.6c0.1,0.1,0.1,0.3,0,0.4
				C27.1,15,27,15.1,27,15.1z"/>
		</g>
		<g>
			<path d="M28.9,14.2c-0.1,0-0.1,0-0.2-0.1l-2.3-2.3c-0.1-0.1-0.1-0.3,0-0.4c0.1-0.1,0.3-0.1,0.4,0l2.3,2.3c0.1,0.1,0.1,0.3,0,0.4
				C29,14.2,29,14.2,28.9,14.2z"/>
		</g>
		<g>
			<path d="M31.9,14c-0.1,0-0.1,0-0.2-0.1l-2.6-2.6c-0.1-0.1-0.1-0.3,0-0.4c0.1-0.1,0.3-0.1,0.4,0l2.6,2.6c0.1,0.1,0.1,0.3,0,0.4
				C32,14,31.9,14,31.9,14z"/>
		</g>
		<g>
			<path d="M35.4,14.2c-0.1,0-0.1,0-0.2-0.1l-2.8-2.8c-0.1-0.1-0.1-0.3,0-0.4c0.1-0.1,0.3-0.1,0.4,0l2.8,2.8c0.1,0.1,0.1,0.3,0,0.4
				C35.6,14.2,35.5,14.2,35.4,14.2z"/>
		</g>
		<g>
			<path d="M39.2,14.8c-0.1,0-0.1,0-0.2-0.1l-3.2-3.2c-0.1-0.1-0.1-0.3,0-0.4c0.1-0.1,0.3-0.1,0.4,0l3.2,3.2c0.1,0.1,0.1,0.3,0,0.4
				C39.3,14.7,39.2,14.8,39.2,14.8z"/>
		</g>
		<g>
			<path d="M20.2,18.4c-0.1,0-0.1,0-0.2-0.1c-0.1-0.1-0.1-0.3,0-0.4l2.2-2.2c0.1-0.1,0.3-0.1,0.4,0s0.1,0.3,0,0.4l-2.2,2.2
				C20.3,18.4,20.2,18.4,20.2,18.4z"/>
		</g>
		<g>
			<path d="M21.1,15.8c-0.1,0-0.1,0-0.2-0.1c-0.1-0.1-0.1-0.3,0-0.4l1.8-1.8c0.1-0.1,0.3-0.1,0.4,0c0.1,0.1,0.1,0.3,0,0.4l-1.8,1.8
				C21.3,15.7,21.2,15.8,21.1,15.8z"/>
		</g>
		<g>
			<path d="M23.6,16.4c-0.1,0-0.1,0-0.2-0.1c-0.1-0.1-0.1-0.3,0-0.4l2.1-2.1c0.1-0.1,0.3-0.1,0.4,0c0.1,0.1,0.1,0.3,0,0.4l-2.1,2.1
				C23.8,16.4,23.7,16.4,23.6,16.4z"/>
		</g>
		<g>
			<path d="M25,13.4c-0.1,0-0.1,0-0.2-0.1c-0.1-0.1-0.1-0.3,0-0.4l1-1c0.1-0.1,0.3-0.1,0.4,0c0.1,0.1,0.1,0.3,0,0.4l-1,1
				C25.1,13.4,25.1,13.4,25,13.4z"/>
		</g>
		<g>
			<path d="M27.9,14.4c-0.1,0-0.1,0-0.2-0.1c-0.1-0.1-0.1-0.3,0-0.4l2.1-2.1c0.1-0.1,0.3-0.1,0.4,0s0.1,0.3,0,0.4l-2.1,2.1
				C28,14.4,28,14.4,27.9,14.4z"/>
		</g>
		<g>
			<path d="M31.9,13.4c-0.1,0-0.1,0-0.2-0.1c-0.1-0.1-0.1-0.3,0-0.4l2.2-2.2c0.1-0.1,0.3-0.1,0.4,0s0.1,0.3,0,0.4l-2.2,2.2
				C32,13.4,32,13.4,31.9,13.4z"/>
		</g>
		<g>
			<path d="M35.8,13.8c-0.1,0-0.1,0-0.2-0.1c-0.1-0.1-0.1-0.3,0-0.4l1.8-1.8c0.1-0.1,0.3-0.1,0.4,0s0.1,0.3,0,0.4l-1.8,1.8
				C35.9,13.7,35.8,13.8,35.8,13.8z"/>
		</g>
		<g>
			<path d="M38.3,14.4c-0.1,0-0.1,0-0.2-0.1c-0.1-0.1-0.1-0.3,0-0.4l1.2-1.2c0.1-0.1,0.3-0.1,0.4,0s0.1,0.3,0,0.4l-1.2,1.2
				C38.4,14.3,38.3,14.4,38.3,14.4z"/>
		</g>
		<g>
			<path d="M24.9,20c-0.1,0-0.2-0.1-0.2-0.1c-0.1-0.1,0-0.3,0.1-0.3l0.3-0.2c0.1-0.1,0.3,0,0.3,0.1c0.1,0.1,0,0.3-0.1,0.3L25,20
				C25,20,25,20,24.9,20z"/>
		</g>
		<g>
			<path d="M26.4,19.5c-0.1,0-0.2-0.1-0.2-0.2c0-0.1,0-0.3,0.2-0.3l0.2-0.1c0.1,0,0.3,0,0.3,0.2c0,0.1,0,0.3-0.2,0.3L26.4,19.5
				C26.5,19.5,26.4,19.5,26.4,19.5z"/>
		</g>
		<g>
			<path d="M27.7,19.1c-0.1,0-0.2-0.1-0.2-0.2c-0.1-0.1,0-0.3,0.1-0.3l0.1,0l0.1,0.2L28,19L27.7,19.1C27.8,19.1,27.8,19.1,27.7,19.1
				z"/>
		</g>
		<g>
			<path d="M28.5,18.2h-0.2c-0.1,0-0.3-0.1-0.3-0.3s0.1-0.3,0.3-0.3h0.2c0.1,0,0.3,0.1,0.3,0.3S28.7,18.2,28.5,18.2z"/>
		</g>
		<g>
			<path d="M30.5,18.3h-0.3c-0.1,0-0.3-0.1-0.3-0.3s0.1-0.3,0.3-0.3h0.3c0.1,0,0.3,0.1,0.3,0.3S30.7,18.3,30.5,18.3z"/>
		</g>
		<g>
			<path d="M31.9,18h-0.1c-0.1,0-0.3-0.1-0.3-0.3s0.1-0.3,0.3-0.3h0.1c0.1,0,0.2,0.1,0.2,0.3C32.1,17.9,32,18,31.9,18z"/>
		</g>
		<g>
			<path d="M33.5,18.5C33.5,18.5,33.4,18.5,33.5,18.5l-0.2,0c-0.1,0-0.2-0.2-0.2-0.3c0-0.1,0.2-0.2,0.3-0.2l0.1,0
				c0.1,0,0.2,0.2,0.2,0.3C33.7,18.4,33.6,18.5,33.5,18.5z"/>
		</g>
		<g>
			<path d="M28.1,20.2c-0.1,0-0.1,0-0.2-0.1c-0.1-0.1-0.1-0.2,0-0.4l0.1-0.1c0.1-0.1,0.2-0.1,0.4,0c0.1,0.1,0.1,0.2,0,0.4l-0.1,0.1
				C28.3,20.2,28.2,20.2,28.1,20.2z"/>
		</g>
		<g>
			<path d="M26.7,20.8h-0.3c-0.1,0-0.3-0.1-0.3-0.3s0.1-0.3,0.3-0.3h0.3c0.1,0,0.3,0.1,0.3,0.3S26.8,20.8,26.7,20.8z"/>
		</g>
		<g>
			<path d="M29.3,21.4c-0.1,0-0.1,0-0.2-0.1c-0.1-0.1-0.1-0.3,0-0.4l0,0c0.1-0.1,0.3-0.1,0.4,0c0.1,0.1,0.1,0.3,0,0.4l0,0
				C29.4,21.4,29.4,21.4,29.3,21.4z"/>
		</g>
		<g>
			<path d="M30.1,19.4c0,0-0.1,0-0.1,0c-0.1-0.1-0.2-0.2-0.1-0.3c0.1-0.1,0.2-0.2,0.3-0.1c0,0,0,0,0,0c0.1,0.1,0.2,0.2,0.1,0.3
				C30.3,19.3,30.2,19.4,30.1,19.4z"/>
		</g>
		<g>
			<path d="M31,20.7c-0.1,0-0.3-0.1-0.3-0.3s0.1-0.3,0.2-0.3h0c0.1,0,0.3,0.1,0.3,0.3C31.2,20.6,31.1,20.7,31,20.7z"/>
		</g>
		<g>
			<path d="M31.5,21.3c-0.1,0-0.2-0.1-0.2-0.1c-0.1-0.1,0-0.3,0.1-0.3l0.2-0.1c0.1-0.1,0.3,0,0.3,0.1c0.1,0.1,0,0.3-0.1,0.3
				l-0.2,0.1C31.6,21.3,31.5,21.3,31.5,21.3z"/>
		</g>
		<g>
			<path d="M33.3,19.8c-0.1,0-0.2-0.1-0.2-0.2c0-0.1,0.1-0.3,0.2-0.3l0.1,0c0.1,0,0.3,0.1,0.3,0.2s-0.1,0.3-0.2,0.3L33.3,19.8
				C33.3,19.8,33.3,19.8,33.3,19.8z"/>
		</g>
		<g>
			<path d="M34.6,20.5c-0.1,0-0.3-0.1-0.3-0.3s0.1-0.3,0.2-0.3h0c0.1,0,0.3,0.1,0.3,0.3S34.8,20.5,34.6,20.5z"/>
		</g>
		<g>
			<path d="M34,21.2c-0.1,0-0.1,0-0.2-0.1c-0.1-0.1-0.1-0.3,0-0.4l0.1-0.1c0.1-0.1,0.3-0.1,0.4,0s0.1,0.3,0,0.4l-0.1,0.1
				C34.1,21.1,34,21.2,34,21.2z"/>
		</g>
		<g>
			<path d="M36.2,19.7c-0.1,0-0.3-0.1-0.3-0.2v0c0-0.1,0.1-0.3,0.3-0.3s0.3,0.1,0.3,0.3C36.5,19.6,36.4,19.7,36.2,19.7z"/>
		</g>
		<g>
			<path d="M34.7,18.6L34.7,18.6c-0.2,0-0.3-0.1-0.3-0.3s0.1-0.3,0.3-0.3h0.1c0.1,0,0.3,0.1,0.3,0.3C35,18.5,34.9,18.6,34.7,18.6z"
				/>
		</g>
		<g>
			<path d="M37.1,19.9c-0.1,0-0.3-0.1-0.3-0.2v0c0-0.1,0.1-0.3,0.3-0.3s0.3,0.1,0.3,0.3C37.3,19.8,37.2,19.9,37.1,19.9z"/>
		</g>
		<g>
			<path d="M31.6,19.1c-0.1,0-0.2,0-0.2-0.1c-0.1-0.1-0.1-0.2,0-0.3c0.1-0.1,0.2-0.1,0.3,0c0.1,0,0.1,0.1,0.1,0.2
				c0,0.1,0,0.2-0.1,0.2C31.7,19.1,31.6,19.1,31.6,19.1z"/>
		</g>
		<g>
			<path d="M3.7,40.1l-1.6-1.6c-0.1-0.1-0.1-0.3,0-0.4c0.1-0.1,0.3-0.1,0.4,0L4,39.8c0.1,0.1,0.1,0.3,0,0.4
				C3.9,40.2,3.8,40.2,3.7,40.1z"/>
		</g>
		<g>
			<path d="M5,39.5l-1.6-1.6c-0.1-0.1-0.1-0.3,0-0.4s0.3-0.1,0.4,0l1.6,1.6c0.1,0.1,0.1,0.3,0,0.4C5.3,39.6,5.1,39.6,5,39.5z"/>
		</g>
		<g>
			<path d="M6.4,38.1l-1.7-1.7c-0.1-0.1-0.1-0.3,0-0.4c0.1-0.1,0.3-0.1,0.4,0l1.7,1.7c0.1,0.1,0.1,0.3,0,0.4
				C6.7,38.2,6.5,38.2,6.4,38.1z"/>
		</g>
		<g>
			<path d="M7.4,36.3l-1.2-1.2c-0.1-0.1-0.1-0.3,0-0.4c0.1-0.1,0.3-0.1,0.4,0L7.7,36c0.1,0.1,0.1,0.3,0,0.4
				C7.6,36.4,7.5,36.4,7.4,36.3z"/>
		</g>
		<g>
			<path d="M7.9,34.7l-0.5-0.5c-0.1-0.1-0.1-0.3,0-0.4c0.1-0.1,0.3-0.1,0.4,0l0.5,0.5c0.1,0.1,0.1,0.3,0,0.4
				C8.1,34.8,8,34.8,7.9,34.7z"/>
		</g>
		<g>
			<path d="M13.6,40l-1.9-1.9c-0.1-0.1-0.1-0.3,0-0.4s0.3-0.1,0.4,0l1.9,1.9c0.1,0.1,0.1,0.3,0,0.4C13.9,40.1,13.7,40.1,13.6,40z"/>
		</g>
		<g>
			<path d="M14.5,38.3L13,36.8c-0.1-0.1-0.1-0.3,0-0.4s0.3-0.1,0.4,0l1.5,1.5c0.1,0.1,0.1,0.3,0,0.4C14.8,38.4,14.6,38.4,14.5,38.3z
				"/>
		</g>
		<g>
			<path d="M15.1,36.2L14,35c-0.1-0.1-0.1-0.3,0-0.4c0.1-0.1,0.3-0.1,0.4,0l1.2,1.2c0.1,0.1,0.1,0.3,0,0.4
				C15.4,36.3,15.2,36.3,15.1,36.2z"/>
		</g>
		<g>
			<path d="M16.8,35.3l-1.4-1.4c-0.1-0.1-0.1-0.3,0-0.4c0.1-0.1,0.3-0.1,0.4,0l1.4,1.4c0.1,0.1,0.1,0.3,0,0.4
				C17,35.4,16.9,35.4,16.8,35.3z"/>
		</g>
		<g>
			<path d="M26,50.4l-1.3-1.3c-0.1-0.1-0.1-0.3,0-0.4c0.1-0.1,0.3-0.1,0.4,0l1.3,1.3c0.1,0.1,0.1,0.3,0,0.4
				C26.2,50.5,26.1,50.5,26,50.4z"/>
		</g>
		<g>
			<path d="M27.3,49l-0.9-0.9c-0.1-0.1-0.1-0.3,0-0.4c0.1-0.1,0.3-0.1,0.4,0l0.9,0.9c0.1,0.1,0.1,0.3,0,0.4
				C27.5,49.1,27.4,49.1,27.3,49z"/>
		</g>
		<g>
			<path d="M28.9,46.5l-1.1-1.1c-0.1-0.1-0.1-0.3,0-0.4c0.1-0.1,0.3-0.1,0.4,0l1.1,1.1c0.1,0.1,0.1,0.3,0,0.4
				C29.2,46.6,29,46.6,28.9,46.5z"/>
		</g>
		<g>
			<path d="M29.5,44.8l-1.3-1.3c-0.1-0.1-0.1-0.3,0-0.4s0.3-0.1,0.4,0l1.3,1.3c0.1,0.1,0.1,0.3,0,0.4C29.8,44.9,29.6,44.9,29.5,44.8
				z"/>
		</g>
		<g>
			<path d="M30.5,43.1c-0.2,0-1.4-1.3-1.6-1.4c-0.1-0.1-0.1-0.3,0-0.4s0.3-0.1,0.4,0l1.4,1.4c0.1,0.1,0.1,0.3,0,0.4
				C30.6,43,30.6,43.1,30.5,43.1z"/>
		</g>
		<g>
			<path d="M31.3,41.5l-1.8-1.8c-0.1-0.1-0.1-0.3,0-0.4s0.3-0.1,0.4,0l1.8,1.8c0.1,0.1,0.1,0.3,0,0.4C31.6,41.6,31.4,41.6,31.3,41.5
				z"/>
		</g>
		<g>
			<path d="M32.2,40.2l-1.6-1.6c-0.1-0.1-0.1-0.3,0-0.4s0.3-0.1,0.4,0l1.6,1.6c0.1,0.1,0.1,0.3,0,0.4C32.5,40.3,32.3,40.3,32.2,40.2
				z"/>
		</g>
		<g>
			<path d="M33.6,39.1l-1.1-1.1c-0.1-0.1-0.1-0.3,0-0.4c0.1-0.1,0.3-0.1,0.4,0l1.1,1.1c0.1,0.1,0.1,0.3,0,0.4S33.7,39.2,33.6,39.1z"
				/>
		</g>
		<g>
			<path d="M41.3,43.6l-1.1-1.1c-0.1-0.1-0.1-0.3,0-0.4s0.3-0.1,0.4,0l1.1,1.1c0.1,0.1,0.1,0.3,0,0.4C41.5,43.7,41.4,43.7,41.3,43.6
				z"/>
		</g>
		<g>
			<path d="M42.4,41.5c-0.1,0-0.1,0-0.2-0.1L40.8,40c-0.1-0.1-0.1-0.3,0-0.4s0.3-0.1,0.4,0l1.4,1.4c0.1,0.1,0.1,0.3,0,0.4
				C42.5,41.4,42.4,41.5,42.4,41.5z"/>
		</g>
		<g>
			<path d="M42.1,39.1l-1.5-1.5c-0.1-0.1-0.1-0.3,0-0.4c0.1-0.1,0.3-0.1,0.4,0l1.5,1.5c0.1,0.1,0.1,0.3,0,0.4
				C42.4,39.2,42.2,39.2,42.1,39.1z"/>
		</g>
		<g>
			<path d="M43.3,37.6l-1.6-1.6c-0.1-0.1-0.1-0.3,0-0.4s0.3-0.1,0.4,0l1.6,1.6c0.1,0.1,0.1,0.3,0,0.4C43.6,37.7,43.4,37.7,43.3,37.6
				z"/>
		</g>
		<g>
			<path d="M44.4,36.3l-1.5-1.5c-0.1-0.1-0.1-0.3,0-0.4c0.1-0.1,0.3-0.1,0.4,0l1.5,1.5c0.1,0.1,0.1,0.3,0,0.4
				C44.7,36.4,44.5,36.4,44.4,36.3z"/>
		</g>
		<g>
			<path d="M53.1,45.5l-1-1c-0.1-0.1-0.1-0.3,0-0.4s0.3-0.1,0.4,0l1,1c0.1,0.1,0.1,0.3,0,0.4C53.3,45.6,53.2,45.6,53.1,45.5z"/>
		</g>
		<g>
			<path d="M54.3,43.9l-1.4-1.4c-0.1-0.1-0.1-0.3,0-0.4s0.3-0.1,0.4,0l1.4,1.4c0.1,0.1,0.1,0.3,0,0.4C54.6,44,54.4,44,54.3,43.9z"/>
		</g>
		<g>
			<path d="M54.7,41.4l-1.5-1.5c-0.1-0.1-0.1-0.3,0-0.4c0.1-0.1,0.3-0.1,0.4,0l1.5,1.5c0.1,0.1,0.1,0.3,0,0.4
				C55,41.5,54.8,41.5,54.7,41.4z"/>
		</g>
		<g>
			<path d="M55.5,39.6l-1.9-1.9c-0.1-0.1-0.1-0.3,0-0.4c0.1-0.1,0.3-0.1,0.4,0l1.9,1.9c0.1,0.1,0.1,0.3,0,0.4
				C55.8,39.7,55.6,39.7,55.5,39.6z"/>
		</g>
		<g>
			<path d="M55.8,37.3L54,35.5c-0.1-0.1-0.1-0.3,0-0.4s0.3-0.1,0.4,0l1.8,1.8c0.1,0.1,0.1,0.3,0,0.4C56.1,37.4,55.9,37.4,55.8,37.3z
				"/>
		</g>
		<g>
			<path d="M56.4,35l-1.9-1.9c-0.1-0.1-0.1-0.3,0-0.4s0.3-0.1,0.4,0l1.9,1.9c0.1,0.1,0.1,0.3,0,0.4C56.6,35.1,56.5,35.1,56.4,35z"/>
		</g>
		<g>
			<path d="M56.8,32.2L55,30.4c-0.1-0.1-0.1-0.3,0-0.4c0.1-0.1,0.3-0.1,0.4,0l1.8,1.8c0.1,0.1,0.1,0.3,0,0.4
				C57,32.2,56.9,32.3,56.8,32.2z"/>
		</g>
		<g>
			<path d="M57.2,30.4c-0.1,0-0.1,0-0.2-0.1l-1.7-1.7c-0.1-0.1-0.1-0.3,0-0.4s0.3-0.1,0.4,0l1.7,1.7c0.1,0.1,0.1,0.3,0,0.4
				C57.3,30.4,57.2,30.4,57.2,30.4z"/>
		</g>
		<g>
			<path d="M4.1,43.2l-2-2C2,41,2,40.9,2.1,40.8s0.3-0.1,0.4,0l2,2c0.1,0.1,0.1,0.3,0,0.4C4.4,43.3,4.2,43.3,4.1,43.2z"/>
		</g>
		<g>
			<path d="M4.2,45.7l-2-2c-0.1-0.1-0.1-0.3,0-0.4s0.3-0.1,0.4,0l2,2c0.1,0.1,0.1,0.3,0,0.4C4.4,45.8,4.3,45.8,4.2,45.7z"/>
		</g>
		<g>
			<path d="M2.7,46c-0.1-0.1-0.1-0.3,0-0.4L4.3,44c0.1-0.1,0.3-0.1,0.4,0c0.1,0.1,0.1,0.3,0,0.4L3.1,46C3,46.1,2.8,46.1,2.7,46z"/>
		</g>
		<g>
			<path d="M1.9,43.3c-0.1-0.1-0.1-0.3,0-0.4L4,40.8c0.1-0.1,0.3-0.1,0.4,0c0.1,0.1,0.1,0.3,0,0.4l-2.1,2.1
				C2.2,43.4,2,43.4,1.9,43.3z"/>
		</g>
		<g>
			<path d="M2.7,40.2c-0.1-0.1-0.1-0.3,0-0.4l1.5-1.5c0.1-0.1,0.3-0.1,0.4,0c0.1,0.1,0.1,0.3,0,0.4l-1.5,1.5
				C3,40.3,2.8,40.3,2.7,40.2z"/>
		</g>
		<g>
			<path d="M5.3,38.3c-0.1-0.1-0.1-0.3,0-0.4l1.3-1.3c0.1-0.1,0.3-0.1,0.4,0c0.1,0.1,0.1,0.3,0,0.4l-1.3,1.3
				C5.5,38.4,5.3,38.4,5.3,38.3z"/>
		</g>
		<g>
			<path d="M6.7,35.8c-0.1-0.1-0.1-0.3,0-0.4l1.1-1.1c0.1-0.1,0.3-0.1,0.4,0c0.1,0.1,0.1,0.3,0,0.4L7,35.8
				C6.9,35.9,6.8,35.9,6.7,35.8z"/>
		</g>
		<g>
			<path d="M15.3,35.1c-0.1-0.1-0.1-0.3,0-0.4l0.7-0.7c0.1-0.1,0.3-0.1,0.4,0c0.1,0.1,0.1,0.3,0,0.4l-0.7,0.7
				C15.5,35.2,15.4,35.2,15.3,35.1z"/>
		</g>
		<g>
			<path d="M13.3,38c-0.1-0.1-0.1-0.3,0-0.4l0.8-0.8c0.1-0.1,0.3-0.1,0.4,0c0.1,0.1,0.1,0.3,0,0.4L13.6,38
				C13.5,38.1,13.4,38.1,13.3,38z"/>
		</g>
		<g>
			<path d="M12.3,39.8c-0.1-0.1-0.1-0.3,0-0.4l0.8-0.8c0.1-0.1,0.3-0.1,0.4,0c0.1,0.1,0.1,0.3,0,0.4l-0.8,0.8
				C12.6,39.9,12.4,39.9,12.3,39.8z"/>
		</g>
		<g>
			<path d="M24.6,50.7c-0.1-0.1-0.1-0.3,0-0.4l1.3-1.3c0.1-0.1,0.3-0.1,0.4,0s0.1,0.3,0,0.4L25,50.7C24.9,50.8,24.7,50.8,24.6,50.7z
				"/>
		</g>
		<g>
			<path d="M26.8,49.3c-0.1-0.1-0.1-0.3,0-0.4l0.9-0.9c0.1-0.1,0.3-0.1,0.4,0s0.1,0.3,0,0.4l-0.9,0.9C27.1,49.4,26.9,49.4,26.8,49.3
				z"/>
		</g>
		<g>
			<path d="M28.8,45.8c-0.1,0-0.1,0-0.2-0.1c-0.1-0.1-0.1-0.3,0-0.4l1.5-1.5c0.1-0.1,0.3-0.1,0.4,0s0.1,0.3,0,0.4l-1.5,1.5
				C28.9,45.8,28.8,45.8,28.8,45.8z"/>
		</g>
		<g>
			<path d="M29.5,42.8c-0.1-0.1-0.1-0.3,0-0.4l1.8-1.8c0.1-0.1,0.3-0.1,0.4,0s0.1,0.3,0,0.4l-1.8,1.8C29.8,42.9,29.6,42.9,29.5,42.8
				z"/>
		</g>
		<g>
			<path d="M31.2,39.8c-0.1-0.1-0.1-0.3,0-0.4l1.1-1.1c0.1-0.1,0.3-0.1,0.4,0c0.1,0.1,0.1,0.3,0,0.4l-1.1,1.1
				C31.5,39.9,31.3,39.9,31.2,39.8z"/>
		</g>
		<g>
			<path d="M33.1,39.2c-0.1-0.1-0.1-0.3,0-0.4l0.7-0.7c0.1-0.1,0.3-0.1,0.4,0s0.1,0.3,0,0.4l-0.7,0.7C33.4,39.3,33.2,39.3,33.1,39.2
				z"/>
		</g>
		<g>
			<path d="M40.6,43.7c-0.1-0.1-0.1-0.3,0-0.4l0.9-0.9c0.1-0.1,0.3-0.1,0.4,0c0.1,0.1,0.1,0.3,0,0.4L41,43.7
				C40.9,43.8,40.7,43.8,40.6,43.7z"/>
		</g>
		<g>
			<path d="M40.2,41.6c-0.1,0-0.1,0-0.2-0.1c-0.1-0.1-0.1-0.3,0-0.4l2-2c0.2-0.2,0.6,0.1,0.4,0.4l-2,2
				C40.3,41.6,40.2,41.6,40.2,41.6z"/>
		</g>
		<g>
			<path d="M40.6,38.5c-0.1-0.1-0.1-0.3,0-0.4l2.1-2.1c0.1-0.1,0.3-0.1,0.4,0s0.1,0.3,0,0.4l-2.1,2.1C40.8,38.6,40.6,38.6,40.6,38.5
				z"/>
		</g>
		<g>
			<path d="M43.7,36.5c-0.1-0.1-0.1-0.3,0-0.4l0.8-0.8c0.1-0.1,0.3-0.1,0.4,0s0.1,0.3,0,0.4L44,36.5C43.9,36.6,43.8,36.6,43.7,36.5z
				"/>
		</g>
		<g>
			<path d="M55.8,30.4c-0.1,0-0.1,0-0.2-0.1c-0.1-0.1-0.1-0.3,0-0.4l1-1c0.1-0.1,0.3-0.1,0.4,0s0.1,0.3,0,0.4l-1,1
				C55.9,30.4,55.8,30.4,55.8,30.4z"/>
		</g>
		<g>
			<path d="M54,34.1c-0.1-0.1-0.1-0.3,0-0.4l2-2c0.1-0.1,0.3-0.1,0.4,0s0.1,0.3,0,0.4l-2,2C54.3,34.2,54.1,34.2,54,34.1z"/>
		</g>
		<g>
			<path d="M53.8,37.7c-0.1-0.1-0.1-0.3,0-0.4l2-2c0.1-0.1,0.3-0.1,0.4,0s0.1,0.3,0,0.4l-2,2C54,37.8,53.9,37.8,53.8,37.7z"/>
		</g>
		<g>
			<path d="M53.5,40.6c-0.1,0-0.1,0-0.2-0.1c-0.1-0.1-0.1-0.3,0-0.4l1.7-1.7c0.1-0.1,0.3-0.1,0.4,0s0.1,0.3,0,0.4l-1.7,1.7
				C53.7,40.6,53.6,40.6,53.5,40.6z"/>
		</g>
		<g>
			<path d="M52,45.6c-0.1,0-0.1,0-0.2-0.1c-0.1-0.1-0.1-0.3,0-0.4l2.8-2.8c0.1-0.1,0.3-0.1,0.4,0s0.1,0.3,0,0.4l-2.8,2.8
				C52.1,45.6,52.1,45.6,52,45.6z"/>
		</g>
		<g>
			<path d="M52.7,42.6c-0.1-0.1-0.1-0.3,0-0.4l1.6-1.6c0.1-0.1,0.3-0.1,0.4,0s0.1,0.3,0,0.4L53,42.6C52.9,42.7,52.8,42.7,52.7,42.6z
				"/>
		</g>
	</g>
	<g>
		<path d="M45,59l-3.7-3.7c-0.1-0.1-0.1-0.3,0-0.4s0.3-0.1,0.4,0l3.7,3.7c0.1,0.1,0.1,0.3,0,0.4C45.2,59.1,45.1,59.1,45,59z"/>
	</g>
	<g>
		<path d="M47.5,57.7l-3.2-3.2c-0.1-0.1-0.1-0.3,0-0.4s0.3-0.1,0.4,0l3.2,3.2c0.1,0.1,0.1,0.3,0,0.4C47.7,57.8,47.6,57.8,47.5,57.7z
			"/>
	</g>
	<g>
		<path d="M50.2,56l-2.3-2.3c-0.1-0.1-0.1-0.3,0-0.4c0.1-0.1,0.3-0.1,0.4,0l2.3,2.3c0.1,0.1,0.1,0.3,0,0.4
			C50.5,56.1,50.3,56.1,50.2,56z"/>
	</g>
	<g>
		<path d="M52.8,53.8l-1.8-1.8c-0.1-0.1-0.1-0.3,0-0.4c0.1-0.1,0.3-0.1,0.4,0l1.8,1.8c0.1,0.1,0.1,0.3,0,0.4
			C53.1,53.9,52.9,53.9,52.8,53.8z"/>
	</g>
	<g>
		<path d="M56.2,52.2l-2.3-2.3c-0.1-0.1-0.1-0.3,0-0.4s0.3-0.1,0.4,0l2.3,2.3c0.1,0.1,0.1,0.3,0,0.4C56.5,52.3,56.3,52.3,56.2,52.2z
			"/>
	</g>
	<g>
		<path d="M59,49.9L56.2,47c-0.1-0.1-0.1-0.3,0-0.4s0.3-0.1,0.4,0l2.9,2.9c0.1,0.1,0.1,0.3,0,0.4C59.3,49.9,59.1,50,59,49.9z"/>
	</g>
	<g>
		<path d="M41.7,59.5l-2.4-2.4c-0.1-0.1-0.1-0.3,0-0.4s0.3-0.1,0.4,0l2.4,2.4c0.1,0.1,0.1,0.3,0,0.4C41.9,59.6,41.8,59.6,41.7,59.5z
			"/>
	</g>
	<g>
		<path d="M36.5,60.8l-2.5-2.5c-0.1-0.1-0.1-0.3,0-0.4s0.3-0.1,0.4,0l2.5,2.5c0.1,0.1,0.1,0.3,0,0.4C36.7,60.9,36.6,60.9,36.5,60.8z
			"/>
	</g>
	<g>
		<path d="M30.8,60.5l-1.7-1.7c-0.1-0.1-0.1-0.3,0-0.4s0.3-0.1,0.4,0l1.7,1.7c0.1,0.1,0.1,0.3,0,0.4C31.1,60.6,30.9,60.6,30.8,60.5z
			"/>
	</g>
	<g>
		<path d="M26.4,60.6l-1.5-1.5c-0.1-0.1-0.1-0.3,0-0.4s0.3-0.1,0.4,0l1.5,1.5c0.1,0.1,0.1,0.3,0,0.4C26.7,60.7,26.5,60.7,26.4,60.6z
			"/>
	</g>
	<g>
		<path d="M22.4,60.2l-1.7-1.7c-0.1-0.1-0.1-0.3,0-0.4c0.1-0.1,0.3-0.1,0.4,0l1.7,1.7c0.1,0.1,0.1,0.3,0,0.4
			C22.7,60.3,22.5,60.3,22.4,60.2z"/>
	</g>
	<g>
		<path d="M18.3,59.7l-2.1-2.1c-0.1-0.1-0.1-0.3,0-0.4s0.3-0.1,0.4,0l2.1,2.1c0.1,0.1,0.1,0.3,0,0.4C18.6,59.8,18.4,59.8,18.3,59.7z
			"/>
	</g>
	<g>
		<path d="M34.6,61.7l-3.1-3.1c-0.1-0.1-0.1-0.3,0-0.4c0.1-0.1,0.3-0.1,0.4,0l3.1,3.1c0.1,0.1,0.1,0.3,0,0.4
			C34.8,61.8,34.7,61.8,34.6,61.7z"/>
	</g>
	<g>
		<path d="M39.5,59.8l-2.2-2.2c-0.1-0.1-0.1-0.3,0-0.4s0.3-0.1,0.4,0l2.2,2.2c0.1,0.1,0.1,0.3,0,0.4C39.7,59.9,39.6,59.9,39.5,59.8z
			"/>
	</g>
	<g>
		<path d="M59.6,47.1l-2-2c-0.1-0.1-0.1-0.3,0-0.4s0.3-0.1,0.4,0l2,2C60.2,47,59.8,47.3,59.6,47.1z"/>
	</g>
	<g>
		<path d="M60.6,44.2l-2-2c-0.1-0.1-0.1-0.3,0-0.4s0.3-0.1,0.4,0l2,2c0.1,0.1,0.1,0.3,0,0.4S60.7,44.3,60.6,44.2z"/>
	</g>
	<g>
		<path d="M61,41.7l-1.3-1.3c-0.1-0.1-0.1-0.3,0-0.4c0.1-0.1,0.3-0.1,0.4,0l1.3,1.3c0.1,0.1,0.1,0.3,0,0.4
			C61.3,41.8,61.1,41.8,61,41.7z"/>
	</g>
	<g>
		<path d="M14.7,58.1L13,56.5c-0.1-0.1-0.1-0.3,0-0.4s0.3-0.1,0.4,0l1.7,1.7c0.1,0.1,0.1,0.3,0,0.4C15,58.2,14.8,58.2,14.7,58.1z"/>
	</g>
	<g>
		<path d="M13.4,58.3c-0.1-0.1-0.1-0.3,0-0.4l1.3-1.3c0.1-0.1,0.3-0.1,0.4,0c0.1,0.1,0.1,0.3,0,0.4l-1.3,1.3
			C13.7,58.4,13.5,58.4,13.4,58.3z"/>
	</g>
	<g>
		<path d="M16.9,59.5c-0.1-0.1-0.1-0.3,0-0.4l2.6-2.6c0.1-0.1,0.3-0.1,0.4,0c0.1,0.1,0.1,0.3,0,0.4l-2.6,2.6
			C17.1,59.6,17,59.6,16.9,59.5z"/>
	</g>
	<g>
		<path d="M20.9,60.3l3-3c0.1-0.1,0.3-0.1,0.4,0s0.1,0.3,0,0.4l-3,3C21,60.8,20.7,60.5,20.9,60.3z"/>
	</g>
	<g>
		<path d="M26.1,60.7l2.6-2.6c0.1-0.1,0.3-0.1,0.4,0s0.1,0.3,0,0.4L26.5,61C26.2,61.3,25.9,60.9,26.1,60.7z"/>
	</g>
	<g>
		<path d="M31,61.5c-0.1-0.1-0.1-0.3,0-0.4l4.3-4.3c0.1-0.1,0.3-0.1,0.4,0s0.1,0.3,0,0.4l-4.3,4.3C31.3,61.6,31.1,61.6,31,61.5z"/>
	</g>
	<g>
		<path d="M37.1,61.1c-0.1-0.1-0.1-0.3,0-0.4l5.5-5.5c0.1-0.1,0.3-0.1,0.4,0s0.1,0.3,0,0.4l-5.5,5.5C37.4,61.2,37.2,61.2,37.1,61.1z
			"/>
	</g>
	<g>
		<path d="M42.6,60c-0.1-0.1-0.1-0.3,0-0.4l5.8-5.8c0.1-0.1,0.3-0.1,0.4,0c0.1,0.1,0.1,0.3,0,0.4L43,60C42.9,60.1,42.7,60.1,42.6,60
			z"/>
	</g>
	<g>
		<path d="M49.7,56l5.4-5.4c0.1-0.1,0.3-0.1,0.4,0s0.1,0.3,0,0.4l-5.4,5.4C49.8,56.6,49.5,56.2,49.7,56z"/>
	</g>
	<g>
		<path d="M57,49.1c-0.1-0.1-0.1-0.3,0-0.4l2.8-2.8c0.1-0.1,0.3-0.1,0.4,0s0.1,0.3,0,0.4l-2.8,2.8C57.3,49.2,57.1,49.2,57,49.1z"/>
	</g>
	<g>
		<path d="M58.9,44.3c-0.1-0.1-0.1-0.3,0-0.4l1.8-1.8c0.2-0.2,0.6,0.1,0.4,0.4l-1.8,1.8C59.1,44.4,59,44.4,58.9,44.3z"/>
	</g>
	<g>
		<path d="M59.7,41.3c-0.1-0.1-0.1-0.3,0-0.4l1-1c0.1-0.1,0.3-0.1,0.4,0s0.1,0.3,0,0.4l-1,1C60,41.4,59.8,41.4,59.7,41.3z"/>
	</g>
	<g>
		<path d="M19.8,59.5c-0.1-0.1-0.1-0.3,0-0.4l1.6-1.6c0.1-0.1,0.3-0.1,0.4,0s0.1,0.3,0,0.4l-1.6,1.6C20,59.6,19.9,59.6,19.8,59.5z"
			/>
	</g>
	<g>
		<path d="M23.8,60.3l2-2c0.1-0.1,0.3-0.1,0.4,0s0.1,0.3,0,0.4l-2,2C23.9,60.8,23.6,60.5,23.8,60.3z"/>
	</g>
	<g>
		<path d="M28.8,60.6c-0.1-0.1-0.1-0.3,0-0.4l2.1-2.1c0.1-0.1,0.3-0.1,0.4,0s0.1,0.3,0,0.4l-2.1,2.1C29.1,60.7,28.9,60.7,28.8,60.6z
			"/>
	</g>
	<g>
		<path d="M43.9,56c-0.1-0.1-0.1-0.3,0-0.4l1.7-1.7c0.1-0.1,0.3-0.1,0.4,0s0.1,0.3,0,0.4L44.2,56C44.2,56.1,44,56.1,43.9,56z"/>
	</g>
	<g>
		<path d="M50.9,52.9l1.8-1.8c0.1-0.1,0.3-0.1,0.4,0s0.1,0.3,0,0.4l-1.8,1.8C51,53.5,50.6,53.1,50.9,52.9z"/>
	</g>
</g>
</svg>
