<?xml version="1.0" encoding="utf-8"?>
<!-- Generator: Adobe Illustrator 23.1.0, SVG Export Plug-In . SVG Version: 6.00 Build 0)  -->
<svg version="1.1" id="Слой_1" xmlns="http://www.w3.org/2000/svg" xmlns:xlink="http://www.w3.org/1999/xlink" x="0px" y="0px"
	 viewBox="0 0 65 81.3" style="enable-background:new 0 0 65 81.3;" xml:space="preserve">
<g>
	<g>
		<g>
			<path d="M4,32.3L4,32.3c-1.5,0-2.4-0.4-2.8-1.2c-0.5-1,0.1-2.5,1.8-4.5c4.2-5.1,8.9-9.8,13.3-14.7c4.6-5.1,7.8-7.5,13.2-7.5
				c7.4,0,25,6.2,31.9,8.9c1.1,0.4,2.4,1.1,2.7,2.4c0.2,1.4-0.9,2.7-3.2,3.4C43.3,25.3,25,29.6,6.5,32.1l-0.2,0
				C6,32.2,5,32.3,4,32.3z M29.5,5.5c-5.1,0-8,2.2-12.5,7.2C12.6,17.5,8,22.3,3.7,27.3c-1.9,2.3-1.8,3.2-1.7,3.4
				c0.4,0.9,3.1,0.5,4.1,0.4l0.2,0c18.4-2.5,36.6-6.8,54.2-12.7c0.6-0.2,2.7-1,2.5-2.3c-0.1-0.8-1.2-1.3-2-1.7
				C54.4,11.7,36.7,5.5,29.5,5.5z"/>
		</g>
		<g>
			<path d="M0.5,55.4l0.6-24.5c0-0.3,0.2-0.5,0.5-0.5c0.3,0,0.5,0.2,0.5,0.5L1.5,55.4c-0.1,3.8,1.3,5,5.7,3.4
				c15.2-5.3,31-8.8,47-10.4c8.5-0.8,9.3-3.5,9.2-8.8c-0.1-4-0.1-8-0.2-11.9c-0.1-3.9-0.1-7.9-0.2-11.9c0-0.3,0.2-0.5,0.5-0.5
				c0.3,0,0.5,0.2,0.5,0.5c0.1,4,0.1,8,0.2,11.9c0.1,3.9,0.1,7.9,0.2,11.9c0.1,6.1-1.3,9-10.1,9.8c-15.9,1.6-31.7,5-46.8,10.3
				C2.9,61.5,0.4,60.3,0.5,55.4z"/>
		</g>
		<g>
			<path d="M1.4,39.4c-0.2,0-0.4-0.2-0.5-0.4c-0.1-0.3,0.1-0.5,0.4-0.6l61.8-14.7c0.3-0.1,0.5,0.1,0.6,0.4c0.1,0.3-0.1,0.5-0.4,0.6
				L1.5,39.4C1.5,39.4,1.4,39.4,1.4,39.4z"/>
		</g>
		<g>
			<path d="M1.3,44.8c-0.2,0-0.4-0.1-0.5-0.4c-0.1-0.3,0.1-0.5,0.3-0.6C21.6,38,42.7,33.4,63.8,30.4c0.3,0,0.5,0.1,0.6,0.4
				c0,0.3-0.2,0.5-0.4,0.6c-21,3-42,7.5-62.5,13.4C1.4,44.8,1.3,44.8,1.3,44.8z"/>
		</g>
		<g>
			<path d="M1.1,50.4c-0.2,0-0.4-0.1-0.5-0.4c-0.1-0.3,0.1-0.5,0.3-0.6c20.4-6.3,41.4-11,62.6-14.1c0.3,0,0.5,0.1,0.6,0.4
				c0,0.3-0.2,0.5-0.4,0.6c-21.1,3-42.1,7.8-62.4,14C1.2,50.4,1.2,50.4,1.1,50.4z"/>
		</g>
		<g>
			<path d="M1.3,55.5c-0.2,0-0.4-0.2-0.5-0.4c-0.1-0.3,0.1-0.5,0.4-0.6l62.6-14.1c0.3-0.1,0.5,0.1,0.6,0.4c0.1,0.3-0.1,0.5-0.4,0.6
				L1.4,55.5C1.4,55.5,1.4,55.5,1.3,55.5z"/>
		</g>
	</g>
	<g>
		<path d="M4.9,40.8H4.6c-0.3,0-0.5-0.2-0.5-0.5s0.2-0.5,0.5-0.5h0.3c0.3,0,0.5,0.2,0.5,0.5S5.2,40.8,4.9,40.8z"/>
	</g>
	<g>
		<path d="M7.5,41.3c-0.3,0-0.5-0.2-0.5-0.5v-0.1c0-0.3,0.2-0.5,0.5-0.5S8,40.4,8,40.7v0.1C8,41.1,7.8,41.3,7.5,41.3z"/>
	</g>
	<g>
		<path d="M10.3,38.9h-0.1c-0.3,0-0.5-0.2-0.5-0.5s0.2-0.5,0.5-0.5h0.1c0.3,0,0.5,0.2,0.5,0.5C10.8,38.7,10.6,38.9,10.3,38.9z"/>
	</g>
	<g>
		<path d="M13.9,39.6c-0.2,0-0.4-0.2-0.5-0.4c-0.1-0.3,0.1-0.5,0.4-0.6l0.2-0.1c0.3-0.1,0.5,0.1,0.6,0.4c0.1,0.3-0.1,0.5-0.4,0.6
			L14,39.6C14,39.6,13.9,39.6,13.9,39.6z"/>
	</g>
	<g>
		<path d="M16,37.6h-0.2c-0.3,0-0.5-0.2-0.5-0.5s0.2-0.5,0.5-0.5H16c0.3,0,0.5,0.2,0.5,0.5S16.3,37.6,16,37.6z"/>
	</g>
	<g>
		<path d="M19.6,36.9l-0.2-0.1c-0.3-0.1-0.4-0.4-0.3-0.6c0.1-0.3,0.4-0.4,0.6-0.3l0.1,0l-0.1,0.5L19.6,36.9z"/>
	</g>
	<g>
		<path d="M19.6,38.5c-0.3,0-0.5-0.2-0.5-0.5s0.2-0.5,0.5-0.5h0.1c0.3,0,0.5,0.2,0.5,0.5C20.1,38.3,19.9,38.5,19.6,38.5z"/>
	</g>
	<g>
		<path d="M22.8,37.5c-0.2,0-0.3-0.1-0.4-0.2c-0.2-0.2-0.1-0.5,0.1-0.7l0.2-0.1c0.2-0.2,0.5-0.1,0.7,0.1c0.2,0.2,0.1,0.5-0.1,0.7
			L23,37.4C22.9,37.5,22.9,37.5,22.8,37.5z"/>
	</g>
	<g>
		<path d="M24.2,35.6h-0.1c-0.3,0-0.5-0.2-0.5-0.5s0.2-0.5,0.5-0.5h0.1c0.3,0,0.5,0.2,0.5,0.5C24.7,35.4,24.5,35.6,24.2,35.6z"/>
	</g>
	<g>
		<path d="M27,36.9c-0.1,0-0.3,0-0.4-0.1c-0.2-0.2-0.2-0.5,0-0.7l0.2-0.2c0.2-0.2,0.5-0.2,0.7,0c0.2,0.2,0.2,0.5,0,0.7l-0.2,0.2
			C27.2,36.8,27.1,36.9,27,36.9z"/>
	</g>
	<g>
		<path d="M28.7,34.9h-0.2c-0.3,0-0.5-0.2-0.5-0.5s0.2-0.5,0.5-0.5h0.2c0.3,0,0.5,0.2,0.5,0.5C29.2,34.6,28.9,34.9,28.7,34.9z"/>
	</g>
	<g>
		<path d="M31.3,35.2c-0.1,0-0.2,0-0.2-0.1L31,35.1c-0.2-0.1-0.3-0.4-0.2-0.7c0.1-0.2,0.4-0.3,0.7-0.2l0.1,0.1
			c0.2,0.1,0.3,0.4,0.2,0.7C31.7,35.1,31.5,35.2,31.3,35.2z"/>
	</g>
	<g>
		<path d="M34.9,33.5c-0.1,0-0.3,0-0.4-0.1l-0.1-0.1c-0.2-0.2-0.2-0.5,0-0.7s0.5-0.2,0.7,0l0.1,0.1c0.2,0.2,0.2,0.5,0,0.7
			C35.2,33.4,35,33.5,34.9,33.5z"/>
	</g>
	<g>
		<path d="M35.1,34.9c-0.3,0-0.5-0.2-0.5-0.5s0.2-0.5,0.5-0.5h0.1c0.3,0,0.5,0.2,0.5,0.5C35.6,34.7,35.4,34.9,35.1,34.9z"/>
	</g>
	<g>
		<path d="M38.4,32.5c0,0-0.1,0-0.1,0c-0.1,0-0.3,0-0.4-0.1c-0.2-0.2-0.3-0.5-0.1-0.7c0.1-0.2,0.4-0.3,0.5-0.3
			c0.2,0,0.4,0.1,0.5,0.3c0.2,0.2,0.1,0.5-0.1,0.7C38.6,32.5,38.5,32.5,38.4,32.5z"/>
	</g>
	<g>
		<path d="M39.2,34.1h-0.2c-0.3,0-0.5-0.2-0.5-0.5s0.2-0.5,0.5-0.5h0.2c0.3,0,0.5,0.2,0.5,0.5S39.5,34.1,39.2,34.1z"/>
	</g>
	<g>
		<path d="M44.5,32.3c-0.2,0-0.4-0.1-0.5-0.3c-0.1-0.3,0.1-0.5,0.3-0.6l0.2-0.1c0.3-0.1,0.5,0.1,0.6,0.3c0.1,0.3-0.1,0.5-0.3,0.6
			l-0.2,0.1C44.6,32.3,44.5,32.3,44.5,32.3z"/>
	</g>
	<g>
		<path d="M46.9,30.6h-0.4c-0.3,0-0.5-0.2-0.5-0.5s0.2-0.5,0.5-0.5h0.4c0.3,0,0.5,0.2,0.5,0.5S47.2,30.6,46.9,30.6z"/>
	</g>
	<g>
		<path d="M42,32.1c-0.3,0-0.5-0.2-0.5-0.5s0.2-0.5,0.5-0.5H42c0.3,0,0.5,0.2,0.5,0.5C42.5,31.9,42.2,32.1,42,32.1z"/>
	</g>
	<g>
		<path d="M49.5,32.4c-0.2,0-0.3-0.1-0.4-0.2c-0.2-0.2-0.1-0.5,0.1-0.7l0.2-0.1c0.2-0.2,0.5-0.1,0.7,0.1c0.2,0.2,0.1,0.5-0.1,0.7
			l-0.2,0.1C49.7,32.4,49.6,32.4,49.5,32.4z"/>
	</g>
	<g>
		<path d="M51,29.9c-0.1,0-0.1,0-0.2,0l-0.1,0c-0.3-0.1-0.4-0.4-0.3-0.6c0.1-0.3,0.4-0.4,0.6-0.3l0,0l0.1,0c0.3,0.1,0.4,0.4,0.3,0.6
			C51.4,29.8,51.2,29.9,51,29.9z"/>
	</g>
	<g>
		<path d="M56,28.6c-0.3,0-0.5-0.2-0.5-0.5s0.2-0.5,0.5-0.5s0.5,0.2,0.5,0.5v0.1C56.5,28.4,56.2,28.6,56,28.6z"/>
	</g>
	<g>
		<path d="M56.4,31.1c-0.2,0-0.3-0.1-0.4-0.2c-0.1-0.2-0.1-0.5,0.2-0.7l0.2-0.1c0.2-0.1,0.5-0.1,0.7,0.2c0.1,0.2,0.1,0.5-0.2,0.7
			L56.7,31C56.6,31.1,56.5,31.1,56.4,31.1z"/>
	</g>
	<g>
		<path d="M59.3,29.5h-0.1c-0.3,0-0.5-0.2-0.5-0.5s0.2-0.5,0.5-0.5h0.1c0.3,0,0.5,0.2,0.5,0.5C59.8,29.3,59.6,29.5,59.3,29.5z"/>
	</g>
	<g>
		<path d="M60.5,27.3c-0.1,0-0.2,0-0.2-0.1l-0.1-0.1c-0.2-0.1-0.3-0.4-0.2-0.7c0.1-0.2,0.4-0.3,0.7-0.2l0.1,0.1
			c0.2,0.1,0.3,0.4,0.2,0.7C60.9,27.2,60.7,27.3,60.5,27.3z"/>
	</g>
	<g>
		<path d="M62.2,29.5h-0.1c-0.3,0-0.5-0.2-0.5-0.5s0.2-0.5,0.5-0.5h0.1c0.3,0,0.5,0.2,0.5,0.5C62.7,29.3,62.5,29.5,62.2,29.5z"/>
	</g>
	<g>
		<path d="M53.1,29.2c0,0-0.1,0-0.1,0l-0.2-0.1c-0.3-0.1-0.4-0.3-0.4-0.6c0.1-0.3,0.3-0.4,0.6-0.4l0.2,0.1c0.3,0.1,0.4,0.3,0.4,0.6
			C53.6,29.1,53.3,29.2,53.1,29.2z"/>
	</g>
	<g>
		<path d="M53.1,31.5c-0.2,0-0.4-0.2-0.5-0.4c0-0.3,0.1-0.5,0.4-0.6l0.2,0c0.3,0,0.5,0.1,0.6,0.4c0,0.3-0.1,0.5-0.4,0.6L53.1,31.5
			C53.1,31.5,53.1,31.5,53.1,31.5z"/>
	</g>
	<g>
		<path d="M2.6,51.6L2.6,51.6c-0.3-0.2-0.4-0.5-0.3-0.7c0.1-0.2,0.4-0.3,0.7-0.2l-0.2,0.4L3,50.7l-0.2,0.5L2.6,51.6z"/>
	</g>
	<g>
		<path d="M3.7,53.1l-0.4-0.3L3,52.4c0.2-0.2,0.5-0.2,0.7,0C3.9,52.6,3.9,52.9,3.7,53.1z"/>
	</g>
	<g>
		<path d="M6,51.1c-0.1,0-0.2,0-0.2-0.1l-0.1,0c-0.2-0.1-0.3-0.4-0.2-0.7c0.1-0.2,0.4-0.3,0.7-0.2l0.1,0c0.2,0.1,0.3,0.4,0.2,0.7
			C6.3,51,6.1,51.1,6,51.1z"/>
	</g>
	<g>
		<path d="M7.5,52.5c-0.2,0-0.4-0.1-0.4-0.3c-0.1-0.2,0-0.5,0.2-0.7l0.2-0.1c0.2-0.1,0.5,0,0.7,0.2s0,0.5-0.2,0.7l-0.2,0.1
			C7.7,52.5,7.6,52.5,7.5,52.5z"/>
	</g>
	<g>
		<path d="M9.9,50.2C9.8,50.2,9.8,50.2,9.9,50.2l-0.3-0.1c-0.3-0.1-0.4-0.3-0.4-0.6c0.1-0.3,0.3-0.4,0.6-0.4l0.2,0
			c0.3,0.1,0.4,0.3,0.4,0.6C10.3,50,10.1,50.2,9.9,50.2z"/>
	</g>
	<g>
		<path d="M12.5,51.3c-0.2,0-0.4-0.1-0.4-0.3c-0.1-0.2,0-0.5,0.2-0.7l0.1-0.1c0.2-0.1,0.6,0,0.7,0.2c0.1,0.2,0.1,0.5-0.2,0.7
			l-0.2,0.1C12.7,51.2,12.6,51.3,12.5,51.3z"/>
	</g>
	<g>
		<path d="M14,48.5c-0.3,0-0.6-0.2-0.6-0.5s0.2-0.5,0.5-0.5H14c0.3,0,0.5,0.2,0.5,0.5C14.5,48.3,14.3,48.5,14,48.5z"/>
	</g>
	<g>
		<path d="M16.1,50.1c-0.2,0-0.4-0.1-0.5-0.3c-0.1-0.3,0-0.5,0.3-0.6l0.4-0.1c0.3-0.1,0.5,0,0.6,0.3c0.1,0.3,0,0.5-0.3,0.6L16.3,50
			C16.2,50.1,16.1,50.1,16.1,50.1z"/>
	</g>
	<g>
		<path d="M18.2,47.5c-0.3,0-0.5-0.2-0.5-0.5s0.2-0.5,0.5-0.5h0.1c0.3,0,0.5,0.2,0.5,0.5C18.7,47.3,18.4,47.5,18.2,47.5z"/>
	</g>
	<g>
		<path d="M21.1,49.3c-0.2,0-0.4-0.1-0.5-0.3c-0.1-0.3,0-0.5,0.3-0.7l0.2-0.1c0.3-0.1,0.5,0,0.7,0.3c0.1,0.3,0,0.5-0.3,0.7l-0.2,0.1
			C21.3,49.3,21.2,49.3,21.1,49.3z"/>
	</g>
	<g>
		<path d="M22.3,46.1c-0.1,0-0.3,0-0.4-0.1c-0.2-0.2-0.2-0.5,0-0.7c0.2-0.2,0.5-0.2,0.7,0c0,0,0.1,0.1,0.1,0.1
			c0.2,0.2,0.2,0.5,0,0.7C22.5,46.1,22.4,46.1,22.3,46.1z"/>
	</g>
	<g>
		<path d="M24.4,47.8l-0.2-0.5l-0.1-0.5l0.1,0c0.3-0.1,0.5,0.1,0.6,0.3c0.1,0.3-0.1,0.5-0.3,0.6L24.4,47.8z"/>
	</g>
	<g>
		<path d="M26.5,45.5c-0.1,0-0.3-0.1-0.4-0.2c-0.2-0.2-0.2-0.5,0-0.7c0.2-0.2,0.5-0.2,0.7,0c0,0,0.1,0.1,0.1,0.1
			c0.2,0.2,0.2,0.5,0,0.7C26.8,45.5,26.7,45.5,26.5,45.5z"/>
	</g>
	<g>
		<path d="M28.7,47.5c-0.2,0-0.4-0.1-0.4-0.3c-0.1-0.2,0-0.5,0.2-0.7l0.1,0c0.2-0.1,0.5,0,0.7,0.2c0.1,0.2,0,0.5-0.2,0.7l-0.1,0.1
			C28.9,47.5,28.8,47.5,28.7,47.5z"/>
	</g>
	<g>
		<path d="M30.2,44.5l-0.1-0.1c-0.2-0.2-0.3-0.5-0.1-0.7c0.2-0.2,0.5-0.3,0.7-0.1L30.3,44l0.4-0.4l-0.2,0.5L30.2,44.5z"/>
	</g>
	<g>
		<path d="M33.2,46.4c-0.2,0-0.3-0.1-0.4-0.2c-0.2-0.2-0.1-0.5,0.1-0.7l0.2-0.1c0.2-0.2,0.5-0.1,0.7,0.1c0.2,0.2,0.1,0.5-0.1,0.7
			l-0.1,0.1C33.4,46.4,33.3,46.4,33.2,46.4z"/>
	</g>
	<g>
		<path d="M33.9,44c-0.2,0-0.4-0.1-0.4-0.3l0.4-0.2l-0.5,0.2l0.4-0.3l0.4-0.2l0,0.1c0.1,0.2,0,0.5-0.2,0.7C34.1,44,34,44,33.9,44z"
			/>
	</g>
	<g>
		<path d="M37.2,43c-0.1,0-0.2,0-0.3-0.1l-0.2-0.1c-0.2-0.2-0.3-0.5-0.1-0.7c0.2-0.2,0.5-0.3,0.7-0.1l0.2,0.2
			c0.2,0.2,0.3,0.5,0.1,0.7C37.5,42.9,37.3,43,37.2,43z"/>
	</g>
	<g>
		<path d="M37.2,45.3c-0.2,0-0.5-0.2-0.5-0.4c0-0.3,0.1-0.5,0.4-0.6l0.3,0c0.3,0,0.5,0.1,0.6,0.4c0,0.3-0.1,0.5-0.4,0.6L37.2,45.3
			C37.2,45.3,37.2,45.3,37.2,45.3z"/>
	</g>
	<g>
		<path d="M39.8,43.4c-0.2,0-0.4-0.1-0.5-0.3c-0.1-0.3,0.1-0.5,0.3-0.6l0.2,0c0.3-0.1,0.5,0.1,0.6,0.3s-0.1,0.5-0.3,0.6l-0.1,0
			C39.9,43.4,39.8,43.4,39.8,43.4z"/>
	</g>
	<g>
		<path d="M41.4,42.3c-0.1,0-0.2,0-0.3-0.1L40.9,42c-0.2-0.2-0.3-0.5-0.1-0.7s0.5-0.3,0.7-0.1l0.2,0.2c0.2,0.2,0.3,0.5,0.1,0.7
			C41.7,42.2,41.6,42.3,41.4,42.3z"/>
	</g>
	<g>
		<path d="M45.6,43.5c-0.2,0-0.5-0.2-0.5-0.4c0-0.3,0.2-0.5,0.4-0.6l0.4,0c0.3,0,0.5,0.2,0.6,0.4c0,0.3-0.2,0.5-0.4,0.6L45.6,43.5
			C45.6,43.5,45.6,43.5,45.6,43.5z"/>
	</g>
	<g>
		<path d="M46.2,42.3c-0.2,0-0.3-0.1-0.4-0.2c-0.1-0.2-0.1-0.5,0.2-0.7c0,0,0.1-0.1,0.1-0.1c0.2-0.1,0.6-0.1,0.7,0.1
			c0.1,0.2,0.1,0.5-0.1,0.7l-0.3-0.4l0.2,0.5C46.4,42.3,46.3,42.3,46.2,42.3z"/>
	</g>
	<g>
		<path d="M47.2,40.4H47c-0.3,0-0.5-0.2-0.5-0.5s0.2-0.5,0.5-0.5h0.1c0.3,0,0.5,0.2,0.5,0.5S47.5,40.4,47.2,40.4z"/>
	</g>
	<g>
		<path d="M42.2,44.2H42c-0.3,0-0.5-0.2-0.5-0.5s0.2-0.5,0.5-0.5h0.2c0.3,0,0.5,0.2,0.5,0.5C42.7,44,42.5,44.2,42.2,44.2z"/>
	</g>
	<g>
		<path d="M50.2,41C50.1,41,50.1,41,50.2,41l-0.3-0.1c-0.3-0.1-0.4-0.3-0.4-0.6c0.1-0.3,0.3-0.4,0.6-0.4l0.2,0
			c0.3,0.1,0.4,0.3,0.4,0.6C50.6,40.8,50.4,41,50.2,41z"/>
	</g>
	<g>
		<path d="M49.9,42.8h-0.3c-0.3,0-0.5-0.2-0.5-0.5s0.2-0.5,0.5-0.5h0.3c0.3,0,0.5,0.2,0.5,0.5C50.4,42.6,50.2,42.8,49.9,42.8z"/>
	</g>
	<g>
		<path d="M53.5,39.9c0,0-0.1,0-0.1,0l-0.2,0c-0.3-0.1-0.5-0.3-0.4-0.6c0.1-0.3,0.3-0.4,0.6-0.4l0.1,0l0.1,0
			c0.3,0.1,0.4,0.3,0.4,0.6C53.9,39.8,53.7,39.9,53.5,39.9z"/>
	</g>
	<g>
		<path d="M53.5,41.8c-0.2,0-0.4-0.2-0.5-0.4c-0.1-0.3,0.1-0.5,0.4-0.6l0.2,0c0.3-0.1,0.5,0.1,0.6,0.4s-0.1,0.5-0.4,0.6L53.5,41.8
			C53.6,41.8,53.5,41.8,53.5,41.8z"/>
	</g>
	<g>
		<path d="M56.1,39.5c-0.3,0-0.5-0.2-0.5-0.5s0.2-0.5,0.5-0.5h0.1c0.3,0,0.5,0.2,0.5,0.5C56.6,39.3,56.3,39.5,56.1,39.5z"/>
	</g>
	<g>
		<path d="M58.2,39.6H58c-0.3,0-0.5-0.2-0.5-0.5s0.2-0.5,0.5-0.5h0.2c0.3,0,0.5,0.2,0.5,0.5S58.5,39.6,58.2,39.6z"/>
	</g>
	<g>
		<path d="M61.1,38.5c-0.1,0-0.2,0-0.2-0.1l-0.1-0.1c-0.2-0.2-0.3-0.5-0.1-0.7c0.2-0.2,0.5-0.3,0.7-0.1c0,0,0.1,0.1,0.1,0.1
			c0.2,0.2,0.3,0.5,0.2,0.7C61.4,38.4,61.3,38.5,61.1,38.5z"/>
	</g>
	<g>
		<path d="M62.4,40.1c-0.3,0-0.5-0.2-0.5-0.5s0.2-0.5,0.5-0.5s0.5,0.2,0.5,0.5v0C62.9,39.8,62.7,40.1,62.4,40.1z"/>
	</g>
	<g>
		<path d="M56.6,41.2h-0.2c-0.3,0-0.5-0.2-0.5-0.5s0.2-0.5,0.5-0.5h0.2c0.3,0,0.5,0.2,0.5,0.5S56.9,41.2,56.6,41.2z"/>
	</g>
	<g>
		<path d="M60,40.6c-0.1,0-0.1,0-0.2,0l-0.1,0c-0.3-0.1-0.4-0.4-0.3-0.7c0.1-0.3,0.4-0.4,0.7-0.3c0,0,0.1,0,0.1,0
			c0.3,0.1,0.4,0.4,0.3,0.7C60.4,40.4,60.2,40.6,60,40.6z"/>
	</g>
</g>
</svg>
