<?xml version="1.0" encoding="utf-8"?>
<!-- Generator: Adobe Illustrator 23.1.0, SVG Export Plug-In . SVG Version: 6.00 Build 0)  -->
<svg version="1.1" id="Слой_1" xmlns="http://www.w3.org/2000/svg" xmlns:xlink="http://www.w3.org/1999/xlink" x="0px" y="0px"
	 viewBox="0 0 65 81.3" style="enable-background:new 0 0 65 81.3;" xml:space="preserve">
<g>
	<g>
		<g>
			<path d="M49.2,28.3l3.3-3.3c0.1-0.1,0.3-0.1,0.4,0s0.1,0.3,0,0.4l-3.3,3.3C49.3,28.9,49,28.6,49.2,28.3z"/>
		</g>
		<g>
			<path d="M53,28.3l-2.5-2.5c-0.1-0.1-0.1-0.3,0-0.4c0.1-0.1,0.3-0.1,0.4,0l2.5,2.5c0.1,0.1,0.1,0.3,0,0.4
				C53.2,28.4,53.1,28.4,53,28.3z"/>
		</g>
		<g>
			<path d="M51.3,29c-0.2,0-2.8-2.7-2.9-2.8c-0.1-0.1-0.1-0.3,0-0.4c0.1-0.1,0.3-0.1,0.4,0l2.8,2.8C51.6,28.7,51.5,29,51.3,29z"/>
		</g>
		<g>
			<path d="M36.5,29.1l1.8-1.8c0.1-0.1,0.3-0.1,0.4,0c0.1,0.1,0.1,0.3,0,0.4l-1.8,1.8C36.7,29.6,36.3,29.3,36.5,29.1z"/>
		</g>
		<g>
			<path d="M41.9,14.4c-0.1-0.1-0.1-0.3,0-0.4l1.5-1.5c0.1-0.1,0.3-0.1,0.4,0c0.1,0.1,0.1,0.3,0,0.4l-1.5,1.5
				C42.2,14.5,42,14.5,41.9,14.4z"/>
		</g>
		<g>
			<path d="M38.9,23.4c-0.1-0.1-0.1-0.3,0-0.4l2-2c0.1-0.1,0.3-0.1,0.4,0c0.1,0.1,0.1,0.3,0,0.4l-2,2C39.2,23.5,39,23.5,38.9,23.4z"
				/>
		</g>
		<g>
			<path d="M43.7,11.8c-0.1-0.1-0.1-0.3,0-0.4l2.1-2.1c0.1-0.1,0.3-0.1,0.4,0s0.1,0.3,0,0.4L44,11.8C43.9,11.9,43.8,11.9,43.7,11.8z
				"/>
		</g>
		<g>
			<path d="M42.1,16.7c-0.1-0.1-0.1-0.3,0-0.4l2.5-2.5c0.1-0.1,0.3-0.1,0.4,0s0.1,0.3,0,0.4l-2.5,2.5C42.4,16.8,42.2,16.8,42.1,16.7
				z"/>
		</g>
		<g>
			<path d="M40.2,21c-0.1-0.1-0.1-0.3,0-0.4l3.1-3.1c0.1-0.1,0.3-0.1,0.4,0s0.1,0.3,0,0.4L40.5,21C40.4,21.1,40.3,21.1,40.2,21z"/>
		</g>
		<g>
			<path d="M37.6,26.8c-0.1-0.1-0.1-0.3,0-0.4l4.2-4.2c0.1-0.1,0.3-0.1,0.4,0s0.1,0.3,0,0.4l-4.2,4.2C37.8,26.9,37.7,26.9,37.6,26.8
				z"/>
		</g>
		<g>
			<path d="M36.1,32.2c-0.1,0-0.1,0-0.2-0.1c-0.1-0.1-0.1-0.3,0-0.4l3.9-3.9c0.1-0.1,0.3-0.1,0.4,0s0.1,0.3,0,0.4l-3.9,3.9
				C36.3,32.1,36.2,32.2,36.1,32.2z"/>
		</g>
		<g>
			<path d="M37,31.7l-1.2-1.2c-0.1-0.1-0.1-0.3,0-0.4s0.3-0.1,0.4,0l1.2,1.2c0.1,0.1,0.1,0.3,0,0.4C37.3,31.8,37.1,31.8,37,31.7z"/>
		</g>
		<g>
			<path d="M38.4,29.2l-1.9-1.9c-0.1-0.1-0.1-0.3,0-0.4c0.1-0.1,0.3-0.1,0.4,0l1.9,1.9c0.1,0.1,0.1,0.3,0,0.4
				C38.7,29.2,38.5,29.2,38.4,29.2z"/>
		</g>
		<g>
			<path d="M40,25.7L38,23.8c-0.1-0.1-0.1-0.3,0-0.4s0.3-0.1,0.4,0l1.9,1.9c0.1,0.1,0.1,0.3,0,0.4C40.2,25.8,40.1,25.8,40,25.7z"/>
		</g>
		<g>
			<path d="M41.3,23c-0.1,0-0.1,0-0.2-0.1L39,20.9c-0.1-0.1-0.1-0.3,0-0.4c0.1-0.1,0.3-0.1,0.4,0l2.1,2.1c0.1,0.1,0.1,0.3,0,0.4
				C41.4,23,41.3,23,41.3,23z"/>
		</g>
		<g>
			<path d="M42.2,19.7l-2-2c-0.1-0.1-0.1-0.3,0-0.4s0.3-0.1,0.4,0l2,2c0.1,0.1,0.1,0.3,0,0.4C42.4,19.8,42.3,19.8,42.2,19.7z"/>
		</g>
		<g>
			<path d="M43.8,16.4l-2.1-2.1c-0.1-0.1-0.1-0.3,0-0.4c0.1-0.1,0.3-0.1,0.4,0l2.1,2.1c0.1,0.1,0.1,0.3,0,0.4
				C44.1,16.5,43.9,16.5,43.8,16.4z"/>
		</g>
		<g>
			<path d="M45,13.3L42.7,11c-0.1-0.1-0.1-0.3,0-0.4c0.1-0.1,0.3-0.1,0.4,0l2.3,2.3c0.1,0.1,0.1,0.3,0,0.4
				C45.3,13.4,45.1,13.4,45,13.3z"/>
		</g>
		<g>
			<path d="M46,10.6l-2.5-2.5c-0.1-0.1-0.1-0.3,0-0.4c0.1-0.1,0.3-0.1,0.4,0l2.5,2.5c0.1,0.1,0.1,0.3,0,0.4
				C46.3,10.7,46.1,10.7,46,10.6z"/>
		</g>
		<g>
			<path d="M54.1,56l1.1-1.1c0.1-0.1,0.3-0.1,0.4,0s0.1,0.3,0,0.4l-1.1,1.1C54.2,56.6,53.9,56.2,54.1,56z"/>
		</g>
		<g>
			<path d="M53.7,59.3c-0.1,0-0.1,0-0.2-0.1c-0.1-0.1-0.1-0.3,0-0.4l1.8-1.8c0.1-0.1,0.3-0.1,0.4,0s0.1,0.3,0,0.4l-1.8,1.8
				C53.8,59.2,53.7,59.3,53.7,59.3z"/>
		</g>
		<g>
			<path d="M50.5,59.7c-0.1-0.1-0.1-0.3,0-0.4l2-2c0.2-0.2,0.6,0.1,0.4,0.4l-2,2C50.8,59.8,50.6,59.8,50.5,59.7z"/>
		</g>
		<g>
			<path d="M50,62.8l3.1-3.1c0.1-0.1,0.3-0.1,0.4,0s0.1,0.3,0,0.4l-3.1,3.1C50.1,63.4,49.8,63.1,50,62.8z"/>
		</g>
		<g>
			<path d="M46,63.6l4-4c0.1-0.1,0.3-0.1,0.4,0s0.1,0.3,0,0.4l-4,4C46.1,64.2,45.7,63.9,46,63.6z"/>
		</g>
		<g>
			<path d="M43.1,63.3l2.8-2.8c0.1-0.1,0.3-0.1,0.4,0s0.1,0.3,0,0.4l-2.8,2.8C43.2,63.9,42.9,63.5,43.1,63.3z"/>
		</g>
		<g>
			<path d="M45.4,63.2c-0.1,0-0.1,0-0.2-0.1l-1.3-1.3c-0.1-0.1-0.1-0.3,0-0.4c0.1-0.1,0.3-0.1,0.4,0l1.3,1.3
				C45.7,62.9,45.6,63.2,45.4,63.2z"/>
		</g>
		<g>
			<path d="M47.4,63.3l-2-2c-0.1-0.1-0.1-0.3,0-0.4s0.3-0.1,0.4,0l2,2c0.1,0.1,0.1,0.3,0,0.4C47.7,63.4,47.5,63.4,47.4,63.3z"/>
		</g>
		<g>
			<path d="M49.5,62.8c-0.2,0-2.3-2.2-2.4-2.3c-0.1-0.1-0.1-0.3,0-0.4s0.3-0.1,0.4,0l2.3,2.3c0.1,0.1,0.1,0.3,0,0.4
				C49.6,62.7,49.6,62.8,49.5,62.8z"/>
		</g>
		<g>
			<path d="M51.6,62.4l-2.8-2.8c-0.1-0.1-0.1-0.3,0-0.4s0.3-0.1,0.4,0l2.8,2.8C52.2,62.2,51.8,62.6,51.6,62.4z"/>
		</g>
		<g>
			<path d="M56.7,55.3L55,53.5c-0.1-0.1-0.1-0.3,0-0.4s0.3-0.1,0.4,0l1.7,1.7c0.1,0.1,0.1,0.3,0,0.4C57,55.4,56.8,55.4,56.7,55.3z"
				/>
		</g>
		<g>
			<path d="M56.2,57c-0.1,0-0.1,0-0.2-0.1L54.1,55c-0.1-0.1-0.1-0.3,0-0.4s0.3-0.1,0.4,0l1.9,1.9c0.1,0.1,0.1,0.3,0,0.4
				C56.3,57,56.3,57,56.2,57z"/>
		</g>
		<g>
			<path d="M55.9,59.2c-0.2,0-2.9-2.8-3-2.9c-0.1-0.1-0.1-0.3,0-0.4s0.3-0.1,0.4,0l2.8,2.8C56.2,58.9,56.1,59.2,55.9,59.2z"/>
		</g>
		<g>
			<path d="M54.8,60.6l-3.3-3.3c-0.1-0.1-0.1-0.3,0-0.4s0.3-0.1,0.4,0l3.3,3.3c0.1,0.1,0.1,0.3,0,0.4C55.1,60.7,54.9,60.7,54.8,60.6
				z"/>
		</g>
		<g>
			<path d="M53.8,61.8l-3.5-3.5c-0.1-0.1-0.1-0.3,0-0.4s0.3-0.1,0.4,0l3.5,3.5c0.1,0.1,0.1,0.3,0,0.4C54.1,61.9,53.9,61.9,53.8,61.8
				z"/>
		</g>
		<g>
			<path d="M38.6,46.3C38.6,46.3,38.6,46.3,38.6,46.3l-1.2,0c-0.1,0-0.2-0.1-0.2-0.3c0-0.1,0.1-0.2,0.3-0.2l1.2,0
				c0.1,0,0.2,0.1,0.2,0.3C38.9,46.2,38.7,46.3,38.6,46.3z"/>
		</g>
		<g>
			<path d="M38.7,44C38.7,44,38.7,44,38.7,44l-1.3-0.1c-0.1,0-0.2-0.1-0.2-0.3c0-0.1,0.1-0.2,0.3-0.2l1.3,0.1c0.1,0,0.2,0.1,0.2,0.3
				C38.9,43.9,38.8,44,38.7,44z"/>
		</g>
		<g>
			<path d="M38.9,41.6C38.9,41.6,38.9,41.6,38.9,41.6l-1.4-0.1c-0.1,0-0.2-0.1-0.2-0.3c0-0.1,0.1-0.2,0.3-0.2l1.4,0.1
				c0.1,0,0.2,0.1,0.2,0.3C39.2,41.5,39.1,41.6,38.9,41.6z"/>
		</g>
		<g>
			<path d="M39.3,38.8C39.3,38.8,39.3,38.8,39.3,38.8l-1.9-0.1c-0.1,0-0.2-0.1-0.2-0.3c0-0.1,0.1-0.2,0.3-0.2l1.9,0.1
				c0.1,0,0.2,0.1,0.2,0.3C39.5,38.7,39.4,38.8,39.3,38.8z"/>
		</g>
		<g>
			<path d="M38,48.3c-0.1,0-0.2-0.1-0.3-0.2c-0.2-3.7,0-7.4,0.5-11c0-0.1,0.1-0.2,0.3-0.2c0.1,0,0.2,0.1,0.2,0.3
				c-0.5,3.6-0.7,7.3-0.5,10.9C38.3,48.2,38.2,48.3,38,48.3C38,48.3,38,48.3,38,48.3z"/>
		</g>
		<g>
			<g>
				<path d="M44.5,52.4c-3,0-6.1-0.4-9-1.3c-0.3-0.1-0.4-0.4-0.3-0.6c0.1-0.3,0.3-0.4,0.6-0.3c6.8,1.9,14.1,1.5,20.7-1.1
					c0.3-0.1,0.5,0,0.7,0.3c0.1,0.3,0,0.5-0.3,0.7C52.9,51.6,48.7,52.4,44.5,52.4z"/>
			</g>
			<g>
				<path d="M45.8,34.7c-3.5,0-7-0.4-10.4-1.3C35.1,33.3,35,33,35,32.7c0.1-0.3,0.3-0.4,0.6-0.4c6.7,1.8,13.8,1.7,20.5-0.1
					c0.3-0.1,0.5,0.1,0.6,0.4c0.1,0.3-0.1,0.5-0.4,0.6C52.9,34.2,49.3,34.7,45.8,34.7z"/>
			</g>
			<g>
				<g>
					<path d="M47.1,8.6c-0.4,0-0.7-0.2-1-0.4C46,8.1,45.8,8,45.7,8c-0.2,0-0.3,0.1-0.5,0.2c-0.3,0.2-0.6,0.4-1,0.4c0,0-0.1,0-0.2,0
						c-0.4,0-0.6-0.3-0.8-0.4C43.2,8,43.1,7.9,43,7.9c-0.1,0-0.2,0.1-0.3,0.1c-0.2,0.1-0.4,0.2-0.7,0.2c-0.2,0-0.7-0.1-0.9-0.7
						c-0.3-1-0.1-3.5,1.2-4.7c1.4-1.3,5-1.4,6.2-0.9c1.3,0.5,2.1,1.7,2.6,3.7c0.1,0.4,0.2,0.8,0.1,1.3c-0.1,0.6-0.5,1-1,1.2
						c-0.4,0.1-0.8,0-1.1-0.1c-0.2-0.1-0.3-0.1-0.5-0.1c-0.2,0-0.3,0.2-0.5,0.3C47.9,8.3,47.5,8.6,47.1,8.6z M45.7,7
						c0,0,0.1,0,0.1,0c0.4,0,0.6,0.3,0.8,0.4c0.1,0.1,0.3,0.2,0.3,0.2c0.1,0,0.2-0.1,0.4-0.3c0.2-0.2,0.4-0.4,0.8-0.5
						c0.4-0.1,0.8,0,1.2,0.1c0.2,0.1,0.4,0.1,0.5,0.1c0.2,0,0.3-0.2,0.4-0.4c0-0.3,0-0.6-0.1-0.9c-0.4-1.7-1-2.6-2-3
						c-1-0.4-4.1-0.2-5.1,0.7c-0.9,0.8-1.1,2.8-0.9,3.7c0.1,0,0.1,0,0.2-0.1C42.5,7,42.8,6.9,43,6.9c0.4,0,0.7,0.2,1,0.4
						c0.1,0.1,0.3,0.2,0.3,0.2c0,0,0,0,0,0c0.1,0,0.3-0.1,0.5-0.2C45,7.2,45.3,7,45.7,7z"/>
				</g>
				<g>
					<path d="M46.2,64.6L46.2,64.6c-4.4,0-8.2-1.5-9.8-3.9c-1.6-2.2-1.6-5.1-1.6-7.4c0-2.2-0.1-4.1-0.1-5.9
						C34.6,35.4,34.5,31,36,26.1c0.8-2.4,1.9-4.8,3.1-7.1c1.9-3.9,3.7-7.5,3.8-11.5c0-0.3,0.2-0.5,0.5-0.5c0,0,0,0,0,0
						c0.3,0,0.5,0.2,0.5,0.5c0,4.3-2,8.2-3.9,12c-1.1,2.2-2.3,4.6-3,6.9c-1.5,4.7-1.4,9.1-1.2,20.9c0,1.8,0.1,3.8,0.1,5.9
						c0,2.2,0,4.8,1.4,6.8c3.1,4.5,14.6,4.8,17.9,0c1.4-2,1.4-4.7,1.4-6.8c0-2.5,0.1-4.7,0.1-6.7c0.2-11.3,0.2-15.5-1.3-20.2
						c-0.7-2.4-1.9-4.7-3-6.9c-1.9-3.8-3.8-7.7-3.9-12C48.5,7.2,48.7,7,49,7c0,0,0,0,0,0c0.3,0,0.5,0.2,0.5,0.5
						c0,4,1.8,7.7,3.8,11.5c1.1,2.3,2.3,4.6,3.1,7.1c1.5,4.8,1.5,9.1,1.3,20.5c0,2-0.1,4.2-0.1,6.7c0,2.3-0.1,5.2-1.6,7.4
						C54.2,63.1,50.5,64.6,46.2,64.6z"/>
				</g>
			</g>
		</g>
	</g>
	<g>
		<g>
			<path d="M12.1,54.5c-0.3,0-0.7,0-1-0.1c-0.1,0-0.2-0.1-0.2-0.3c0-0.1,0.1-0.2,0.3-0.2c0.8,0.1,1.5,0.1,2.3,0
				c0.1,0,0.3,0.1,0.3,0.2c0,0.1-0.1,0.3-0.2,0.3C13,54.5,12.5,54.5,12.1,54.5z"/>
		</g>
		<g>
			<path d="M11.4,52.2c-0.1,0-0.2-0.1-0.3-0.2c0-0.1,0.1-0.3,0.2-0.3l1.6,0c0.1,0,0.3,0.1,0.3,0.2c0,0.1-0.1,0.3-0.2,0.3L11.4,52.2
				C11.4,52.2,11.4,52.2,11.4,52.2z"/>
		</g>
		<g>
			<path d="M11.1,49.9c-0.1,0-0.2-0.1-0.3-0.2c0-0.1,0.1-0.3,0.2-0.3l1.6-0.1c0,0,0,0,0,0c0.1,0,0.2,0.1,0.3,0.2
				c0,0.1-0.1,0.3-0.2,0.3L11.1,49.9C11.1,49.9,11.1,49.9,11.1,49.9z"/>
		</g>
		<g>
			<path d="M10.9,47c-0.1,0-0.2-0.1-0.3-0.2c0-0.1,0.1-0.3,0.2-0.3l1.6-0.1c0.1,0,0.3,0.1,0.3,0.2c0,0.1-0.1,0.3-0.2,0.3L10.9,47
				C10.9,47,10.9,47,10.9,47z"/>
		</g>
		<g>
			<path d="M11.8,56.4C11.7,56.4,11.7,56.4,11.8,56.4c-0.1,0-0.3-0.1-0.3-0.3l0.2-10.9c0-0.1,0.1-0.2,0.3-0.2c0,0,0,0,0,0
				c0.1,0,0.2,0.1,0.2,0.3L12,56.1C12,56.3,11.9,56.4,11.8,56.4z"/>
		</g>
		<g>
			<path d="M22.1,23.5L20.6,22c-0.2-0.2,0.1-0.6,0.4-0.4l1.5,1.5c0.1,0.1,0.1,0.3,0,0.4C22.4,23.6,22.2,23.6,22.1,23.5z"/>
		</g>
		<g>
			<path d="M23.1,18.7l-1.5-1.5c-0.1-0.1-0.1-0.3,0-0.4s0.3-0.1,0.4,0l1.5,1.5c0.1,0.1,0.1,0.3,0,0.4C23.4,18.8,23.2,18.8,23.1,18.7
				z"/>
		</g>
		<g>
			<path d="M23.2,21.1L21,18.9c-0.1-0.1-0.1-0.3,0-0.4s0.3-0.1,0.4,0l2.2,2.2c0.1,0.1,0.1,0.3,0,0.4C23.4,21.2,23.3,21.2,23.2,21.1z
				"/>
		</g>
		<g>
			<path d="M20.9,22.8c-0.1-0.1-0.1-0.3,0-0.4l2.9-2.9c0.1-0.1,0.3-0.1,0.4,0s0.1,0.3,0,0.4l-2.9,2.9C21.1,22.9,21,22.9,20.9,22.8z"
				/>
		</g>
		<g>
			<path d="M20.1,20.9c-0.1-0.1-0.1-0.3,0-0.4l3-3c0.1-0.1,0.3-0.1,0.4,0s0.1,0.3,0,0.4l-3,3C20.3,21,20.2,21,20.1,20.9z"/>
		</g>
		<g>
			<path d="M21.4,8.4c-0.1-0.1-0.1-0.3,0-0.4l1.2-1.2c0.1-0.1,0.3-0.1,0.4,0s0.1,0.3,0,0.4l-1.2,1.2C21.7,8.5,21.5,8.5,21.4,8.4z"/>
		</g>
		<g>
			<path d="M19.4,8.6c-0.1-0.1-0.1-0.3,0-0.4l2.1-2.1c0.1-0.1,0.3-0.1,0.4,0s0.1,0.3,0,0.4l-2.1,2.1C19.6,8.7,19.5,8.7,19.4,8.6z"/>
		</g>
		<g>
			<path d="M16.8,8.4c-0.1-0.1-0.1-0.3,0-0.4L18,6.9c0.1-0.1,0.3-0.1,0.4,0c0.1,0.1,0.1,0.3,0,0.4l-1.2,1.2
				C17.1,8.5,16.9,8.5,16.8,8.4z"/>
		</g>
		<g>
			<path d="M15.4,11.7c-0.1-0.1-0.1-0.3,0-0.4l2.4-2.4c0.1-0.1,0.3-0.1,0.4,0s0.1,0.3,0,0.4l-2.4,2.4C15.7,11.8,15.5,11.8,15.4,11.7
				z"/>
		</g>
		<g>
			<path d="M13.4,15.4c-0.1-0.1-0.1-0.3,0-0.4l2.2-2.2c0.1-0.1,0.3-0.1,0.4,0s0.1,0.3,0,0.4l-2.2,2.2C13.6,15.5,13.5,15.5,13.4,15.4
				z"/>
		</g>
		<g>
			<path d="M10.4,20.5c-0.1-0.1-0.1-0.3,0-0.4l3-3c0.2-0.2,0.6,0.1,0.4,0.4l-3,3C10.6,20.6,10.5,20.6,10.4,20.5z"/>
		</g>
		<g>
			<path d="M9.1,24.5c-0.1-0.1-0.1-0.3,0-0.4l2.4-2.4c0.1-0.1,0.3-0.1,0.4,0c0.1,0.1,0.1,0.3,0,0.4l-2.4,2.4
				C9.3,24.6,9.2,24.6,9.1,24.5z"/>
		</g>
		<g>
			<path d="M10.5,23.2l-1.2-1.2c-0.1-0.1-0.1-0.3,0-0.4c0.1-0.1,0.3-0.1,0.4,0l1.2,1.2c0.1,0.1,0.1,0.3,0,0.4
				C10.8,23.3,10.6,23.3,10.5,23.2z"/>
		</g>
		<g>
			<path d="M11.1,21.2l-1.4-1.4c-0.1-0.1-0.1-0.3,0-0.4s0.3-0.1,0.4,0l1.4,1.4c0.1,0.1,0.1,0.3,0,0.4C11.4,21.3,11.2,21.3,11.1,21.2
				z"/>
		</g>
		<g>
			<path d="M12.1,18.8l-1.4-1.4c-0.1-0.1-0.1-0.3,0-0.4s0.3-0.1,0.4,0l1.4,1.4c0.1,0.1,0.1,0.3,0,0.4C12.4,18.9,12.2,18.9,12.1,18.8
				z"/>
		</g>
		<g>
			<path d="M13.6,17L12,15.4c-0.1-0.1-0.1-0.3,0-0.4c0.1-0.1,0.3-0.1,0.4,0l1.6,1.6c0.1,0.1,0.1,0.3,0,0.4
				C13.9,17.1,13.7,17.1,13.6,17z"/>
		</g>
		<g>
			<path d="M14.6,15.3l-1.5-1.5c-0.2-0.2,0.1-0.6,0.4-0.4L15,15c0.1,0.1,0.1,0.3,0,0.4C14.9,15.4,14.7,15.4,14.6,15.3z"/>
		</g>
		<g>
			<path d="M16,13.7l-1.5-1.5c-0.1-0.1-0.1-0.3,0-0.4c0.1-0.1,0.3-0.1,0.4,0l1.5,1.5c0.1,0.1,0.1,0.3,0,0.4
				C16.3,13.8,16.1,13.8,16,13.7z"/>
		</g>
		<g>
			<path d="M17.3,12l-1.9-1.9c-0.1-0.1-0.1-0.3,0-0.4c0.1-0.1,0.3-0.1,0.4,0l1.9,1.9c0.1,0.1,0.1,0.3,0,0.4
				C17.5,12.1,17.4,12.1,17.3,12z"/>
		</g>
		<g>
			<path d="M21.4,8.5l-1.5-1.5c-0.1-0.1-0.1-0.3,0-0.4c0.1-0.1,0.3-0.1,0.4,0l1.5,1.5c0.1,0.1,0.1,0.3,0,0.4
				C21.6,8.6,21.5,8.6,21.4,8.5z"/>
		</g>
		<g>
			<path d="M19.2,8.6l-1.7-1.7c-0.1-0.1-0.1-0.3,0-0.4c0.1-0.1,0.3-0.1,0.4,0l1.7,1.7c0.1,0.1,0.1,0.3,0,0.4
				C19.4,8.7,19.3,8.7,19.2,8.6z"/>
		</g>
		<g>
			<path d="M18,9.5l-2.1-2.1c-0.1-0.1-0.1-0.3,0-0.4s0.3-0.1,0.4,0l2.1,2.1C18.6,9.4,18.2,9.7,18,9.5z"/>
		</g>
		<g>
			<path d="M23.9,55c-0.1-0.1-0.1-0.3,0-0.4l1.8-1.8c0.1-0.1,0.3-0.1,0.4,0s0.1,0.3,0,0.4L24.3,55C24.2,55.1,24,55.1,23.9,55z"/>
		</g>
		<g>
			<path d="M30,41.6c-0.1-0.1-0.1-0.3,0-0.4l0.9-0.9c0.1-0.1,0.3-0.1,0.4,0c0.1,0.1,0.1,0.3,0,0.4l-0.9,0.9
				C30.2,41.7,30.1,41.7,30,41.6z"/>
		</g>
		<g>
			<path d="M29.4,43.7c-0.1-0.1-0.1-0.3,0-0.4l1.2-1.2c0.1-0.1,0.3-0.1,0.4,0c0.1,0.1,0.1,0.3,0,0.4l-1.2,1.2
				C29.6,43.8,29.5,43.8,29.4,43.7z"/>
		</g>
		<g>
			<path d="M29,46.8c-0.1,0-0.1,0-0.2-0.1c-0.1-0.1-0.1-0.3,0-0.4l2-2c0.1-0.1,0.3-0.1,0.4,0s0.1,0.3,0,0.4l-2,2
				C29.1,46.8,29,46.8,29,46.8z"/>
		</g>
		<g>
			<path d="M28,49.6l2.7-2.7c0.1-0.1,0.3-0.1,0.4,0s0.1,0.3,0,0.4L28.4,50C28.1,50.2,27.8,49.9,28,49.6z"/>
		</g>
		<g>
			<path d="M25.5,54.7c-0.1-0.1-0.1-0.3,0-0.4l3.3-3.3c0.1-0.1,0.3-0.1,0.4,0c0.1,0.1,0.1,0.3,0,0.4l-3.3,3.3
				C25.8,54.8,25.6,54.8,25.5,54.7z"/>
		</g>
		<g>
			<path d="M26.8,60.4c-0.1-0.1-0.1-0.3,0-0.4l2.1-2.1c0.1-0.1,0.3-0.1,0.4,0s0.1,0.3,0,0.4l-2.1,2.1C27.1,60.5,26.9,60.5,26.8,60.4
				z"/>
		</g>
		<g>
			<path d="M24.3,60.9c-0.1-0.1-0.1-0.3,0-0.4l4.7-4.7c0.2-0.2,0.6,0.1,0.4,0.4l-4.7,4.7C24.6,61,24.4,61,24.3,60.9z"/>
		</g>
		<g>
			<path d="M19.2,63.5c-0.1-0.1-0.1-0.3,0-0.4l7.7-7.7c0.1-0.1,0.3-0.1,0.4,0s0.1,0.3,0,0.4l-7.7,7.7C19.4,63.6,19.3,63.6,19.2,63.5
				z"/>
		</g>
		<g>
			<path d="M16.8,63.4c-0.1-0.1-0.1-0.3,0-0.4l6.8-6.8c0.1-0.1,0.3-0.1,0.4,0s0.1,0.3,0,0.4l-6.8,6.8C17,63.5,16.9,63.5,16.8,63.4z"
				/>
		</g>
		<g>
			<path d="M14.7,63.1c-0.1,0-0.1,0-0.2-0.1c-0.1-0.1-0.1-0.3,0-0.4l6-6c0.1-0.1,0.3-0.1,0.4,0s0.1,0.3,0,0.4l-6,6
				C14.8,63.1,14.8,63.1,14.7,63.1z"/>
		</g>
		<g>
			<path d="M12.8,62l2.4-2.4c0.1-0.1,0.3-0.1,0.4,0c0.1,0.1,0.1,0.3,0,0.4l-2.4,2.4C12.9,62.6,12.5,62.2,12.8,62z"/>
		</g>
		<g>
			<path d="M13.9,62.5l-1.4-1.4c-0.1-0.1-0.1-0.3,0-0.4s0.3-0.1,0.4,0l1.4,1.4c0.1,0.1,0.1,0.3,0,0.4C14.1,62.6,14,62.6,13.9,62.5z"
				/>
		</g>
		<g>
			<path d="M15.9,62.9l-2.2-2.2c-0.1-0.1-0.1-0.3,0-0.4s0.3-0.1,0.4,0l2.2,2.2c0.1,0.1,0.1,0.3,0,0.4C16.2,63,16,63,15.9,62.9z"/>
		</g>
		<g>
			<path d="M19.2,63.5l-3.7-3.7c-0.1-0.1-0.1-0.3,0-0.4s0.3-0.1,0.4,0l3.7,3.7c0.1,0.1,0.1,0.3,0,0.4C19.5,63.6,19.3,63.6,19.2,63.5
				z"/>
		</g>
		<g>
			<path d="M21.9,63.2l-4.4-4.4c-0.1-0.1-0.1-0.3,0-0.4s0.3-0.1,0.4,0l4.4,4.4c0.1,0.1,0.1,0.3,0,0.4C22.1,63.3,22,63.3,21.9,63.2z"
				/>
		</g>
		<g>
			<path d="M24,62.6l-4.7-4.7c-0.1-0.1-0.1-0.3,0-0.4s0.3-0.1,0.4,0l4.7,4.7c0.1,0.1,0.1,0.3,0,0.4C24.2,62.7,24.1,62.7,24,62.6z"/>
		</g>
		<g>
			<path d="M26.3,61.5l-5.1-5.1c-0.1-0.1-0.1-0.3,0-0.4s0.3-0.1,0.4,0l5.1,5.1c0.1,0.1,0.1,0.3,0,0.4C26.6,61.6,26.4,61.6,26.3,61.5
				z"/>
		</g>
		<g>
			<path d="M30.6,43.6l-0.9-0.9c-0.1-0.1-0.1-0.3,0-0.4s0.3-0.1,0.4,0l0.9,0.9c0.1,0.1,0.1,0.3,0,0.4C30.9,43.7,30.7,43.7,30.6,43.6
				z"/>
		</g>
		<g>
			<path d="M30.8,45.6l-1.3-1.3c-0.2-0.2,0.1-0.6,0.4-0.4l1.3,1.3c0.1,0.1,0.1,0.3,0,0.4C31,45.7,30.9,45.7,30.8,45.6z"/>
		</g>
		<g>
			<path d="M30.6,47.4l-1.8-1.8c-0.1-0.1-0.1-0.3,0-0.4c0.1-0.1,0.3-0.1,0.4,0l1.8,1.8c0.1,0.1,0.1,0.3,0,0.4
				C30.9,47.5,30.7,47.5,30.6,47.4z"/>
		</g>
		<g>
			<path d="M30.5,49.3L28.2,47c-0.1-0.1-0.1-0.3,0-0.4s0.3-0.1,0.4,0l2.3,2.3c0.1,0.1,0.1,0.3,0,0.4C30.8,49.4,30.6,49.4,30.5,49.3z
				"/>
		</g>
		<g>
			<path d="M30.3,51.1l-2.8-2.8c-0.1-0.1-0.1-0.3,0-0.4s0.3-0.1,0.4,0l2.8,2.8c0.1,0.1,0.1,0.3,0,0.4C30.5,51.2,30.4,51.2,30.3,51.1
				z"/>
		</g>
		<g>
			<path d="M30.6,53.8l-3.9-3.9c-0.1-0.1-0.1-0.3,0-0.4s0.3-0.1,0.4,0l3.9,3.9c0.1,0.1,0.1,0.3,0,0.4C30.9,53.9,30.7,53.9,30.6,53.8
				z"/>
		</g>
		<g>
			<path d="M30.2,55.5L26,51.3c-0.1-0.1-0.1-0.3,0-0.4s0.3-0.1,0.4,0l4.2,4.2c0.1,0.1,0.1,0.3,0,0.4C30.5,55.6,30.3,55.6,30.2,55.5z
				"/>
		</g>
		<g>
			<path d="M30,57.4l-4.8-4.8c-0.1-0.1-0.1-0.3,0-0.4s0.3-0.1,0.4,0l4.8,4.8c0.1,0.1,0.1,0.3,0,0.4C30.3,57.5,30.1,57.5,30,57.4z"/>
		</g>
		<g>
			<path d="M29.1,59.1L24.1,54c-0.1-0.1-0.1-0.3,0-0.4s0.3-0.1,0.4,0l5.1,5.1c0.1,0.1,0.1,0.3,0,0.4C29.4,59.2,29.2,59.2,29.1,59.1z
				"/>
		</g>
		<g>
			<path d="M27.9,60.4l-5-5c-0.1-0.1-0.1-0.3,0-0.4s0.3-0.1,0.4,0l5,5C28.5,60.3,28.2,60.6,27.9,60.4z"/>
		</g>
		<g>
			<path d="M14.8,7.7c-0.1,0-0.2,0-0.3-0.1c-0.1-0.1-0.2-0.2-0.2-0.4C14.2,5.6,14,3.8,14,2.1c0-0.2,0.1-0.3,0.3-0.4
				c3.1-1.7,7-1.7,10.1,0.2c0.2,0.1,0.3,0.3,0.2,0.5c-0.2,1.5,0.1,3.2-0.1,4.8c0,0.1-0.1,0.3-0.2,0.3c-0.1,0.1-0.3,0.1-0.4,0.1
				C22.7,7.3,20.9,7,19.1,7c-1.8,0-3.3,0.2-4.1,0.6C14.9,7.7,14.9,7.7,14.8,7.7z M19.1,6c1.6,0,3.3,0.2,4.4,0.4
				c0.1-1.2-0.1-2.6,0-3.9c-2.6-1.4-5.9-1.5-8.5-0.1c0,1.3,0.1,2.6,0.2,4C16.5,6.1,18.1,6,19.1,6z"/>
		</g>
		<g>
			<path d="M19.5,42.5c-4.1,0-8.2-1-11.8-2.9c-0.2-0.1-0.3-0.4-0.2-0.7c0.1-0.2,0.4-0.3,0.7-0.2c7,3.7,15.9,3.7,22.9-0.1
				c0.2-0.1,0.5,0,0.7,0.2c0.1,0.2,0,0.5-0.2,0.7C27.9,41.5,23.7,42.5,19.5,42.5z"/>
		</g>
		<g>
			<path d="M14.3,27.6c-2.2,0-4.1-0.5-5.7-1.3c-0.2-0.1-0.3-0.4-0.2-0.7c0.1-0.2,0.4-0.3,0.7-0.2c1.6,0.9,3.6,1.3,5.9,1.2
				c2.5-0.1,13.4-1.7,16-3.7c0.2-0.2,0.5-0.1,0.7,0.1c0.2,0.2,0.1,0.5-0.1,0.7c-2.9,2.2-14.5,3.8-16.5,3.9
				C14.8,27.6,14.5,27.6,14.3,27.6z"/>
		</g>
		<g>
			<path d="M17.6,63.9c-2.3-0.2-6.3-1.1-8.2-4.4c-1.2-2-1.3-4.7-1.4-7.7C7.7,47,6.4,37,8.6,22.8c0.4-2.5,0.9-5.3,2.5-7.6
				c0.7-1,1.5-1.8,2.2-2.8c1.2-1.6,1.9-3.6,2.1-5.6c0-0.3,0.3-0.5,0.5-0.5c0.3,0,0.5,0.3,0.5,0.5c-0.2,2.2-1,4.3-2.3,6.1
				c-0.7,0.9-1.5,1.8-2.2,2.7c-1.4,2.1-1.9,4.7-2.3,7.2c-2.2,14.1-1,24-0.7,28.8c0.2,3.1,0.3,5.5,1.3,7.3c3.5,6.1,17.3,4.9,19.5-1
				c0.8-2,1.4-22.2,1.3-31c-0.1-2.8-0.2-5.6-1.3-7.9c-0.8-1.6-2-3.1-3.2-4.4c-0.3-0.4-0.6-0.7-0.9-1.1c-1.4-1.6-3-3.9-3.2-6.5
				c0-0.3,0.2-0.5,0.5-0.5c0.3,0,0.5,0.2,0.5,0.4c0.2,2.3,1.7,4.4,3,5.9c0.3,0.4,0.6,0.7,0.9,1.1c1.2,1.4,2.5,2.9,3.3,4.7
				c1.2,2.6,1.4,5.4,1.4,8.3c0.2,8.4-0.5,29.1-1.3,31.4C29.4,61.6,24.4,64.6,17.6,63.9z"/>
		</g>
	</g>
</g>
</svg>
