<?xml version="1.0" encoding="utf-8"?>
<!-- Generator: Adobe Illustrator 23.1.0, SVG Export Plug-In . SVG Version: 6.00 Build 0)  -->
<svg version="1.1" id="Слой_1" xmlns="http://www.w3.org/2000/svg" xmlns:xlink="http://www.w3.org/1999/xlink" x="0px" y="0px"
	 viewBox="0 0 65 81.3" style="enable-background:new 0 0 65 81.3;" xml:space="preserve">
<g>
	<g>
		<g>
			<path d="M31.3,27.7L31.3,27.7c-2.6,0-5.1-0.1-7.7-0.2c-1.2,0-2.3-0.1-3.5-0.2c-0.1,0-0.2,0-0.3,0c-0.7,0-1.6,0-2-0.7
				c-1-1.5,1.3-4.7,2.2-5.4c1.3-1,3-1,4.6-1l16.8,0.3c0.9,0,1.9,0,2.9,0.5c1.3,0.6,2.1,2,2.7,3c0.7,1.2,0.7,2.1,0,2.7
				c-0.4,0.3-0.9,0.4-1.2,0.4c-2.6,0.2-5.3,0.3-7.9,0.4C35.7,27.6,33.5,27.7,31.3,27.7z M20.6,22c-0.9,0.6-2.5,3.3-2,4
				c0.2,0.2,0.8,0.2,1.2,0.2c0.1,0,0.3,0,0.4,0c1.2,0.1,2.3,0.1,3.5,0.2c2.5,0.1,5.1,0.2,7.6,0.2h0c2.2,0,4.4,0,6.5-0.1
				c2.6-0.1,5.2-0.2,7.8-0.4c0.3,0,0.5,0,0.7-0.2c0.3-0.2,0.1-0.9-0.2-1.4c-0.5-0.9-1.2-2.1-2.3-2.6c-0.7-0.3-1.6-0.4-2.4-0.4
				l-16.8-0.3C23.2,21.2,21.7,21.2,20.6,22z"/>
		</g>
		<g>
			<path d="M35.5,64.5c-1.7,0-3.9-0.2-7.3-0.3c-3.9-0.2-5.2-1.3-5.6-5.6l-3.1-31.7c0-0.3,0.2-0.5,0.4-0.5c0.3,0,0.5,0.2,0.5,0.4
				l3.1,31.7c0.1,1.5,0.4,3,1.4,3.8c1.1,0.9,2.6,0.8,6.5,1c4.8,0.3,6.6,0.4,7.7-0.8c0.9-0.8,1.1-2.2,1.2-3.6l3.3-32.3
				c0-0.3,0.3-0.5,0.5-0.4c0.3,0,0.5,0.3,0.4,0.5l-3.3,32.3c-0.2,1.6-0.4,3.1-1.5,4.2C38.8,64.2,37.7,64.5,35.5,64.5z"/>
		</g>
		<g>
			<path d="M31.8,21.3c0,0-0.1,0-0.1,0c-0.3-0.1-0.4-0.4-0.3-0.6c0.4-1.4,0.5-2.8,0.6-4.3c0.2-2.2,0.4-5.8,2.7-7.9
				c2.8-2.5,7.2-2,10.3-3.6c-0.4-1.1-0.8-2.2-1.1-3.3c-8.7,2.7-10.1,3-11.6,4.3c-1.5,1.4-2.4,3.6-2.6,6.8c-0.1,2.6,0.1,5.3-0.5,7.9
				c-0.1,0.3-0.3,0.4-0.6,0.4c-0.3-0.1-0.4-0.3-0.4-0.6c0.6-2.5,0.4-5.1,0.5-7.7c0.2-3.4,1.1-6,2.9-7.5c1.7-1.5,3.3-1.8,12.4-4.6
				c0.3-0.1,0.5,0.1,0.6,0.3c0.5,1.4,1,2.7,1.4,4.1c0.1,0.2,0,0.5-0.2,0.6c-3.3,2-7.9,1.3-10.5,3.7c-2,1.9-2.2,5.1-2.4,7.3
				c-0.1,1.5-0.2,3-0.7,4.5C32.2,21.2,32,21.3,31.8,21.3z"/>
		</g>
	</g>
	<g>
		<path d="M22.7,29.2c-0.1,0-0.1,0-0.2-0.1l-1.9-1.9c-0.1-0.1-0.1-0.3,0-0.4s0.3-0.1,0.4,0l1.9,1.9c0.1,0.1,0.1,0.3,0,0.4
			C22.8,29.2,22.8,29.2,22.7,29.2z"/>
	</g>
	<g>
		<path d="M25.7,29.7l-2.2-2.2c-0.1-0.1-0.1-0.3,0-0.4s0.3-0.1,0.4,0l2.2,2.2c0.1,0.1,0.1,0.3,0,0.4C26,29.8,25.8,29.8,25.7,29.7z"
			/>
	</g>
	<g>
		<path d="M29.1,30.1l-2.3-2.3c-0.1-0.1-0.1-0.3,0-0.4c0.1-0.1,0.3-0.1,0.4,0l2.3,2.3c0.1,0.1,0.1,0.3,0,0.4
			C29.4,30.2,29.2,30.2,29.1,30.1z"/>
	</g>
	<g>
		<path d="M32.5,29.5l-2-2c-0.1-0.1-0.1-0.3,0-0.4c0.1-0.1,0.3-0.1,0.4,0l2,2c0.1,0.1,0.1,0.3,0,0.4C32.8,29.6,32.6,29.6,32.5,29.5z
			"/>
	</g>
	<g>
		<path d="M36,29.6l-2.2-2.2c-0.1-0.1-0.1-0.3,0-0.4c0.1-0.1,0.3-0.1,0.4,0l2.2,2.2c0.1,0.1,0.1,0.3,0,0.4
			C36.3,29.7,36.1,29.7,36,29.6z"/>
	</g>
	<g>
		<path d="M40.2,30.2l-2.8-2.8c-0.1-0.1-0.1-0.3,0-0.4s0.3-0.1,0.4,0l2.8,2.8c0.1,0.1,0.1,0.3,0,0.4C40.4,30.3,40.3,30.3,40.2,30.2z
			"/>
	</g>
	<g>
		<path d="M43.8,29.9c-0.1,0-0.1,0-0.2-0.1l-2.4-2.4c-0.1-0.1-0.1-0.3,0-0.4s0.3-0.1,0.4,0l2.4,2.4c0.1,0.1,0.1,0.3,0,0.4
			C43.9,29.9,43.8,29.9,43.8,29.9z"/>
	</g>
	<g>
		<path d="M21.4,29.5c-0.1-0.1-0.1-0.3,0-0.4l2.7-2.7c0.1-0.1,0.3-0.1,0.4,0c0.1,0.1,0.1,0.3,0,0.4l-2.7,2.7
			C21.7,29.6,21.5,29.6,21.4,29.5z"/>
	</g>
	<g>
		<path d="M24.7,30.3c-0.1-0.1-0.1-0.3,0-0.4l2.5-2.5c0.1-0.1,0.3-0.1,0.4,0c0.1,0.1,0.1,0.3,0,0.4l-2.5,2.5
			C25,30.4,24.8,30.4,24.7,30.3z"/>
	</g>
	<g>
		<path d="M27.7,30.1c-0.1-0.1-0.1-0.3,0-0.4l2.1-2.1c0.1-0.1,0.3-0.1,0.4,0c0.1,0.1,0.1,0.3,0,0.4l-2.1,2.1
			C28,30.2,27.8,30.2,27.7,30.1z"/>
	</g>
	<g>
		<path d="M30.8,30c-0.1-0.1-0.1-0.3,0-0.4l2.7-2.7c0.1-0.1,0.3-0.1,0.4,0s0.1,0.3,0,0.4L31.2,30C31.1,30.1,30.9,30.1,30.8,30z"/>
	</g>
	<g>
		<path d="M34.3,29.2c-0.1-0.1-0.1-0.3,0-0.4l2.2-2.2c0.1-0.1,0.3-0.1,0.4,0s0.1,0.3,0,0.4l-2.2,2.2C34.5,29.3,34.4,29.3,34.3,29.2z
			"/>
	</g>
	<g>
		<path d="M37.5,29.6c-0.1,0-0.1,0-0.2-0.1c-0.1-0.1-0.1-0.3,0-0.4l2.3-2.3c0.1-0.1,0.3-0.1,0.4,0s0.1,0.3,0,0.4l-2.3,2.3
			C37.7,29.6,37.6,29.6,37.5,29.6z"/>
	</g>
	<g>
		<path d="M40.1,29.2l2-2c0.1-0.1,0.3-0.1,0.4,0s0.1,0.3,0,0.4l-2,2C40.2,29.8,39.8,29.4,40.1,29.2z"/>
	</g>
	<g>
		<path d="M42.4,29c-0.1-0.1-0.1-0.3,0-0.4l1.6-1.6c0.1-0.1,0.3-0.1,0.4,0s0.1,0.3,0,0.4L42.8,29C42.7,29.1,42.5,29.1,42.4,29z"/>
	</g>
	<g>
		<path d="M38.9,62.3c-0.1,0-0.1,0-0.2-0.1L33.4,57c-0.1-0.1-0.1-0.3,0-0.4c0.1-0.1,0.3-0.1,0.4,0l5.3,5.3c0.1,0.1,0.1,0.3,0,0.4
			C39,62.3,38.9,62.3,38.9,62.3z"/>
	</g>
	<g>
		<path d="M40,60l-4.5-4.5c-0.1-0.1-0.1-0.3,0-0.4s0.3-0.1,0.4,0l4.5,4.5c0.1,0.1,0.1,0.3,0,0.4C40.3,60.1,40.1,60.1,40,60z"/>
	</g>
	<g>
		<path d="M40.6,55.7l-2.9-2.9c-0.1-0.1-0.1-0.3,0-0.4s0.3-0.1,0.4,0l2.9,2.9c0.1,0.1,0.1,0.3,0,0.4C40.8,55.8,40.7,55.8,40.6,55.7z
			"/>
	</g>
	<g>
		<path d="M41.2,52.7l-2.4-2.4c-0.1-0.1-0.1-0.3,0-0.4s0.3-0.1,0.4,0l2.4,2.4c0.1,0.1,0.1,0.3,0,0.4C41.5,52.8,41.3,52.8,41.2,52.7z
			"/>
	</g>
	<g>
		<path d="M41.4,50.1L39.3,48c-0.1-0.1-0.1-0.3,0-0.4s0.3-0.1,0.4,0l2.2,2.2c0.1,0.1,0.1,0.3,0,0.4C41.7,50.2,41.5,50.2,41.4,50.1z"
			/>
	</g>
	<g>
		<path d="M41.7,47l-1.3-1.3c-0.2-0.2,0.1-0.6,0.4-0.4l1.3,1.3C42.3,46.9,42,47.2,41.7,47z"/>
	</g>
	<g>
		<path d="M42,45c-0.1,0-0.1,0-0.2-0.1l-1.7-1.7c-0.1-0.1-0.1-0.3,0-0.4s0.3-0.1,0.4,0l1.7,1.7c0.1,0.1,0.1,0.3,0,0.4
			C42.2,44.9,42.1,45,42,45z"/>
	</g>
	<g>
		<path d="M34.9,61.4l-3.8-3.8c-0.1-0.1-0.1-0.3,0-0.4c0.1-0.1,0.3-0.1,0.4,0l3.8,3.8c0.1,0.1,0.1,0.3,0,0.4
			C35.2,61.5,35,61.5,34.9,61.4z"/>
	</g>
	<g>
		<path d="M32.4,62.5l-3.4-3.4c-0.1-0.1-0.1-0.3,0-0.4s0.3-0.1,0.4,0l3.4,3.4c0.1,0.1,0.1,0.3,0,0.4C32.6,62.6,32.5,62.6,32.4,62.5z
			"/>
	</g>
	<g>
		<path d="M30.4,62.6l-2.8-2.8c-0.1-0.1-0.1-0.3,0-0.4s0.3-0.1,0.4,0l2.8,2.8c0.1,0.1,0.1,0.3,0,0.4C30.6,62.7,30.5,62.7,30.4,62.6z
			"/>
	</g>
	<g>
		<path d="M28,63l-2.3-2.3c-0.1-0.1-0.1-0.3,0-0.4c0.1-0.1,0.3-0.1,0.4,0l2.3,2.3c0.1,0.1,0.1,0.3,0,0.4C28.3,63.1,28.1,63.1,28,63z
			"/>
	</g>
	<g>
		<path d="M26.1,62.6l-1.2-1.2c-0.1-0.1-0.1-0.3,0-0.4c0.1-0.1,0.3-0.1,0.4,0l1.2,1.2c0.1,0.1,0.1,0.3,0,0.4
			C26.4,62.7,26.2,62.7,26.1,62.6z"/>
	</g>
	<g>
		<path d="M24.8,62.9c-0.1-0.1-0.1-0.3,0-0.4l3-3c0.1-0.1,0.3-0.1,0.4,0s0.1,0.3,0,0.4l-3,3C25.1,63,24.9,63,24.8,62.9z"/>
	</g>
	<g>
		<path d="M26.6,63.7c-0.1-0.1-0.1-0.3,0-0.4l6-6c0.1-0.1,0.3-0.1,0.4,0s0.1,0.3,0,0.4l-6,6C26.8,63.8,26.7,63.8,26.6,63.7z"/>
	</g>
	<g>
		<path d="M29.6,63.2c-0.1-0.1-0.1-0.3,0-0.4l5.9-5.9c0.1-0.1,0.3-0.1,0.4,0s0.1,0.3,0,0.4L30,63.2C29.9,63.3,29.7,63.3,29.6,63.2z"
			/>
	</g>
	<g>
		<path d="M34.1,63.3c-0.1-0.1-0.1-0.3,0-0.4l4.8-4.8c0.1-0.1,0.3-0.1,0.4,0c0.1,0.1,0.1,0.3,0,0.4l-4.8,4.8
			C34.3,63.4,34.2,63.4,34.1,63.3z"/>
	</g>
	<g>
		<path d="M31.5,63.5c-0.1-0.1-0.1-0.3,0-0.4l4-4c0.1-0.1,0.3-0.1,0.4,0s0.1,0.3,0,0.4l-4,4C31.8,63.6,31.6,63.6,31.5,63.5z"/>
	</g>
	<g>
		<path d="M36.2,63.6c-0.1,0-0.1,0-0.2-0.1c-0.1-0.1-0.1-0.3,0-0.4l3.1-3.1c0.1-0.1,0.3-0.1,0.4,0s0.1,0.3,0,0.4
			C39.3,60.6,36.3,63.6,36.2,63.6z"/>
	</g>
	<g>
		<path d="M36.8,58.4c-0.1-0.1-0.1-0.3,0-0.4l2.9-2.9c0.1-0.1,0.3-0.1,0.4,0s0.1,0.3,0,0.4l-2.9,2.9C37.1,58.5,36.9,58.5,36.8,58.4z
			"/>
	</g>
	<g>
		<path d="M37.5,55c-0.1-0.1-0.1-0.3,0-0.4l2.7-2.7c0.1-0.1,0.3-0.1,0.4,0s0.1,0.3,0,0.4L37.9,55C37.8,55.1,37.6,55.1,37.5,55z"/>
	</g>
	<g>
		<path d="M38.4,51.3c-0.1-0.1-0.1-0.3,0-0.4l2.9-2.9c0.1-0.1,0.3-0.1,0.4,0c0.1,0.1,0.1,0.3,0,0.4l-2.9,2.9
			C38.7,51.4,38.5,51.4,38.4,51.3z"/>
	</g>
	<g>
		<path d="M39.2,48c-0.1-0.1-0.1-0.3,0-0.4l2-2c0.1-0.1,0.3-0.1,0.4,0s0.1,0.3,0,0.4l-2,2C39.4,48.1,39.3,48.1,39.2,48z"/>
	</g>
	<g>
		<path d="M39.8,45c-0.1-0.1-0.1-0.3,0-0.4l0.9-0.9c0.1-0.1,0.3-0.1,0.4,0s0.1,0.3,0,0.4L40.2,45C40.1,45.1,39.9,45.1,39.8,45z"/>
	</g>
	<g>
		<path d="M26.6,54c-0.1,0-0.3-0.1-0.3-0.3c0-6.5-0.7-13-1.9-19.3c0-0.1,0.1-0.3,0.2-0.3c0.1,0,0.3,0.1,0.3,0.2
			c1.3,6.4,1.9,12.9,1.9,19.4C26.9,53.9,26.8,54,26.6,54L26.6,54z"/>
	</g>
	<g>
		<path d="M23.8,37.6c-0.1-0.1-0.1-0.3,0-0.4c0.8-0.7,1.9-1,2.9-1c0.1,0,0.2,0.1,0.2,0.3s-0.1,0.2-0.3,0.2c-0.9,0-1.8,0.3-2.5,0.9
			C24.1,37.7,23.9,37.7,23.8,37.6z"/>
	</g>
	<g>
		<path d="M24.8,41c-0.1,0-0.2-0.1-0.2-0.2c0-0.1,0-0.3,0.2-0.3l1.7-0.5c0.1,0,0.3,0,0.3,0.2c0,0.1,0,0.3-0.2,0.3L24.8,41
			C24.9,41,24.9,41,24.8,41z"/>
	</g>
	<g>
		<path d="M25,44c-0.3,0-0.3-0.4-0.1-0.5l1.5-0.3c0.1,0,0.3,0.1,0.3,0.2c0,0.1-0.1,0.3-0.2,0.3L25,44C25.1,44,25,44,25,44z"/>
	</g>
	<g>
		<path d="M25.3,46.8c-0.2-0.5,1.1-0.6,1.7-0.4c0.1,0,0.2,0.2,0.1,0.3c0,0.1-0.2,0.2-0.3,0.1c-0.4-0.1-0.8-0.1-1.2,0
			C25.5,46.9,25.4,46.9,25.3,46.8z"/>
	</g>
	<g>
		<path d="M25,49.3c0-0.1,0.1-0.3,0.2-0.3l1.3-0.1c0.1,0,0.3,0.1,0.3,0.2c0,0.1-0.1,0.3-0.2,0.3l-1.3,0.1C25.1,49.6,25,49.5,25,49.3
			z"/>
	</g>
	<g>
		<path d="M27.6,52.2h-1.9c-0.1,0-0.3-0.1-0.3-0.3s0.1-0.3,0.3-0.3h1.9c0.1,0,0.3,0.1,0.3,0.3S27.7,52.2,27.6,52.2z"/>
	</g>
	<g>
		<g>
			<path d="M21.7,23.1c-0.1,0-0.2-0.1-0.3-0.2c0-0.1,0.1-0.3,0.2-0.3l13.5-0.3c0,0,0,0,0,0c0.1,0,0.2,0.1,0.3,0.2
				c0,0.1-0.1,0.3-0.2,0.3L21.7,23.1C21.7,23.1,21.7,23.1,21.7,23.1z"/>
		</g>
		<g>
			<path d="M32.7,23c0.2-0.2,0.3-0.5,0.2-0.8c0-0.1,0-0.3,0.2-0.3c0.1,0,0.3,0,0.3,0.2c0.2,0.5,0,1-0.4,1.3
				C32.7,23.6,32.4,23.2,32.7,23z"/>
		</g>
		<g>
			<path d="M29.3,23.3c-0.1-0.1,0-0.3,0.1-0.3c0.3-0.2,0.5-0.6,0.4-1c0-0.1,0-0.3,0.2-0.3c0.1,0,0.3,0,0.3,0.2
				c0.1,0.6-0.1,1.2-0.6,1.6C29.5,23.5,29.4,23.5,29.3,23.3z"/>
		</g>
		<g>
			<path d="M26.2,23.9c-0.1-0.1,0-0.3,0.1-0.3c0.3-0.2,0.5-0.5,0.5-0.9c0-0.1,0.1-0.3,0.2-0.3c0.1,0,0.3,0.1,0.3,0.2
				c0,0.6-0.3,1.1-0.8,1.4C26.4,24.1,26.3,24,26.2,23.9z"/>
		</g>
		<g>
			<path d="M24,24c-0.1,0-0.2-0.2-0.1-0.3l0.4-1.1c0-0.1,0.2-0.2,0.3-0.1c0.1,0,0.2,0.2,0.1,0.3l-0.4,1.1C24.3,23.9,24.2,24,24,24z"
				/>
		</g>
	</g>
</g>
</svg>
