<?xml version="1.0" encoding="utf-8"?>
<!-- Generator: Adobe Illustrator 23.1.0, SVG Export Plug-In . SVG Version: 6.00 Build 0)  -->
<svg version="1.1" id="Слой_1" xmlns="http://www.w3.org/2000/svg" xmlns:xlink="http://www.w3.org/1999/xlink" x="0px" y="0px"
	 viewBox="0 0 65 81.3" style="enable-background:new 0 0 65 81.3;" xml:space="preserve">
<g>
	<g>
		<g>
			<g>
				<g>
					<path d="M1.2,55.1c-0.1-0.1-0.1-0.3-0.1-0.4c2.4-8,7.4-14.8,12.1-21.3l14.4-19.8c0.1-0.2,0.3-0.2,0.5-0.2
						c8.5,2.3,16.4,6.6,22.9,12.4l0.1,0.1c0.5,0.5,1,0.9,1.5,1.2c0.4,0.2,0.8,0.3,1.1,0.3l0,0c0.2,0,0.4,0,0.6-0.1
						c0.4-0.2,0.8-0.6,1-1.1c0.1-0.2,0.2-0.6,0-1c-0.1-0.2-0.1-0.5,0.2-0.7c0.2-0.1,0.5-0.1,0.7,0.1c0.5,0.6,0.6,1.4,0.4,2.2
						c-0.3,1.2-1.1,2.3-2.2,2.9c-0.9,0.5-1.9,0.8-2.9,1c-0.8,0.2-1.5,0.4-2.2,0.7c-1.5,0.6-2.7,2.1-2.3,3.5c0.4,1,1.7,1.8,1.9,3.2
						c0.1,0.6-0.1,1.3-0.5,1.9c-1,1.4-2.9,2.1-6.3,0.4l-0.4-0.2c-1-0.5-2-1-3.1-1.1c-1-0.1-2.3,0.3-2.7,1.4c-0.2,0.6-0.1,1.2,0,1.9
						c0,0.2,0.1,0.4,0.1,0.6c0.2,1.4-0.2,2.4-1,3c-0.9,0.6-2.4,0.2-3.3-0.8c-0.4-0.5-0.7-1-0.9-1.5c-0.2-0.4-0.4-0.7-0.6-1.1
						c-0.5-0.7-1.3-1.1-2-0.9c-1.5,0.6-0.7,3.3-0.9,4.7c-0.2,1.1-1.1,2.3-2.3,2.2c-1.7-0.1-2.9-3-3.8-1.6c-0.2,0.4-0.3,1-0.1,1.4
						c0.3,0.8,1.2,1.7,1.7,2.5c0.7,1.1,0.8,2.7-0.3,3.5c-0.9,0.7-2.5,0.3-3.2-0.7c-0.6-0.8-0.8-1.8-1.1-2.9c-1.3-5.3-7-1.1-3.2,3.2
						c0.1,0.1,0.2,0.3,0.1,0.5c-0.1,0.2-0.2,0.3-0.4,0.3c-4.1,0.6-5.4-8-9.6-1.7C3.4,55.6,1.5,55.6,1.2,55.1z M28.3,14.4L14.1,33.9
						C9.5,40.2,4.8,46.7,2.3,54.3c2.7-0.7,3.6-8.3,9.2-2.4c0.7,0.7,1.3,1.4,2,1.7c-2-3.2,0.1-6.3,2.5-6.3c3.3,0,3,4.3,4,5.7
						c0.4,0.6,1.4,0.9,1.8,0.5c0.6-0.4,0.5-1.4,0-2.2c-0.6-1-1.3-1.6-1.7-2.7c-0.5-1.3,0.1-3,1.5-3.1c1.6-0.1,2.3,1.9,3.4,2
						c0,0,0,0,0,0c0.7,0,1.2-0.7,1.3-1.4c0.1-0.5,0-1,0-1.6c0-0.4-0.1-0.8-0.1-1.2c0.1-3.1,3-3.9,4.7-1.5c0.3,0.4,0.5,0.8,0.7,1.2
						c0.3,0.5,0.5,0.9,0.8,1.3c0.5,0.6,1.4,0.9,2,0.6c0.7-0.4,0.6-1.6,0.5-2c0-0.2-0.1-0.4-0.1-0.5c-0.1-0.8-0.3-1.6,0-2.4
						c0.5-1.6,2.3-2.2,3.8-2.1c1.2,0.1,2.4,0.7,3.4,1.2l0.4,0.2c1.8,0.9,3.9,1.6,5.1-0.1c0.2-0.3,0.4-0.7,0.3-1.1
						c-0.1-0.5-0.5-1-0.9-1.5c-0.4-0.5-0.8-0.9-1-1.6c-0.7-1.9,0.9-3.9,2.8-4.7c0.8-0.3,1.5-0.5,2.3-0.7c1.3-0.3,2.7-0.7,3.6-1.6
						c0,0,0,0,0,0c-0.3,0.1-0.6,0.2-0.9,0.2l0,0c-0.5,0-1.1-0.1-1.6-0.4C50.1,26.9,43.3,18.5,28.3,14.4z"/>
				</g>
				<g>
					<path d="M1,61c-0.1,0-0.2,0-0.2-0.1c-0.2-0.1-0.3-0.3-0.3-0.6l1.2-5.4l1,0.2l-0.8,3.6c2.5-2.6,5.5-4.9,8.9-7.1l0.5,0.8
						c-3.9,2.5-7.2,5.2-9.9,8.3C1.3,60.9,1.1,61,1,61z"/>
				</g>
				<g>
					<path d="M13.5,51.2L13,50.3c1.4-0.8,3-1.6,4.6-2.4l0.4,0.9C16.4,49.6,14.9,50.4,13.5,51.2z"/>
				</g>
				<g>
					<path d="M20.9,47.5l-0.4-0.9c0.7-0.3,1.4-0.6,2.1-0.9l0.4,0.9C22.3,46.9,21.6,47.2,20.9,47.5z"/>
				</g>
				<g>
					<path d="M27.1,45L26.8,44c1.4-0.5,2.8-1,4.3-1.5l0.3,0.9C30,43.9,28.5,44.4,27.1,45z"/>
				</g>
				<g>
					<path d="M35.6,42.1l-0.3-1l2.7-0.9c1.1-0.4,2.3-0.7,3.4-1.1l0.3,0.9c-1.1,0.4-2.3,0.8-3.4,1.1L35.6,42.1z"/>
				</g>
				<g>
					<path d="M48.3,37.8l-0.3-0.9c8.6-3.1,12-4.9,14.1-7.6c1.6-2.2,2.2-5.7,0.3-7.8c-1.6-1.8-4.9-2.1-7.2-0.6
						c-2.1,1.3-3.4,3.8-3.3,6.2l-1,0c-0.1-2.8,1.4-5.6,3.7-7.1c2.8-1.8,6.5-1.4,8.5,0.8c2.3,2.6,1.6,6.6-0.2,9.1
						C60.5,32.9,56.6,34.8,48.3,37.8z"/>
				</g>
				<g>
					<path d="M61.8,21C49.1,10,36.5,5.4,32.2,5.1c-1.3-0.1-3.2,0-4.8,1.1c-1.4,0.9-2.3,2.5-2.2,4c0.1,1.6,1.4,3,2.8,3.2l-0.1,1
						c-2-0.2-3.6-2-3.8-4.1c-0.1-1.9,1-3.8,2.7-4.9c1.9-1.2,4-1.3,5.4-1.2c1.7,0.1,3.4,0.6,5.3,1.3c8.8,3.1,16.9,7.9,24.9,14.9
						L61.8,21z"/>
				</g>
			</g>
			<g>
				<path d="M14.4,43.3c-0.8,0-1.6-0.4-2-1c-0.4-0.5-0.5-1.2-0.3-1.8c0.3-0.9,1.1-1.5,2.1-1.5c0.8,0,1.5,0.3,1.9,0.9
					c0.4,0.5,0.5,1.1,0.3,1.8C16.2,42.7,15.4,43.3,14.4,43.3z M14.2,40c-0.3,0-0.9,0.1-1.1,0.8c-0.1,0.3-0.1,0.7,0.1,0.9
					c0.2,0.3,0.7,0.6,1.2,0.6c0.3,0,0.9-0.1,1.1-0.9c0.1-0.4,0-0.7-0.2-0.9C15.1,40.2,14.6,40,14.2,40z"/>
			</g>
			<g>
				<path d="M42.5,29.6c-0.7,0-1.4-0.4-1.8-1.2c-0.4-0.7-0.4-1.6,0-2.2c0.4-0.5,0.9-0.8,1.5-0.8c0.6,0,1.2,0.3,1.6,0.8
					c0.4,0.5,0.6,1.1,0.5,1.7c-0.1,0.7-0.6,1.3-1.2,1.6C43,29.5,42.8,29.6,42.5,29.6z M42.3,26.4c-0.3,0-0.5,0.1-0.6,0.4
					c-0.2,0.3-0.2,0.8,0,1.2c0.2,0.4,0.7,0.8,1.2,0.6c0.3-0.1,0.5-0.4,0.6-0.8c0.1-0.4-0.1-0.7-0.3-0.9
					C42.9,26.5,42.6,26.4,42.3,26.4z"/>
			</g>
			<g>
				<path d="M29.7,23.3C29.7,23.3,29.6,23.3,29.7,23.3c-0.9,0-1.5-0.5-1.9-1.3c-0.4-0.9-0.3-1.9,0.2-2.6c0.5-0.6,1.3-0.8,2.1-0.6
					c0.5,0.2,0.9,0.5,1.2,1c0.3,0.5,0.5,1.1,0.5,1.6C31.7,22.4,30.7,23.3,29.7,23.3z M29.5,19.7c-0.3,0-0.5,0.1-0.7,0.3
					c-0.3,0.4-0.3,1-0.1,1.6c0.1,0.2,0.4,0.7,0.9,0.7l0,0.5v-0.5c0.5,0,1-0.5,1.1-1c0-0.4-0.1-0.8-0.3-1c-0.1-0.2-0.4-0.5-0.7-0.6
					C29.7,19.7,29.6,19.7,29.5,19.7z"/>
			</g>
			<g>
				<path d="M26.7,37.2L26.7,37.2c-0.5,0-0.9-0.1-1.2-0.4c-0.9-0.7-1-2-0.6-2.9c0.3-0.8,0.9-1.4,1.4-1.9c0.4-0.5,0.9-0.9,1.2-1.5
					c-0.6,0-1.1-0.3-1.4-0.7c-0.4-0.5-0.5-1.2-0.4-1.7c0.1-0.4,0.4-0.6,0.7-0.8c1.2-0.5,2.5-1,3.9-1.2c0.5-0.1,0.9-0.1,1.4-0.1
					c3.2,0,5.1,2.1,5.2,4.1c0.1,1.3-0.5,2.3-1,3c-0.5,0.7-1.1,1.2-1.8,1.5c-0.8,0.3-1.8,0.2-2.4-0.3c-0.4-0.3-0.6-0.7-0.7-1.2
					c-0.3,0.3-0.6,0.6-0.8,1L30,34.3c-0.4,0.7-0.8,1.5-1.4,2.1C28.1,36.9,27.4,37.2,26.7,37.2z M28.3,29.2c0.1,0,0.2,0,0.3,0.1
					c0.2,0.1,0.2,0.3,0.2,0.5c-0.4,1.3-1.1,2-1.8,2.7c-0.5,0.5-1,1-1.2,1.6c-0.2,0.6-0.2,1.4,0.3,1.8c0.5,0.3,1.3,0.2,1.9-0.3
					c0.5-0.5,0.9-1.1,1.2-1.8l0.2-0.3c0.5-0.9,1.2-1.6,2.1-2c0.2-0.1,0.5,0,0.6,0.1c0.1,0.2,0.2,0.4,0,0.6c-0.2,0.3-0.1,0.9,0.2,1.1
					c0.3,0.2,0.6,0.3,0.8,0.3c0.2,0,0.4,0,0.6-0.1c0.5-0.2,0.9-0.6,1.3-1.1c0.6-0.8,0.8-1.6,0.8-2.4c-0.1-1.6-1.6-3.1-4.2-3.1
					c-0.4,0-0.8,0-1.2,0.1c-1.3,0.2-2.5,0.7-3.7,1.1c-0.1,0-0.1,0.1-0.1,0.1c-0.1,0.2,0,0.5,0.2,0.8c0.3,0.3,0.9,0.5,1.2,0.2
					C28.1,29.2,28.2,29.2,28.3,29.2z"/>
			</g>
		</g>
		<g>
			<path d="M29.4,7.8l-1.9-1.9c-0.1-0.1-0.1-0.3,0-0.4c0.1-0.1,0.3-0.1,0.4,0l1.9,1.9c0.1,0.1,0.1,0.3,0,0.4
				C29.7,7.9,29.5,7.9,29.4,7.8z"/>
		</g>
		<g>
			<path d="M31.5,7.1l-2.2-2.2c-0.1-0.1-0.1-0.3,0-0.4c0.1-0.1,0.3-0.1,0.4,0l2.2,2.2C32,6.8,32,7,31.9,7.1
				C31.8,7.2,31.6,7.2,31.5,7.1z"/>
		</g>
		<g>
			<path d="M27.7,9.1l-1.8-1.8c-0.1-0.1-0.1-0.3,0-0.4c0.1-0.1,0.3-0.1,0.4,0L28,8.7c0.1,0.1,0.1,0.3,0,0.4
				C27.9,9.2,27.8,9.2,27.7,9.1z"/>
		</g>
		<g>
			<path d="M26.5,10.9l-1.6-1.6c-0.1-0.1-0.1-0.3,0-0.4c0.1-0.1,0.3-0.1,0.4,0l1.6,1.6c0.1,0.1,0.1,0.3,0,0.4
				C26.8,11,26.6,11,26.5,10.9z"/>
		</g>
		<g>
			<path d="M34.3,7.1c-0.2,0-2.3-2.2-2.4-2.3c-0.1-0.1-0.1-0.3,0-0.4c0.1-0.1,0.3-0.1,0.4,0l2.2,2.2c0.1,0.1,0.1,0.3,0,0.4
				C34.5,7,34.4,7.1,34.3,7.1z"/>
		</g>
		<g>
			<path d="M36.6,7.2L35,5.6c-0.1-0.1-0.1-0.3,0-0.4c0.1-0.1,0.3-0.1,0.4,0l1.6,1.6C37,7,37,7.1,36.9,7.2
				C36.8,7.3,36.7,7.3,36.6,7.2z"/>
		</g>
		<g>
			<path d="M39,7.8l-1.6-1.6c-0.1-0.1-0.1-0.3,0-0.4c0.1-0.1,0.3-0.1,0.4,0l1.6,1.6c0.1,0.1,0.1,0.3,0,0.4C39.3,7.9,39.1,7.9,39,7.8
				z"/>
		</g>
		<g>
			<path d="M41.4,8.7L40,7.3c-0.2-0.2,0.1-0.6,0.4-0.4l1.4,1.4c0.1,0.1,0.1,0.3,0,0.4C41.7,8.8,41.5,8.8,41.4,8.7z"/>
		</g>
		<g>
			<path d="M43,8.8c-0.3-0.3-0.7-0.6-0.4-0.8c0.1-0.1,0.3-0.1,0.4,0c0.3,0.3,0.7,0.6,0.4,0.8C43.2,8.9,43.1,8.9,43,8.8z"/>
		</g>
		<g>
			<path d="M26.5,12.6l-0.8-0.8c0,0-0.1-0.1-0.1-0.2c0-0.1,0-0.1,0.1-0.2l0.7-0.7c0.1-0.1,0.3-0.1,0.4,0c0.3,0.3-0.3,0.6-0.6,0.9
				c0.3,0.3,0.9,0.7,0.6,1C26.7,12.7,26.6,12.7,26.5,12.6z"/>
		</g>
		<g>
			<path d="M25.3,9.7c-0.1,0-0.1,0-0.2-0.1c-0.1-0.1-0.1-0.3,0-0.4L27,7.4c0.1-0.1,0.3-0.1,0.4,0s0.1,0.3,0,0.4l-1.9,1.9
				C25.4,9.7,25.3,9.7,25.3,9.7z"/>
		</g>
		<g>
			<path d="M28,7.7l1.8-1.8c0.1-0.1,0.3-0.1,0.4,0s0.1,0.3,0,0.4l-1.8,1.8C28.1,8.3,27.7,7.9,28,7.7z"/>
		</g>
		<g>
			<path d="M31.2,6.8c-0.1-0.1-0.1-0.3,0-0.4l1.1-1.1c0.2-0.2,0.6,0.1,0.4,0.4l-1.1,1.1C31.4,6.9,31.3,6.9,31.2,6.8z"/>
		</g>
		<g>
			<path d="M33.9,6.4l0.9-0.9c0.1-0.1,0.3-0.1,0.4,0c0.1,0.1,0.1,0.3,0,0.4l-0.9,0.9C34.1,7,33.7,6.6,33.9,6.4z"/>
		</g>
		<g>
			<path d="M36.4,7C36.2,6.7,36.7,6.3,37,6c0.1-0.1,0.3-0.1,0.4,0c0.3,0.3-0.3,0.7-0.6,0.9C36.7,7,36.5,7.1,36.4,7z"/>
		</g>
		<g>
			<path d="M38.7,7.6c-0.4,0-0.9,0.1-0.9-0.3s0.5-0.3,0.9-0.3C39,7.1,39,7.6,38.7,7.6z"/>
		</g>
		<g>
			<path d="M40.3,7.7c0.3-0.3,0.7-0.9,1-0.6s-0.3,0.7-0.6,1C40.4,8.3,40,7.9,40.3,7.7z"/>
		</g>
		<g>
			<path d="M50.8,22.1c-0.1,0-0.1,0-0.2-0.1c-3.8-4.6-9.1-7.9-14.8-9.5c-0.1,0-0.2-0.2-0.2-0.3S35.8,12,36,12
				c5.8,1.6,11.2,5,15.1,9.7c0.1,0.1,0.1,0.3,0,0.4C50.9,22.1,50.9,22.1,50.8,22.1z"/>
		</g>
		<g>
			<path d="M37.9,14.2c-0.1-0.1-0.2-0.2-0.1-0.3c0.3-0.7,0.9-1.2,1.6-1.4c0.1,0,0.3,0,0.3,0.2c0,0.1,0,0.3-0.2,0.3
				c-0.6,0.2-1,0.6-1.3,1.1C38.1,14.2,38,14.3,37.9,14.2z"/>
		</g>
		<g>
			<path d="M41.8,15.4c-0.1,0-0.1,0-0.2-0.1c-0.1-0.1-0.1-0.3,0-0.4l0.6-0.6c0.1-0.1,0.3-0.1,0.4,0c0.1,0.1,0.1,0.3,0,0.4L42,15.3
				C42,15.4,41.9,15.4,41.8,15.4z"/>
		</g>
		<g>
			<path d="M44.7,17c-0.1,0-0.2,0-0.2-0.1c-0.1-0.1,0-0.3,0.1-0.3l0.8-0.5c0.1-0.1,0.3,0,0.3,0.1c0.1,0.1,0,0.3-0.1,0.3L44.8,17
				C44.8,17,44.8,17,44.7,17z"/>
		</g>
		<g>
			<path d="M47.2,18.7c-0.1,0-0.1,0-0.2-0.1c-0.1-0.1-0.1-0.3,0-0.4l0.8-0.6c0.1-0.1,0.3-0.1,0.3,0c0.1,0.1,0.1,0.3,0,0.4l-0.8,0.6
				C47.3,18.7,47.3,18.7,47.2,18.7z"/>
		</g>
		<g>
			<path d="M49.2,21c-0.1,0-0.2,0-0.2-0.1c-0.1-0.1,0-0.3,0.1-0.3l0.9-0.6c0.1-0.1,0.3,0,0.3,0.1c0.1,0.1,0,0.3-0.1,0.3l-0.9,0.6
				C49.3,21,49.2,21,49.2,21z"/>
		</g>
		<g>
			<path d="M38.8,20.1c-0.1-0.1-0.1-0.3,0-0.4l1.1-1.1c0.1-0.1,0.3-0.1,0.4,0c0.1,0.1,0.1,0.3,0,0.4l-1.1,1.1
				C39.1,20.2,38.9,20.2,38.8,20.1z"/>
		</g>
		<g>
			<path d="M40.3,21.1l1.1-1.1c0.1-0.1,0.3-0.1,0.4,0s0.1,0.3,0,0.4l-1.1,1.1C40.4,21.7,40,21.3,40.3,21.1z"/>
		</g>
		<g>
			<path d="M42.7,22.6c-0.1,0-0.1,0-0.2-0.1c-0.1-0.1-0.1-0.3,0-0.4l1.2-1.2c0.1-0.1,0.3-0.1,0.4,0c0.1,0.1,0.1,0.3,0,0.4l-1.2,1.2
				C42.9,22.6,42.8,22.6,42.7,22.6z"/>
		</g>
		<g>
			<path d="M44.3,23.4c-0.1-0.1-0.1-0.3,0-0.4l0.9-0.9c0.1-0.1,0.3-0.1,0.4,0c0.1,0.1,0.1,0.3,0,0.4l-0.9,0.9
				C44.6,23.5,44.4,23.5,44.3,23.4z"/>
		</g>
		<g>
			<path d="M47.1,25.2c-0.1,0-0.1,0-0.2-0.1c-0.1-0.1-0.1-0.3,0-0.4l0.8-0.8c0.1-0.1,0.3-0.1,0.4,0c0.1,0.1,0.1,0.3,0,0.4l-0.8,0.8
				C47.2,25.2,47.2,25.2,47.1,25.2z"/>
		</g>
		<g>
			<path d="M48.3,26.3c-0.1-0.1-0.1-0.3,0-0.4l0.7-0.7c0.1-0.1,0.3-0.1,0.4,0c0.1,0.1,0.1,0.3,0,0.4l-0.7,0.7
				C48.6,26.4,48.4,26.4,48.3,26.3z"/>
		</g>
		<g>
			<path d="M49.2,27.3c-0.1-0.1-0.1-0.3,0-0.4l0.7-0.7c0.2-0.2,0.6,0.1,0.4,0.4l-0.7,0.7C49.5,27.4,49.3,27.4,49.2,27.3z"/>
		</g>
		<g>
			<path d="M50.7,28.4c-0.1-0.1-0.1-0.3,0-0.4l0.9-0.9c0.1-0.1,0.3-0.1,0.4,0c0.1,0.1,0.1,0.3,0,0.4l-0.9,0.9
				C51,28.5,50.8,28.5,50.7,28.4z"/>
		</g>
		<g>
			<path d="M51.9,29.2c-0.1,0-0.1,0-0.2-0.1c-0.1-0.1-0.1-0.3,0-0.4l0.9-0.9c0.1-0.1,0.3-0.1,0.4,0s0.1,0.3,0,0.4l-0.9,0.9
				C52,29.2,52,29.2,51.9,29.2z"/>
		</g>
		<g>
			<path d="M49.6,30.5c-0.1,0-0.1,0-0.2-0.1c-0.1-0.1-0.1-0.3,0-0.4l0.7-0.7c0.1-0.1,0.3-0.1,0.4,0s0.1,0.3,0,0.4l-0.7,0.7
				C49.7,30.5,49.6,30.5,49.6,30.5z"/>
		</g>
		<g>
			<path d="M48.4,30.8c-0.1,0-0.1,0-0.2-0.1c-0.1-0.1-0.1-0.3,0-0.4l0.7-0.7c0.1-0.1,0.3-0.1,0.4,0s0.1,0.3,0,0.4l-0.7,0.7
				C48.5,30.8,48.4,30.8,48.4,30.8z"/>
		</g>
		<g>
			<path d="M48.8,30.9c-0.1,0-0.1,0-0.2-0.1L48,30.1c-0.1-0.1-0.1-0.3,0-0.4c0.1-0.1,0.3-0.1,0.4,0l0.7,0.7c0.1,0.1,0.1,0.3,0,0.4
				C48.9,30.8,48.9,30.9,48.8,30.9z"/>
		</g>
		<g>
			<path d="M50.2,30.3c-0.1,0-0.1,0-0.2-0.1l-0.7-0.7c-0.1-0.1-0.1-0.3,0-0.4c0.1-0.1,0.3-0.1,0.4,0l0.7,0.7c0.1,0.1,0.1,0.3,0,0.4
				C50.4,30.3,50.3,30.3,50.2,30.3z"/>
		</g>
		<g>
			<path d="M52.2,29.4c-0.1,0-0.1,0-0.2-0.1l-1-1c-0.1-0.1-0.1-0.3,0-0.4s0.3-0.1,0.4,0l1,1c0.1,0.1,0.1,0.3,0,0.4
				C52.3,29.4,52.3,29.4,52.2,29.4z"/>
		</g>
		<g>
			<path d="M49.2,26.6l-1-1c-0.1-0.1-0.1-0.3,0-0.4s0.3-0.1,0.4,0l1,1c0.1,0.1,0.1,0.3,0,0.4C49.5,26.7,49.3,26.7,49.2,26.6z"/>
		</g>
		<g>
			<path d="M47.6,25c-0.1,0-0.1,0-0.2-0.1L46.5,24c-0.1-0.1-0.1-0.3,0-0.4c0.1-0.1,0.3-0.1,0.4,0l0.9,0.9c0.1,0.1,0.1,0.3,0,0.4
				C47.8,25,47.7,25,47.6,25z"/>
		</g>
		<g>
			<path d="M44,23c-0.1,0-0.1,0-0.2-0.1l-1.4-1.4c-0.1-0.1-0.1-0.3,0-0.4c0.1-0.1,0.3-0.1,0.4,0l1.4,1.4c0.1,0.1,0.1,0.3,0,0.4
				C44.1,23,44.1,23,44,23z"/>
		</g>
		<g>
			<path d="M41.4,21.1l-0.9-0.9c-0.1-0.1-0.1-0.3,0-0.4c0.1-0.1,0.3-0.1,0.4,0l0.9,0.9c0.1,0.1,0.1,0.3,0,0.4
				C41.6,21.2,41.5,21.2,41.4,21.1z"/>
		</g>
		<g>
			<path d="M40.1,20.1L39,19c-0.1-0.1-0.1-0.3,0-0.4s0.3-0.1,0.4,0l1.1,1.1c0.1,0.1,0.1,0.3,0,0.4C40.4,20.2,40.2,20.2,40.1,20.1z"
				/>
		</g>
		<g>
			<path d="M54,29.4c-0.2,0-1-0.9-1.1-1c-0.2-0.2,0.1-0.6,0.4-0.4l1,1c0.1,0.1,0.1,0.3,0,0.4C54.2,29.4,54.1,29.4,54,29.4z"/>
		</g>
		<g>
			<path d="M60.7,31.8c-0.2,0-2.5-2.4-2.7-2.6c-0.1-0.1-0.1-0.3,0-0.4c0.1-0.1,0.3-0.1,0.4,0l2.5,2.5c0.1,0.1,0.1,0.3,0,0.4
				C60.8,31.7,60.8,31.8,60.7,31.8z"/>
		</g>
		<g>
			<path d="M61.4,29.9l-1.8-1.8c-0.1-0.1-0.1-0.3,0-0.4c0.1-0.1,0.3-0.1,0.4,0l1.8,1.8c0.1,0.1,0.1,0.3,0,0.4
				C61.6,30,61.5,30,61.4,29.9z"/>
		</g>
		<g>
			<path d="M62.5,27.7l-1.4-1.4c-0.1-0.1-0.1-0.3,0-0.4s0.3-0.1,0.4,0l1.4,1.4c0.1,0.1,0.1,0.3,0,0.4C62.8,27.8,62.6,27.8,62.5,27.7
				z"/>
		</g>
		<g>
			<path d="M63.1,26.1l-1.3-1.3c-0.1-0.1-0.1-0.3,0-0.4c0.1-0.1,0.3-0.1,0.4,0l1.3,1.3c0.1,0.1,0.1,0.3,0,0.4
				C63.3,26.2,63.2,26.2,63.1,26.1z"/>
		</g>
		<g>
			<path d="M63.1,23.8l-1.6-1.6c-0.1-0.1-0.1-0.3,0-0.4s0.3-0.1,0.4,0l1.6,1.6c0.1,0.1,0.1,0.3,0,0.4C63.4,23.9,63.2,23.9,63.1,23.8
				z"/>
		</g>
		<g>
			<path d="M58.9,32.4c-0.2,0-2.3-2.2-2.4-2.3c-0.1-0.1-0.1-0.3,0-0.4s0.3-0.1,0.4,0L59,32c0.1,0.1,0.1,0.3,0,0.4
				C59,32.4,58.9,32.4,58.9,32.4z"/>
		</g>
		<g>
			<path d="M56.2,33.5l-2-2c-0.1-0.1-0.1-0.3,0-0.4s0.3-0.1,0.4,0l2,2c0.1,0.1,0.1,0.3,0,0.4C56.4,33.6,56.3,33.6,56.2,33.5z"/>
		</g>
		<g>
			<path d="M54.4,34.5l-1.9-1.9c-0.1-0.1-0.1-0.3,0-0.4s0.3-0.1,0.4,0l1.9,1.9c0.1,0.1,0.1,0.3,0,0.4C54.6,34.6,54.5,34.6,54.4,34.5
				z"/>
		</g>
		<g>
			<path d="M52.2,35.3l-1.8-1.8c-0.1-0.1-0.1-0.3,0-0.4s0.3-0.1,0.4,0l1.8,1.8c0.1,0.1,0.1,0.3,0,0.4C52.5,35.3,52.3,35.4,52.2,35.3
				z"/>
		</g>
		<g>
			<path d="M50.6,35.9l-1.8-1.8c-0.1-0.1-0.1-0.3,0-0.4s0.3-0.1,0.4,0l1.8,1.8c0.1,0.1,0.1,0.3,0,0.4C50.9,36,50.7,36,50.6,35.9z"/>
		</g>
		<g>
			<path d="M48.4,35.6l1.8-1.8c0.1-0.1,0.3-0.1,0.4,0c0.1,0.1,0.1,0.3,0,0.4L48.8,36C48.5,36.2,48.2,35.8,48.4,35.6z"/>
		</g>
		<g>
			<path d="M52.5,34.1l1.9-1.9c0.1-0.1,0.3-0.1,0.4,0s0.1,0.3,0,0.4l-1.9,1.9C52.7,34.7,52.3,34.3,52.5,34.1z"/>
		</g>
		<g>
			<path d="M55.7,32.8l2-2c0.2-0.2,0.6,0.1,0.4,0.4l-2,2C55.8,33.4,55.4,33.1,55.7,32.8z"/>
		</g>
		<g>
			<path d="M59.5,30.6l2.5-2.5c0.2-0.2,0.6,0.1,0.4,0.4L59.8,31C59.6,31.2,59.2,30.9,59.5,30.6z"/>
		</g>
		<g>
			<path d="M61.1,26.5l1.5-1.5c0.1-0.1,0.3-0.1,0.4,0s0.1,0.3,0,0.4l-1.5,1.5C61.2,27.1,60.9,26.8,61.1,26.5z"/>
		</g>
		<g>
			<path d="M61.7,23.7c-0.1,0-0.1,0-0.2-0.1c-0.1-0.1-0.1-0.3,0-0.4l1.4-1.4c0.1-0.1,0.3-0.1,0.4,0s0.1,0.3,0,0.4l-1.4,1.4
				C61.9,23.7,61.8,23.7,61.7,23.7z"/>
		</g>
		<g>
			<path d="M3.8,55.8l-1.2-1.2C2.4,54.3,2.7,54,3,54.2l1.2,1.2c0.1,0.1,0.1,0.3,0,0.4C4,55.9,3.9,55.9,3.8,55.8z"/>
		</g>
		<g>
			<path d="M4.7,54.5c-0.3-0.3-0.8-0.7-0.6-0.9c0.3-0.3,0.6,0.3,0.9,0.6c0.1,0.1,0.1,0.3,0,0.4C5,54.6,4.8,54.6,4.7,54.5z"/>
		</g>
		<g>
			<path d="M6.4,53c-0.1,0-0.1,0-0.2-0.1l-0.8-0.8c-0.2-0.2,0.1-0.6,0.4-0.4l0.8,0.8c0.1,0.1,0.1,0.3,0,0.4C6.5,53,6.5,53,6.4,53z"
				/>
		</g>
		<g>
			<path d="M7.4,52c-0.1,0-0.1,0-0.2-0.1l-0.9-0.9c-0.1-0.1-0.1-0.3,0-0.4c0.1-0.1,0.3-0.1,0.4,0l0.9,0.9c0.1,0.1,0.1,0.3,0,0.4
				C7.5,52,7.5,52,7.4,52z"/>
		</g>
		<g>
			<path d="M3,56.4c-0.4,0-1.1-0.5-0.8-0.8c0.1-0.1,0.3-0.1,0.4,0C3,56.1,3.1,56,3.6,55.4L4,55.8C3.2,56.5,3,56.4,3,56.4z"/>
		</g>
		<g>
			<path d="M4.2,54.4l1-1c0.1-0.1,0.3-0.1,0.4,0s0.1,0.3,0,0.4l-1,1C4.3,55,4,54.6,4.2,54.4z"/>
		</g>
		<g>
			<path d="M6.1,52.3l1-1c0.1-0.1,0.3-0.1,0.4,0c0.1,0.1,0.1,0.3,0,0.4l-1,1C6.2,52.9,5.8,52.5,6.1,52.3z"/>
		</g>
		<g>
			<path d="M8.4,52c-0.1,0-0.1,0-0.2-0.1c-0.1-0.1-0.1-0.3,0-0.4l0.5-0.5C8.9,51,9,51,9.1,51.1c0.1,0.1,0.1,0.3,0,0.4l-0.5,0.5
				C8.6,52,8.5,52,8.4,52z"/>
		</g>
	</g>
	<g>
		<path d="M18.2,34.5c-0.1,0-0.2-0.1-0.2-0.2c-0.1-0.6,0.3-1.1,0.8-1.3c0.3-0.1,0.6-0.2,1-0.2c0.1,0,0.3,0,0.4-0.1
			c0.7-0.1,1.3-0.5,1.8-1c0.1-0.1,0.3-0.1,0.4,0c0.1,0.1,0.1,0.3,0,0.4c-0.6,0.6-1.3,1-2,1.1c-0.1,0-0.3,0.1-0.4,0.1
			c-0.3,0-0.6,0.1-0.8,0.2c-0.3,0.1-0.6,0.5-0.5,0.8C18.5,34.3,18.4,34.4,18.2,34.5C18.2,34.5,18.2,34.5,18.2,34.5z"/>
	</g>
	<g>
		<path d="M36.1,37.6c-0.1,0-0.2-0.1-0.2-0.2c-0.3-0.8,0.3-1.6,0.8-2.1c0.2-0.2,0.4-0.3,0.6-0.5c0.4-0.3,0.7-0.5,1-0.8
			c0.4-0.5,0.5-1.2,0.1-1.5c-0.1-0.1-0.1-0.2,0-0.4c0.1-0.1,0.2-0.1,0.4,0c0.7,0.5,0.5,1.6,0,2.2c-0.3,0.4-0.7,0.7-1.1,0.9
			c-0.2,0.1-0.4,0.3-0.6,0.4c-0.5,0.4-0.9,1-0.7,1.6C36.4,37.4,36.3,37.5,36.1,37.6C36.2,37.6,36.1,37.6,36.1,37.6z"/>
	</g>
	<g>
		<path d="M24,25.7c-0.1,0-0.1,0-0.2-0.1c-0.1-0.1-0.1-0.3,0-0.4c0.8-0.7,2-0.9,3-0.4C27,24.9,27,25,27,25.1
			c-0.1,0.1-0.2,0.2-0.3,0.1c-0.8-0.4-1.8-0.2-2.5,0.4C24.1,25.7,24,25.7,24,25.7z"/>
	</g>
	<g>
		<path d="M19,43.1c-0.1,0-0.1,0-0.2-0.1c-0.1-0.1-0.1-0.3,0-0.4l1.7-1.8c0.3-0.3,0.5-0.6,0.7-0.9c0.1-0.3,0.1-0.7-0.2-0.8
			c-0.1-0.1-0.1-0.2-0.1-0.3c0.1-0.1,0.2-0.1,0.3-0.1c0.5,0.3,0.6,0.9,0.4,1.4c-0.1,0.5-0.5,0.8-0.8,1.1L19.1,43
			C19.1,43.1,19,43.1,19,43.1z"/>
	</g>
	<g>
		<path d="M10.5,46.2c-0.6,0-1.3-0.2-1.7-0.7c-0.1-0.1-0.1-0.3,0-0.4c0.1-0.1,0.3-0.1,0.4,0c0.6,0.5,1.5,0.7,2.2,0.3
			c0.1-0.1,0.3,0,0.3,0.1s0,0.3-0.1,0.3C11.2,46.1,10.9,46.2,10.5,46.2z"/>
	</g>
	<g>
		<path d="M35.2,23.3c-0.1,0-0.1,0-0.2-0.1l-0.2-0.2c-0.1-0.1-0.1-0.3,0-0.4c0.1-0.1,0.3-0.1,0.4,0l0.2,0.2c0.1,0.1,0.1,0.3,0,0.4
			C35.4,23.3,35.3,23.3,35.2,23.3z"/>
	</g>
	<g>
		<path d="M41.9,34.6c0,0-0.1,0-0.1,0c-0.1-0.1-0.2-0.2-0.1-0.3l0.1-0.2c0.1-0.1,0.2-0.2,0.3-0.1c0.1,0.1,0.2,0.2,0.1,0.3l-0.1,0.2
			C42,34.5,41.9,34.6,41.9,34.6z"/>
	</g>
	<g>
		<path d="M17.5,37.3c-0.1,0-0.2-0.1-0.2-0.2c0-0.1,0.1-0.3,0.2-0.3l0.6-0.1c0.1,0,0.3,0.1,0.3,0.2c0,0.1-0.1,0.3-0.2,0.3L17.5,37.3
			C17.5,37.3,17.5,37.3,17.5,37.3z"/>
	</g>
	<g>
		<path d="M21.9,28.1h-0.4c-0.1,0-0.3-0.1-0.3-0.3s0.1-0.3,0.3-0.3h0.4c0.1,0,0.3,0.1,0.3,0.3S22.1,28.1,21.9,28.1z"/>
	</g>
	<g>
		<path d="M26.6,20.9h-0.3c-0.1,0-0.3-0.1-0.3-0.3s0.1-0.3,0.3-0.3h0.3c0.1,0,0.3,0.1,0.3,0.3C26.8,20.8,26.7,20.9,26.6,20.9z"/>
	</g>
	<g>
		<path d="M32.8,17.5c-0.1,0-0.2-0.1-0.2-0.2l-0.1-0.3c0-0.1,0-0.3,0.2-0.3c0.1,0,0.3,0,0.3,0.2l0.1,0.3
			C33.1,17.3,33.1,17.5,32.8,17.5C32.9,17.5,32.9,17.5,32.8,17.5z"/>
	</g>
	<g>
		<path d="M29.8,38.5c-0.1,0-0.2,0-0.2-0.1c-0.1-0.1-0.1-0.3,0-0.4c0,0,0,0,0,0c0,0,0,0,0,0c0-0.1,0.1-0.2,0.3-0.2
			c0.1,0,0.2,0.1,0.3,0.2c0,0.2,0,0.3-0.2,0.4C29.9,38.5,29.9,38.5,29.8,38.5z"/>
	</g>
	<g>
		<path d="M23.7,41.6C23.7,41.6,23.7,41.6,23.7,41.6c-0.2-0.1-0.3-0.2-0.2-0.3l0.1-0.3c0-0.1,0.2-0.2,0.3-0.2c0.1,0,0.2,0.2,0.2,0.3
			L24,41.5C23.9,41.6,23.8,41.6,23.7,41.6z"/>
	</g>
	<g>
		<path d="M13.9,45.8h-0.3c-0.1,0-0.3-0.1-0.3-0.3s0.1-0.3,0.3-0.3h0.3c0.1,0,0.3,0.1,0.3,0.3S14,45.8,13.9,45.8z"/>
	</g>
</g>
</svg>
