<?xml version="1.0" encoding="utf-8"?>
<!-- Generator: Adobe Illustrator 23.1.0, SVG Export Plug-In . SVG Version: 6.00 Build 0)  -->
<svg version="1.1" id="Слой_1" xmlns="http://www.w3.org/2000/svg" xmlns:xlink="http://www.w3.org/1999/xlink" x="0px" y="0px"
	 viewBox="0 0 65 81.3" style="enable-background:new 0 0 65 81.3;" xml:space="preserve">
<g>
	<g>
		<path d="M62.2,25.7l1.6-1.6c0.2-0.2,0.6,0.1,0.4,0.4L62.6,26C62.4,26.3,62,25.9,62.2,25.7z"/>
	</g>
	<g>
		<path d="M62.4,22.6c-0.1,0-0.1,0-0.2-0.1c-0.1-0.1-0.1-0.3,0-0.4l1.2-1.2c0.2-0.2,0.6,0.1,0.4,0.4l-1.2,1.2
			C62.5,22.6,62.5,22.6,62.4,22.6z"/>
	</g>
	<g>
		<path d="M63.2,22.7l-0.9-0.9c-0.1-0.1-0.1-0.3,0-0.4c0.1-0.1,0.3-0.1,0.4,0l0.9,0.9c0.1,0.1,0.1,0.3,0,0.4
			C63.5,22.8,63.3,22.8,63.2,22.7z"/>
	</g>
	<g>
		<g>
			<g>
				<path d="M27.6,56c-4.5,0-10.2-0.1-12.3-3.9c-2.2-4,1.1-8.6,2.3-11.7c0.9-2.4,1.3-5,1-7.7c-0.2-2,0.2-3.5,1.2-4.6
					c1.4-1.5,3.8-2,7.1-1.6c5.2,0.7,5.9,0.5,7.7-0.2c3.3-1.2,7.6-2.4,10,0.4c2.7,3,0.3,7.6,1.3,10.8c0.8,2.5,3.5,4.3,4.2,7
					c0.8,3-1,5.9-3,7.5C42.3,55.7,30.9,56,27.6,56z M20.5,28.9c-0.8,0.9-1.1,2.1-0.9,3.8c0.9,9.9-6.3,13.8-3.4,19
					C18,55,23.4,55,27.6,55c3.3,0,14.4-0.3,18.9-3.7c1.8-1.3,3.3-3.9,2.7-6.4c-0.7-2.5-3.3-4.3-4.2-7c-1.1-3.5,1.2-7.8-1.1-10.4
					c-2.1-2.3-6.1-1.1-8.9-0.1c-1.9,0.7-2.8,1-8.2,0.2C24.6,27.4,21.9,27.3,20.5,28.9z"/>
			</g>
			<g>
				<g>
					<path d="M49.5,48c-0.7,0-0.7-1,0-1c7.7,0,13.6-6.9,13.1-12c-0.2-1.7-1.2-3.2-2.5-3.9c-2.9-1.4-5.3,0.6-8-3.9
						c-0.6-1-1.1-1.9-2-2.1c-1-0.3-2.2,0.4-2.7,1.1c-0.7,0.9-1,2.2-1.3,3.3c-0.2,0.6-1.1,0.4-1-0.3c0.3-1.2,0.7-2.5,1.5-3.6
						c0.8-1.1,2.3-1.9,3.8-1.5c2.1,0.6,2.6,3.3,4.1,4.4c1.6,1.2,4.1,0.7,6.1,1.6c1.7,0.8,2.9,2.6,3.1,4.7C64.2,40.6,57.8,48,49.5,48
						L49.5,48z"/>
				</g>
				<g>
					<path d="M62.3,32.6c-0.1,0-0.2,0-0.2-0.1c-0.2-0.1-0.3-0.4-0.2-0.7c4.4-8.6-0.3-19.1-9.6-21.6c-3.4-0.9-4.4,0.7-4.6,1.2
						c-0.6,1.4,0.5,2.9,1.4,4.1c3.4,4.6,1.9,10,0.9,9.6c-0.3-0.1-0.4-0.4-0.3-0.6c0.9-2.6,0.6-5.6-1.4-8.4c-1-1.3-2.3-3.2-1.5-5.1
						c0.6-1.4,2.4-2.7,5.8-1.8c9.9,2.6,15,13.9,10.2,23C62.6,32.5,62.5,32.6,62.3,32.6z"/>
				</g>
			</g>
			<g>
				<g>
					<path d="M15.5,48.1c1.2,0-8.4,0.7-12.9-7.7C0,35.5,1.7,31.6,4.4,30.3c2-1,4.6-0.4,6.1-1.6c1.5-1.2,1.9-3.8,4.1-4.4
						c1.5-0.5,3,0.4,3.8,1.5c0.8,1.1,1.2,2.4,1.5,3.6c0.1,0.3-0.1,0.5-0.4,0.6C19.3,30,19,29.8,19,29.5c-0.3-1.1-0.6-2.3-1.3-3.3
						c-0.6-0.8-1.7-1.4-2.7-1.1c-0.9,0.3-1.5,1.2-2,2.1c-2.7,4.4-5.1,2.5-8,3.9c-2.1,1-3.8,4.2-1.4,8.7c2.3,4.3,7.1,7.2,12,7.2
						c0.3,0,0.5,0.2,0.5,0.5C16,47.8,15.7,48.1,15.5,48.1z"/>
				</g>
				<g>
					<path d="M2.3,32.4C0,28-0.1,22.9,1.9,18.4c2-4.5,5.9-7.8,10.6-9.1c3.4-0.9,5.2,0.3,5.8,1.8c0.8,1.9-0.6,3.8-1.5,5.1
						c-2,2.8-2.4,5.8-1.4,8.4c0.1,0.3,0,0.5-0.3,0.6c-0.3,0.1-0.5,0-0.6-0.3c-1-2.8-0.7-6.2,1.6-9.3c0.9-1.2,2-2.7,1.4-4.1
						c-0.2-0.5-1.2-2.1-4.6-1.2c-4.4,1.2-8.1,4.3-10,8.5c-1.9,4.2-1.7,9,0.4,13.1c0.1,0.2,0,0.5-0.2,0.7C2.7,32.7,2.4,32.6,2.3,32.4
						z"/>
				</g>
			</g>
		</g>
		<g>
			<path d="M43.7,53.6l-6.9-6.9c-0.1-0.1-0.1-0.3,0-0.4s0.3-0.1,0.4,0l6.9,6.9c0.1,0.1,0.1,0.3,0,0.4C43.9,53.7,43.8,53.7,43.7,53.6
				z"/>
		</g>
		<g>
			<path d="M46.2,52.1l-6.5-6.5c-0.1-0.1-0.1-0.3,0-0.4s0.3-0.1,0.4,0l6.5,6.5c0.1,0.1,0.1,0.3,0,0.4C46.5,52.2,46.3,52.2,46.2,52.1
				z"/>
		</g>
		<g>
			<path d="M47.5,48l-4.4-4.4c-0.1-0.1-0.1-0.3,0-0.4s0.3-0.1,0.4,0l4.4,4.4c0.1,0.1,0.1,0.3,0,0.4C47.7,48.1,47.6,48.1,47.5,48z"/>
		</g>
		<g>
			<path d="M48.2,45.4c-0.2,0-3.8-3.7-3.9-3.8c-0.1-0.1-0.1-0.3,0-0.4s0.3-0.1,0.4,0l3.7,3.7c0.1,0.1,0.1,0.3,0,0.4
				C48.4,45.4,48.3,45.4,48.2,45.4z"/>
		</g>
		<g>
			<path d="M39.1,53.3c-0.1,0-0.1,0-0.2-0.1l-4.7-4.7c-0.1-0.1-0.1-0.3,0-0.4s0.3-0.1,0.4,0l4.7,4.7c0.1,0.1,0.1,0.3,0,0.4
				C39.2,53.3,39.2,53.3,39.1,53.3z"/>
		</g>
		<g>
			<path d="M35.1,53.9c-0.2,0-3.6-3.5-3.7-3.6c-0.1-0.1-0.1-0.3,0-0.4s0.3-0.1,0.4,0l3.5,3.5C35.5,53.7,35.3,53.9,35.1,53.9z"/>
		</g>
		<g>
			<path d="M30.6,54.6c-0.2,0-2.8-2.7-3-2.8c-0.1-0.1-0.1-0.3,0-0.4s0.3-0.1,0.4,0l2.8,2.8c0.1,0.1,0.1,0.3,0,0.4
				C30.7,54.6,30.6,54.6,30.6,54.6z"/>
		</g>
		<g>
			<path d="M27,55.2c-0.2,0-2.6-2.5-2.7-2.6c-0.1-0.1-0.1-0.3,0-0.4c0.1-0.1,0.3-0.1,0.4,0l2.5,2.5c0.1,0.1,0.1,0.3,0,0.4
				C27.2,55.2,27.1,55.2,27,55.2z"/>
		</g>
		<g>
			<path d="M23.5,55.9l-2.4-2.4c-0.1-0.1-0.1-0.3,0-0.4s0.3-0.1,0.4,0l2.4,2.4c0.1,0.1,0.1,0.3,0,0.4C23.7,56,23.6,56,23.5,55.9z"/>
		</g>
		<g>
			<path d="M21.7,54.8l2.4-2.4c0.1-0.1,0.3-0.1,0.4,0s0.1,0.3,0,0.4L22,55.2C21.8,55.4,21.4,55.1,21.7,54.8z"/>
		</g>
		<g>
			<path d="M24.3,55.2l4.2-4.2c0.1-0.1,0.3-0.1,0.4,0s0.1,0.3,0,0.4l-4.2,4.2C24.4,55.8,24,55.5,24.3,55.2z"/>
		</g>
		<g>
			<path d="M27.3,54.9l6.9-6.9c0.1-0.1,0.3-0.1,0.4,0s0.1,0.3,0,0.4l-6.9,6.9C27.4,55.5,27,55.1,27.3,54.9z"/>
		</g>
		<g>
			<path d="M31.3,55l9.3-9.3c0.1-0.1,0.3-0.1,0.4,0s0.1,0.3,0,0.4l-9.3,9.3C31.5,55.6,31.1,55.2,31.3,55z"/>
		</g>
		<g>
			<path d="M38.1,53.8l6.7-6.7c0.1-0.1,0.3-0.1,0.4,0s0.1,0.3,0,0.4l-6.7,6.7C38.2,54.4,37.9,54.1,38.1,53.8z"/>
		</g>
		<g>
			<path d="M44.1,52.1l2.8-2.8c0.2-0.2,0.6,0.1,0.4,0.4l-2.8,2.8C44.2,52.7,43.9,52.3,44.1,52.1z"/>
		</g>
		<g>
			<path d="M42.4,46l3.2-3.2c0.1-0.1,0.3-0.1,0.4,0s0.1,0.3,0,0.4l-3.2,3.2C42.5,46.5,42.1,46.2,42.4,46z"/>
		</g>
		<g>
			<path d="M46.3,46.4c-0.2,0-0.3-0.3-0.2-0.4l2-2c0.2-0.2,0.6,0.1,0.4,0.4C48.3,44.4,46.4,46.4,46.3,46.4z"/>
		</g>
		<g>
			<path d="M48,32c-0.1,0-0.1,0-0.2-0.1l-2.3-2.3c-0.1-0.1-0.1-0.3,0-0.4s0.3-0.1,0.4,0l2.3,2.3c0.1,0.1,0.1,0.3,0,0.4
				C48.1,32,48,32,48,32z"/>
		</g>
		<g>
			<path d="M47.9,35.6c-0.1,0-0.1,0-0.2-0.1l-2.4-2.4c-0.2-0.2,0.1-0.6,0.4-0.4l2.4,2.4c0.1,0.1,0.1,0.3,0,0.4
				C48,35.5,47.9,35.6,47.9,35.6z"/>
		</g>
		<g>
			<path d="M48.2,39.1c-0.1,0-0.1,0-0.2-0.1l-2.9-2.9c-0.2-0.2,0.1-0.6,0.4-0.4l2.9,2.9c0.1,0.1,0.1,0.3,0,0.4
				C48.3,39.1,48.2,39.1,48.2,39.1z"/>
		</g>
		<g>
			<path d="M49.8,42.9c-0.1,0-0.1,0-0.2-0.1l-2.4-2.4c-0.1-0.1-0.1-0.3,0-0.4s0.3-0.1,0.4,0l2.4,2.4c0.1,0.1,0.1,0.3,0,0.4
				C49.9,42.9,49.9,42.9,49.8,42.9z"/>
		</g>
		<g>
			<path d="M51.8,47.4c-0.2,0-1.9-1.8-2.1-2c-0.2-0.2,0.1-0.6,0.4-0.4L52,47C52.1,47.1,52,47.4,51.8,47.4z"/>
		</g>
		<g>
			<path d="M53.5,46.6l-2-2c-0.1-0.1-0.1-0.3,0-0.4s0.3-0.1,0.4,0l2,2c0.1,0.1,0.1,0.3,0,0.4C53.7,46.7,53.6,46.7,53.5,46.6z"/>
		</g>
		<g>
			<path d="M55.9,45.9l-2-2c-0.1-0.1-0.1-0.3,0-0.4s0.3-0.1,0.4,0l2,2C56.5,45.7,56.1,46.1,55.9,45.9z"/>
		</g>
		<g>
			<path d="M58.3,43.5l-1.5-1.5c-0.1-0.1-0.1-0.3,0-0.4s0.3-0.1,0.4,0l1.5,1.5c0.1,0.1,0.1,0.3,0,0.4C58.6,43.6,58.4,43.6,58.3,43.5
				z"/>
		</g>
		<g>
			<path d="M60.7,41.6l-1.4-1.4c-0.1-0.1-0.1-0.3,0-0.4s0.3-0.1,0.4,0l1.4,1.4c0.1,0.1,0.1,0.3,0,0.4C60.9,41.7,60.8,41.7,60.7,41.6
				z"/>
		</g>
		<g>
			<path d="M62.1,39L61,37.9c-0.1-0.1-0.1-0.3,0-0.4c0.1-0.1,0.3-0.1,0.4,0l1.1,1.1c0.1,0.1,0.1,0.3,0,0.4
				C62.3,39.1,62.2,39.1,62.1,39z"/>
		</g>
		<g>
			<path d="M50.1,46.5l2.4-2.4c0.1-0.1,0.3-0.1,0.4,0s0.1,0.3,0,0.4l-2.4,2.4C50.2,47.1,49.8,46.7,50.1,46.5z"/>
		</g>
		<g>
			<path d="M53.4,46.2l3.5-3.5c0.2-0.2,0.6,0.1,0.4,0.4l-3.5,3.5C53.5,46.8,53.2,46.4,53.4,46.2z"/>
		</g>
		<g>
			<path d="M57.1,44.3l2.9-2.9c0.2-0.2,0.6,0.1,0.4,0.4l-2.9,2.9C57.2,44.9,56.8,44.6,57.1,44.3z"/>
		</g>
		<g>
			<path d="M59.6,40.5c-0.1-0.1-0.1-0.3,0-0.4l1.6-1.6c0.1-0.1,0.3-0.1,0.4,0c0.1,0.1,0.1,0.3,0,0.4L60,40.5
				C59.9,40.6,59.7,40.6,59.6,40.5z"/>
		</g>
		<g>
			<path d="M48.7,42.6l0.9-0.9c0.1-0.1,0.3-0.1,0.4,0s0.1,0.3,0,0.4l-0.9,0.9C48.8,43.2,48.5,42.8,48.7,42.6z"/>
		</g>
		<g>
			<path d="M46.6,40.4l1.3-1.3c0.1-0.1,0.3-0.1,0.4,0s0.1,0.3,0,0.4L47,40.7C46.8,41,46.4,40.6,46.6,40.4z"/>
		</g>
		<g>
			<path d="M45.6,37.8l2.1-2.1c0.1-0.1,0.3-0.1,0.4,0s0.1,0.3,0,0.4L46,38.2C45.7,38.4,45.4,38,45.6,37.8z"/>
		</g>
		<g>
			<path d="M45.1,34.3l2.3-2.3c0.1-0.1,0.3-0.1,0.4,0s0.1,0.3,0,0.4l-2.3,2.3C45.2,34.9,44.9,34.5,45.1,34.3z"/>
		</g>
		<g>
			<path d="M45.5,30.7l1.4-1.4c0.1-0.1,0.3-0.1,0.4,0s0.1,0.3,0,0.4L45.8,31C45.6,31.3,45.2,30.9,45.5,30.7z"/>
		</g>
		<g>
			<path d="M49.3,44.4l1.7-1.7c0.1-0.1,0.3-0.1,0.4,0s0.1,0.3,0,0.4l-1.7,1.7C49.4,45,49.1,44.6,49.3,44.4z"/>
		</g>
		<g>
			<path d="M51.6,44.1c-0.1,0-0.1,0-0.2-0.1l-2.2-2.2c-0.1-0.1-0.1-0.3,0-0.4s0.3-0.1,0.4,0l2.2,2.2c0.1,0.1,0.1,0.3,0,0.4
				C51.7,44.1,51.6,44.1,51.6,44.1z"/>
		</g>
		<g>
			<path d="M50.4,24.2l1.4-1.4c0.1-0.1,0.3-0.1,0.4,0s0.1,0.3,0,0.4l-1.4,1.4C50.5,24.8,50.2,24.4,50.4,24.2z"/>
		</g>
		<g>
			<path d="M51.9,25.8c-0.2,0-0.3-0.3-0.2-0.4l1.1-1.1c0.1-0.1,0.3-0.1,0.4,0s0.1,0.3,0,0.4l-1.1,1.1C52,25.8,52,25.8,51.9,25.8z"/>
		</g>
		<g>
			<path d="M52.7,27.4l1.9-1.9c0.1-0.1,0.3-0.1,0.4,0s0.1,0.3,0,0.4L53,27.8C52.8,28,52.4,27.6,52.7,27.4z"/>
		</g>
		<g>
			<path d="M54.2,28.8l2.7-2.7c0.1-0.1,0.3-0.1,0.4,0s0.1,0.3,0,0.4l-2.7,2.7C54.3,29.4,54,29,54.2,28.8z"/>
		</g>
		<g>
			<path d="M56.9,29.6l2.7-2.7c0.1-0.1,0.3-0.1,0.4,0s0.1,0.3,0,0.4l-2.7,2.7C57,30.2,56.7,29.8,56.9,29.6z"/>
		</g>
		<g>
			<path d="M60,30.1l2.6-2.6c0.2-0.2,0.6,0.1,0.4,0.4l-2.6,2.6C60.1,30.7,59.8,30.4,60,30.1z"/>
		</g>
		<g>
			<path d="M61.7,19.9c-0.1,0-0.1,0-0.2-0.1c-0.1-0.1-0.1-0.3,0-0.4l1.1-1.1c0.2-0.2,0.6,0.1,0.4,0.4l-1.1,1.1
				C61.8,19.9,61.7,19.9,61.7,19.9z"/>
		</g>
		<g>
			<path d="M60.8,17.2c-0.1-0.1-0.1-0.3,0-0.4l0.7-0.7c0.1-0.1,0.3-0.1,0.4,0c0.1,0.1,0.1,0.3,0,0.4l-0.7,0.7
				C61,17.3,60.9,17.3,60.8,17.2z"/>
		</g>
		<g>
			<path d="M59.4,16c-0.1-0.1-0.1-0.3,0-0.4l0.8-0.8c0.1-0.1,0.3-0.1,0.4,0c0.1,0.1,0.1,0.3,0,0.4L59.7,16
				C59.6,16.1,59.5,16.1,59.4,16z"/>
		</g>
		<g>
			<path d="M57.6,15.2c-0.1,0-0.1,0-0.2-0.1c-0.1-0.1-0.1-0.3,0-0.4l0.9-0.9c0.1-0.1,0.3-0.1,0.4,0c0.1,0.1,0.1,0.3,0,0.4
				C58.5,14.3,57.8,15.2,57.6,15.2z"/>
		</g>
		<g>
			<path d="M53.8,25.8c-0.1,0-0.1,0-0.2-0.1l-2.9-2.9c-0.1-0.1-0.1-0.3,0-0.4s0.3-0.1,0.4,0l2.9,2.9c0.1,0.1,0.1,0.3,0,0.4
				C53.9,25.8,53.8,25.8,53.8,25.8z"/>
		</g>
		<g>
			<path d="M55.6,28.5l-2-2c-0.1-0.1-0.1-0.3,0-0.4s0.3-0.1,0.4,0l2,2c0.1,0.1,0.1,0.3,0,0.4C55.9,28.6,55.7,28.6,55.6,28.5z"/>
		</g>
		<g>
			<path d="M58.5,29.3l-2.2-2.2c-0.1-0.1-0.1-0.3,0-0.4s0.3-0.1,0.4,0l2.2,2.2c0.1,0.1,0.1,0.3,0,0.4C58.7,29.4,58.6,29.4,58.5,29.3
				z"/>
		</g>
		<g>
			<path d="M61.2,30.4l-1.5-1.5c-0.1-0.1-0.1-0.3,0-0.4s0.3-0.1,0.4,0l1.5,1.5c0.1,0.1,0.1,0.3,0,0.4C61.5,30.5,61.3,30.5,61.2,30.4
				z"/>
		</g>
		<g>
			<path d="M63,26.6l-1.3-1.3c-0.1-0.1-0.1-0.3,0-0.4c0.1-0.1,0.3-0.1,0.4,0l1.3,1.3C63.5,26.4,63.2,26.8,63,26.6z"/>
		</g>
		<g>
			<path d="M62.4,19.5l-1.1-1.1c-0.2-0.2,0.1-0.6,0.4-0.4l1.1,1.1c0.1,0.1,0.1,0.3,0,0.4C62.7,19.6,62.5,19.6,62.4,19.5z"/>
		</g>
		<g>
			<path d="M60.9,17l-1.1-1.1c-0.2-0.2,0.1-0.6,0.4-0.4l1.1,1.1c0.1,0.1,0.1,0.3,0,0.4C61.1,17.1,61,17.1,60.9,17z"/>
		</g>
		<g>
			<path d="M59.4,15.7l-1.5-1.5c-0.1-0.1-0.1-0.3,0-0.4c0.1-0.1,0.3-0.1,0.4,0l1.5,1.5c0.1,0.1,0.1,0.3,0,0.4
				C59.6,15.8,59.5,15.8,59.4,15.7z"/>
		</g>
		<g>
			<path d="M14.4,46.8l-2.1-2.1c-0.1-0.1-0.1-0.3,0-0.4c0.1-0.1,0.3-0.1,0.4,0l2.1,2.1C15,46.7,14.7,47,14.4,46.8z"/>
		</g>
		<g>
			<path d="M15.4,45c-0.1,0-0.1,0-0.2-0.1l-1.6-1.6c-0.1-0.1-0.1-0.3,0-0.4s0.3-0.1,0.4,0l1.6,1.6c0.1,0.1,0.1,0.3,0,0.4
				C15.5,44.9,15.4,45,15.4,45z"/>
		</g>
		<g>
			<path d="M16.6,42.5l-1.4-1.4c-0.1-0.1-0.1-0.3,0-0.4s0.3-0.1,0.4,0l1.4,1.4c0.1,0.1,0.1,0.3,0,0.4C16.9,42.6,16.7,42.6,16.6,42.5
				z"/>
		</g>
		<g>
			<path d="M17.7,40.3L16.4,39c-0.1-0.1-0.1-0.3,0-0.4s0.3-0.1,0.4,0l1.3,1.3C18.3,40.2,17.9,40.5,17.7,40.3z"/>
		</g>
		<g>
			<path d="M18.2,38l-0.7-0.7c-0.1-0.1-0.1-0.3,0-0.4s0.3-0.1,0.4,0l0.7,0.7c0.1,0.1,0.1,0.3,0,0.4C18.5,38.1,18.3,38.1,18.2,38z"/>
		</g>
		<g>
			<path d="M18.2,36.2l-1.1-1.1c-0.1-0.1-0.1-0.3,0-0.4c0.1-0.1,0.3-0.1,0.4,0l1.1,1.1c0.1,0.1,0.1,0.3,0,0.4
				C18.5,36.3,18.3,36.3,18.2,36.2z"/>
		</g>
		<g>
			<path d="M18.9,34.3l-1.3-1.3c-0.1-0.1-0.1-0.3,0-0.4c0.1-0.1,0.3-0.1,0.4,0l1.3,1.3c0.1,0.1,0.1,0.3,0,0.4
				C19.2,34.4,19,34.4,18.9,34.3z"/>
		</g>
		<g>
			<path d="M10.7,45.8l-1.1-1.1c-0.1-0.1-0.1-0.3,0-0.4c0.1-0.1,0.3-0.1,0.4,0l1.1,1.1c0.1,0.1,0.1,0.3,0,0.4
				C11,45.9,10.8,45.9,10.7,45.8z"/>
		</g>
		<g>
			<path d="M9.1,45.2l-1.4-1.4c-0.1-0.1-0.1-0.3,0-0.4c0.1-0.1,0.3-0.1,0.4,0l1.4,1.4C9.7,45.1,9.4,45.5,9.1,45.2z"/>
		</g>
		<g>
			<path d="M7.8,44.6l1.4-1.4c0.1-0.1,0.3-0.1,0.4,0c0.1,0.1,0.1,0.3,0,0.4L8.1,45C7.9,45.2,7.5,44.9,7.8,44.6z"/>
		</g>
		<g>
			<path d="M9.7,46.2l2.4-2.4c0.1-0.1,0.3-0.1,0.4,0c0.1,0.1,0.1,0.3,0,0.4l-2.4,2.4C9.8,46.8,9.5,46.4,9.7,46.2z"/>
		</g>
		<g>
			<path d="M12.4,46.4l2.6-2.6c0.1-0.1,0.3-0.1,0.4,0c0.1,0.1,0.1,0.3,0,0.4l-2.6,2.6C12.5,47,12.2,46.7,12.4,46.4z"/>
		</g>
		<g>
			<path d="M14.8,42.3c-0.1,0-0.1,0-0.2-0.1c-0.1-0.1-0.1-0.3,0-0.4l1.4-1.4c0.1-0.1,0.3-0.1,0.4,0c0.1,0.1,0.1,0.3,0,0.4L15,42.2
				C14.9,42.2,14.8,42.3,14.8,42.3z"/>
		</g>
		<g>
			<path d="M16.5,39.7c-0.1,0-0.1,0-0.2-0.1c-0.1-0.1-0.1-0.3,0-0.4l1.7-1.7c0.1-0.1,0.3-0.1,0.4,0s0.1,0.3,0,0.4l-1.7,1.7
				C16.6,39.7,16.6,39.7,16.5,39.7z"/>
		</g>
		<g>
			<path d="M17.2,36.4c-0.1,0-0.1,0-0.2-0.1c-0.1-0.1-0.1-0.3,0-0.4l1.8-1.8c0.1-0.1,0.3-0.1,0.4,0s0.1,0.3,0,0.4l-1.8,1.8
				C17.3,36.4,17.3,36.4,17.2,36.4z"/>
		</g>
		<g>
			<path d="M17.9,34.3c-0.1,0-0.1,0-0.2-0.1c-0.1-0.1-0.1-0.3,0-0.4l0.9-0.9c0.2-0.2,0.6,0.1,0.4,0.4l-0.9,0.9
				C18,34.2,17.9,34.3,17.9,34.3z"/>
		</g>
		<g>
			<path d="M13.6,24.3l-1.4-1.4c-0.1-0.1-0.1-0.3,0-0.4s0.3-0.1,0.4,0l1.4,1.4C14.2,24.2,13.8,24.5,13.6,24.3z"/>
		</g>
		<g>
			<path d="M12.7,25.5l-1.1-1.1c-0.1-0.1-0.1-0.3,0-0.4s0.3-0.1,0.4,0l1.1,1.1C13.3,25.4,12.9,25.7,12.7,25.5z"/>
		</g>
		<g>
			<path d="M11.5,26.9l-1.8-1.8c-0.1-0.1-0.1-0.3,0-0.4s0.3-0.1,0.4,0l1.8,1.8c0.1,0.1,0.1,0.3,0,0.4C11.8,27,11.6,27,11.5,26.9z"/>
		</g>
		<g>
			<path d="M10.3,28.3l-1.5-1.5c-0.1-0.1-0.1-0.3,0-0.4c0.1-0.1,0.3-0.1,0.4,0l1.5,1.5C10.9,28.2,10.5,28.5,10.3,28.3z"/>
		</g>
		<g>
			<path d="M8.5,29.7l-1.6-1.6c-0.1-0.1-0.1-0.3,0-0.4s0.3-0.1,0.4,0l1.6,1.6c0.1,0.1,0.1,0.3,0,0.4C8.7,29.8,8.6,29.8,8.5,29.7z"/>
		</g>
		<g>
			<path d="M6,30l-1.2-1.2c-0.1-0.1-0.1-0.3,0-0.4s0.3-0.1,0.4,0l1.2,1.2c0.1,0.1,0.1,0.3,0,0.4C6.3,30.1,6.1,30.1,6,30z"/>
		</g>
		<g>
			<path d="M3.9,30.8l-0.8-0.8c-0.1-0.1-0.1-0.3,0-0.4c0.1-0.1,0.3-0.1,0.4,0l0.8,0.8C4.5,30.7,4.2,31,3.9,30.8z"/>
		</g>
		<g>
			<path d="M2.4,31.2c-0.1-0.1-0.1-0.3,0-0.4l2.1-2.1c0.1-0.1,0.3-0.1,0.4,0c0.1,0.1,0.1,0.3,0,0.4l-2.1,2.1
				C2.7,31.3,2.5,31.3,2.4,31.2z"/>
		</g>
		<g>
			<path d="M5.1,30l3-3c0.1-0.1,0.3-0.1,0.4,0c0.1,0.1,0.1,0.3,0,0.4l-3,3C5.2,30.6,4.8,30.2,5.1,30z"/>
		</g>
		<g>
			<path d="M8.2,29.2l2.7-2.7c0.1-0.1,0.3-0.1,0.4,0c0.1,0.1,0.1,0.3,0,0.4l-2.7,2.7C8.3,29.8,8,29.5,8.2,29.2z"/>
		</g>
		<g>
			<path d="M10.4,25.4c-0.1,0-0.1,0-0.2-0.1c-0.1-0.1-0.1-0.3,0-0.4l2-2c0.1-0.1,0.3-0.1,0.4,0c0.1,0.1,0.1,0.3,0,0.4l-2,2
				C10.6,25.4,10.5,25.4,10.4,25.4z"/>
		</g>
		<g>
			<path d="M12.4,24.5l1.1-1.1c0.2-0.2,0.6,0.1,0.4,0.4l-1.1,1.1C12.5,25,12.2,24.7,12.4,24.5z"/>
		</g>
		<g>
			<path d="M26.3,36.4c-0.1,0-0.1,0-0.2-0.1l-2.8-2.8c-0.1-0.1-0.1-0.3,0-0.4s0.3-0.1,0.4,0l2.8,2.8c0.1,0.1,0.1,0.3,0,0.4
				C26.4,36.4,26.3,36.4,26.3,36.4z"/>
		</g>
		<g>
			<path d="M27.9,35.9c-0.1,0-0.1,0-0.2-0.1l-3.1-3.1c-0.1-0.1-0.1-0.3,0-0.4s0.3-0.1,0.4,0l3.1,3.1c0.1,0.1,0.1,0.3,0,0.4
				C28,35.9,27.9,35.9,27.9,35.9z"/>
		</g>
		<g>
			<path d="M30.7,34.6c-0.1,0-0.1,0-0.2-0.1l-2.9-2.9c-0.1-0.1-0.1-0.3,0-0.4s0.3-0.1,0.4,0l2.9,2.9c0.1,0.1,0.1,0.3,0,0.4
				C30.8,34.5,30.8,34.6,30.7,34.6z"/>
		</g>
		<g>
			<path d="M23.6,36c-0.1,0-0.1,0-0.2-0.1c-0.1-0.1-0.1-0.3,0-0.4l5.4-5.4c0.1-0.1,0.3-0.1,0.4,0s0.1,0.3,0,0.4l-5.4,5.4
				C23.7,35.9,23.7,36,23.6,36z"/>
		</g>
		<g>
			<path d="M28.9,34.5c-0.1,0-0.1,0-0.2-0.1c-0.1-0.1-0.1-0.3,0-0.4l2.2-2.2c0.1-0.1,0.3-0.1,0.4,0s0.1,0.3,0,0.4L29,34.5
				C29,34.5,28.9,34.5,28.9,34.5z"/>
		</g>
		<g>
			<path d="M25.9,37.9c-0.1,0-0.1,0-0.2-0.1c-0.1-0.1-0.1-0.3,0-0.4l1.7-1.7c0.1-0.1,0.3-0.1,0.4,0c0.1,0.1,0.1,0.3,0,0.4L26,37.9
				C26,37.9,25.9,37.9,25.9,37.9z"/>
		</g>
		<g>
			<path d="M26,31.9c-0.1,0-0.1,0-0.2-0.1c-0.1-0.1-0.1-0.3,0-0.4l1.3-1.3c0.1-0.1,0.3-0.1,0.4,0s0.1,0.3,0,0.4l-1.3,1.3
				C26.1,31.9,26.1,31.9,26,31.9z"/>
		</g>
		<g>
			<path d="M23.3,38.1c-0.1,0-0.1,0-0.2-0.1c-0.1-0.1-0.1-0.3,0-0.4l1-1c0.1-0.1,0.3-0.1,0.4,0c0.1,0.1,0.1,0.3,0,0.4l-1,1
				C23.4,38.1,23.3,38.1,23.3,38.1z"/>
		</g>
		<g>
			<path d="M23.6,36.9c-0.1,0-0.1,0-0.2-0.1l-1.7-1.7c-0.1-0.1-0.1-0.3,0-0.4s0.3-0.1,0.4,0l1.7,1.7c0.1,0.1,0.1,0.3,0,0.4
				C23.7,36.9,23.6,36.9,23.6,36.9z"/>
		</g>
	</g>
</g>
</svg>
