<?xml version="1.0" encoding="utf-8"?>
<!-- Generator: Adobe Illustrator 23.1.0, SVG Export Plug-In . SVG Version: 6.00 Build 0)  -->
<svg version="1.1" id="Слой_1" xmlns="http://www.w3.org/2000/svg" xmlns:xlink="http://www.w3.org/1999/xlink" x="0px" y="0px"
	 viewBox="0 0 65 81.3" style="enable-background:new 0 0 65 81.3;" xml:space="preserve">
<g>
	<g>
		<g>
			<g>
				<path d="M48.7,29.3c-2.2,0-4.3-0.4-6.3-1.3c-0.3-0.1-0.4-0.4-0.3-0.7c0.1-0.3,0.4-0.4,0.7-0.3c7.5,3.4,15.9-0.4,18.4-5.9
					c0.9-2,1-4.2,0.2-6.1c-1-2.4-3.7-4.1-6.3-4.1c-2.6,0.1-5.2,2-6,4.4c-0.1,0.3-0.4,0.4-0.6,0.3c-0.3-0.1-0.4-0.4-0.3-0.6
					c1-2.9,3.8-5,6.9-5.1c3.1-0.1,6.1,1.8,7.2,4.7c0.9,2.1,0.8,4.6-0.2,6.8C60,26.3,54.4,29.3,48.7,29.3z"/>
			</g>
			<g>
				<path d="M34.8,16.3c-1-4.2-0.2-8.5,2.1-11.5c2.6-3.4,7.1-5,10.9-3.9c4.1,1.2,6.8,5.8,5.7,9.7c-0.1,0.3-0.3,0.4-0.6,0.4
					c-0.3-0.1-0.4-0.3-0.4-0.6c0.9-3.4-1.5-7.4-5-8.5c-3.4-1-7.5,0.5-9.8,3.5c-2.1,2.8-2.9,6.8-1.9,10.7c0.1,0.3-0.1,0.5-0.4,0.6
					C35.1,16.7,34.9,16.5,34.8,16.3z"/>
			</g>
			<g>
				<path d="M18.9,23.5c-1.4-3.2-1.5-6.8-0.3-9.8c1.3-3.2,4.1-5.7,7.2-6.5c3.4-0.9,7.1,0.3,9.3,2.8c0.2,0.2,0.2,0.5-0.1,0.7
					c-0.2,0.2-0.5,0.2-0.7-0.1c-1.9-2.3-5.2-3.3-8.2-2.5c-2.9,0.7-5.4,3-6.6,5.9c-1.1,2.8-1,6.1,0.3,9c0.1,0.3,0,0.5-0.3,0.7
					C19.3,23.9,19,23.8,18.9,23.5z"/>
			</g>
			<g>
				<path d="M13.3,50.8c-1,0-2-0.1-3-0.5c-2.3-0.7-5.4-2.7-7.2-8C1.3,36.8,1.8,31,4.6,26.6c3.1-4.8,9-7.5,14.1-6.3
					c0.3,0.1,0.4,0.3,0.4,0.6c-0.1,0.3-0.3,0.4-0.6,0.4c-4.7-1.1-10.2,1.4-13.1,5.9C2.8,31.2,2.3,36.8,4.1,42
					c1.3,3.9,3.6,6.5,6.5,7.4c3.1,1,6.1,0,7.7-1.1c2.9-2.1,4.3-6.1,3.3-9.5c-0.1-0.3,0.1-0.5,0.3-0.6c0.3-0.1,0.5,0.1,0.6,0.3
					c1.2,3.8-0.4,8.3-3.7,10.6C17.3,50.2,15.3,50.8,13.3,50.8z"/>
			</g>
			<g>
				<path d="M24.8,40.6c-2.2,0-4.3-1.2-5.1-3.2c-0.1-0.3,0-0.5,0.3-0.7c0.3-0.1,0.5,0,0.7,0.3c0.8,1.8,3.2,2.9,5.3,2.4
					c2-0.5,3.8-2.1,4.6-4.3c0.7-1.8,0.9-4.1,0.5-6.7c0-0.3,0.1-0.5,0.4-0.6c0.3,0,0.5,0.1,0.6,0.4c0.4,2.8,0.2,5.2-0.6,7.2
					c-1,2.5-3,4.4-5.3,4.9C25.7,40.5,25.2,40.6,24.8,40.6z"/>
			</g>
			<g>
				<path d="M39.3,35.9c-3.1,0-6.1-1.6-7.6-4.3c-0.1-0.2-0.1-0.5,0.2-0.7c0.2-0.1,0.5-0.1,0.7,0.2c1.6,2.7,5,4.2,8,3.7
					c3.1-0.5,5.7-3.1,6.3-6.2c0.1-0.3,0.3-0.4,0.6-0.4c0.3,0.1,0.4,0.3,0.4,0.6c-0.7,3.5-3.6,6.4-7.1,7
					C40.2,35.9,39.8,35.9,39.3,35.9z"/>
			</g>
			<g>
				<path d="M6.3,24.4C3.8,20.2,4.5,14.4,8,11c3.5-3.4,9.3-4,13.5-1.4c0.2,0.1,0.3,0.5,0.2,0.7c-0.1,0.2-0.5,0.3-0.7,0.2
					c-3.7-2.3-9.1-1.8-12.2,1.3c-3.1,3.1-3.9,8.4-1.6,12.2c0.1,0.2,0.1,0.5-0.2,0.7C6.7,24.7,6.4,24.7,6.3,24.4z"/>
			</g>
			<g>
				<path d="M57.7,55c-3.3-3.5-5.6-8.1-6.4-12.8S51,32.3,53,27.9c0.1-0.3,0.4-0.4,0.7-0.3c0.3,0.1,0.4,0.4,0.3,0.7
					c-1.9,4.3-2.4,9.1-1.6,13.7c0.8,4.6,3,9,6.2,12.3c0.2,0.2,0.2,0.5,0,0.7C58.2,55.2,57.9,55.2,57.7,55z"/>
			</g>
			<g>
				<path d="M44.1,63.3c-3.4-6-9.6-13.9-15-17.1c-2.3-1.3-4.7-2-6.9-1.9c-0.3,0-0.5-0.2-0.5-0.5c0-0.3,0.2-0.5,0.5-0.5
					c2.4-0.1,5,0.6,7.5,2.1c5.6,3.3,11.9,11.4,15.4,17.5C45.3,63.3,44.4,63.8,44.1,63.3z"/>
			</g>
			<g>
				<path d="M43.9,44.2c-1.8,0-2.9-1.6-3.5-3.3c-0.7-1.7-1.2-3.5-1.6-5.4c-0.1-0.3,0.1-0.5,0.4-0.6c0.3-0.1,0.5,0.1,0.6,0.4
					c0.4,1.8,0.9,3.5,1.5,5.2c0.5,1.3,1.4,2.9,2.8,2.6c1.2-0.2,1.7-1.8,1.9-2.7c0.6-2.9,0.5-6-0.2-8.9c-0.1-0.3,0.1-0.5,0.4-0.6
					c0.3-0.1,0.5,0.1,0.6,0.4c0.8,3.1,0.9,6.3,0.3,9.4c-0.4,2-1.4,3.3-2.7,3.5C44.2,44.2,44.1,44.2,43.9,44.2z"/>
			</g>
			<g>
				<path d="M31.7,43l-4.2-3c-0.2-0.2-0.3-0.5-0.1-0.7c0.2-0.2,0.5-0.3,0.7-0.1l4.2,3c1,0.7,2.1,1.3,2.9,0.8
					c0.5-0.4,0.7-1.1,0.5-2.3c-0.2-2-0.8-3.9-1.6-5.8c-0.1-0.3,0-0.5,0.3-0.7c0.3-0.1,0.5,0,0.7,0.3c0.9,1.9,1.4,4,1.7,6.1
					c0.2,1.6-0.1,2.7-1,3.3C34.5,44.6,33,43.9,31.7,43z"/>
			</g>
			<g>
				<path d="M46.4,64.5c-1.1,0-1.9-0.5-2.1-1.2c-0.5-1.7,1.6-4.3,5.4-6.9c2.7-1.8,5.1-2.8,6.8-2.8c1.1,0,1.9,0.5,2.1,1.2
					c0.5,1.7-1.6,4.3-5.4,6.9C50.5,63.5,48.1,64.5,46.4,64.5z M56.5,54.6c-1.5,0-3.8,1-6.3,2.6c-4.1,2.7-5.2,5-5,5.8
					c0.1,0.4,0.7,0.5,1.2,0.5c1.5,0,3.8-1,6.3-2.6C56.8,58.2,59.4,54.6,56.5,54.6z"/>
			</g>
			<g>
				<path d="M20,53.1c-2.1-0.5-3.5-1.9-3.8-3.5c0-0.3,0.2-0.5,0.4-0.6c0.3,0,0.5,0.2,0.6,0.4c0.2,1.2,1.3,2.2,3,2.7
					c2,0.5,4.2,0.2,6-0.9c1.8-1.1,3.1-2.9,3.6-4.9c0.1-0.3,0.3-0.4,0.6-0.4c0.3,0.1,0.4,0.3,0.4,0.6c-0.6,2.3-2,4.3-4.1,5.5
					C24.8,53.3,22.4,53.7,20,53.1z"/>
			</g>
			<g>
				<path d="M53.3,40c-0.8,0-2.6,0-2.4-0.8c0.1-0.3,0.3-0.4,0.6-0.4c3,0.7,6.3-0.4,8.2-2.8c2.3-2.8,2.5-7,0.4-11.7
					c-0.1-0.3,0-0.5,0.3-0.7c0.2-0.1,0.5,0,0.7,0.3c3,6.9,1,11-0.5,12.8C58.8,38.8,56.1,40,53.3,40z"/>
			</g>
		</g>
		<g>
			<path d="M53.3,22.7h-1.2c-0.3,0-0.5-0.2-0.5-0.5s0.2-0.5,0.5-0.5h1.2c0.3,0,0.5,0.2,0.5,0.5C53.8,22.5,53.6,22.7,53.3,22.7z"/>
		</g>
		<g>
			<path d="M45.8,9.9c-0.1,0-0.2,0-0.3-0.1c-0.2-0.2-0.3-0.5-0.1-0.7l0.3-0.4c0.2-0.2,0.5-0.3,0.7-0.1c0.2,0.2,0.3,0.5,0.1,0.7
				l-0.3,0.4C46.1,9.9,46,9.9,45.8,9.9z"/>
		</g>
		<g>
			<path d="M42.4,18C42.4,18,42.4,18,42.4,18c-0.3,0-0.5-0.3-0.5-0.6c0-0.1,0.1-0.2,0.1-0.3c0-0.1,0.1-0.2,0.2-0.2
				c0.2-0.1,0.5,0,0.7,0.2c0.1,0.2,0.1,0.5-0.1,0.6C42.8,17.9,42.6,18,42.4,18z"/>
		</g>
		<g>
			<path d="M37.5,29.9C37.5,29.9,37.4,29.9,37.5,29.9l-0.2,0l-0.2,0c-0.3,0-0.5-0.3-0.4-0.6c0-0.3,0.3-0.5,0.6-0.4l0.2,0
				c0.3,0,0.5,0.3,0.4,0.6C37.9,29.7,37.7,29.9,37.5,29.9z"/>
		</g>
		<g>
			<path d="M34.7,23.6c-0.1,0-0.1,0-0.2,0l-0.1,0c-0.3-0.1-0.4-0.4-0.3-0.7c0.1-0.3,0.4-0.4,0.7-0.3l0.1,0c0.3,0.1,0.4,0.4,0.2,0.7
				C35.1,23.5,34.9,23.6,34.7,23.6z"/>
		</g>
		<g>
			<path d="M30.1,18.2c-0.1,0-0.2,0-0.3-0.1c-0.2-0.2-0.2-0.5,0-0.7l0.1-0.1c0.2-0.2,0.5-0.2,0.7,0c0.2,0.2,0.2,0.5,0,0.7
				c0,0,0,0,0,0.1C30.3,18.2,30.2,18.2,30.1,18.2z"/>
		</g>
		<g>
			<path d="M23.9,23.7L23.9,23.7c-0.2-0.3-0.1-0.6,0.2-0.8c0.2-0.1,0.5,0,0.7,0.2l-0.4,0.2l0.5-0.2l-0.4,0.3L23.9,23.7z"/>
		</g>
		<g>
			<path d="M24.7,15.6c-0.2,0-0.5-0.2-0.5-0.4c0-0.2,0-0.4,0.2-0.5c0.1-0.1,0.3-0.2,0.5-0.2c0.3,0,0.5,0.2,0.5,0.5
				c0,0.2-0.1,0.3-0.2,0.4C25.1,15.5,24.9,15.6,24.7,15.6C24.7,15.6,24.7,15.6,24.7,15.6z"/>
		</g>
		<g>
			<path d="M25.8,36.2c-0.1,0-0.3,0-0.4-0.1l0.4-0.4l-0.4,0.3c0,0-0.1-0.1-0.1-0.1c-0.2-0.2-0.2-0.5,0-0.7c0.2-0.2,0.5-0.2,0.7,0
				l-0.3,0.4l0.4-0.3c0.2,0.2,0.2,0.5,0,0.7C26,36.2,25.9,36.2,25.8,36.2z"/>
		</g>
		<g>
			<path d="M21.8,30.7L21.8,30.7c-0.3,0-0.5-0.2-0.5-0.5s0.2-0.5,0.5-0.5s0.5,0.2,0.5,0.5C22.3,30.5,22.1,30.7,21.8,30.7z"/>
		</g>
		<g>
			<path d="M14.9,27.7c-0.1,0-0.2,0-0.2-0.1c-0.2-0.1-0.3-0.4-0.2-0.7l0.1-0.2c0.1-0.2,0.4-0.3,0.7-0.2c0.2,0.1,0.3,0.4,0.2,0.7
				l-0.1,0.2C15.3,27.6,15.1,27.7,14.9,27.7z"/>
		</g>
		<g>
			<path d="M15.6,39.1L15.6,39.1c-0.3,0-0.5-0.2-0.5-0.5s0.2-0.5,0.5-0.5s0.5,0.2,0.5,0.5C16.1,38.9,15.9,39.1,15.6,39.1z"/>
		</g>
		<g>
			<path d="M17.5,46.2c-0.1,0-0.2,0-0.3-0.1c-0.2-0.2-0.2-0.5,0-0.7c0.2-0.2,0.5-0.2,0.7,0c0,0,0,0,0,0c0.2,0.2,0.2,0.5,0,0.7
				C17.7,46.2,17.6,46.2,17.5,46.2z"/>
		</g>
		<g>
			<path d="M12.9,48.7c-0.3,0-0.5-0.2-0.5-0.5v-0.1c0-0.3,0.2-0.5,0.5-0.5s0.5,0.2,0.5,0.5S13.2,48.7,12.9,48.7z"/>
		</g>
		<g>
			<path d="M7.2,44.1L7.2,44.1c-0.3,0-0.5-0.2-0.5-0.5s0.2-0.5,0.5-0.5s0.5,0.2,0.5,0.5C7.7,43.9,7.5,44.1,7.2,44.1z"/>
		</g>
		<g>
			<path d="M8.6,30.4c-0.2,0-0.3-0.1-0.4-0.2c0,0-0.1-0.1-0.1-0.1c-0.1-0.2,0-0.5,0.2-0.7c0.2-0.1,0.5,0,0.7,0.2c0,0,0,0,0,0
				c0.1,0.2,0,0.6-0.2,0.7C8.8,30.4,8.7,30.4,8.6,30.4z"/>
		</g>
		<g>
			<path d="M14.9,34.4L14.9,34.4c-0.4,0-0.6-0.2-0.6-0.5s0.2-0.5,0.5-0.5s0.5,0.2,0.5,0.5C15.4,34.2,15.2,34.4,14.9,34.4z"/>
		</g>
		<g>
			<path d="M15.1,18.5c-0.2,0-0.4-0.1-0.5-0.3L14.6,18c-0.1-0.3,0-0.5,0.3-0.6c0.3-0.1,0.5,0,0.6,0.3l0.1,0.2c0.1,0.3,0,0.5-0.3,0.6
				C15.3,18.5,15.2,18.5,15.1,18.5z"/>
		</g>
		<g>
			<path d="M15.3,12.9c-0.1,0-0.3-0.1-0.4-0.2c-0.2-0.2-0.2-0.5,0-0.7c0.2-0.2,0.5-0.2,0.7,0c0.2,0.2,0.2,0.5,0,0.7
				c0,0-0.1,0.1-0.1,0.1C15.5,12.8,15.4,12.9,15.3,12.9z"/>
		</g>
		<g>
			<path d="M10.9,15.5c-0.3,0-0.5-0.2-0.5-0.5s0.2-0.5,0.5-0.5s0.5,0.2,0.5,0.5V15C11.4,15.3,11.2,15.5,10.9,15.5z"/>
		</g>
		<g>
			<path d="M8.8,19.9c-0.2,0-0.4-0.1-0.4-0.3c-0.1-0.2,0-0.5,0.2-0.7l0.1,0c0.2-0.1,0.5,0,0.7,0.2c0.1,0.2,0,0.5-0.2,0.7l-0.1,0
				C9,19.9,8.9,19.9,8.8,19.9z"/>
		</g>
		<g>
			<path d="M38.3,13.7c-0.2,0-0.3-0.1-0.4-0.3c0,0,0-0.1,0-0.1c-0.1-0.2,0-0.6,0.2-0.7c0.2-0.1,0.5-0.1,0.7,0.2l0,0.1
				c0.1,0.2,0,0.5-0.2,0.7C38.4,13.7,38.3,13.7,38.3,13.7z"/>
		</g>
		<g>
			<path d="M58.7,17.4c-0.1,0-0.1,0-0.2,0c-0.3-0.1-0.4-0.4-0.3-0.7l0.1-0.2c0.1-0.3,0.4-0.4,0.7-0.3c0.3,0.1,0.4,0.4,0.3,0.7
				l-0.1,0.2C59.1,17.3,58.9,17.4,58.7,17.4z"/>
		</g>
		<g>
			<path d="M30.4,13.6c-0.3,0-0.5-0.2-0.5-0.5s0.2-0.5,0.5-0.5s0.5,0.2,0.5,0.5v0.1C30.9,13.4,30.7,13.6,30.4,13.6z"/>
		</g>
		<g>
			<path d="M27.1,30.9c-0.2-0.2-0.2-0.5,0-0.7c0.2-0.2,0.5-0.2,0.7,0l-0.4,0.4l0.4-0.3l-0.3,0.4L27.1,30.9z"/>
		</g>
		<g>
			<path d="M27.3,48.4c-0.1,0-0.1,0-0.2,0c-0.3-0.1-0.4-0.4-0.2-0.7c0.1-0.3,0.4-0.4,0.7-0.3c0.3,0.1,0.4,0.4,0.3,0.6l0,0.1
				C27.7,48.3,27.5,48.4,27.3,48.4z"/>
		</g>
		<g>
			<path d="M22.9,51.2c-0.3,0-0.5-0.2-0.5-0.5v-0.1c0-0.3,0.2-0.5,0.5-0.5s0.5,0.2,0.5,0.5C23.4,50.9,23.2,51.2,22.9,51.2z"/>
		</g>
		<g>
			<path d="M55.5,36c-0.3,0-0.5-0.2-0.5-0.5v-0.1c0-0.3,0.2-0.5,0.5-0.5s0.5,0.2,0.5,0.5C56,35.7,55.8,36,55.5,36z"/>
		</g>
		<g>
			<path d="M59.5,32.2c0,0-0.1,0-0.1,0l-0.3-0.1c-0.3-0.1-0.4-0.3-0.4-0.6c0.1-0.3,0.3-0.4,0.6-0.4l0.3,0.1c0.3,0.1,0.4,0.3,0.4,0.6
				C59.9,32,59.7,32.2,59.5,32.2z"/>
		</g>
		<g>
			<path d="M56.9,30.6l-0.5-0.2l-0.4-0.2l0-0.1c0.1-0.2,0.4-0.3,0.7-0.2C56.9,30,57,30.3,56.9,30.6l-0.4-0.3L56.9,30.6z"/>
		</g>
	</g>
	<g>
		<path d="M53.7,55l-3.2-3.2c-0.1-0.1-0.1-0.3,0-0.4s0.3-0.1,0.4,0l3.2,3.2c0.1,0.1,0.1,0.3,0,0.4C54,55.1,53.8,55.1,53.7,55z"/>
	</g>
	<g>
		<path d="M55.4,54l-4.3-4.3c-0.1-0.1-0.1-0.3,0-0.4c0.1-0.1,0.3-0.1,0.4,0l4.3,4.3c0.1,0.1,0.1,0.3,0,0.4
			C55.7,54.1,55.5,54.1,55.4,54z"/>
	</g>
	<g>
		<path d="M53.8,49.7l-2-2c-0.1-0.1-0.1-0.3,0-0.4s0.3-0.1,0.4,0l2,2c0.1,0.1,0.1,0.3,0,0.4C54.1,49.7,53.9,49.7,53.8,49.7z"/>
	</g>
	<g>
		<path d="M52.7,46.8c-0.1,0-0.1,0-0.2-0.1l-2.3-2.3c-0.1-0.1-0.1-0.3,0-0.4s0.3-0.1,0.4,0l2.3,2.3c0.1,0.1,0.1,0.3,0,0.4
			C52.8,46.8,52.7,46.8,52.7,46.8z"/>
	</g>
	<g>
		<path d="M51.9,43.1c-0.2,0-1.6-1.5-1.7-1.6c-0.1-0.1-0.1-0.3,0-0.4s0.3-0.1,0.4,0l1.6,1.6c0.1,0.1,0.1,0.3,0,0.4
			C52,43.1,51.9,43.1,51.9,43.1z"/>
	</g>
	<g>
		<path d="M51.1,39.8L49.3,38c-0.1-0.1-0.1-0.3,0-0.4s0.3-0.1,0.4,0l1.8,1.8c0.1,0.1,0.1,0.3,0,0.4C51.4,39.9,51.2,39.9,51.1,39.8z"
			/>
	</g>
	<g>
		<path d="M51.1,36.3l-1.8-1.8c-0.1-0.1-0.1-0.3,0-0.4s0.3-0.1,0.4,0l1.8,1.8c0.1,0.1,0.1,0.3,0,0.4C51.4,36.4,51.2,36.4,51.1,36.3z
			"/>
	</g>
	<g>
		<path d="M51.3,33.8l-1.7-1.7c-0.1-0.1-0.1-0.3,0-0.4c0.1-0.1,0.3-0.1,0.4,0l1.7,1.7c0.1,0.1,0.1,0.3,0,0.4S51.4,33.9,51.3,33.8z"
			/>
	</g>
	<g>
		<path d="M51.8,31.3l-1.5-1.5c-0.1-0.1-0.1-0.3,0-0.4s0.3-0.1,0.4,0l1.5,1.5c0.1,0.1,0.1,0.3,0,0.4C52.1,31.4,51.9,31.4,51.8,31.3z
			"/>
	</g>
	<g>
		<path d="M51.1,55.6l-2.7-2.7c-0.1-0.1-0.1-0.3,0-0.4c0.1-0.1,0.3-0.1,0.4,0l2.7,2.7c0.1,0.1,0.1,0.3,0,0.4
			C51.4,55.7,51.2,55.7,51.1,55.6z"/>
	</g>
	<g>
		<path d="M48.9,56.7c-0.1,0-0.1,0-0.2-0.1l-2.6-2.6c-0.1-0.1-0.1-0.3,0-0.4s0.3-0.1,0.4,0l2.6,2.6C49.2,56.4,49.1,56.7,48.9,56.7z"
			/>
	</g>
	<g>
		<path d="M46.9,58.1l-2.3-2.3c-0.1-0.1-0.1-0.3,0-0.4c0.1-0.1,0.3-0.1,0.4,0l2.3,2.3C47.5,58,47.1,58.3,46.9,58.1z"/>
	</g>
	<g>
		<path d="M45.4,59.5l-2-2c-0.1-0.1-0.1-0.3,0-0.4s0.3-0.1,0.4,0l2,2c0.1,0.1,0.1,0.3,0,0.4C45.7,59.6,45.5,59.6,45.4,59.5z"/>
	</g>
	<g>
		<path d="M44.5,60.9c-0.1,0-0.1,0-0.2-0.1L42.5,59c-0.1-0.1-0.1-0.3,0-0.4s0.3-0.1,0.4,0l1.8,1.8C44.8,60.6,44.7,60.9,44.5,60.9z"
			/>
	</g>
	<g>
		<path d="M42.8,61.1c-0.1-0.1-0.1-0.3,0-0.4l3-3c0.2-0.2,0.6,0.1,0.4,0.4l-3,3C43.1,61.2,42.9,61.2,42.8,61.1z"/>
	</g>
	<g>
		<path d="M44.5,56.8c-0.1-0.1-0.1-0.3,0-0.4l2.9-2.9c0.1-0.1,0.3-0.1,0.4,0s0.1,0.3,0,0.4l-2.9,2.9C44.8,56.9,44.6,56.9,44.5,56.8z
			"/>
	</g>
	<g>
		<path d="M46.1,57.7l3.2-3.2c0.1-0.1,0.3-0.1,0.4,0s0.1,0.3,0,0.4L46.4,58C46.2,58.3,45.9,57.9,46.1,57.7z"/>
	</g>
	<g>
		<path d="M48.6,53.7c-0.1-0.1-0.1-0.3,0-0.4l1.5-1.5c0.1-0.1,0.3-0.1,0.4,0s0.1,0.3,0,0.4L49,53.7C48.9,53.8,48.7,53.8,48.6,53.7z"
			/>
	</g>
	<g>
		<path d="M50.9,54.8c-0.1-0.1-0.1-0.3,0-0.4l2.1-2.1c0.1-0.1,0.3-0.1,0.4,0s0.1,0.3,0,0.4l-2.1,2.1C51.2,54.9,51,54.9,50.9,54.8z"
			/>
	</g>
	<g>
		<path d="M51.7,51.4c-0.1-0.1-0.1-0.3,0-0.4l1.8-1.8c0.1-0.1,0.3-0.1,0.4,0s0.1,0.3,0,0.4l-1.8,1.8C52,51.5,51.8,51.5,51.7,51.4z"
			/>
	</g>
	<g>
		<path d="M53.7,53.8c-0.1-0.1-0.1-0.3,0-0.4l0.9-0.9c0.1-0.1,0.3-0.1,0.4,0c0.1,0.1,0.1,0.3,0,0.4C54.7,53.2,54,54,53.7,53.8z"/>
	</g>
	<g>
		<path d="M50.5,46.7c-0.1-0.1-0.1-0.3,0-0.4l1.1-1.1c0.1-0.1,0.3-0.1,0.4,0c0.1,0.1,0.1,0.3,0,0.4l-1.1,1.1
			C50.8,46.8,50.6,46.8,50.5,46.7z"/>
	</g>
	<g>
		<path d="M50.3,42.9c-0.1-0.1-0.1-0.3,0-0.4l1-1c0.1-0.1,0.3-0.1,0.4,0s0.1,0.3,0,0.4l-1,1C50.5,43,50.4,43,50.3,42.9z"/>
	</g>
	<g>
		<path d="M49.6,39.9c-0.1-0.1-0.1-0.3,0-0.4l1.2-1.2c0.1-0.1,0.3-0.1,0.4,0s0.1,0.3,0,0.4l-1.2,1.2C49.8,40,49.7,40,49.6,39.9z"/>
	</g>
	<g>
		<path d="M49.6,36.1c-0.1-0.1-0.1-0.3,0-0.4l1.6-1.6c0.1-0.1,0.3-0.1,0.4,0s0.1,0.3,0,0.4L50,36.1C49.9,36.2,49.7,36.2,49.6,36.1z"
			/>
	</g>
	<g>
		<path d="M49.6,32.9c-0.1-0.1-0.1-0.3,0-0.4l1.7-1.7c0.1-0.1,0.3-0.1,0.4,0s0.1,0.3,0,0.4l-1.7,1.7C49.8,33,49.7,33,49.6,32.9z"/>
	</g>
	<g>
		<path d="M50,30.4c-0.1-0.1-0.1-0.3,0-0.4l0.9-0.9c0.1-0.1,0.3-0.1,0.4,0s0.1,0.3,0,0.4l-0.9,0.9C50.2,30.5,50.1,30.5,50,30.4z"/>
	</g>
	<g>
		<path d="M48.6,31l-1.5-1.5c-0.1-0.1-0.1-0.3,0-0.4c0.1-0.1,0.3-0.1,0.4,0l1.5,1.5C49.2,30.9,48.8,31.3,48.6,31z"/>
	</g>
	<g>
		<path d="M48.1,33.1c-0.1,0-0.1,0-0.2-0.1l-1.4-1.4c-0.1-0.1-0.1-0.3,0-0.4s0.3-0.1,0.4,0l1.4,1.4c0.1,0.1,0.1,0.3,0,0.4
			C48.3,33.1,48.2,33.1,48.1,33.1z"/>
	</g>
	<g>
		<path d="M47.9,35.1l-1.5-1.5c-0.1-0.1-0.1-0.3,0-0.4s0.3-0.1,0.4,0l1.5,1.5c0.1,0.1,0.1,0.3,0,0.4C48.2,35.2,48,35.2,47.9,35.1z"
			/>
	</g>
	<g>
		<path d="M47.9,38l-1.3-1.3c-0.1-0.1-0.1-0.3,0-0.4s0.3-0.1,0.4,0l1.3,1.3C48.5,37.9,48.1,38.3,47.9,38z"/>
	</g>
	<g>
		<path d="M47.8,40.8l-1.3-1.3c-0.1-0.1-0.1-0.3,0-0.4s0.3-0.1,0.4,0l1.3,1.3c0.1,0.1,0.1,0.3,0,0.4C48,40.9,47.9,40.9,47.8,40.8z"
			/>
	</g>
	<g>
		<path d="M47.1,43.6l-1.2-1.2c-0.1-0.1-0.1-0.3,0-0.4s0.3-0.1,0.4,0l1.2,1.2c0.1,0.1,0.1,0.3,0,0.4C47.4,43.7,47.2,43.7,47.1,43.6z
			"/>
	</g>
	<g>
		<path d="M45.4,45l-1.1-1.1c-0.1-0.1-0.1-0.3,0-0.4c0.1-0.1,0.3-0.1,0.4,0l1.1,1.1c0.1,0.1,0.1,0.3,0,0.4
			C45.7,45.1,45.5,45.1,45.4,45z"/>
	</g>
	<g>
		<path d="M36.4,36.7l-1.6-1.6c-0.1-0.1-0.1-0.3,0-0.4s0.3-0.1,0.4,0l1.6,1.6c0.1,0.1,0.1,0.3,0,0.4C36.6,36.8,36.5,36.8,36.4,36.7z
			"/>
	</g>
	<g>
		<path d="M37.6,36.6l-1.1-1.1c-0.1-0.1-0.1-0.3,0-0.4c0.1-0.1,0.3-0.1,0.4,0l1.1,1.1c0.1,0.1,0.1,0.3,0,0.4
			C37.8,36.7,37.7,36.7,37.6,36.6z"/>
	</g>
	<g>
		<path d="M37.1,39.2l-1.4-1.4c-0.1-0.1-0.1-0.3,0-0.4s0.3-0.1,0.4,0l1.4,1.4c0.1,0.1,0.1,0.3,0,0.4C37.3,39.3,37.2,39.3,37.1,39.2z
			"/>
	</g>
	<g>
		<path d="M37.4,42.1c-0.1,0-0.1,0-0.2-0.1L36.2,41c-0.1-0.1-0.1-0.3,0-0.4c0.1-0.1,0.3-0.1,0.4,0l1.1,1.1c0.1,0.1,0.1,0.3,0,0.4
			C37.6,42.1,37.5,42.1,37.4,42.1z"/>
	</g>
	<g>
		<path d="M36.8,43.7L36.1,43c-0.1-0.1-0.1-0.3,0-0.4s0.3-0.1,0.4,0l0.7,0.7c0.1,0.1,0.1,0.3,0,0.4C37,43.8,36.9,43.8,36.8,43.7z"/>
	</g>
	<g>
		<path d="M24.2,41.9l-1.6-1.6c-0.1-0.1-0.1-0.3,0-0.4s0.3-0.1,0.4,0l1.6,1.6C24.8,41.8,24.4,42.1,24.2,41.9z"/>
	</g>
	<g>
		<path d="M23.9,43.7l-1.5-1.5c-0.1-0.1-0.1-0.3,0-0.4s0.3-0.1,0.4,0l1.5,1.5c0.1,0.1,0.1,0.3,0,0.4C24.1,43.8,24,43.8,23.9,43.7z"
			/>
	</g>
	<g>
		<path d="M26.7,42.1L25,40.4c-0.1-0.1-0.1-0.3,0-0.4c0.1-0.1,0.3-0.1,0.4,0l1.7,1.7c0.1,0.1,0.1,0.3,0,0.4
			C27,42.2,26.8,42.2,26.7,42.1z"/>
	</g>
	<g>
		<path d="M28.4,42.2l-1.5-1.5c-0.1-0.1-0.1-0.3,0-0.4s0.3-0.1,0.4,0l1.5,1.5c0.1,0.1,0.1,0.3,0,0.4C28.7,42.3,28.5,42.3,28.4,42.2z
			"/>
	</g>
	<g>
		<path d="M26.3,44.3L25,43c-0.1-0.1-0.1-0.3,0-0.4c0.1-0.1,0.3-0.1,0.4,0l1.2,1.2C26.9,44.2,26.5,44.5,26.3,44.3z"/>
	</g>
	<g>
		<path d="M29.1,45l-1.2-1.2c-0.1-0.1-0.1-0.3,0-0.4s0.3-0.1,0.4,0l1.2,1.2c0.1,0.1,0.1,0.3,0,0.4C29.3,45.1,29.2,45.1,29.1,45z"/>
	</g>
	<g>
		<path d="M25.3,41.8c-0.1-0.1-0.1-0.3,0-0.4l1.4-1.4c0.1-0.1,0.3-0.1,0.4,0s0.1,0.3,0,0.4l-1.4,1.4C25.5,41.9,25.4,41.9,25.3,41.8z
			"/>
	</g>
	<g>
		<path d="M22.4,42.2c-0.1-0.1-0.1-0.3,0-0.4l1.1-1.1c0.1-0.1,0.3-0.1,0.4,0c0.1,0.1,0.1,0.3,0,0.4l-1.1,1.1
			C22.6,42.3,22.5,42.3,22.4,42.2z"/>
	</g>
	<g>
		<path d="M23.2,43.6c-0.1-0.1-0.1-0.3,0-0.4l1.5-1.5c0.1-0.1,0.3-0.1,0.4,0s0.1,0.3,0,0.4l-1.5,1.5C23.5,43.7,23.3,43.7,23.2,43.6z
			"/>
	</g>
	<g>
		<path d="M25.5,44.1c-0.1-0.1-0.1-0.3,0-0.4l0.9-0.9c0.1-0.1,0.3-0.1,0.4,0s0.1,0.3,0,0.4l-0.9,0.9C25.8,44.2,25.6,44.2,25.5,44.1z
			"/>
	</g>
	<g>
		<path d="M28,44.2l0.9-0.9c0.1-0.1,0.3-0.1,0.4,0c0.1,0.1,0.1,0.3,0,0.4l-0.9,0.9C28.1,44.8,27.8,44.4,28,44.2z"/>
	</g>
	<g>
		<path d="M27.8,41.3c-0.1,0-0.1,0-0.2-0.1c-0.1-0.1-0.1-0.3,0-0.4l0.4-0.4c0.1-0.1,0.3-0.1,0.4,0c0.1,0.1,0.1,0.3,0,0.4L28,41.2
			C27.9,41.2,27.9,41.3,27.8,41.3z"/>
	</g>
	<g>
		<path d="M36.3,36.5c-0.1-0.1-0.1-0.3,0-0.4l0.8-0.8c0.1-0.1,0.3-0.1,0.4,0c0.1,0.1,0.1,0.3,0,0.4l-0.8,0.8
			C36.5,36.6,36.4,36.6,36.3,36.5z"/>
	</g>
	<g>
		<path d="M36.1,39.2c-0.1-0.1-0.1-0.3,0-0.4l1-1c0.1-0.1,0.3-0.1,0.4,0s0.1,0.3,0,0.4l-1,1C36.3,39.3,36.2,39.3,36.1,39.2z"/>
	</g>
	<g>
		<path d="M36.3,41.4c-0.1-0.1-0.1-0.3,0-0.4l0.8-0.8c0.1-0.1,0.3-0.1,0.4,0s0.1,0.3,0,0.4l-0.8,0.8C36.5,41.5,36.3,41.5,36.3,41.4z
			"/>
	</g>
	<g>
		<path d="M36.3,43.6c-0.1,0-0.1,0-0.2-0.1c-0.1-0.1-0.1-0.3,0-0.4l1.5-1.5c0.1-0.1,0.3-0.1,0.4,0c0.1,0.1,0.1,0.3,0,0.4l-1.5,1.5
			C36.4,43.6,36.4,43.6,36.3,43.6z"/>
	</g>
	<g>
		<path d="M37.9,37.4c-0.1-0.1-0.1-0.3,0-0.4l0.9-0.9c0.1-0.1,0.3-0.1,0.4,0c0.1,0.1,0.1,0.3,0,0.4l-0.9,0.9
			C38.2,37.5,38,37.5,37.9,37.4z"/>
	</g>
	<g>
		<path d="M39,38.3c-0.1-0.1-0.1-0.3,0-0.4l0.4-0.4c0.1-0.1,0.3-0.1,0.4,0s0.1,0.3,0,0.4l-0.4,0.4C39.2,38.4,39.1,38.4,39,38.3z"/>
	</g>
	<g>
		<path d="M47.5,30.8c-0.1-0.1-0.1-0.3,0-0.4l1-1c0.1-0.1,0.3-0.1,0.4,0c0.1,0.1,0.1,0.3,0,0.4l-1,1C47.7,30.9,47.6,30.9,47.5,30.8z
			"/>
	</g>
	<g>
		<path d="M47,32.9c-0.1-0.1-0.1-0.3,0-0.4l1.2-1.2c0.1-0.1,0.3-0.1,0.4,0c0.1,0.1,0.1,0.3,0,0.4l-1.2,1.2C47.2,33,47.1,33,47,32.9z
			"/>
	</g>
	<g>
		<path d="M47.1,35c-0.1-0.1-0.1-0.3,0-0.4l1.3-1.3c0.1-0.1,0.3-0.1,0.4,0s0.1,0.3,0,0.4L47.5,35C47.4,35.1,47.2,35.1,47.1,35z"/>
	</g>
	<g>
		<path d="M46.8,38.4c-0.1-0.1-0.1-0.3,0-0.4l1.3-1.3c0.1-0.1,0.3-0.1,0.4,0s0.1,0.3,0,0.4l-1.3,1.3C47.1,38.5,46.9,38.5,46.8,38.4z
			"/>
	</g>
	<g>
		<path d="M46.7,41c-0.1-0.1-0.1-0.3,0-0.4l1.4-1.4c0.1-0.1,0.3-0.1,0.4,0s0.1,0.3,0,0.4L47.1,41C47,41.1,46.8,41.1,46.7,41z"/>
	</g>
	<g>
		<path d="M46.2,43.1l1-1c0.1-0.1,0.3-0.1,0.4,0c0.1,0.1,0.1,0.3,0,0.4l-1,1C46.3,43.7,46,43.4,46.2,43.1z"/>
	</g>
	<g>
		<path d="M44.6,45.1c-0.1-0.1-0.1-0.3,0-0.4l0.8-0.8c0.1-0.1,0.3-0.1,0.4,0c0.1,0.1,0.1,0.3,0,0.4l-0.8,0.8
			C44.8,45.2,44.7,45.2,44.6,45.1z"/>
	</g>
	<g>
		<path d="M39.7,49.9l-2.6-2.6c-0.1-0.1-0.1-0.3,0-0.4s0.3-0.1,0.4,0l2.6,2.6c0.1,0.1,0.1,0.3,0,0.4C40,50,39.8,50,39.7,49.9z"/>
	</g>
	<g>
		<path d="M42.7,49.7l-3.8-3.8c-0.1-0.1-0.1-0.3,0-0.4s0.3-0.1,0.4,0l3.8,3.8c0.1,0.1,0.1,0.3,0,0.4C43,49.8,42.8,49.8,42.7,49.7z"
			/>
	</g>
	<g>
		<path d="M37.9,49c-0.1-0.1-0.1-0.3,0-0.4l2.7-2.7c0.1-0.1,0.3-0.1,0.4,0s0.1,0.3,0,0.4L38.2,49C38.1,49.1,38,49.1,37.9,49z"/>
	</g>
	<g>
		<path d="M41.5,50.5l-1.2-1.2c-0.1-0.1-0.1-0.3,0-0.4c0.1-0.1,0.3-0.1,0.4,0l1.2,1.2c0.1,0.1,0.1,0.3,0,0.4
			C41.7,50.6,41.6,50.6,41.5,50.5z"/>
	</g>
	<g>
		<path d="M42,46.9l-1.8-1.8c-0.1-0.1-0.1-0.3,0-0.4s0.3-0.1,0.4,0l1.8,1.8c0.1,0.1,0.1,0.3,0,0.4C42.3,47,42.1,47,42,46.9z"/>
	</g>
</g>
</svg>
