<?xml version="1.0" encoding="utf-8"?>
<!-- Generator: Adobe Illustrator 23.1.0, SVG Export Plug-In . SVG Version: 6.00 Build 0)  -->
<svg version="1.1" id="Слой_1" xmlns="http://www.w3.org/2000/svg" xmlns:xlink="http://www.w3.org/1999/xlink" x="0px" y="0px"
	 viewBox="0 0 65 81.3" style="enable-background:new 0 0 65 81.3;" xml:space="preserve">
<g>
	<g>
		<g>
			<g>
				<path d="M31.8,13.3c-0.7,0-3.3-0.1-4.7-1.1c-1.7-1.2-2.8-5-3-6.8c-0.4-3.1,1.3-3.8,3.1-4.2c1.6-0.4,3.4-0.8,5.2-0.7
					c3.6,0.3,5.7,2.4,5.4,7c-0.1,1.1-0.2,2.3-0.9,3.4c-0.9,1.5-2.8,2.4-4.9,2.5L31.8,13.3z M27.4,2.2c-1.8,0.4-2.7,0.9-2.4,3.1
					c0.2,1.9,1.4,5.3,2.6,6.1c1,0.7,2.8,0.9,4.2,0.9l0.2,0c1.4,0,3.2-0.6,4-2c0.5-0.9,0.7-1.9,0.7-2.9C37,4,35.9,1.8,32.3,1.5
					C30.7,1.4,29,1.8,27.4,2.2z"/>
			</g>
			<g>
				<path d="M29.8,18c-1,0-1.9,0-2.9-0.1c-1.1-0.1-2.5-0.4-3.2-1.4c-0.7-1.1-0.3-2.5,0.3-3.3c0.7-0.9,1.6-1.4,2.5-1.9
					c0.2-0.1,0.5-0.1,0.7,0.2c0.1,0.2,0,0.5-0.2,0.7c-0.8,0.5-1.6,0.9-2.2,1.6c-0.4,0.6-0.7,1.5-0.3,2.2c0.5,0.7,1.5,0.9,2.4,1
					c2.9,0.3,5.7,0.1,8.5-0.4c0.8-0.1,1.6-0.4,2-0.9c0.4-0.6,0.3-1.5,0-2.1c-0.4-0.7-1.1-1.3-1.8-1.8c-0.2-0.2-0.3-0.5-0.1-0.7
					c0.2-0.2,0.5-0.3,0.7-0.1c0.7,0.6,1.5,1.2,2.1,2.1c0.6,1.1,0.6,2.3,0,3.2c-0.6,0.8-1.6,1.1-2.6,1.3C33.8,17.8,31.8,18,29.8,18z"
					/>
			</g>
			<g>
				<path d="M30.6,64.5c-3.5,0-6.8-0.3-8.8-0.9c-3.4-1-5.8-2.9-7.1-5.5c-1.3-2.6-1.3-5.8,0-9.2c0.6-1.7,1.7-3.5,3-5.7
					c3.3-5.6,7.8-13.2,10-25.7c0-0.3,0.3-0.5,0.6-0.4c0.3,0,0.5,0.3,0.4,0.6c-2.2,12.7-6.8,20.4-10.1,26.1c-1.3,2.1-2.4,4-3,5.6
					c-1.2,3.1-1.2,6-0.1,8.4c1.1,2.3,3.4,4,6.5,5c4.2,1.3,14.7,1.3,19.3-0.5c2.8-1,5.9-3.4,6.7-7c0.7-3.5-1.1-6.9-2.8-10.3
					c-4.6-8.8-8.5-18.1-11.5-27.5c-0.1-0.3,0.1-0.5,0.3-0.6c0.3-0.1,0.5,0.1,0.6,0.3c3,9.4,6.8,18.6,11.4,27.3c1.8,3.4,3.7,7.1,3,11
					c-0.7,3.3-3.5,6.3-7.3,7.7C39.1,64.1,34.7,64.5,30.6,64.5z"/>
			</g>
			<g>
				<path d="M46.5,47.4c-0.7-3.7,0.6-7.3,1.8-10.7c1.1-3.2,2.3-6.4,1.8-9.7c-0.4-2.9-1.9-3-4.1-2.8l-9.2,0.6c-0.3,0-0.5-0.2-0.5-0.5
					c0-0.3,0.2-0.5,0.5-0.5l9.2-0.6c2.3-0.2,4.6,0,5.1,3.7c0.5,3.5-0.7,6.9-1.9,10.2c-1.2,3.2-2.2,6.3-1.9,9.5
					c0.1,0,0.2,0.1,0.3,0.1C48.3,47.2,46.7,48.4,46.5,47.4z"/>
			</g>
			<g>
				<path d="M43.4,41c-1.1-2.1-0.5-4.3,0.2-6.5c0.3-1.1,0.6-2.2,0.7-3.2c0.1-1.3-0.3-3-1.7-3.7c-1.3-0.7-3.1-0.2-4.6,0.4
					c-0.3,0.1-0.5,0-0.6-0.3c-0.1-0.3,0-0.5,0.3-0.6c1.7-0.6,3.7-1.2,5.4-0.3c1.7,1,2.3,3.1,2.2,4.7c-0.1,1.1-0.4,2.3-0.7,3.4
					c-0.6,2.1-1.2,4-0.2,5.8c0.1,0.2,0,0.5-0.2,0.7C43.8,41.3,43.5,41.2,43.4,41z"/>
			</g>
		</g>
		<g>
			<path d="M31.8,61.7c-2.9,0-5.7-0.6-8.3-1.6c-2.1-0.9-3.5-2-4.3-3.3c-1.4-2.5-0.7-5.5,0.2-8.1c1.5-4.4,3.4-9.4,6-13.8
				c0.1-0.2,0.3-0.3,0.5-0.2c3.6,0.5,7.4,0.3,10.9-0.8c0.2-0.1,0.5,0,0.6,0.2c2.3,4.2,4.9,9.3,7.1,14.4c2.1,4.7,2.3,8.7-4.1,11.5
				C37.7,61.1,34.7,61.7,31.8,61.7z M26.1,35.6c-2.5,4.3-4.3,9.1-5.7,13.3c-0.8,2.4-1.5,5.1-0.3,7.2c0.7,1.2,1.9,2.1,3.8,2.9
				c8.9,3.7,19.6,0.1,20.8-4.5c0.5-1.8-0.3-3.8-1.1-5.7c-2.2-4.9-4.7-9.8-6.9-14C33.2,35.8,29.6,36.1,26.1,35.6z"/>
		</g>
	</g>
	<g>
		<path d="M38,58.7l-3.2-3.2c-0.1-0.1-0.1-0.3,0-0.4c0.1-0.1,0.3-0.1,0.4,0l3.2,3.2c0.1,0.1,0.1,0.3,0,0.4
			C38.2,58.8,38.1,58.8,38,58.7z"/>
	</g>
	<g>
		<path d="M40.3,59l-3.7-3.7c-0.1-0.1-0.1-0.3,0-0.4s0.3-0.1,0.4,0l3.7,3.7c0.1,0.1,0.1,0.3,0,0.4C40.6,59.1,40.4,59.1,40.3,59z"/>
	</g>
	<g>
		<path d="M42,56.5l-3-3c-0.1-0.1-0.1-0.3,0-0.4s0.3-0.1,0.4,0l3,3c0.1,0.1,0.1,0.3,0,0.4C42.3,56.5,42.1,56.5,42,56.5z"/>
	</g>
	<g>
		<path d="M43.5,53.6l-2.3-2.3c-0.1-0.1-0.1-0.3,0-0.4s0.3-0.1,0.4,0l2.3,2.3c0.1,0.1,0.1,0.3,0,0.4C43.7,53.7,43.6,53.7,43.5,53.6z
			"/>
	</g>
	<g>
		<path d="M44.3,50.8L42,48.5c-0.1-0.1-0.1-0.3,0-0.4s0.3-0.1,0.4,0l2.4,2.4c0.1,0.1,0.1,0.3,0,0.4C44.6,50.9,44.4,50.9,44.3,50.8z"
			/>
	</g>
	<g>
		<path d="M33.9,60.6l-2.8-2.8c-0.1-0.1-0.1-0.3,0-0.4s0.3-0.1,0.4,0l2.8,2.8c0.1,0.1,0.1,0.3,0,0.4C34.2,60.7,34,60.7,33.9,60.6z"
			/>
	</g>
	<g>
		<path d="M36.1,59.8l-2.7-2.7c-0.1-0.1-0.1-0.3,0-0.4s0.3-0.1,0.4,0l2.7,2.7c0.1,0.1,0.1,0.3,0,0.4C36.4,59.9,36.2,59.9,36.1,59.8z
			"/>
	</g>
	<g>
		<path d="M30.4,60.8l-1.9-1.9c-0.1-0.1-0.1-0.3,0-0.4s0.3-0.1,0.4,0l1.9,1.9c0.1,0.1,0.1,0.3,0,0.4C30.7,60.9,30.5,60.9,30.4,60.8z
			"/>
	</g>
	<g>
		<path d="M28,60.4l-1.8-1.8c-0.1-0.1-0.1-0.3,0-0.4s0.3-0.1,0.4,0l1.8,1.8c0.1,0.1,0.1,0.3,0,0.4C28.3,60.5,28.1,60.5,28,60.4z"/>
	</g>
	<g>
		<path d="M26.1,60.2c-0.1-0.1-0.1-0.3,0-0.4l3.4-3.4c0.1-0.1,0.3-0.1,0.4,0s0.1,0.3,0,0.4l-3.4,3.4C26.4,60.3,26.2,60.3,26.1,60.2z
			"/>
	</g>
	<g>
		<path d="M29.5,60.6c-0.1-0.1-0.1-0.3,0-0.4l5.4-5.4c0.1-0.1,0.3-0.1,0.4,0s0.1,0.3,0,0.4l-5.4,5.4C29.8,60.7,29.6,60.7,29.5,60.6z
			"/>
	</g>
	<g>
		<path d="M34.3,59.4l5.2-5.2c0.1-0.1,0.3-0.1,0.4,0s0.1,0.3,0,0.4l-5.2,5.2C34.4,60,34,59.7,34.3,59.4z"/>
	</g>
	<g>
		<path d="M37.9,58.7c-0.1-0.1-0.1-0.3,0-0.4l5.2-5.2c0.1-0.1,0.3-0.1,0.4,0s0.1,0.3,0,0.4l-5.2,5.2C38.2,58.8,38,58.8,37.9,58.7z"
			/>
	</g>
	<g>
		<path d="M40.7,52.7c-0.1-0.1-0.1-0.3,0-0.4l2.9-2.9c0.1-0.1,0.3-0.1,0.4,0s0.1,0.3,0,0.4l-2.9,2.9C41,52.8,40.8,52.8,40.7,52.7z"
			/>
	</g>
	<g>
		<path d="M42.2,55.5l2-2c0.1-0.1,0.3-0.1,0.4,0s0.1,0.3,0,0.4l-2,2C42.3,56.1,42,55.7,42.2,55.5z"/>
	</g>
	<g>
		<path d="M29.8,19.7l-1.6-1.6c-0.1-0.1-0.1-0.3,0-0.4s0.3-0.1,0.4,0l1.6,1.6c0.1,0.1,0.1,0.3,0,0.4C30,19.8,29.9,19.8,29.8,19.7z"
			/>
	</g>
	<g>
		<path d="M31.9,19.3l-1.3-1.3c-0.1-0.1-0.1-0.3,0-0.4c0.1-0.1,0.3-0.1,0.4,0l1.3,1.3c0.1,0.1,0.1,0.3,0,0.4
			C32.2,19.4,32,19.4,31.9,19.3z"/>
	</g>
	<g>
		<path d="M34.1,19.4l-1.3-1.3c-0.1-0.1-0.1-0.3,0-0.4s0.3-0.1,0.4,0l1.3,1.3c0.1,0.1,0.1,0.3,0,0.4C34.3,19.5,34.2,19.5,34.1,19.4z
			"/>
	</g>
	<g>
		<path d="M28.2,19.9c-0.1-0.1-0.1-0.3,0-0.4l1.8-1.8c0.1-0.1,0.3-0.1,0.4,0c0.1,0.1,0.1,0.3,0,0.4l-1.8,1.8
			C28.5,20,28.3,20,28.2,19.9z"/>
	</g>
	<g>
		<path d="M30.9,19.4c-0.1-0.1-0.1-0.3,0-0.4l1.7-1.7c0.1-0.1,0.3-0.1,0.4,0s0.1,0.3,0,0.4l-1.7,1.7C31.2,19.5,31,19.5,30.9,19.4z"
			/>
	</g>
	<g>
		<path d="M32.7,19.3c-0.1-0.1-0.1-0.3,0-0.4l1.5-1.5c0.1-0.1,0.3-0.1,0.4,0s0.1,0.3,0,0.4l-1.5,1.5C33,19.4,32.8,19.4,32.7,19.3z"
			/>
	</g>
	<g>
		<path d="M34.1,13.3l2-1.9c0.1-0.1,0.3-0.1,0.4,0s0.1,0.3,0,0.4l-2,1.9C34.2,13.9,33.9,13.6,34.1,13.3z"/>
	</g>
	<g>
		<path d="M35.2,13.8l1.4-1.4c0.1-0.1,0.3-0.1,0.4,0s0.1,0.3,0,0.4l-1.4,1.4C35.3,14.4,34.9,14,35.2,13.8z"/>
	</g>
	<g>
		<path d="M31.3,14.4l1.8-1.8c0.1-0.1,0.3-0.1,0.4,0c0.1,0.1,0.1,0.3,0,0.4l-1.8,1.8C31.5,15,31.1,14.6,31.3,14.4z"/>
	</g>
	<g>
		<path d="M29.5,14.4l1.3-1.3c0.1-0.1,0.3-0.1,0.4,0s0.1,0.3,0,0.4l-1.3,1.3C29.6,14.9,29.3,14.6,29.5,14.4z"/>
	</g>
	<g>
		<path d="M27.9,14.1c-0.1-0.1-0.1-0.3,0-0.4l0.8-0.8c0.1-0.1,0.3-0.1,0.4,0s0.1,0.3,0,0.4l-0.8,0.8C28.2,14.2,28,14.2,27.9,14.1z"
			/>
	</g>
	<g>
		<path d="M26.7,13.5c-0.1-0.1-0.1-0.3,0-0.4l0.8-0.8c0.1-0.1,0.3-0.1,0.4,0s0.1,0.3,0,0.4l-0.8,0.8C27,13.6,26.8,13.6,26.7,13.5z"
			/>
	</g>
	<g>
		<path d="M27,13.8c-0.2-0.2-0.5-0.5-0.7-0.7c-0.2-0.2-0.2-0.3-0.7,0.2c-0.2,0.2-0.6-0.1-0.4-0.4l0.1-0.1c0.3-0.3,0.7-0.7,1.2-0.1
			c0.2,0.2,0.3,0.3,0.5,0.5c0.2,0.2,0.4,0.4,0.2,0.6C27.2,13.9,27.1,13.9,27,13.8z"/>
	</g>
	<g>
		<path d="M29,14l-1.2-1.2c-0.1-0.1-0.1-0.3,0-0.4c0.1-0.1,0.3-0.1,0.4,0l1.1,1.2C29.6,13.8,29.3,14.2,29,14z"/>
	</g>
	<g>
		<path d="M31,14.6l-1.2-1.2c-0.1-0.1-0.1-0.3,0-0.4c0.1-0.1,0.3-0.1,0.4,0l1.2,1.2c0.1,0.1,0.1,0.3,0,0.4
			C31.3,14.7,31.1,14.7,31,14.6z"/>
	</g>
	<g>
		<path d="M33.2,14.5L32,13.4c-0.1-0.1-0.1-0.3,0-0.4c0.1-0.1,0.3-0.1,0.4,0l1.2,1.2c0.1,0.1,0.1,0.3,0,0.4
			C33.5,14.6,33.3,14.6,33.2,14.5z"/>
	</g>
	<g>
		<path d="M35.1,13.9l-1.1-1.1c-0.1-0.1-0.1-0.3,0-0.4c0.1-0.1,0.3-0.1,0.4,0l1.1,1.1c0.1,0.1,0.1,0.3,0,0.4
			C35.3,14,35.2,14,35.1,13.9z"/>
	</g>
	<g>
		<path d="M36.6,13.6l-1.4-1.4c-0.1-0.1-0.1-0.3,0-0.4c0.1-0.1,0.3-0.1,0.4,0l1.4,1.4C37.2,13.5,36.8,13.9,36.6,13.6z"/>
	</g>
</g>
</svg>
