<?xml version="1.0" encoding="utf-8"?>
<!-- Generator: Adobe Illustrator 23.1.0, SVG Export Plug-In . SVG Version: 6.00 Build 0)  -->
<svg version="1.1" id="Слой_1" xmlns="http://www.w3.org/2000/svg" xmlns:xlink="http://www.w3.org/1999/xlink" x="0px" y="0px"
	 viewBox="0 0 65 81.3" style="enable-background:new 0 0 65 81.3;" xml:space="preserve">
<g>
	<g>
		<g>
			<g>
				<path d="M23.4,27c2.1-7.1,8.2-10.3,11.7-9c5.3,2.1,3.6,10.9-1.6,14C27.8,35.4,22.4,30.4,23.4,27z M24.4,27.3
					c-0.5,1.7,1.3,3.7,2.8,4.4c7.7,3.5,13.9-10.2,7.5-12.7C31.8,17.9,26.3,20.8,24.4,27.3z"/>
			</g>
			<g>
				<path d="M29,32.7c0.2-0.6,1.2-0.3,0.9,0.3c-4.5,13,5.3,17.3,9.3,13.3c1.7-1.7,1.8-4.4,1.2-6.8c-1-4-4.2-7.8-6.4-8.2
					c-1-0.2-0.3-2.5,3.1,0.7c2.1,1.9,3.6,4.5,4.3,7.3C45,53.6,22.4,52,29,32.7z"/>
			</g>
			<g>
				<path d="M42.6,41.2c-0.6,0-1.1-0.1-1.6-0.4c-0.2-0.1-0.3-0.4-0.2-0.7c0.1-0.2,0.4-0.3,0.7-0.2c1,0.5,2.6,0.4,4.1-1.5
					c5.2-6.2,0.5-15.8-7.6-15.5c-0.3,0-0.5-0.2-0.5-0.5c-0.1-1.3,7.4-0.5,10.3,5.3c2.6,5.3-0.2,11.7-3.7,13.1
					C43.6,41.1,43.1,41.2,42.6,41.2z"/>
			</g>
			<g>
				<path d="M45.3,24.4c6.6-2.8,9.6-13.9,0.6-12.7c-3.1,0.4-7.4,2.6-9.4,7.2c-0.3,0.6-1.2,0.2-0.9-0.4c2.1-5,6.8-7.3,10.1-7.8
					c10.1-1.4,7.8,11.3,0,14.6C45.1,25.6,44.7,24.7,45.3,24.4z"/>
			</g>
			<g>
				<path d="M28.9,53c0.2-2.2,1.7-3.8,3.3-5.5c0.5-0.5,1.2,0.2,0.7,0.7c-1.5,1.5-2.9,3-3,4.9c-0.1,1.6,0.8,3.2,2.3,4.2
					c5,3.2,15.4-2.3,15.7-7.5c0.1-1.6-0.6-3.2-1.9-4.2c-1.3-1-3-1.3-4.6-0.8c-0.6,0.2-0.9-0.7-0.3-0.9c4-1.4,8.1,1.8,7.8,6
					c-0.4,5.5-8.4,8.8-11.6,9.3C31.9,59.9,28.6,56.4,28.9,53z"/>
			</g>
			<g>
				<path d="M47.4,51.9c0.2-0.2,0.5-0.3,0.7-0.1c4.1,2.9,9.4-10.6,0.1-17.5c-0.5-0.4,0.1-1.2,0.6-0.8c7.7,5.7,6.2,16.3,2.5,18.9
					C49.4,53.8,46.8,52.8,47.4,51.9z"/>
			</g>
			<g>
				<path d="M54.2,43.9c-0.1,0-0.3-0.1-0.4-0.2l-0.4-0.5c-0.4-0.5,0.4-1.1,0.8-0.6l0.2,0.2c3.8-1.5,4.4-8.8,4.1-11
					c-0.7-5-6.3-5.9-9.7-0.8c-0.4,0.5-1.2,0-0.8-0.6c4-5.9,10.7-4.7,11.6,1.2c0.2,1.6,0,3.1-0.3,4.6c-0.6,3.3-1.6,6.7-4.8,7.6
					C54.3,43.8,54.3,43.9,54.2,43.9z"/>
			</g>
			<g>
				<path d="M57.5,28.8c0.7-2.1,0.5-4.6-0.6-6.5c-1.1-2-3.1-3.4-5.3-3.9c-0.6-0.1-0.4-1.1,0.2-1c5.2,1.2,8.3,6.7,6.6,11.7
					C58.2,29.7,57.3,29.4,57.5,28.8z"/>
			</g>
			<g>
				<path d="M32,18c-0.8-2.1-1.7-4.4-1.7-6.9c0-2.8,1.3-5.3,3.3-6.4c1.6-0.9,3.7-0.9,5.5,0c2.4,1.2,4.1,3.6,4.6,6.8
					c0,0.3-0.1,0.5-0.4,0.6c-0.3,0-0.5-0.1-0.6-0.4c-0.5-2.8-2-5.1-4.1-6.1c-1.5-0.7-3.3-0.8-4.6,0c-1.7,0.9-2.8,3.1-2.7,5.5
					c0,2.3,0.9,4.4,1.7,6.5c0.1,0.3,0,0.5-0.3,0.6C32.4,18.4,32.1,18.3,32,18z"/>
			</g>
			<g>
				<path d="M27,21.2c-6.1-4-7.2-8.2-6.3-11.4C21.2,8,22.5,6.6,24,5.9c2.5-1,5.3,0.2,7.2,1.3c0.2,0.1,0.3,0.5,0.2,0.7
					s-0.5,0.3-0.7,0.2c-1.7-1-4.1-2.1-6.3-1.3c-1.3,0.5-2.3,1.7-2.8,3.2c-1.2,4.2,2.2,7.8,5.9,10.3c0.2,0.2,0.3,0.5,0.1,0.7
					C27.5,21.3,27.2,21.3,27,21.2z"/>
			</g>
			<g>
				<path d="M16.9,32.8c2-2.5,5.5-2.3,7.7-2.3c0.7,0,0.6,1,0,1c-1.4,0-5.1-0.4-6.9,1.9c-2.7,3.4,1.5,14.9,7.8,14.7
					c2-0.1,3.7-1.5,4-3.2c0-0.3,0.3-0.5,0.6-0.4c0.3,0,0.5,0.3,0.4,0.6c-0.4,2.2-2.5,3.9-4.9,4C18.4,49.4,13.7,36.9,16.9,32.8z"/>
			</g>
			<g>
				<path d="M14.4,27.8c-1.6-11,9.1-12.7,8.7-10.7c0,0.3-0.3,0.5-0.6,0.4c-4.2-0.7-8,4.1-7.1,10.1c0.3,2.1,1.2,3.7,2.5,4.6
					c0.2,0.2,0.3,0.5,0.1,0.7C17.3,33.9,14.9,31.1,14.4,27.8z"/>
			</g>
			<g>
				<path d="M24.2,59.7c-2.9-2.2-6.8-8.8-3.7-12.9c0.4-0.5,1.2,0.1,0.8,0.6c-2.6,3.5,0.9,9.4,3.5,11.5c3.3,2.6,7,1.5,8.1-0.9
					c0.3-0.6,1.2-0.2,0.9,0.4C32.4,61.3,28,62.6,24.2,59.7z"/>
			</g>
			<g>
				<path d="M12.2,51.2c-2.1-8.9,4.5-14.4,5-12.5c0.1,0.3-0.1,0.5-0.4,0.6C14.2,40,12,45.9,13.2,51c1.3,5.7,5.8,5.7,7,3.6
					c0.3-0.6,1.2-0.1,0.9,0.5C19.4,58,13.7,57.9,12.2,51.2z"/>
			</g>
			<g>
				<path d="M11.8,45.6c-2.1-0.9-3.8-2-4.9-3.4c-5.1-6.5,2.8-13.7,10-8.7c0.2,0.2,0.3,0.5,0.1,0.7c-0.2,0.2-0.5,0.3-0.7,0.1
					c-6.2-4.3-13,1.7-8.7,7.3c0.9,1.2,2.3,2.2,4.1,2.9c0.4-0.5,1.1,0,0.8,0.6C12.4,45.4,12.3,45.8,11.8,45.6z"/>
			</g>
			<g>
				<path d="M7.6,33.1c-0.8-1.6-1.7-3.3-2.2-5.2c-0.7-2.7-0.3-5.2,1.1-6.9c4.4-5.4,10.2,1.6,8.6,2.3c-0.3,0.1-0.5,0-0.7-0.3
					c-0.7-1.5-2.1-3-3.9-3c-1.2,0-2.4,0.6-3.3,1.6c-1.2,1.5-1.6,3.6-1,6c0.4,1.7,1.3,3.4,2.1,5C8.8,33.2,7.9,33.7,7.6,33.1z"/>
			</g>
			<g>
				<path d="M11.1,19.3c-0.2-2.8,0.8-5.6,2.7-7.7c1.9-2,4.7-3.2,7.4-3.3l0,0c0.3,0,0.5,0.2,0.5,0.5s-0.2,0.5-0.5,0.5
					c-2.5,0-5,1.1-6.7,2.9s-2.6,4.4-2.4,6.9c0,0.3-0.2,0.5-0.5,0.5C11.4,19.8,11.1,19.6,11.1,19.3z"/>
			</g>
			<g>
				<path d="M17.8,61.2C7.2,55.7,0.1,43.6,0.6,31.7c0.7-16.1,15-30.3,31.3-31.1c15.5-0.8,28.9,10.2,32,25.3
					c2.4,11.9-2.4,24.8-11.9,32.1C42.2,65.4,28.4,66.5,17.8,61.2z M31.9,1.5C16.1,2.3,2.2,16.1,1.6,31.7C1.1,43.2,8,55,18.3,60.3
					c10.3,5.2,23.7,4.1,33-3.1C60.5,50,65.2,37.5,62.9,26C59.9,11.5,46.9,0.8,31.9,1.5z"/>
			</g>
		</g>
		<g>
			<path d="M42.8,16.5c-0.2-0.2-0.2-0.5,0-0.7l1.2-1.2c0.5-0.5,1.2,0.2,0.7,0.7l-1.2,1.2C43.3,16.7,43,16.7,42.8,16.5z"/>
		</g>
		<g>
			<path d="M34.4,12.6l-0.6-2c-0.1-0.3,0.1-0.5,0.3-0.6c0.3-0.1,0.5,0.1,0.6,0.3c0.4,1.5,0.9,2.4,0.2,2.6
				C34.8,13.1,34.5,12.9,34.4,12.6z"/>
		</g>
		<g>
			<path d="M24.3,13.8c-0.2,0-0.5-0.2-0.5-0.4c0-0.3-0.2-0.5-0.4-0.6c-0.2-0.2-0.3-0.5-0.1-0.7c0.2-0.2,0.5-0.3,0.7-0.1
				c0.4,0.3,0.7,0.8,0.8,1.3C24.8,13.5,24.6,13.8,24.3,13.8C24.3,13.8,24.3,13.8,24.3,13.8z"/>
		</g>
		<g>
			<path d="M15.9,15.5c-0.2-0.2-0.3-0.5-0.1-0.7l0.8-1.3c0.1-0.2,0.5-0.3,0.7-0.1c0.2,0.2,0.3,0.5,0.1,0.7l-0.8,1.3
				C16.4,15.6,16.1,15.6,15.9,15.5z"/>
		</g>
		<g>
			<path d="M9.7,27.5c-0.2,0-0.3-0.1-0.4-0.2l-0.9-1.4c-0.2-0.2-0.1-0.5,0.1-0.7C8.7,25,9,25.1,9.1,25.3l0.9,1.4
				c0.2,0.2,0.1,0.5-0.1,0.7C9.8,27.5,9.7,27.5,9.7,27.5z"/>
		</g>
		<g>
			<path d="M19.2,22.7c0-0.7-0.3-1.7,0.4-1.7c0.3,0,0.5,0.2,0.5,0.5c0,0.7,0.3,1.7-0.4,1.7C19.4,23.2,19.2,23,19.2,22.7z"/>
		</g>
		<g>
			<path d="M30.3,23.6c-0.1,0-0.2,0-0.3-0.1c-0.2-0.2-0.2-0.5,0-0.7l0.9-0.9c0.2-0.2,0.5-0.2,0.7,0c0.2,0.2,0.2,0.5,0,0.7l-0.9,0.9
				C30.5,23.5,30.4,23.6,30.3,23.6z"/>
		</g>
		<g>
			<path d="M38.6,29.1c-0.3-0.6,0.7-1,0.9-0.4c0.3,0.6,0.8,1.4,0.2,1.7C39,30.6,38.8,29.7,38.6,29.1z"/>
		</g>
		<g>
			<path d="M51.4,32.8c-0.6-0.2-0.2-1,0.1-1.7c0.2-0.6,1.2-0.3,0.9,0.4C52.1,32.1,52,33,51.4,32.8z"/>
		</g>
		<g>
			<path d="M48.7,25.5c-0.3-0.5,0.1-0.7,0.6-1.1c0.5-0.4,1.1,0.4,0.6,0.8C49.5,25.6,49.1,26,48.7,25.5z"/>
		</g>
		<g>
			<path d="M46,42.7c-0.3,0-0.5-0.2-0.5-0.5c0-0.7-0.1-1.5,0.6-1.5c0.6,0,0.5,0.9,0.4,1.5C46.5,42.5,46.3,42.7,46,42.7z"/>
		</g>
		<g>
			<path d="M31.3,38.6c-0.7-0.1-0.4-1.1-0.3-2.4c0-0.3,0.3-0.5,0.5-0.5c0.3,0,0.5,0.3,0.5,0.5l-0.1,1.8
				C31.8,38.4,31.6,38.7,31.3,38.6z"/>
		</g>
		<g>
			<path d="M19.7,38.1c-0.2,0-0.4-0.1-0.5-0.3l-0.6-1.6c-0.1-0.3,0-0.5,0.3-0.6c0.3-0.1,0.5,0,0.6,0.3l0.6,1.6
				c0.1,0.3,0,0.5-0.3,0.6C19.9,38,19.8,38.1,19.7,38.1z"/>
		</g>
		<g>
			<path d="M10.2,40.7c-0.1,0-0.2,0-0.3-0.1c-0.6-0.4-1.5-0.9-1.1-1.5c0.4-0.5,1.1,0.2,1.7,0.7c0.2,0.2,0.3,0.5,0.1,0.7
				C10.5,40.6,10.3,40.7,10.2,40.7z"/>
		</g>
		<g>
			<path d="M15.4,44.4c-0.4-0.5,0.4-1.1,0.8-0.6c0.4,0.5,1,1.1,0.5,1.5C16.2,45.7,15.8,44.9,15.4,44.4z"/>
		</g>
		<g>
			<path d="M22.4,51.1c-0.5-0.4,0.1-1.2,0.6-0.8s1.2,0.8,0.9,1.3C23.5,52.1,22.9,51.5,22.4,51.1z"/>
		</g>
		<g>
			<path d="M40.7,48.8l1.2-1.2c0.5-0.5,1.2,0.2,0.7,0.7l-1.2,1.2C40.9,50,40.2,49.3,40.7,48.8z"/>
		</g>
	</g>
	<g>
		<path d="M34.7,48.1L33,46.4c-0.2-0.2,0.1-0.6,0.4-0.4l1.7,1.7c0.1,0.1,0.1,0.3,0,0.4C35,48.2,34.8,48.2,34.7,48.1z"/>
	</g>
	<g>
		<path d="M36.8,47.8c-0.2,0-1.9-1.8-2-1.9c-0.2-0.2,0.1-0.6,0.4-0.4l1.9,1.9c0.1,0.1,0.1,0.3,0,0.4C36.9,47.8,36.9,47.8,36.8,47.8z
			"/>
	</g>
	<g>
		<path d="M38.5,47l-2.2-2.2c-0.1-0.1-0.1-0.3,0-0.4s0.3-0.1,0.4,0l2.2,2.2c0.1,0.1,0.1,0.3,0,0.4C38.8,47.1,38.6,47.1,38.5,47z"/>
	</g>
	<g>
		<path d="M39.8,44.9l-1.4-1.4c-0.2-0.2,0.1-0.6,0.4-0.4l1.4,1.4c0.1,0.1,0.1,0.3,0,0.4C40,45,39.9,45,39.8,44.9z"/>
	</g>
	<g>
		<path d="M40.4,42.9l-1-1c-0.1-0.1-0.1-0.3,0-0.4c0.1-0.1,0.3-0.1,0.4,0l1,1c0.1,0.1,0.1,0.3,0,0.4C40.7,43,40.5,43,40.4,42.9z"/>
	</g>
	<g>
		<path d="M40.9,41.7c-0.1,0-0.1,0-0.2-0.1l-0.9-0.9c-0.1-0.1-0.1-0.3,0-0.4s0.3-0.1,0.4,0l0.9,0.9c0.1,0.1,0.1,0.3,0,0.4
			C41,41.7,41,41.7,40.9,41.7z"/>
	</g>
	<g>
		<path d="M32.7,47.2l2.8-2.8c0.2-0.2,0.6,0.1,0.4,0.4l-2.8,2.8C32.8,47.8,32.5,47.4,32.7,47.2z"/>
	</g>
	<g>
		<path d="M35.7,47.2l2.2-2.2c0.2-0.2,0.6,0.1,0.4,0.4L36,47.6C35.8,47.8,35.5,47.5,35.7,47.2z"/>
	</g>
	<g>
		<path d="M38.2,46.8c-0.1-0.1-0.1-0.3,0-0.4l1.5-1.5c0.2-0.2,0.6,0.1,0.4,0.4l-1.5,1.5C38.5,46.9,38.3,46.9,38.2,46.8z"/>
	</g>
	<g>
		<path d="M38.3,43.7l1.2-1.2c0.2-0.2,0.6,0.1,0.4,0.4l-1.2,1.2C38.4,44.3,38.1,44,38.3,43.7z"/>
	</g>
	<g>
		<path d="M39.8,43.2l0.9-0.9c0.2-0.2,0.6,0.1,0.4,0.4l-0.9,0.9C39.9,43.8,39.6,43.5,39.8,43.2z"/>
	</g>
	<g>
		<path d="M40.1,41.2c-0.1,0-0.1,0-0.2-0.1c-0.1-0.1-0.1-0.3,0-0.4l0.4-0.4c0.1-0.1,0.3-0.1,0.4,0c0.1,0.1,0.1,0.3,0,0.4l-0.4,0.4
			C40.2,41.1,40.1,41.2,40.1,41.2z"/>
	</g>
	<g>
		<path d="M29.7,47.4l1-1c0.2-0.2,0.6,0.1,0.4,0.4l-1,1C29.8,48,29.5,47.7,29.7,47.4z"/>
	</g>
	<g>
		<path d="M30.6,48.3c-0.1-0.1-0.1-0.3,0-0.4l1-1c0.2-0.2,0.6,0.1,0.4,0.4l-1,1C30.9,48.4,30.7,48.4,30.6,48.3z"/>
	</g>
	<g>
		<path d="M30.5,47.6l-0.9-0.9c-0.1-0.1-0.1-0.3,0-0.4c0.1-0.1,0.3-0.1,0.4,0l0.9,0.9c0.1,0.1,0.1,0.3,0,0.4
			C30.8,47.7,30.6,47.7,30.5,47.6z"/>
	</g>
	<g>
		<path d="M36.9,58.7l-1.2-1.2c-0.2-0.2,0.1-0.6,0.4-0.4l1.2,1.2c0.1,0.1,0.1,0.3,0,0.4C37.2,58.8,37,58.8,36.9,58.7z"/>
	</g>
	<g>
		<path d="M39.9,57.8l-1.4-1.4c-0.1-0.1-0.1-0.3,0-0.4s0.3-0.1,0.4,0l1.4,1.4c0.1,0.1,0.1,0.3,0,0.4C40.1,57.9,40,57.9,39.9,57.8z"
			/>
	</g>
	<g>
		<path d="M41.7,56.9l-1.3-1.3c-0.1-0.1-0.1-0.3,0-0.4s0.3-0.1,0.4,0l1.3,1.3c0.1,0.1,0.1,0.3,0,0.4C41.9,57,41.8,57,41.7,56.9z"/>
	</g>
	<g>
		<path d="M43.2,55.7l-1.1-1.1c-0.1-0.1-0.1-0.3,0-0.4c0.1-0.1,0.3-0.1,0.4,0l1.1,1.1c0.1,0.1,0.1,0.3,0,0.4
			C43.4,55.8,43.3,55.8,43.2,55.7z"/>
	</g>
	<g>
		<path d="M44.6,54.8l-1-1c-0.2-0.2,0.1-0.6,0.4-0.4l1,1c0.1,0.1,0.1,0.3,0,0.4C44.9,54.8,44.7,54.8,44.6,54.8z"/>
	</g>
	<g>
		<path d="M46.2,53.3l-1.1-1.1c-0.2-0.2,0.1-0.6,0.4-0.4l1.1,1.1c0.1,0.1,0.1,0.3,0,0.4C46.4,53.4,46.3,53.4,46.2,53.3z"/>
	</g>
	<g>
		<path d="M47.2,51.9l-1.2-1.2c-0.1-0.1-0.1-0.3,0-0.4s0.3-0.1,0.4,0l1.2,1.2c0.1,0.1,0.1,0.3,0,0.4C47.5,52,47.3,52,47.2,51.9z"/>
	</g>
	<g>
		<path d="M34.5,58.4l-1-1c-0.2-0.2,0.1-0.6,0.4-0.4l1,1c0.1,0.1,0.1,0.3,0,0.4C34.8,58.5,34.6,58.5,34.5,58.4z"/>
	</g>
	<g>
		<path d="M33.7,58.1l1.4-1.4c0.2-0.2,0.6,0.1,0.4,0.4l-1.4,1.4C33.8,58.7,33.5,58.4,33.7,58.1z"/>
	</g>
	<g>
		<path d="M35.9,58.3l2.3-2.3c0.1-0.1,0.3-0.1,0.4,0c0.1,0.1,0.1,0.3,0,0.4l-2.3,2.3C36,58.9,35.6,58.6,35.9,58.3z"/>
	</g>
	<g>
		<path d="M38.9,57.5l3.3-3.3c0.1-0.1,0.3-0.1,0.4,0s0.1,0.3,0,0.4l-3.3,3.3C39.1,58.1,38.7,57.8,38.9,57.5z"/>
	</g>
	<g>
		<path d="M43.1,55.8c-0.1-0.1-0.1-0.3,0-0.4l1.9-1.9c0.2-0.2,0.6,0.1,0.4,0.4l-1.9,1.9C43.3,55.9,43.2,55.9,43.1,55.8z"/>
	</g>
	<g>
		<path d="M45,52.8c-0.2,0-0.3-0.3-0.2-0.4l1.7-1.7c0.1-0.1,0.3-0.1,0.4,0s0.1,0.3,0,0.4C46.8,51.2,45.2,52.8,45,52.8z"/>
	</g>
	<g>
		<path d="M46.4,52.5l0.9-0.9c0.1-0.1,0.3-0.1,0.4,0c0.1,0.1,0.1,0.3,0,0.4l-0.9,0.9C46.5,53.1,46.2,52.8,46.4,52.5z"/>
	</g>
	<g>
		<path d="M25.5,31.9c0.3-0.2,0.6,0.3,0.3,0.5C25.5,32.6,25.3,32.1,25.5,31.9z"/>
	</g>
	<g>
		<path d="M26.1,32.8c0.2-0.3,0.9,0.1,0.6,0.4C26.5,33.6,25.9,33.1,26.1,32.8z"/>
	</g>
	<g>
		<path d="M27.4,33.4c-0.4,0-0.3-0.5,0-0.5h0C27.8,32.9,27.8,33.4,27.4,33.4z"/>
	</g>
	<g>
		<path d="M28,33.3c0.1-0.3,0.6-0.2,0.4,0.4C28.3,33.9,27.8,33.8,28,33.3z"/>
	</g>
	<g>
		<path d="M27.3,34.7c0-0.2,0-0.4,0.3-0.4s0.3,0.2,0.3,0.4C27.8,35.1,27.3,35.1,27.3,34.7z"/>
	</g>
	<g>
		<path d="M27.1,35.6c-0.2-0.3,0.3-0.5,0.4-0.3c0.1,0.2,0,0.3-0.1,0.4C27.3,35.8,27.2,35.7,27.1,35.6z"/>
	</g>
	<g>
		<path d="M29.1,32.5l-1.7-1.7c-0.2-0.2,0.1-0.6,0.4-0.4l1.7,1.7c0.1,0.1,0.1,0.3,0,0.4C29.3,32.6,29.2,32.6,29.1,32.5z"/>
	</g>
	<g>
		<path d="M30.7,32.1l-1.3-1.3c-0.2-0.2,0.1-0.6,0.4-0.4l1.3,1.3c0.1,0.1,0.1,0.3,0,0.4C31,32.2,30.8,32.2,30.7,32.1z"/>
	</g>
	<g>
		<path d="M32.5,31.3l-1.1-1.1c-0.2-0.2,0.1-0.6,0.4-0.4l1.1,1.1c0.1,0.1,0.1,0.3,0,0.4C32.7,31.4,32.6,31.4,32.5,31.3z"/>
	</g>
	<g>
		<path d="M34,30.1l-1.2-1.2c-0.2-0.2,0.1-0.6,0.4-0.4l1.2,1.2c0.1,0.1,0.1,0.3,0,0.4C34.2,30.2,34.1,30.2,34,30.1z"/>
	</g>
	<g>
		<path d="M35.5,28.8l-1.1-1.1c-0.2-0.2,0.1-0.6,0.4-0.4l1.1,1.1c0.1,0.1,0.1,0.3,0,0.4C35.8,28.9,35.6,28.9,35.5,28.8z"/>
	</g>
	<g>
		<path d="M36.6,26.8L35.8,26c-0.2-0.2,0.1-0.6,0.4-0.4l0.8,0.8C37.2,26.6,36.8,27,36.6,26.8z"/>
	</g>
	<g>
		<path d="M37.4,25L36.5,24c-0.2-0.2,0.1-0.6,0.4-0.4l0.9,0.9C38,24.8,37.6,25.2,37.4,25z"/>
	</g>
	<g>
		<path d="M27.7,31.4l1.2-1.2c0.2-0.2,0.6,0.1,0.4,0.4l-1.2,1.2C27.9,32,27.5,31.6,27.7,31.4z"/>
	</g>
	<g>
		<path d="M29.6,31.8l2.4-2.4c0.2-0.2,0.6,0.1,0.4,0.4L30,32.1C29.8,32.4,29.4,32,29.6,31.8z"/>
	</g>
	<g>
		<path d="M32.1,31.1l2.4-2.4c0.2-0.2,0.6,0.1,0.4,0.4l-2.4,2.4C32.2,31.7,31.9,31.3,32.1,31.1z"/>
	</g>
	<g>
		<path d="M34.9,27.3l1.4-1.4c0.2-0.2,0.6,0.1,0.4,0.4l-1.4,1.4C35,27.9,34.6,27.5,34.9,27.3z"/>
	</g>
	<g>
		<path d="M36.3,24.6l0.8-0.8c0.2-0.2,0.6,0.1,0.4,0.4l-0.8,0.8C36.4,25.1,36,24.8,36.3,24.6z"/>
	</g>
	<g>
		<path d="M36.3,30.4c-0.3-0.4,0-0.7,0.4-0.3C36.9,30.3,36.6,30.6,36.3,30.4z"/>
	</g>
	<g>
		<path d="M36.9,30.4c0.4-0.1,0.6,0.6,0.2,0.7C36.8,31.3,36.6,30.6,36.9,30.4z"/>
	</g>
	<g>
		<path d="M37.1,31.7c-0.3,0-0.3-0.5,0-0.5c0.2,0,0.4,0,0.4,0.3S37.3,31.7,37.1,31.7z"/>
	</g>
	<g>
		<path d="M37,29.3c-0.2-0.2,0.1-0.6,0.4-0.4c0.2,0.2,0.3,0.3,0.1,0.5C37.3,29.6,37.2,29.5,37,29.3z"/>
	</g>
	<g>
		<path d="M38.1,31.8c-0.3,0-0.3-0.5,0-0.5C38.6,31.3,38.6,31.8,38.1,31.8z"/>
	</g>
	<g>
		<path d="M42.3,39.8L41,38.5c-0.2-0.2,0.1-0.6,0.4-0.4l1.3,1.3c0.1,0.1,0.1,0.3,0,0.4C42.5,39.9,42.4,39.9,42.3,39.8z"/>
	</g>
	<g>
		<path d="M44,39l-1.2-1.2c-0.1-0.1-0.1-0.3,0-0.4s0.3-0.1,0.4,0l1.2,1.2c0.1,0.1,0.1,0.3,0,0.4C44.3,39.1,44.1,39.1,44,39z"/>
	</g>
	<g>
		<path d="M45.2,37.8l-0.9-0.9c-0.2-0.2,0.1-0.6,0.4-0.4l0.9,0.9c0.1,0.1,0.1,0.3,0,0.4C45.5,37.9,45.3,37.9,45.2,37.8z"/>
	</g>
	<g>
		<path d="M46.3,36.9L45.4,36c-0.2-0.2,0.1-0.6,0.4-0.4l0.9,0.9C46.9,36.8,46.5,37.1,46.3,36.9z"/>
	</g>
	<g>
		<path d="M47,35l-0.7-0.7c-0.2-0.2,0.1-0.6,0.4-0.4l0.7,0.7c0.1,0.1,0.1,0.3,0,0.4C47.3,35.1,47.1,35.1,47,35z"/>
	</g>
	<g>
		<path d="M47.9,33.6l-0.9-0.9c-0.2-0.2,0.1-0.6,0.4-0.4l0.9,0.9c0.1,0.1,0.1,0.3,0,0.4C48.1,33.7,48,33.7,47.9,33.6z"/>
	</g>
	<g>
		<path d="M41.2,39.5c-0.1,0-0.1,0-0.2-0.1c-0.1-0.1-0.1-0.3,0-0.4l2-2c0.1-0.1,0.3-0.1,0.4,0s0.1,0.3,0,0.4l-2,2
			C41.4,39.5,41.3,39.5,41.2,39.5z"/>
	</g>
	<g>
		<path d="M43.2,39.7c-0.1-0.1-0.1-0.3,0-0.4l2.2-2.2c0.2-0.2,0.6,0.1,0.4,0.4l-2.2,2.2C43.4,39.8,43.3,39.8,43.2,39.7z"/>
	</g>
	<g>
		<path d="M45.9,35.5l1.5-1.5c0.2-0.2,0.6,0.1,0.4,0.4l-1.5,1.5C46,36.1,45.7,35.7,45.9,35.5z"/>
	</g>
	<g>
		<path d="M47.1,33.4c-0.3-0.3,0.3-0.6,0.5-0.9c0.2-0.2,0.6,0.1,0.4,0.4C47.7,33.1,47.3,33.6,47.1,33.4z"/>
	</g>
	<g>
		<path d="M42.3,42.1c-0.2,0-0.3-0.3-0.2-0.4c0.1-0.1,0.2-0.1,0.3-0.1s0.2,0.1,0.2,0.3c0,0.1-0.1,0.3-0.2,0.3
			C42.4,42.1,42.3,42.1,42.3,42.1z"/>
	</g>
	<g>
		<path d="M42.3,42.9c0-0.1,0.1-0.3,0.3-0.3c0.1,0,0.3,0.1,0.3,0.3C42.8,43.3,42.3,43.2,42.3,42.9z"/>
	</g>
	<g>
		<path d="M43.3,42.8c-0.1-0.1-0.1-0.2-0.1-0.3l0.2,0.1l-0.2-0.2c0.3,0.1,0.2,0.1,0.4,0.2l-0.1,0.1C43.6,42.9,43.5,42.9,43.3,42.8z"
			/>
	</g>
	<g>
		<path d="M43.8,41.6c0-0.1,0.1-0.3,0.3-0.3c0.1,0,0.3,0.1,0.3,0.3C44.3,42,43.8,41.9,43.8,41.6z"/>
	</g>
	<g>
		<path d="M49.3,31.3c0.2-0.3,0.1-0.2,0.3-0.4l-0.2,0.2l0.2-0.1C49.9,31.2,49.5,31.6,49.3,31.3z"/>
	</g>
	<g>
		<path d="M49.5,32.8c0-0.3,0.5-0.4,0.5,0C50,33.1,49.5,33.1,49.5,32.8z"/>
	</g>
	<g>
		<path d="M49.6,33.2c0.2-0.1,0.4,0,0.4,0.1c0.1,0.1,0,0.3-0.1,0.4C49.6,33.9,49.4,33.4,49.6,33.2z"/>
	</g>
	<g>
		<path d="M55.1,42.7l-1.6-1.6c-0.2-0.2,0.1-0.6,0.4-0.4l1.6,1.6c0.1,0.1,0.1,0.3,0,0.4C55.4,42.8,55.2,42.8,55.1,42.7z"/>
	</g>
	<g>
		<path d="M56,41.5l-1.3-1.3c-0.1-0.1-0.1-0.3,0-0.4s0.3-0.1,0.4,0l1.3,1.3c0.1,0.1,0.1,0.3,0,0.4C56.3,41.5,56.1,41.6,56,41.5z"/>
	</g>
	<g>
		<path d="M56.6,40l-0.9-0.9c-0.2-0.2,0.1-0.6,0.4-0.4l0.9,0.9c0.1,0.1,0.1,0.3,0,0.4C56.8,40.1,56.7,40.1,56.6,40z"/>
	</g>
	<g>
		<path d="M56.9,37.9L56,37c-0.2-0.2,0.1-0.6,0.4-0.4l0.9,0.9c0.1,0.1,0.1,0.3,0,0.4C57.2,38,57,38,56.9,37.9z"/>
	</g>
	<g>
		<path d="M57.8,36.5l-1-1c-0.2-0.2,0.1-0.6,0.4-0.4l1,1c0.1,0.1,0.1,0.3,0,0.4C58,36.6,57.9,36.6,57.8,36.5z"/>
	</g>
	<g>
		<path d="M58.4,35c-0.1,0-0.1,0-0.2-0.1l-0.7-0.7c-0.2-0.2,0.1-0.6,0.4-0.4l0.7,0.7c0.1,0.1,0.1,0.3,0,0.4C58.5,35,58.4,35,58.4,35
			z"/>
	</g>
	<g>
		<path d="M53.8,42.2c-0.1-0.1-0.1-0.3,0-0.4l2-2c0.2-0.2,0.6,0.1,0.4,0.4l-2,2C54,42.3,53.9,42.3,53.8,42.2z"/>
	</g>
	<g>
		<path d="M56.2,40.8c-0.1-0.1-0.1-0.3,0-0.4l1.4-1.4c0.2-0.2,0.6,0.1,0.4,0.4l-1.4,1.4C56.4,40.9,56.3,40.9,56.2,40.8z"/>
	</g>
	<g>
		<path d="M56.1,37l1.3-1.3c0.2-0.2,0.6,0.1,0.4,0.4l-1.3,1.3C56.2,37.6,55.9,37.3,56.1,37z"/>
	</g>
	<g>
		<path d="M57.5,34.5l0.8-0.8c0.1-0.1,0.3-0.1,0.4,0c0.1,0.1,0.1,0.3,0,0.4l-0.8,0.8C57.6,35.1,57.3,34.7,57.5,34.5z"/>
	</g>
	<g>
		<path d="M47.1,25.7c-0.4-0.2-0.2-0.7,0.2-0.5c0.1,0.1,0.2,0.2,0.1,0.4C47.3,25.7,47.2,25.7,47.1,25.7z"/>
	</g>
	<g>
		<path d="M48,27.3c-0.1-0.3,0.3-0.5,0.4-0.2l-0.2,0.1l0.2-0.1C48.2,27.2,48.3,27.2,48,27.3z"/>
	</g>
	<g>
		<path d="M48.4,28.1c-0.3-0.3,0-0.7,0.4-0.3C49,28,48.7,28.4,48.4,28.1z"/>
	</g>
	<g>
		<path d="M56.8,27.1l-2.3-2.3c-0.2-0.2,0.1-0.6,0.4-0.4l2.3,2.3c0.1,0.1,0.1,0.3,0,0.4C57.1,27.2,56.9,27.2,56.8,27.1z"/>
	</g>
	<g>
		<path d="M56.6,24.7l-1.3-1.3c-0.2-0.2,0.1-0.6,0.4-0.4l1.3,1.3c0.1,0.1,0.1,0.3,0,0.4C56.9,24.8,56.7,24.8,56.6,24.7z"/>
	</g>
	<g>
		<path d="M55.1,21.7c-0.2-0.2,0.1-0.6,0.4-0.4l0.9,0.9c0.1,0.1,0.1,0.3,0,0.4C56.1,22.9,55.3,21.9,55.1,21.7z"/>
	</g>
	<g>
		<path d="M55.7,21.9l-1.2-1.2c-0.2-0.2,0.1-0.6,0.4-0.4l1.2,1.2c0.1,0.1,0.1,0.3,0,0.4C56,22,55.8,22,55.7,21.9z"/>
	</g>
	<g>
		<path d="M54.7,26.3l1.8-1.8c0.2-0.2,0.6,0.1,0.4,0.4l-1.8,1.8C54.9,26.9,54.5,26.5,54.7,26.3z"/>
	</g>
	<g>
		<path d="M56.6,26.6v-1.2c0-0.3,0.5-0.3,0.5,0v1.2C57.1,27,56.6,27,56.6,26.6z"/>
	</g>
	<g>
		<path d="M55.5,23.5l1.3-1.3c0.1-0.1,0.3-0.1,0.4,0c0.1,0.1,0.1,0.3,0,0.4l-1.3,1.3C55.6,24.1,55.2,23.7,55.5,23.5z"/>
	</g>
	<g>
		<path d="M54.7,21.2l0.8-0.8c0.2-0.2,0.6,0.1,0.4,0.4L55,21.6C54.8,21.8,54.4,21.5,54.7,21.2z"/>
	</g>
	<g>
		<path d="M45.2,24.5l-1.3-1.3c-0.2-0.2,0.1-0.6,0.4-0.4l1.3,1.3c0.1,0.1,0.1,0.3,0,0.4C45.5,24.6,45.3,24.6,45.2,24.5z"/>
	</g>
	<g>
		<path d="M46.7,23.2l-1.2-1.2c-0.2-0.2,0.1-0.6,0.4-0.4l1.2,1.2c0.1,0.1,0.1,0.3,0,0.4C47,23.3,46.8,23.3,46.7,23.2z"/>
	</g>
	<g>
		<path d="M47.7,22.1L46.5,21c-0.2-0.2,0.1-0.6,0.4-0.4l1.1,1.1c0.1,0.1,0.1,0.3,0,0.4C47.9,22.2,47.8,22.2,47.7,22.1z"/>
	</g>
	<g>
		<path d="M49,20.9l-1.3-1.3c-0.2-0.2,0.1-0.6,0.4-0.4l1.3,1.3C49.6,20.8,49.2,21.1,49,20.9z"/>
	</g>
	<g>
		<path d="M49.8,19.4l-1-1c-0.2-0.2,0.1-0.6,0.4-0.4l1,1c0.1,0.1,0.1,0.3,0,0.4C50,19.5,49.8,19.5,49.8,19.4z"/>
	</g>
	<g>
		<path d="M50.5,17.9L49.6,17c-0.2-0.2,0.1-0.6,0.4-0.4l0.9,0.9C51,17.8,50.7,18.1,50.5,17.9z"/>
	</g>
	<g>
		<path d="M51,16.8l-1.4-1.4c-0.2-0.2,0.1-0.6,0.4-0.4l1.4,1.4c0.1,0.1,0.1,0.3,0,0.4C51.3,16.9,51.1,16.9,51,16.8z"/>
	</g>
	<g>
		<path d="M43.7,23.7l3-3c0.2-0.2,0.6,0.1,0.4,0.4l-3,3C43.8,24.3,43.5,24,43.7,23.7z"/>
	</g>
	<g>
		<path d="M47.3,22.7l1.7-1.7c0.2-0.2,0.6,0.1,0.4,0.4L47.6,23C47.4,23.2,47.1,22.9,47.3,22.7z"/>
	</g>
	<g>
		<path d="M48.4,19.2l1.5-1.5c0.2-0.2,0.6,0.1,0.4,0.4l-1.5,1.5C48.5,19.8,48.2,19.4,48.4,19.2z"/>
	</g>
	<g>
		<path d="M49.4,16.4l1.1-1.1c0.2-0.2,0.6,0.1,0.4,0.4l-1.1,1.1C49.5,16.9,49.1,16.6,49.4,16.4z"/>
	</g>
	<g>
		<path d="M37.8,19.8c0.3-0.2,0.7,0.4,0.5,0.6C38,20.6,37.5,20,37.8,19.8z"/>
	</g>
	<g>
		<path d="M38.3,21.1c-0.2-0.2,0.1-0.6,0.3-0.4C38.9,21,38.5,21.3,38.3,21.1z"/>
	</g>
	<g>
		<path d="M39,21.2c0.1-0.3,0.7-0.1,0.6,0.2C39.5,21.7,38.8,21.5,39,21.2z"/>
	</g>
	<g>
		<path d="M40.1,21.4c0-0.4,0.5-0.4,0.5-0.1C40.6,21.7,40.1,21.7,40.1,21.4z"/>
	</g>
	<g>
		<path d="M33,16.8c0-0.1,0.1-0.2,0.3-0.2l0.1,0c0.1,0,0.2,0.1,0.2,0.3C33.6,17.3,33,17.2,33,16.8z"/>
	</g>
	<g>
		<path d="M34,17.4c-0.3-0.1-0.2-0.6,0.1-0.5L34,17.2l0.1-0.2C34.1,17.2,34.1,17.1,34,17.4z"/>
	</g>
	<g>
		<path d="M34.8,17.7c-0.5-0.1-0.3-0.6,0-0.5l-0.1,0.2l0.1-0.2C34.8,17.5,34.8,17.4,34.8,17.7z"/>
	</g>
	<g>
		<path d="M36.4,16.8c-0.2,0-0.8-0.7-1-0.9c-0.2-0.2,0.1-0.6,0.4-0.4l0.8,0.8c0.1,0.1,0.1,0.3,0,0.4C36.6,16.8,36.5,16.8,36.4,16.8z
			"/>
	</g>
	<g>
		<path d="M37.1,15.5c-0.3-0.3-0.8-0.7-0.6-0.9c0.3-0.3,0.6,0.3,0.9,0.6c0.1,0.1,0.1,0.3,0,0.4C37.3,15.6,37.2,15.6,37.1,15.5z"/>
	</g>
	<g>
		<path d="M37.4,13.6c-0.2-0.2,0.1-0.6,0.4-0.4l0.9,0.9c0.1,0.1,0.1,0.3,0,0.4C38.4,14.7,37.6,13.8,37.4,13.6z"/>
	</g>
	<g>
		<path d="M39.1,13.5l-0.8-0.8c-0.2-0.2,0.1-0.6,0.4-0.4l0.8,0.8c0.1,0.1,0.1,0.3,0,0.4C39.4,13.6,39.2,13.6,39.1,13.5z"/>
	</g>
	<g>
		<path d="M40.2,12.6l-0.7-0.7c-0.2-0.2,0.1-0.6,0.4-0.4l0.7,0.7c0.1,0.1,0.1,0.3,0,0.4C40.5,12.7,40.3,12.7,40.2,12.6z"/>
	</g>
	<g>
		<path d="M41.4,11.8l-1-1c-0.2-0.2,0.1-0.6,0.4-0.4l1,1c0.1,0.1,0.1,0.3,0,0.4C41.7,11.9,41.5,11.9,41.4,11.8z"/>
	</g>
	<g>
		<path d="M36,15.8l1.9-1.9c0.2-0.2,0.6,0.1,0.4,0.4l-1.9,1.9C36.1,16.4,35.8,16,36,15.8z"/>
	</g>
	<g>
		<path d="M38.4,12.9l0.8-0.8c0.2-0.2,0.6,0.1,0.4,0.4l-0.8,0.8C38.6,13.5,38.2,13.2,38.4,12.9z"/>
	</g>
	<g>
		<path d="M40.2,11.6l0.9-0.9c0.2-0.2,0.6,0.1,0.4,0.4l-0.9,0.9C40.3,12.2,40,11.8,40.2,11.6z"/>
	</g>
	<g>
		<path d="M30.9,17c0.3-0.2,0.6,0.3,0.3,0.5C30.9,17.7,30.6,17.2,30.9,17z"/>
	</g>
	<g>
		<path d="M30.6,18.2c-0.3,0-0.3-0.5,0-0.5c0.1,0,0.3,0.1,0.3,0.3C30.9,18.1,30.8,18.2,30.6,18.2z"/>
	</g>
	<g>
		<path d="M29.6,18.3c-0.1-0.3,0.4-0.5,0.5-0.2c0.1,0.2,0,0.3-0.2,0.3C29.8,18.5,29.6,18.5,29.6,18.3z"/>
	</g>
	<g>
		<path d="M25.2,21c0-0.2,0-0.4,0.3-0.4s0.3,0.2,0.3,0.4C25.7,21.3,25.2,21.3,25.2,21z"/>
	</g>
	<g>
		<path d="M24.8,21.8c0.1-0.3,0.5-0.3,0.5,0.1c0,0,0,0.1,0,0.1C25.2,22.2,24.7,22.3,24.8,21.8z"/>
	</g>
	<g>
		<path d="M24.6,23c-0.3,0-0.3-0.5,0-0.5C25,22.5,25,23,24.6,23z"/>
	</g>
	<g>
		<path d="M24.1,20l0.5-0.1l-0.2,0l0.2,0l0,0.1C24.7,20.3,24.2,20.5,24.1,20z"/>
	</g>
	<g>
		<path d="M17.9,31.8l-1.3-1.3c-0.2-0.2,0.1-0.6,0.4-0.4l1.3,1.3c0.1,0.1,0.1,0.3,0,0.4C18.2,31.9,18,31.9,17.9,31.8z"/>
	</g>
	<g>
		<path d="M19.3,31.1L18.1,30c-0.2-0.2,0.1-0.6,0.4-0.4l1.1,1.1c0.1,0.1,0.1,0.3,0,0.4C19.5,31.2,19.4,31.2,19.3,31.1z"/>
	</g>
	<g>
		<path d="M20.8,30.8l-1.4-1.4c-0.2-0.2,0.1-0.6,0.4-0.4l1.4,1.4c0.1,0.1,0.1,0.3,0,0.4C21,30.9,20.9,30.9,20.8,30.8z"/>
	</g>
	<g>
		<path d="M22.2,30.3L21,29.1c-0.2-0.2,0.1-0.6,0.4-0.4l1.2,1.2C22.8,30.2,22.4,30.5,22.2,30.3z"/>
	</g>
	<g>
		<path d="M23,29.8l-1.3-1.3c-0.2-0.2,0.1-0.6,0.4-0.4l1.3,1.3c0.1,0.1,0.1,0.3,0,0.4C23.3,29.9,23.1,29.9,23,29.8z"/>
	</g>
	<g>
		<path d="M16.7,31.4l2.1-2.1c0.2-0.2,0.6,0.1,0.4,0.4L17,31.7C16.8,31.9,16.4,31.6,16.7,31.4z"/>
	</g>
	<g>
		<path d="M20.3,30.2l1-1c0.2-0.2,0.6,0.1,0.4,0.4l-1,1C20.5,30.8,20.1,30.5,20.3,30.2z"/>
	</g>
	<g>
		<path d="M22.7,29.3c0.3-0.3,0.7-0.8,0.9-0.6c0.3,0.3-0.3,0.7-0.6,0.9C22.9,29.9,22.5,29.6,22.7,29.3z"/>
	</g>
	<g>
		<path d="M14.7,20.2c0.2-0.3,0.6-0.1,0.4,0.4C14.9,20.8,14.4,20.7,14.7,20.2z"/>
	</g>
	<g>
		<path d="M15.9,18.7c0.2-0.3,0.7,0,0.3,0.4C16.1,19.4,15.6,19.2,15.9,18.7z"/>
	</g>
	<g>
		<path d="M16.6,18.1c-0.1-0.2,0.1-0.3,0.3-0.5c0.3-0.2,0.5,0.3,0.2,0.4C17,18.2,16.8,18.3,16.6,18.1z"/>
	</g>
	<g>
		<path d="M18.5,16.8c0.3-0.1,0.6,0.3,0.2,0.5C18.4,17.4,18.1,17,18.5,16.8z"/>
	</g>
	<g>
		<path d="M13.8,30.3c0.4-0.1,0.5,0.5,0.1,0.5C13.6,31,13.4,30.4,13.8,30.3z"/>
	</g>
	<g>
		<path d="M12.8,31.3c0-0.1-0.1-0.2-0.1-0.3c0-0.1,0.2-0.2,0.3-0.2c0.1,0,0.1,0.1,0.2,0.1C13.5,31.3,13,31.7,12.8,31.3z"/>
	</g>
	<g>
		<path d="M14.6,31.7c-0.3,0-0.3-0.5,0-0.5C14.9,31.2,14.9,31.7,14.6,31.7z"/>
	</g>
	<g>
		<path d="M15.3,32.2c-0.2-0.3,0.1-0.6,0.3-0.4L15.4,32l0.2-0.2C15.4,32.1,15.5,32,15.3,32.2z"/>
	</g>
	<g>
		<path d="M8.1,32.9l2.4-2.4c0.2-0.2,0.6,0.1,0.4,0.4l-2.4,2.4C8.2,33.5,7.8,33.1,8.1,32.9z"/>
	</g>
	<g>
		<path d="M10.4,32.4l1.4-1.4c0.2-0.2,0.6,0.1,0.4,0.4l-1.4,1.4C10.5,33,10.1,32.7,10.4,32.4z"/>
	</g>
	<g>
		<path d="M7.6,31.5L9,30.1c0.2-0.2,0.6,0.1,0.4,0.4l-1.4,1.4C7.7,32.1,7.3,31.7,7.6,31.5z"/>
	</g>
	<g>
		<path d="M8.9,32.2l-1.4-1.4c-0.2-0.2,0.1-0.6,0.4-0.4l1.4,1.4c0.1,0.1,0.1,0.3,0,0.4C9.1,32.3,9,32.3,8.9,32.2z"/>
	</g>
	<g>
		<path d="M10.8,32.1l-1.2-1.2c-0.2-0.2,0.1-0.6,0.4-0.4l1.2,1.2C11.4,32,11.1,32.4,10.8,32.1z"/>
	</g>
	<g>
		<path d="M12.2,44.2L10.9,43c-0.1-0.1-0.1-0.3,0-0.4s0.3-0.1,0.4,0l1.2,1.2c0.1,0.1,0.1,0.3,0,0.4C12.4,44.3,12.3,44.3,12.2,44.2z"
			/>
	</g>
	<g>
		<path d="M13,42.8l-1.1-1.1c-0.2-0.2,0.1-0.6,0.4-0.4l1.1,1.1c0.1,0.1,0.1,0.3,0,0.4C13.2,42.9,13.1,42.9,13,42.8z"/>
	</g>
	<g>
		<path d="M13.7,41.2l-0.9-0.9c-0.2-0.2,0.1-0.6,0.4-0.4l0.9,0.9c0.1,0.1,0.1,0.3,0,0.4C13.9,41.3,13.8,41.3,13.7,41.2z"/>
	</g>
	<g>
		<path d="M14.6,39.6l-0.9-0.9c-0.1-0.1-0.1-0.3,0-0.4s0.3-0.1,0.4,0l0.9,0.9c0.1,0.1,0.1,0.3,0,0.4C14.9,39.7,14.7,39.7,14.6,39.6z
			"/>
	</g>
	<g>
		<path d="M10.4,44.5c-0.1,0-0.1,0-0.2-0.1c-0.1-0.1-0.1-0.3,0-0.4l1.9-1.9c0.2-0.2,0.6,0.1,0.4,0.4l-1.9,1.9
			C10.5,44.5,10.5,44.5,10.4,44.5z"/>
	</g>
	<g>
		<path d="M12.5,40.6l1.3-1.3c0.2-0.2,0.6,0.1,0.4,0.4L12.8,41C12.6,41.2,12.3,40.9,12.5,40.6z"/>
	</g>
	<g>
		<path d="M17.3,56.1l-1.2-1.2c-0.2-0.2,0.1-0.6,0.4-0.4l1.2,1.2c0.1,0.1,0.1,0.3,0,0.4C17.6,56.2,17.4,56.2,17.3,56.1z"/>
	</g>
	<g>
		<path d="M18.6,55.5L17.1,54c-0.1-0.1-0.1-0.3,0-0.4c0.1-0.1,0.3-0.1,0.4,0l1.5,1.5C19.2,55.4,18.8,55.7,18.6,55.5z"/>
	</g>
	<g>
		<path d="M19.5,54.2l-1.4-1.3c-0.2-0.2,0.1-0.6,0.4-0.4l1.4,1.3C20.1,54.1,19.8,54.4,19.5,54.2z"/>
	</g>
	<g>
		<path d="M19.3,52.5l-1.1-1.1c-0.2-0.2,0.1-0.6,0.4-0.4l1.1,1.1c0.1,0.1,0.1,0.3,0,0.4C19.5,52.6,19.4,52.6,19.3,52.5z"/>
	</g>
	<g>
		<path d="M15.8,55.4c-0.1-0.1-0.1-0.3,0-0.4l2-2c0.2-0.2,0.6,0.1,0.4,0.4l-2,2C16.1,55.5,15.9,55.5,15.8,55.4z"/>
	</g>
	<g>
		<path d="M18.2,55.1l1.3-1.3c0.2-0.2,0.6,0.1,0.4,0.4l-1.3,1.3C18.3,55.6,17.9,55.3,18.2,55.1z"/>
	</g>
	<g>
		<path d="M18.5,52.6l1-1c0.2-0.2,0.6,0.1,0.4,0.4l-1,1C18.7,53.2,18.3,52.9,18.5,52.6z"/>
	</g>
	<g>
		<path d="M19.2,46.9c-0.3-0.1-0.1-0.6,0.2-0.5c0.2,0.1,0.2,0.2,0.1,0.4C19.5,46.9,19.3,47,19.2,46.9z"/>
	</g>
	<g>
		<path d="M19.1,47.6c-0.3-0.2,0.1-0.7,0.3-0.5c0.2,0.1,0.1,0.3,0,0.4C19.4,47.6,19.2,47.7,19.1,47.6z"/>
	</g>
	<g>
		<path d="M18.5,48.2c0-0.3,0.5-0.3,0.5,0C19,48.5,18.5,48.5,18.5,48.2z"/>
	</g>
	<g>
		<path d="M27.7,60.2l-2-2c-0.1-0.1-0.1-0.3,0-0.4c0.1-0.1,0.3-0.1,0.4,0l2,2c0.1,0.1,0.1,0.3,0,0.4C28,60.3,27.8,60.3,27.7,60.2z"
			/>
	</g>
	<g>
		<path d="M29.7,60.1l-2-2c-0.1-0.1-0.1-0.3,0-0.4s0.3-0.1,0.4,0l2,2c0.1,0.1,0.1,0.3,0,0.4C30,60.2,29.8,60.2,29.7,60.1z"/>
	</g>
	<g>
		<path d="M30.8,59.1l-1.5-1.5c-0.1-0.1-0.1-0.3,0-0.4s0.3-0.1,0.4,0l1.5,1.5c0.1,0.1,0.1,0.3,0,0.4C31.1,59.2,30.9,59.2,30.8,59.1z
			"/>
	</g>
	<g>
		<path d="M25.7,59.8c-0.1,0-0.1,0-0.2-0.1c-0.1-0.1-0.1-0.3,0-0.4l2.3-2.3c0.1-0.1,0.3-0.1,0.4,0c0.1,0.1,0.1,0.3,0,0.4l-2.3,2.3
			C25.9,59.8,25.8,59.8,25.7,59.8z"/>
	</g>
	<g>
		<path d="M28.7,59.8l1.4-1.4c0.1-0.1,0.3-0.1,0.4,0s0.1,0.3,0,0.4l-1.4,1.4C28.9,60.4,28.5,60.1,28.7,59.8z"/>
	</g>
	<g>
		<path d="M29.1,57.8l0.8-0.8c0.1-0.1,0.3-0.1,0.4,0c0.1,0.1,0.1,0.3,0,0.4l-0.8,0.8C29.2,58.4,28.9,58,29.1,57.8z"/>
	</g>
</g>
</svg>
