<?xml version="1.0" encoding="utf-8"?>
<!-- Generator: Adobe Illustrator 23.1.0, SVG Export Plug-In . SVG Version: 6.00 Build 0)  -->
<svg version="1.1" id="Слой_1" xmlns="http://www.w3.org/2000/svg" xmlns:xlink="http://www.w3.org/1999/xlink" x="0px" y="0px"
	 viewBox="0 0 65 81.3" style="enable-background:new 0 0 65 81.3;" xml:space="preserve">
<g>
	<g>
		<g>
			<path d="M31.6,53.4c-20.8,0-20.9-0.7-20.3-17.7c0.2-6.7-0.1-7.3,0.7-7.2c43.8,0.3,41.9-0.2,41.9,0.6l0,16
				C53.9,52.8,50.4,53.4,31.6,53.4z M12.5,29.5c0,2.3-0.1,4.4-0.2,6.3c-0.4,12.8-0.5,15.8,8.5,16.3c8.3,0.5,16.7,0.4,25-0.2
				c6.1-0.5,7.1-2.4,7.1-6.8l0-15.5C39.4,29.5,26,29.6,12.5,29.5z"/>
		</g>
		<g>
			<path d="M53.3,38.8c-1.8,0,1.6-4.2,6.8-3.3c0.8,0.1,1.5,0.2,2.1,0c1.6-0.6,2.1-3.4-0.4-4.6c-2.8-1.4-5.9,0.8-7.7,2.1
				c-0.2,0.2-0.5,0.1-0.7-0.1c-0.2-0.2-0.1-0.5,0.1-0.7c1.1-0.8,2.2-1.5,3.5-2.1c8.1-3.3,10.6,7.7,2.9,6.4c-2.8-0.5-4.9,0.5-6.2,2.1
				C53.5,38.7,53.4,38.8,53.3,38.8z"/>
		</g>
		<g>
			<path d="M11.7,38.8c-0.1,0-0.3-0.1-0.4-0.2c-3-3.7-6.8-1.5-8.8-2.2c-1.5-0.5-2.3-2.3-1.9-3.9C1.2,30.3,4.1,28.4,8,30
				c1.3,0.5,2.4,1.3,3.5,2.1c0.2,0.2,0.3,0.5,0.1,0.7c-0.2,0.2-0.5,0.3-0.7,0.1c-1.6-1.1-4.9-3.5-7.7-2.1c-0.8,0.4-1.5,1.1-1.7,1.9
				c-0.3,1.1,0.3,2.3,1.3,2.7c0.9,0.3,2,0,3-0.1c2.4-0.2,4.8,0.8,6.3,2.6c0.2,0.2,0.1,0.5-0.1,0.7C11.9,38.7,11.8,38.8,11.7,38.8z"
				/>
		</g>
		<g>
			<g>
				<path d="M53.2,26.1H12.4c-0.2,0-0.4-0.1-0.5-0.3s-0.1-0.4,0.1-0.5c3.7-4.5,10-6.9,18.9-6.9C48.4,18.4,55.6,26.1,53.2,26.1z
					 M13.5,25.1h38.4C43.6,18.3,21.5,16.6,13.5,25.1z"/>
			</g>
			<g>
				<path d="M30.4,18.7c0.3-0.8,0-1.6-1.1-2.2c-2.3-1.1-1.6-3.1,0.1-4.1c4.5-2.6,11.1,1,7.3,3.9c-0.4,0.3-1,0.7-1.3,1.1
					c-0.2,0.3-0.2,0.8,0.1,0.9c0.6,0.3,0.2,1.2-0.4,0.9c-0.9-0.4-1-1.6-0.5-2.4c0.5-0.8,2.3-1.6,2.3-2.5c0-0.4-0.5-0.8-0.8-1
					c-3-1.9-6.8-0.4-7.2,1.1c-0.2,0.9,0.8,1,1.6,1.6c0.9,0.6,1.3,1.9,1,3C31.1,19.6,30.2,19.3,30.4,18.7z"/>
			</g>
		</g>
	</g>
	<g>
		<path d="M49.7,51.4c-0.2,0-4.4-4.3-4.5-4.4c-0.2-0.2,0.1-0.6,0.4-0.4l4.3,4.3C50.1,51.1,49.9,51.4,49.7,51.4z"/>
	</g>
	<g>
		<path d="M51.5,50.4L47,45.9c-0.2-0.2,0.1-0.6,0.4-0.4l4.5,4.5C52.1,50.3,51.7,50.6,51.5,50.4z"/>
	</g>
	<g>
		<path d="M52.4,48.7l-4-4c-0.2-0.2,0.1-0.6,0.4-0.4l4,4c0.1,0.1,0.1,0.3,0,0.4C52.7,48.8,52.5,48.8,52.4,48.7z"/>
	</g>
	<g>
		<path d="M52.9,46.5L49.3,43c-0.2-0.2,0.1-0.6,0.4-0.4l3.6,3.6c0.1,0.1,0.1,0.3,0,0.4C53.2,46.6,53,46.6,52.9,46.5z"/>
	</g>
	<g>
		<path d="M53.1,44l-2.7-2.7c-0.2-0.2,0.1-0.6,0.4-0.4l2.7,2.7c0.1,0.1,0.1,0.3,0,0.4C53.4,44.1,53.2,44.1,53.1,44z"/>
	</g>
	<g>
		<path d="M53.1,41.4l-2.1-2.1c-0.2-0.2,0.1-0.6,0.4-0.4l2.1,2.1c0.1,0.1,0.1,0.3,0,0.4C53.3,41.5,53.2,41.5,53.1,41.4z"/>
	</g>
	<g>
		<path d="M52.9,38.1l-1.4-1.4c-0.1-0.1-0.1-0.3,0-0.4c0.1-0.1,0.3-0.1,0.4,0l1.4,1.4c0.1,0.1,0.1,0.3,0,0.4
			C53.1,38.2,53,38.2,52.9,38.1z"/>
	</g>
	<g>
		<path d="M52.9,35.9l-1.4-1.4c-0.2-0.2,0.1-0.6,0.4-0.4l1.4,1.4c0.1,0.1,0.1,0.3,0,0.4C53.2,36,53,36,52.9,35.9z"/>
	</g>
	<g>
		<path d="M52.9,33.7l-1.1-1.1c-0.1-0.1-0.1-0.3,0-0.4c0.1-0.1,0.3-0.1,0.4,0l1.1,1.1c0.1,0.1,0.1,0.3,0,0.4
			C53.1,33.7,53,33.8,52.9,33.7z"/>
	</g>
	<g>
		<path d="M53.2,31.8L52,30.6c-0.2-0.2,0.1-0.6,0.4-0.4l1.2,1.2c0.1,0.1,0.1,0.3,0,0.4C53.4,31.9,53.3,31.9,53.2,31.8z"/>
	</g>
	<g>
		<path d="M46.6,51.8l-3.8-3.8c-0.1-0.1-0.1-0.3,0-0.4c0.1-0.1,0.3-0.1,0.4,0l3.8,3.8C47.2,51.7,46.8,52.1,46.6,51.8z"/>
	</g>
	<g>
		<path d="M43.4,52.3L40,49c-0.2-0.2,0.1-0.6,0.4-0.4l3.3,3.3c0.1,0.1,0.1,0.3,0,0.4C43.6,52.4,43.5,52.4,43.4,52.3z"/>
	</g>
	<g>
		<path d="M39.3,52.6l-3-3c-0.1-0.1-0.1-0.3,0-0.4c0.1-0.1,0.3-0.1,0.4,0l3,3C39.9,52.5,39.5,52.8,39.3,52.6z"/>
	</g>
	<g>
		<path d="M36.5,53.1l-3.2-3.2c-0.1-0.1-0.1-0.3,0-0.4s0.3-0.1,0.4,0l3.2,3.2c0.1,0.1,0.1,0.3,0,0.4C36.8,53.2,36.6,53.2,36.5,53.1z
			"/>
	</g>
	<g>
		<path d="M33.9,53.4l-3.6-3.6c-0.1-0.1-0.1-0.3,0-0.4s0.3-0.1,0.4,0l3.6,3.6c0.1,0.1,0.1,0.3,0,0.4C34.2,53.5,34,53.5,33.9,53.4z"
			/>
	</g>
	<g>
		<path d="M31.2,53.1l-3-3c-0.2-0.2,0.1-0.6,0.4-0.4l3,3C31.8,53,31.4,53.3,31.2,53.1z"/>
	</g>
	<g>
		<path d="M27.6,53.2l-2.9-2.9c-0.2-0.2,0.1-0.6,0.4-0.4l2.9,2.9c0.1,0.1,0.1,0.3,0,0.4C27.8,53.3,27.7,53.3,27.6,53.2z"/>
	</g>
	<g>
		<path d="M24.3,52.7L22,50.3c-0.2-0.2,0.1-0.6,0.4-0.4l2.4,2.4c0.1,0.1,0.1,0.3,0,0.4C24.6,52.8,24.4,52.8,24.3,52.7z"/>
	</g>
	<g>
		<path d="M20.2,52.4l-1.9-1.9c-0.2-0.2,0.1-0.6,0.4-0.4l1.9,1.9C20.8,52.3,20.4,52.6,20.2,52.4z"/>
	</g>
	<g>
		<path d="M17.5,51.8l-1.3-1.3c-0.2-0.2,0.1-0.6,0.4-0.4l1.3,1.3C18.1,51.7,17.8,52,17.5,51.8z"/>
	</g>
	<g>
		<path d="M15.8,51.7L15,50.9c-0.2-0.2,0.1-0.6,0.4-0.4l0.8,0.8c0.1,0.1,0.1,0.3,0,0.4C16.1,51.8,15.9,51.8,15.8,51.7z"/>
	</g>
	<g>
		<path d="M15.5,51.8c-0.2,0-0.3-0.3-0.2-0.4l1.3-1.3c0.2-0.2,0.6,0.1,0.4,0.4C16.8,50.6,15.6,51.8,15.5,51.8z"/>
	</g>
	<g>
		<path d="M17,52.1l2.8-2.8c0.2-0.2,0.6,0.1,0.4,0.4l-2.8,2.8C17.1,52.7,16.7,52.3,17,52.1z"/>
	</g>
	<g>
		<path d="M19.8,52.5l3.7-3.7c0.2-0.2,0.6,0.1,0.4,0.4l-3.7,3.7C20,53.1,19.6,52.8,19.8,52.5z"/>
	</g>
	<g>
		<path d="M24.1,52.5l3.2-3.2c0.2-0.2,0.6,0.1,0.4,0.4l-3.2,3.2C24.3,53.1,23.9,52.7,24.1,52.5z"/>
	</g>
	<g>
		<path d="M27.6,52.6l3.9-3.9c0.1-0.1,0.3-0.1,0.4,0s0.1,0.3,0,0.4L28,52.9C27.7,53.2,27.4,52.8,27.6,52.6z"/>
	</g>
	<g>
		<path d="M31.7,52.9l4.7-4.8c0.1-0.1,0.3-0.1,0.4,0s0.1,0.3,0,0.4l-4.8,4.8C31.8,53.5,31.5,53.1,31.7,52.9z"/>
	</g>
	<g>
		<path d="M36,52.8l4.5-4.5c0.1-0.1,0.3-0.1,0.4,0s0.1,0.3,0,0.4l-4.5,4.5C36.1,53.4,35.8,53.1,36,52.8z"/>
	</g>
	<g>
		<path d="M39,52.3l7-7c0.2-0.2,0.6,0.1,0.4,0.4l-7,7C39.2,52.9,38.8,52.6,39,52.3z"/>
	</g>
	<g>
		<path d="M43.9,52.2c-0.1-0.1-0.1-0.3,0-0.4l6-6c0.2-0.2,0.6,0.1,0.4,0.4l-6,6C44.1,52.3,44,52.3,43.9,52.2z"/>
	</g>
	<g>
		<path d="M49,50.6l2.5-2.5c0.2-0.2,0.6,0.1,0.4,0.4l-2.5,2.5C49.1,51.2,48.8,50.8,49,50.6z"/>
	</g>
	<g>
		<path d="M48.2,44.8l3.3-3.3c0.2-0.2,0.6,0.1,0.4,0.4l-3.3,3.3C48.4,45.4,48,45.1,48.2,44.8z"/>
	</g>
	<g>
		<path d="M51.2,46.1l2.2-2.2c0.2-0.2,0.6,0.1,0.4,0.4l-2.2,2.2C51.4,46.6,51,46.3,51.2,46.1z"/>
	</g>
	<g>
		<path d="M50.6,39.8l1.9-1.9c0.2-0.2,0.6,0.1,0.4,0.4L51,40.1C50.7,40.3,50.4,40,50.6,39.8z"/>
	</g>
	<g>
		<path d="M51.1,36.6l1.4-1.4c0.2-0.2,0.6,0.1,0.4,0.4L51.5,37C51.2,37.2,50.9,36.9,51.1,36.6z"/>
	</g>
	<g>
		<path d="M51.3,33.8l1.4-1.4c0.2-0.2,0.6,0.1,0.4,0.4l-1.4,1.4C51.5,34.4,51.1,34.1,51.3,33.8z"/>
	</g>
	<g>
		<path d="M51.6,31.5l1.3-1.3c0.2-0.2,0.6,0.1,0.4,0.4L52,31.9C51.7,32.1,51.4,31.8,51.6,31.5z"/>
	</g>
	<g>
		<path d="M55.1,34.5L53.5,33c-0.2-0.2,0.1-0.6,0.4-0.4l1.5,1.5c0.1,0.1,0.1,0.3,0,0.4C55.3,34.6,55.2,34.6,55.1,34.5z"/>
	</g>
	<g>
		<path d="M56,33.5l-1.3-1.3c-0.2-0.2,0.1-0.6,0.4-0.4l1.3,1.3c0.1,0.1,0.1,0.3,0,0.4C56.3,33.6,56.1,33.6,56,33.5z"/>
	</g>
	<g>
		<path d="M57.6,32.7l-1.2-1.2c-0.2-0.2,0.1-0.6,0.4-0.4l1.2,1.2C58.2,32.6,57.8,32.9,57.6,32.7z"/>
	</g>
	<g>
		<path d="M54.7,36.3l-1.2-1.2c-0.1-0.1-0.1-0.3,0-0.4s0.3-0.1,0.4,0L55,36c0.1,0.1,0.1,0.3,0,0.4C54.9,36.4,54.8,36.4,54.7,36.3z"
			/>
	</g>
	<g>
		<path d="M53.6,36.2l1.3-1.3c0.2-0.2,0.6,0.1,0.4,0.4l-1.3,1.3C53.7,36.8,53.4,36.4,53.6,36.2z"/>
	</g>
	<g>
		<path d="M54.2,33.4l1.5-1.5c0.2-0.2,0.6,0.1,0.4,0.4l-1.5,1.5C54.3,34,54,33.6,54.2,33.4z"/>
	</g>
	<g>
		<path d="M56.4,32.5l1.1-1.1c0.2-0.2,0.6,0.1,0.4,0.4l-1.1,1.1C56.6,33.1,56.2,32.8,56.4,32.5z"/>
	</g>
	<g>
		<path d="M10.9,36.7c-0.1,0-0.1,0-0.2-0.1l-1.5-1.5c-0.1-0.1-0.1-0.3,0-0.4c0.1-0.1,0.3-0.1,0.4,0l1.5,1.5c0.1,0.1,0.1,0.3,0,0.4
			C11.1,36.7,11,36.7,10.9,36.7z"/>
	</g>
	<g>
		<path d="M11.4,34.9c-0.1,0-0.1,0-0.2-0.1l-1-1c-0.1-0.1-0.1-0.3,0-0.4c0.1-0.1,0.3-0.1,0.4,0l1,1c0.1,0.1,0.1,0.3,0,0.4
			C11.5,34.9,11.5,34.9,11.4,34.9z"/>
	</g>
	<g>
		<path d="M10.8,33.5c-0.1,0-0.1,0-0.2-0.1l-0.9-0.9c-0.1-0.1-0.1-0.3,0-0.4c0.1-0.1,0.3-0.1,0.4,0l0.9,0.9c0.1,0.1,0.1,0.3,0,0.4
			C11,33.5,10.9,33.5,10.8,33.5z"/>
	</g>
	<g>
		<path d="M8.7,35.8c-0.1,0-0.1,0-0.2-0.1l-1.1-1.1c-0.2-0.2,0.1-0.6,0.4-0.4l1.1,1.1c0.1,0.1,0.1,0.3,0,0.4
			C8.8,35.8,8.8,35.8,8.7,35.8z"/>
	</g>
	<g>
		<path d="M6.7,35.9L5.8,35c-0.2-0.2,0.1-0.6,0.4-0.4l0.9,0.9c0.1,0.1,0.1,0.3,0,0.4C7,36,6.8,36,6.7,35.9z"/>
	</g>
	<g>
		<path d="M5.8,35.3L7,34.1c0.2-0.2,0.6,0.1,0.4,0.4l-1.3,1.3C5.9,35.9,5.6,35.6,5.8,35.3z"/>
	</g>
	<g>
		<path d="M7.8,35.4L9,34.2c0.1-0.1,0.3-0.1,0.4,0c0.1,0.1,0.1,0.3,0,0.4l-1.2,1.2C8,36,7.6,35.6,7.8,35.4z"/>
	</g>
	<g>
		<path d="M10,36.4c-0.1,0-0.1,0-0.2-0.1c-0.1-0.1-0.1-0.3,0-0.4l1.2-1.2c0.1-0.1,0.3-0.1,0.4,0c0.1,0.1,0.1,0.3,0,0.4l-1.2,1.2
			C10.1,36.4,10.1,36.4,10,36.4z"/>
	</g>
	<g>
		<path d="M10.1,34.7c-0.1,0-0.1,0-0.2-0.1c-0.1-0.1-0.1-0.3,0-0.4l0.8-0.8c0.1-0.1,0.3-0.1,0.4,0c0.1,0.1,0.1,0.3,0,0.4l-0.8,0.8
			C10.3,34.6,10.2,34.7,10.1,34.7z"/>
	</g>
	<g>
		<path d="M9.7,33.1c-0.1,0-0.1,0-0.2-0.1c-0.1-0.1-0.1-0.3,0-0.4l1.1-1.1c0.2-0.2,0.6,0.1,0.4,0.4l-1.1,1.1
			C9.8,33.1,9.7,33.1,9.7,33.1z"/>
	</g>
	<g>
		<path d="M36.4,25.7L34,23.3c-0.2-0.2,0.1-0.6,0.4-0.4l2.3,2.4C37,25.6,36.6,25.9,36.4,25.7z"/>
	</g>
	<g>
		<path d="M38.6,25.2l-2.5-2.5c-0.2-0.2,0.1-0.6,0.4-0.4l2.5,2.5c0.1,0.1,0.1,0.3,0,0.4C38.9,25.3,38.7,25.3,38.6,25.2z"/>
	</g>
	<g>
		<path d="M41.3,24.9l-2.5-2.5c-0.2-0.2,0.1-0.6,0.4-0.4l2.5,2.5c0.1,0.1,0.1,0.3,0,0.4C41.5,25,41.4,25,41.3,24.9z"/>
	</g>
	<g>
		<path d="M43.6,24.4l-2.2-2.2c-0.2-0.2,0.1-0.6,0.4-0.4L44,24c0.1,0.1,0.1,0.3,0,0.4C43.9,24.5,43.7,24.5,43.6,24.4z"/>
	</g>
	<g>
		<path d="M45.7,24.4l-2.3-2.3c-0.2-0.2,0.1-0.6,0.4-0.4L46,24C46.2,24.2,45.9,24.6,45.7,24.4z"/>
	</g>
	<g>
		<path d="M46.8,23.6l-1.7-1.7c-0.2-0.2,0.1-0.6,0.4-0.4l1.7,1.7c0.1,0.1,0.1,0.3,0,0.4C47.1,23.7,46.9,23.7,46.8,23.6z"/>
	</g>
	<g>
		<path d="M32.7,25.3L31.4,24c-0.2-0.2,0.1-0.6,0.4-0.4l1.3,1.3C33.3,25.2,32.9,25.5,32.7,25.3z"/>
	</g>
	<g>
		<path d="M29.5,25.5l-1.4-1.4c-0.2-0.2,0.1-0.6,0.4-0.4l1.4,1.4c0.1,0.1,0.1,0.3,0,0.4C29.8,25.6,29.6,25.6,29.5,25.5z"/>
	</g>
	<g>
		<path d="M26.8,25.5l-1.1-1.1c-0.2-0.2,0.1-0.6,0.4-0.4l1.1,1.1c0.1,0.1,0.1,0.3,0,0.4C27.1,25.6,26.9,25.6,26.8,25.5z"/>
	</g>
	<g>
		<path d="M23.9,25.5l-1-1c-0.2-0.2,0.1-0.6,0.4-0.4l1,1c0.1,0.1,0.1,0.3,0,0.4C24.1,25.6,24,25.6,23.9,25.5z"/>
	</g>
	<g>
		<path d="M19.9,25.6l-0.7-0.7c-0.2-0.2,0.1-0.6,0.4-0.4l0.7,0.7c0.1,0.1,0.1,0.3,0,0.4C20.1,25.7,20,25.7,19.9,25.6z"/>
	</g>
	<g>
		<path d="M18.9,25.2l1.8-1.8c0.2-0.2,0.6,0.1,0.4,0.4l-1.8,1.8C19,25.8,18.7,25.5,18.9,25.2z"/>
	</g>
	<g>
		<path d="M21.8,25.3l1.8-1.8c0.2-0.2,0.6,0.1,0.4,0.4l-1.8,1.8C21.9,25.9,21.5,25.5,21.8,25.3z"/>
	</g>
	<g>
		<path d="M25,25.2l2.2-2.2c0.2-0.2,0.6,0.1,0.4,0.4l-2.2,2.2C25.1,25.8,24.7,25.4,25,25.2z"/>
	</g>
	<g>
		<path d="M27.9,24.9l2.2-2.2c0.2-0.2,0.6,0.1,0.4,0.4l-2.2,2.2C28,25.5,27.7,25.1,27.9,24.9z"/>
	</g>
	<g>
		<path d="M32.3,24.8l3.6-3.6c0.2-0.2,0.6,0.1,0.4,0.4l-3.6,3.6C32.4,25.4,32,25,32.3,24.8z"/>
	</g>
	<g>
		<path d="M36.1,24.8l3.5-3.5c0.2-0.2,0.6,0.1,0.4,0.4l-3.5,3.5C36.2,25.3,35.8,25,36.1,24.8z"/>
	</g>
	<g>
		<path d="M40,24.6l3.2-3.2c0.2-0.2,0.6,0.1,0.4,0.4L40.3,25C40.1,25.2,39.8,24.9,40,24.6z"/>
	</g>
	<g>
		<path d="M43.8,24.6l3.3-3.3c0.2-0.2,0.6,0.1,0.4,0.4L44.1,25C43.9,25.2,43.6,24.9,43.8,24.6z"/>
	</g>
	<g>
		<path d="M46.7,25l2.4-2.4c0.2-0.2,0.6,0.1,0.4,0.4L47,25.4C46.8,25.6,46.5,25.3,46.7,25z"/>
	</g>
	<g>
		<path d="M49.4,25.3l1.1-1.1c0.2-0.2,0.6,0.1,0.4,0.4l-1.1,1.1C49.6,25.9,49.2,25.5,49.4,25.3z"/>
	</g>
	<g>
		<path d="M48.8,25.5L47.3,24c-0.2-0.2,0.1-0.6,0.4-0.4l1.5,1.5C49.4,25.4,49.1,25.7,48.8,25.5z"/>
	</g>
	<g>
		<path d="M50.7,25.3l-1.4-1.4c-0.2-0.2,0.1-0.6,0.4-0.4L51,25c0.1,0.1,0.1,0.3,0,0.4C50.9,25.4,50.8,25.4,50.7,25.3z"/>
	</g>
	<g>
		<path d="M34,18.6l-1.1-1.1c-0.2-0.2,0.1-0.6,0.4-0.4l1.1,1.1c0.1,0.1,0.1,0.3,0,0.4C34.2,18.7,34.1,18.7,34,18.6z"/>
	</g>
	<g>
		<path d="M34.7,17.1l-0.8-0.8c-0.2-0.2,0.1-0.6,0.4-0.4l0.8,0.8C35.3,17,34.9,17.3,34.7,17.1z"/>
	</g>
	<g>
		<path d="M35.6,16l-0.8-0.8c-0.2-0.2,0.1-0.6,0.4-0.4l0.8,0.8C36.2,15.8,35.8,16.2,35.6,16z"/>
	</g>
	<g>
		<path d="M36.6,15.1l-0.9-0.9c-0.2-0.2,0.1-0.6,0.4-0.4l0.9,0.9c0.1,0.1,0.1,0.3,0,0.4C36.9,15.2,36.7,15.2,36.6,15.1z"/>
	</g>
	<g>
		<path d="M31.5,17.5c-0.2-0.2,0.1-0.6,0.4-0.4l0.9,0.9c0.1,0.1,0.1,0.3,0,0.4C32.5,18.7,31.8,17.8,31.5,17.5z"/>
	</g>
	<g>
		<path d="M31.3,18l1.1-1.1c0.2-0.2,0.6,0.1,0.4,0.4l-1.1,1.1C31.4,18.6,31,18.2,31.3,18z"/>
	</g>
	<g>
		<path d="M33.1,18.6c-0.1-0.1-0.1-0.3,0-0.4l1-1c0.2-0.2,0.6,0.1,0.4,0.4l-1,1C33.4,18.7,33.2,18.7,33.1,18.6z"/>
	</g>
	<g>
		<path d="M33.7,16.2l1.4-1.4c0.2-0.2,0.6,0.1,0.4,0.4l-1.4,1.4C33.8,16.8,33.5,16.4,33.7,16.2z"/>
	</g>
	<g>
		<path d="M35.8,14.6c-0.2-0.2,0.2-0.6,0.5-0.8c0.2-0.2,0.6,0.1,0.4,0.4C36.4,14.4,36,14.8,35.8,14.6z"/>
	</g>
	<g>
		<g>
			<path d="M22.3,40.3l-3.6-3.6c-0.2-0.2,0.1-0.6,0.4-0.4l3.6,3.6c0.1,0.1,0.1,0.3,0,0.4C22.5,40.4,22.4,40.4,22.3,40.3z"/>
		</g>
		<g>
			<path d="M25.5,39.7c-0.1,0-0.1,0-0.2-0.1L21.7,36c-0.2-0.2,0.1-0.6,0.4-0.4l3.6,3.6c0.1,0.1,0.1,0.3,0,0.4
				C25.6,39.7,25.6,39.7,25.5,39.7z"/>
		</g>
		<g>
			<path d="M28.7,38.9l-3.4-3.4c-0.2-0.2,0.1-0.6,0.4-0.4l3.4,3.4c0.1,0.1,0.1,0.3,0,0.4C28.9,39,28.8,39,28.7,38.9z"/>
		</g>
		<g>
			<path d="M20,39.6l5.5-5.5c0.1-0.1,0.3-0.1,0.4,0s0.1,0.3,0,0.4L20.3,40C20.1,40.2,19.7,39.8,20,39.6z"/>
		</g>
		<g>
			<path d="M26.4,38.5c-0.1,0-0.1,0-0.2-0.1c-0.1-0.1-0.1-0.3,0-0.4l1.9-1.9c0.1-0.1,0.3-0.1,0.4,0c0.1,0.1,0.1,0.3,0,0.4l-1.9,1.9
				C26.5,38.5,26.5,38.5,26.4,38.5z"/>
		</g>
		<g>
			<path d="M18.1,38.5l1.8-1.8c0.2-0.2,0.6,0.1,0.4,0.4l-1.8,1.8C18.2,39.1,17.8,38.8,18.1,38.5z"/>
		</g>
		<g>
			<path d="M23.3,38.9l1.6-1.6c0.2-0.2,0.6,0.1,0.4,0.4l-1.6,1.6C23.4,39.5,23,39.1,23.3,38.9z"/>
		</g>
		<g>
			<path d="M22.9,35l0.8-0.8c0.2-0.2,0.6,0.1,0.4,0.4l-0.8,0.8C23,35.6,22.7,35.2,22.9,35z"/>
		</g>
	</g>
</g>
</svg>
